solid OpenSCAD_Model
  facet normal -0.406706 -0.913559 0
    outer loop
      vertex -2.18694 19.273 0
      vertex -0.563585 18.5503 5
      vertex -2.18694 19.273 5
    endloop
  endfacet
  facet normal -0.406706 -0.913559 -0
    outer loop
      vertex -0.563585 18.5503 5
      vertex -2.18694 19.273 0
      vertex -0.563585 18.5503 0
    endloop
  endfacet
  facet normal 0.587787 0.809016 -0
    outer loop
      vertex -9.06359 3.82782 0
      vertex -10.5012 4.87231 5
      vertex -9.06359 3.82782 5
    endloop
  endfacet
  facet normal 0.587787 0.809016 0
    outer loop
      vertex -10.5012 4.87231 5
      vertex -9.06359 3.82782 0
      vertex -10.5012 4.87231 0
    endloop
  endfacet
  facet normal 0.866022 -0.500007 0
    outer loop
      vertex -12.5787 14.6463 5
      vertex -11.6902 16.1852 0
      vertex -11.6902 16.1852 5
    endloop
  endfacet
  facet normal 0.866022 -0.500007 0
    outer loop
      vertex -11.6902 16.1852 0
      vertex -12.5787 14.6463 5
      vertex -12.5787 14.6463 0
    endloop
  endfacet
  facet normal 0.406705 -0.913559 0
    outer loop
      vertex -9.06359 18.5503 0
      vertex -7.44023 19.273 5
      vertex -9.06359 18.5503 5
    endloop
  endfacet
  facet normal 0.406705 -0.913559 0
    outer loop
      vertex -7.44023 19.273 5
      vertex -9.06359 18.5503 0
      vertex -7.44023 19.273 0
    endloop
  endfacet
  facet normal 0.994518 0.104561 0
    outer loop
      vertex -13.1278 9.42179 5
      vertex -13.3136 11.189 0
      vertex -13.3136 11.189 5
    endloop
  endfacet
  facet normal 0.994518 0.104561 0
    outer loop
      vertex -13.3136 11.189 0
      vertex -13.1278 9.42179 5
      vertex -13.1278 9.42179 0
    endloop
  endfacet
  facet normal 0.994519 -0.104556 0
    outer loop
      vertex -13.3136 11.189 5
      vertex -13.1278 12.9563 0
      vertex -13.1278 12.9563 5
    endloop
  endfacet
  facet normal 0.994519 -0.104556 0
    outer loop
      vertex -13.1278 12.9563 0
      vertex -13.3136 11.189 5
      vertex -13.3136 11.189 0
    endloop
  endfacet
  facet normal 0 0 1
    outer loop
      vertex -1.5622 5.06454 0
      vertex 3.68641 11.189 0
      vertex 3.50067 12.9563 0
    endloop
  endfacet
  facet normal 0 0 1
    outer loop
      vertex 3.68641 11.189 0
      vertex -0.789924 5.2408 0
      vertex 3.50067 9.42179 0
    endloop
  endfacet
  facet normal 0 0 1
    outer loop
      vertex -1.5622 5.06454 0
      vertex 3.50067 12.9563 0
      vertex 2.95155 14.6463 0
    endloop
  endfacet
  facet normal 0 0 1
    outer loop
      vertex 3.50067 9.42179 0
      vertex -0.789924 5.2408 0
      vertex 2.95155 7.73178 0
    endloop
  endfacet
  facet normal 0 0 1
    outer loop
      vertex -1.5622 5.06454 0
      vertex 2.95155 14.6463 0
      vertex 2.06306 16.1852 0
    endloop
  endfacet
  facet normal 0 -0 1
    outer loop
      vertex 1.41494e-08 5.3 0
      vertex 2.95155 7.73178 0
      vertex -0.789924 5.2408 0
    endloop
  endfacet
  facet normal 0 0 1
    outer loop
      vertex -1.5622 5.06454 0
      vertex 2.06306 16.1852 0
      vertex 0.874024 17.5058 0
    endloop
  endfacet
  facet normal 0 0 1
    outer loop
      vertex 2.06306 6.19287 0
      vertex 0.789924 5.2408 0
      vertex 1.13492 5.16206 0
    endloop
  endfacet
  facet normal 0 0 1
    outer loop
      vertex 2.06306 6.19287 0
      vertex 1.41494e-08 5.3 0
      vertex 0.789924 5.2408 0
    endloop
  endfacet
  facet normal 0 0 1
    outer loop
      vertex -1.5622 5.06454 0
      vertex 0.874024 17.5058 0
      vertex -0.563585 18.5503 0
    endloop
  endfacet
  facet normal 0 0 1
    outer loop
      vertex 2.95155 7.73178 0
      vertex 1.41494e-08 5.3 0
      vertex 2.06306 6.19287 0
    endloop
  endfacet
  facet normal 0 0 1
    outer loop
      vertex 3.68641 11.189 0
      vertex -1.5622 5.06454 0
      vertex -0.789924 5.2408 0
    endloop
  endfacet
  facet normal 0 0 1
    outer loop
      vertex -2.18694 19.273 0
      vertex -1.5622 5.06454 0
      vertex -0.563585 18.5503 0
    endloop
  endfacet
  facet normal 0 0 1
    outer loop
      vertex -3.92509 19.6425 0
      vertex -1.5622 5.06454 0
      vertex -2.18694 19.273 0
    endloop
  endfacet
  facet normal 0 0 1
    outer loop
      vertex -1.5622 5.06454 0
      vertex -3.92509 19.6425 0
      vertex -2.29958 4.77514 0
    endloop
  endfacet
  facet normal -0 0 1
    outer loop
      vertex -5.70208 19.6425 0
      vertex -2.29958 4.77514 0
      vertex -3.92509 19.6425 0
    endloop
  endfacet
  facet normal -0 0 1
    outer loop
      vertex -7.44023 19.273 0
      vertex -2.29958 4.77514 0
      vertex -5.70208 19.6425 0
    endloop
  endfacet
  facet normal -0 0 1
    outer loop
      vertex -9.06359 18.5503 0
      vertex -2.29958 4.77514 0
      vertex -7.44023 19.273 0
    endloop
  endfacet
  facet normal -0 0 1
    outer loop
      vertex -10.5012 17.5058 0
      vertex -2.29958 4.77514 0
      vertex -9.06359 18.5503 0
    endloop
  endfacet
  facet normal -0 0 1
    outer loop
      vertex -11.6902 16.1852 0
      vertex -2.29958 4.77514 0
      vertex -10.5012 17.5058 0
    endloop
  endfacet
  facet normal -0 0 1
    outer loop
      vertex -12.5787 14.6463 0
      vertex -2.29958 4.77514 0
      vertex -11.6902 16.1852 0
    endloop
  endfacet
  facet normal -0 0 1
    outer loop
      vertex -13.1278 12.9563 0
      vertex -2.29958 4.77514 0
      vertex -12.5787 14.6463 0
    endloop
  endfacet
  facet normal 0 0 1
    outer loop
      vertex -4.14371 3.3045 0
      vertex -5.70208 2.7356 0
      vertex -4.53157 2.7356 0
    endloop
  endfacet
  facet normal 0 -0 1
    outer loop
      vertex -5.70208 2.7356 0
      vertex -3.60492 3.88518 0
      vertex -7.44023 3.10506 0
    endloop
  endfacet
  facet normal 0 0 1
    outer loop
      vertex -3.60492 3.88518 0
      vertex -5.70208 2.7356 0
      vertex -4.14371 3.3045 0
    endloop
  endfacet
  facet normal -0 0 1
    outer loop
      vertex -13.3136 11.189 0
      vertex -2.29958 4.77514 0
      vertex -13.1278 12.9563 0
    endloop
  endfacet
  facet normal 0 -0 1
    outer loop
      vertex -7.44023 3.10506 0
      vertex -3.60492 3.88518 0
      vertex -9.06359 3.82782 0
    endloop
  endfacet
  facet normal -0 -0 1
    outer loop
      vertex -13.1278 9.42179 0
      vertex -2.29958 4.77514 0
      vertex -13.3136 11.189 0
    endloop
  endfacet
  facet normal 0 0 1
    outer loop
      vertex -2.9856 4.37907 0
      vertex -9.06359 3.82782 0
      vertex -3.60492 3.88518 0
    endloop
  endfacet
  facet normal 0 0 1
    outer loop
      vertex -2.29958 4.77514 0
      vertex -13.1278 9.42179 0
      vertex -2.9856 4.37907 0
    endloop
  endfacet
  facet normal 0 -0 1
    outer loop
      vertex -9.06359 3.82782 0
      vertex -2.9856 4.37907 0
      vertex -10.5012 4.87231 0
    endloop
  endfacet
  facet normal -0 -0 1
    outer loop
      vertex -12.5787 7.73178 0
      vertex -2.9856 4.37907 0
      vertex -13.1278 9.42179 0
    endloop
  endfacet
  facet normal -0 -0 1
    outer loop
      vertex -10.5012 4.87231 0
      vertex -2.9856 4.37907 0
      vertex -11.6902 6.19287 0
    endloop
  endfacet
  facet normal -0 -0 1
    outer loop
      vertex -11.6902 6.19287 0
      vertex -2.9856 4.37907 0
      vertex -12.5787 7.73178 0
    endloop
  endfacet
  facet normal 0 -1 0
    outer loop
      vertex -5.70208 19.6425 0
      vertex -3.92509 19.6425 5
      vertex -5.70208 19.6425 5
    endloop
  endfacet
  facet normal 0 -1 -0
    outer loop
      vertex -3.92509 19.6425 5
      vertex -5.70208 19.6425 0
      vertex -3.92509 19.6425 0
    endloop
  endfacet
  facet normal -0.207936 -0.978142 0
    outer loop
      vertex -3.92509 19.6425 0
      vertex -2.18694 19.273 5
      vertex -3.92509 19.6425 5
    endloop
  endfacet
  facet normal -0.207936 -0.978142 -0
    outer loop
      vertex -2.18694 19.273 5
      vertex -3.92509 19.6425 0
      vertex -2.18694 19.273 0
    endloop
  endfacet
  facet normal 0.207936 -0.978142 0
    outer loop
      vertex -7.44023 19.273 0
      vertex -5.70208 19.6425 5
      vertex -7.44023 19.273 5
    endloop
  endfacet
  facet normal 0.207936 -0.978142 0
    outer loop
      vertex -5.70208 19.6425 5
      vertex -7.44023 19.273 0
      vertex -5.70208 19.6425 0
    endloop
  endfacet
  facet normal 0.743165 -0.669108 0
    outer loop
      vertex -11.6902 16.1852 5
      vertex -10.5012 17.5058 0
      vertex -10.5012 17.5058 5
    endloop
  endfacet
  facet normal 0.743165 -0.669108 0
    outer loop
      vertex -10.5012 17.5058 0
      vertex -11.6902 16.1852 5
      vertex -11.6902 16.1852 0
    endloop
  endfacet
  facet normal 0.587791 -0.809013 0
    outer loop
      vertex -10.5012 17.5058 0
      vertex -9.06359 18.5503 5
      vertex -10.5012 17.5058 5
    endloop
  endfacet
  facet normal 0.587791 -0.809013 0
    outer loop
      vertex -9.06359 18.5503 5
      vertex -10.5012 17.5058 0
      vertex -9.06359 18.5503 0
    endloop
  endfacet
  facet normal 0.866023 0.500004 0
    outer loop
      vertex -11.6902 6.19287 5
      vertex -12.5787 7.73178 0
      vertex -12.5787 7.73178 5
    endloop
  endfacet
  facet normal 0.866023 0.500004 0
    outer loop
      vertex -12.5787 7.73178 0
      vertex -11.6902 6.19287 5
      vertex -11.6902 6.19287 0
    endloop
  endfacet
  facet normal 0.951059 0.309008 0
    outer loop
      vertex -12.5787 7.73178 5
      vertex -13.1278 9.42179 0
      vertex -13.1278 9.42179 5
    endloop
  endfacet
  facet normal 0.951059 0.309008 0
    outer loop
      vertex -13.1278 9.42179 0
      vertex -12.5787 7.73178 5
      vertex -12.5787 7.73178 0
    endloop
  endfacet
  facet normal 0.743155 0.669119 0
    outer loop
      vertex -10.5012 4.87231 5
      vertex -11.6902 6.19287 0
      vertex -11.6902 6.19287 5
    endloop
  endfacet
  facet normal 0.743155 0.669119 0
    outer loop
      vertex -11.6902 6.19287 0
      vertex -10.5012 4.87231 5
      vertex -10.5012 4.87231 0
    endloop
  endfacet
  facet normal 0.951059 -0.30901 0
    outer loop
      vertex -13.1278 12.9563 5
      vertex -12.5787 14.6463 0
      vertex -12.5787 14.6463 5
    endloop
  endfacet
  facet normal 0.951059 -0.30901 0
    outer loop
      vertex -12.5787 14.6463 0
      vertex -13.1278 12.9563 5
      vertex -13.1278 12.9563 0
    endloop
  endfacet
  facet normal -0.587791 -0.809013 0
    outer loop
      vertex -0.563585 18.5503 0
      vertex 0.874024 17.5058 5
      vertex -0.563585 18.5503 5
    endloop
  endfacet
  facet normal -0.587791 -0.809013 -0
    outer loop
      vertex 0.874024 17.5058 5
      vertex -0.563585 18.5503 0
      vertex 0.874024 17.5058 0
    endloop
  endfacet
  facet normal -0.743147 0.669128 0
    outer loop
      vertex 1.13492 5.16206 0
      vertex 2.06306 6.19287 5
      vertex 2.06306 6.19287 0
    endloop
  endfacet
  facet normal -0.743147 0.669128 0
    outer loop
      vertex 2.06306 6.19287 5
      vertex 1.13492 5.16206 0
      vertex 1.13492 5.16206 5
    endloop
  endfacet
  facet normal -0.951056 -0.30902 0
    outer loop
      vertex 3.50067 12.9563 0
      vertex 2.95155 14.6463 5
      vertex 2.95155 14.6463 0
    endloop
  endfacet
  facet normal -0.951056 -0.30902 0
    outer loop
      vertex 2.95155 14.6463 5
      vertex 3.50067 12.9563 0
      vertex 3.50067 12.9563 5
    endloop
  endfacet
  facet normal -0.743155 -0.669119 0
    outer loop
      vertex 2.06306 16.1852 0
      vertex 0.874024 17.5058 5
      vertex 0.874024 17.5058 0
    endloop
  endfacet
  facet normal -0.743155 -0.669119 0
    outer loop
      vertex 0.874024 17.5058 5
      vertex 2.06306 16.1852 0
      vertex 2.06306 16.1852 5
    endloop
  endfacet
  facet normal -0.866024 -0.500002 0
    outer loop
      vertex 2.95155 14.6463 0
      vertex 2.06306 16.1852 5
      vertex 2.06306 16.1852 0
    endloop
  endfacet
  facet normal -0.866024 -0.500002 0
    outer loop
      vertex 2.06306 16.1852 5
      vertex 2.95155 14.6463 0
      vertex 2.95155 14.6463 5
    endloop
  endfacet
  facet normal 0 1 -0
    outer loop
      vertex -4.53157 2.7356 0
      vertex -5.70208 2.7356 5
      vertex -4.53157 2.7356 5
    endloop
  endfacet
  facet normal 0 1 0
    outer loop
      vertex -5.70208 2.7356 5
      vertex -4.53157 2.7356 0
      vertex -5.70208 2.7356 0
    endloop
  endfacet
  facet normal 0.406734 0.913547 -0
    outer loop
      vertex -7.44023 3.10506 0
      vertex -9.06359 3.82782 5
      vertex -7.44023 3.10506 5
    endloop
  endfacet
  facet normal 0.406734 0.913547 0
    outer loop
      vertex -9.06359 3.82782 5
      vertex -7.44023 3.10506 0
      vertex -9.06359 3.82782 0
    endloop
  endfacet
  facet normal 0.207914 0.978147 -0
    outer loop
      vertex -5.70208 2.7356 0
      vertex -7.44023 3.10506 5
      vertex -5.70208 2.7356 5
    endloop
  endfacet
  facet normal 0.207914 0.978147 0
    outer loop
      vertex -7.44023 3.10506 5
      vertex -5.70208 2.7356 0
      vertex -7.44023 3.10506 0
    endloop
  endfacet
  facet normal -0.951056 0.309018 0
    outer loop
      vertex 2.95155 7.73178 0
      vertex 3.50067 9.42179 5
      vertex 3.50067 9.42179 0
    endloop
  endfacet
  facet normal -0.951056 0.309018 0
    outer loop
      vertex 3.50067 9.42179 5
      vertex 2.95155 7.73178 0
      vertex 2.95155 7.73178 5
    endloop
  endfacet
  facet normal -0.994523 -0.104522 0
    outer loop
      vertex 3.68641 11.189 0
      vertex 3.50067 12.9563 5
      vertex 3.50067 12.9563 0
    endloop
  endfacet
  facet normal -0.994523 -0.104522 0
    outer loop
      vertex 3.50067 12.9563 5
      vertex 3.68641 11.189 0
      vertex 3.68641 11.189 5
    endloop
  endfacet
  facet normal -0.866025 0.5 0
    outer loop
      vertex 2.06306 6.19287 0
      vertex 2.95155 7.73178 5
      vertex 2.95155 7.73178 0
    endloop
  endfacet
  facet normal -0.866025 0.5 0
    outer loop
      vertex 2.95155 7.73178 5
      vertex 2.06306 6.19287 0
      vertex 2.06306 6.19287 5
    endloop
  endfacet
  facet normal -0.994522 0.104528 0
    outer loop
      vertex 3.50067 9.42179 0
      vertex 3.68641 11.189 5
      vertex 3.68641 11.189 0
    endloop
  endfacet
  facet normal -0.994522 0.104528 0
    outer loop
      vertex 3.68641 11.189 5
      vertex 3.50067 9.42179 0
      vertex 3.50067 9.42179 5
    endloop
  endfacet
  facet normal 0.0837167 0.99649 -0
    outer loop
      vertex -3.16285 22.3678 -2
      vertex -4.57694 22.4866 5
      vertex -3.16285 22.3678 5
    endloop
  endfacet
  facet normal 0.0837167 0.99649 0
    outer loop
      vertex -4.57694 22.4866 5
      vertex -3.16285 22.3678 -2
      vertex -4.57694 22.4866 -2
    endloop
  endfacet
  facet normal -0.0419289 0.999121 0
    outer loop
      vertex -4.57694 22.4866 -2
      vertex -5.99476 22.4271 5
      vertex -4.57694 22.4866 5
    endloop
  endfacet
  facet normal -0.0419289 0.999121 0
    outer loop
      vertex -5.99476 22.4271 5
      vertex -4.57694 22.4866 -2
      vertex -5.99476 22.4271 -2
    endloop
  endfacet
  facet normal -0.621096 0.783734 0
    outer loop
      vertex -11.2626 20.468 -2
      vertex -12.3748 19.5866 5
      vertex -11.2626 20.468 5
    endloop
  endfacet
  facet normal -0.621096 0.783734 0
    outer loop
      vertex -12.3748 19.5866 5
      vertex -11.2626 20.468 -2
      vertex -12.3748 19.5866 -2
    endloop
  endfacet
  facet normal -0.989272 0.146086 0
    outer loop
      vertex -16.074 12.1346 -2
      vertex -15.8667 13.5384 5
      vertex -15.8667 13.5384 -2
    endloop
  endfacet
  facet normal -0.989272 0.146086 0
    outer loop
      vertex -15.8667 13.5384 5
      vertex -16.074 12.1346 -2
      vertex -16.074 12.1346 5
    endloop
  endfacet
  facet normal -0.821142 -0.570725 0
    outer loop
      vertex -13.6693 4.17007 -2
      vertex -14.4792 5.33533 5
      vertex -14.4792 5.33533 -2
    endloop
  endfacet
  facet normal -0.821142 -0.570725 0
    outer loop
      vertex -14.4792 5.33533 5
      vertex -13.6693 4.17007 -2
      vertex -13.6693 4.17007 5
    endloop
  endfacet
  facet normal -0.289061 0.957311 0
    outer loop
      vertex -7.39395 22.1905 -2
      vertex -8.75245 21.7803 5
      vertex -7.39395 22.1905 5
    endloop
  endfacet
  facet normal -0.289061 0.957311 0
    outer loop
      vertex -8.75245 21.7803 5
      vertex -7.39395 22.1905 -2
      vertex -8.75245 21.7803 -2
    endloop
  endfacet
  facet normal -0.518025 0.855365 0
    outer loop
      vertex -10.0488 21.2031 -2
      vertex -11.2626 20.468 5
      vertex -10.0488 21.2031 5
    endloop
  endfacet
  facet normal -0.518025 0.855365 0
    outer loop
      vertex -11.2626 20.468 5
      vertex -10.0488 21.2031 -2
      vertex -11.2626 20.468 -2
    endloop
  endfacet
  facet normal -0.553382 -0.832927 0
    outer loop
      vertex -11.6456 2.18825 -2
      vertex -10.4636 1.40295 5
      vertex -11.6456 2.18825 5
    endloop
  endfacet
  facet normal -0.553382 -0.832927 -0
    outer loop
      vertex -10.4636 1.40295 5
      vertex -11.6456 2.18825 -2
      vertex -10.4636 1.40295 -2
    endloop
  endfacet
  facet normal -0.937269 -0.348606 0
    outer loop
      vertex -15.1366 6.59292 -2
      vertex -15.6313 7.92298 5
      vertex -15.6313 7.92298 -2
    endloop
  endfacet
  facet normal -0.937269 -0.348606 0
    outer loop
      vertex -15.6313 7.92298 5
      vertex -15.1366 6.59292 -2
      vertex -15.1366 6.59292 5
    endloop
  endfacet
  facet normal -0.921867 0.387506 0
    outer loop
      vertex -15.485 14.9052 -2
      vertex -14.9351 16.2134 5
      vertex -14.9351 16.2134 -2
    endloop
  endfacet
  facet normal -0.921867 0.387506 0
    outer loop
      vertex -14.9351 16.2134 5
      vertex -15.485 14.9052 -2
      vertex -15.485 14.9052 5
    endloop
  endfacet
  facet normal -0.973586 -0.228321 0
    outer loop
      vertex -15.6313 7.92298 -2
      vertex -15.9553 9.30455 5
      vertex -15.9553 9.30455 -2
    endloop
  endfacet
  facet normal -0.973586 -0.228321 0
    outer loop
      vertex -15.9553 9.30455 5
      vertex -15.6313 7.92298 -2
      vertex -15.6313 7.92298 5
    endloop
  endfacet
  facet normal 0.999781 -0.0209442 0
    outer loop
      vertex 6.44678 10.2435 5
      vertex 6.4765 11.6622 -2
      vertex 6.4765 11.6622 5
    endloop
  endfacet
  facet normal 0.999781 -0.0209442 0
    outer loop
      vertex 6.4765 11.6622 -2
      vertex 6.44678 10.2435 5
      vertex 6.44678 10.2435 -2
    endloop
  endfacet
  facet normal 0.207884 0.978154 -0
    outer loop
      vertex -1.77479 22.0728 -2
      vertex -3.16285 22.3678 5
      vertex -1.77479 22.0728 5
    endloop
  endfacet
  facet normal 0.207884 0.978154 0
    outer loop
      vertex -3.16285 22.3678 5
      vertex -1.77479 22.0728 -2
      vertex -3.16285 22.3678 -2
    endloop
  endfacet
  facet normal -0.166731 0.986002 0
    outer loop
      vertex -5.99476 22.4271 -2
      vertex -7.39395 22.1905 5
      vertex -5.99476 22.4271 5
    endloop
  endfacet
  facet normal -0.166731 0.986002 0
    outer loop
      vertex -7.39395 22.1905 5
      vertex -5.99476 22.4271 -2
      vertex -7.39395 22.1905 -2
    endloop
  endfacet
  facet normal -0.866045 0.499966 0
    outer loop
      vertex -14.9351 16.2134 -2
      vertex -14.2256 17.4424 5
      vertex -14.2256 17.4424 -2
    endloop
  endfacet
  facet normal -0.866045 0.499966 0
    outer loop
      vertex -14.2256 17.4424 5
      vertex -14.9351 16.2134 -2
      vertex -14.9351 16.2134 5
    endloop
  endfacet
  facet normal -0.714502 0.699633 0
    outer loop
      vertex -13.3676 18.5727 -2
      vertex -12.3748 19.5866 5
      vertex -12.3748 19.5866 -2
    endloop
  endfacet
  facet normal -0.714502 0.699633 0
    outer loop
      vertex -12.3748 19.5866 5
      vertex -13.3676 18.5727 -2
      vertex -13.3676 18.5727 5
    endloop
  endfacet
  facet normal -0.406753 0.913538 0
    outer loop
      vertex -8.75245 21.7803 -2
      vertex -10.0488 21.2031 5
      vertex -8.75245 21.7803 5
    endloop
  endfacet
  facet normal -0.406753 0.913538 0
    outer loop
      vertex -10.0488 21.2031 5
      vertex -8.75245 21.7803 -2
      vertex -10.0488 21.2031 -2
    endloop
  endfacet
  facet normal -0.743159 -0.669115 0
    outer loop
      vertex -12.7198 3.1155 -2
      vertex -13.6693 4.17007 5
      vertex -13.6693 4.17007 -2
    endloop
  endfacet
  facet normal -0.743159 -0.669115 0
    outer loop
      vertex -13.6693 4.17007 5
      vertex -12.7198 3.1155 -2
      vertex -12.7198 3.1155 5
    endloop
  endfacet
  facet normal -0.653431 -0.756986 0
    outer loop
      vertex -12.7198 3.1155 -2
      vertex -11.6456 2.18825 5
      vertex -12.7198 3.1155 5
    endloop
  endfacet
  facet normal -0.653431 -0.756986 -0
    outer loop
      vertex -11.6456 2.18825 5
      vertex -12.7198 3.1155 -2
      vertex -11.6456 2.18825 -2
    endloop
  endfacet
  facet normal -0.886219 -0.463267 0
    outer loop
      vertex -14.4792 5.33533 -2
      vertex -15.1366 6.59292 5
      vertex -15.1366 6.59292 -2
    endloop
  endfacet
  facet normal -0.886219 -0.463267 0
    outer loop
      vertex -15.1366 6.59292 5
      vertex -14.4792 5.33533 -2
      vertex -14.4792 5.33533 5
    endloop
  endfacet
  facet normal -0.963147 0.268974 0
    outer loop
      vertex -15.8667 13.5384 -2
      vertex -15.485 14.9052 5
      vertex -15.485 14.9052 -2
    endloop
  endfacet
  facet normal -0.963147 0.268974 0
    outer loop
      vertex -15.485 14.9052 5
      vertex -15.8667 13.5384 -2
      vertex -15.8667 13.5384 5
    endloop
  endfacet
  facet normal -0.994517 -0.104578 0
    outer loop
      vertex -15.9553 9.30455 -2
      vertex -16.1037 10.7158 5
      vertex -16.1037 10.7158 -2
    endloop
  endfacet
  facet normal -0.994517 -0.104578 0
    outer loop
      vertex -16.1037 10.7158 5
      vertex -15.9553 9.30455 -2
      vertex -15.9553 9.30455 5
    endloop
  endfacet
  facet normal -0.999781 0.0209286 0
    outer loop
      vertex -16.1037 10.7158 -2
      vertex -16.074 12.1346 5
      vertex -16.074 12.1346 -2
    endloop
  endfacet
  facet normal -0.999781 0.0209286 0
    outer loop
      vertex -16.074 12.1346 5
      vertex -16.1037 10.7158 -2
      vertex -16.1037 10.7158 5
    endloop
  endfacet
  facet normal 0.444654 0.895702 -0
    outer loop
      vertex 0.836414 20.9751 -2
      vertex -0.434659 21.6061 5
      vertex 0.836414 20.9751 5
    endloop
  endfacet
  facet normal 0.444654 0.895702 0
    outer loop
      vertex -0.434659 21.6061 5
      vertex 0.836414 20.9751 -2
      vertex -0.434659 21.6061 -2
    endloop
  endfacet
  facet normal 0.553393 0.83292 -0
    outer loop
      vertex 2.01838 20.1898 -2
      vertex 0.836414 20.9751 5
      vertex 2.01838 20.1898 5
    endloop
  endfacet
  facet normal 0.553393 0.83292 0
    outer loop
      vertex 0.836414 20.9751 5
      vertex 2.01838 20.1898 -2
      vertex 0.836414 20.9751 -2
    endloop
  endfacet
  facet normal 0.6534 0.757013 -0
    outer loop
      vertex 3.09261 19.2626 -2
      vertex 2.01838 20.1898 5
      vertex 3.09261 19.2626 5
    endloop
  endfacet
  facet normal 0.6534 0.757013 0
    outer loop
      vertex 2.01838 20.1898 5
      vertex 3.09261 19.2626 -2
      vertex 2.01838 20.1898 -2
    endloop
  endfacet
  facet normal -0.444629 -0.895715 0
    outer loop
      vertex -10.4636 1.40295 -2
      vertex -9.19251 0.771986 5
      vertex -10.4636 1.40295 5
    endloop
  endfacet
  facet normal -0.444629 -0.895715 -0
    outer loop
      vertex -9.19251 0.771986 5
      vertex -10.4636 1.40295 -2
      vertex -9.19251 0.771986 -2
    endloop
  endfacet
  facet normal -0.083678 -0.996493 0
    outer loop
      vertex -6.46432 0.010263 -2
      vertex -5.28518 -0.0887523 5
      vertex -6.46432 0.010263 5
    endloop
  endfacet
  facet normal -0.083678 -0.996493 -0
    outer loop
      vertex -5.28518 -0.0887523 5
      vertex -6.46432 0.010263 -2
      vertex -5.28518 -0.0887523 -2
    endloop
  endfacet
  facet normal 0.921864 -0.387514 0
    outer loop
      vertex 5.30796 6.16466 5
      vertex 5.85787 7.47285 -2
      vertex 5.85787 7.47285 5
    endloop
  endfacet
  facet normal 0.921864 -0.387514 0
    outer loop
      vertex 5.85787 7.47285 -2
      vertex 5.30796 6.16466 5
      vertex 5.30796 6.16466 -2
    endloop
  endfacet
  facet normal 0.989273 -0.14608 0
    outer loop
      vertex 6.23948 8.83964 5
      vertex 6.44678 10.2435 -2
      vertex 6.44678 10.2435 5
    endloop
  endfacet
  facet normal 0.989273 -0.14608 0
    outer loop
      vertex 6.44678 10.2435 -2
      vertex 6.23948 8.83964 5
      vertex 6.23948 8.83964 -2
    endloop
  endfacet
  facet normal 0.328877 0.944373 -0
    outer loop
      vertex -0.434659 21.6061 -2
      vertex -1.77479 22.0728 5
      vertex -0.434659 21.6061 5
    endloop
  endfacet
  facet normal 0.328877 0.944373 0
    outer loop
      vertex -1.77479 22.0728 5
      vertex -0.434659 21.6061 -2
      vertex -1.77479 22.0728 -2
    endloop
  endfacet
  facet normal -0.796511 0.604624 0
    outer loop
      vertex -14.2256 17.4424 -2
      vertex -13.3676 18.5727 5
      vertex -13.3676 18.5727 -2
    endloop
  endfacet
  facet normal -0.796511 0.604624 0
    outer loop
      vertex -13.3676 18.5727 5
      vertex -14.2256 17.4424 -2
      vertex -14.2256 17.4424 5
    endloop
  endfacet
  facet normal 0.821157 0.570702 0
    outer loop
      vertex 4.85203 17.0427 5
      vertex 4.04215 18.208 -2
      vertex 4.04215 18.208 5
    endloop
  endfacet
  facet normal 0.821157 0.570702 0
    outer loop
      vertex 4.04215 18.208 -2
      vertex 4.85203 17.0427 5
      vertex 4.85203 17.0427 -2
    endloop
  endfacet
  facet normal 0.743154 0.66912 0
    outer loop
      vertex 4.04215 18.208 5
      vertex 3.09261 19.2626 -2
      vertex 3.09261 19.2626 5
    endloop
  endfacet
  facet normal 0.743154 0.66912 0
    outer loop
      vertex 3.09261 19.2626 -2
      vertex 4.04215 18.208 5
      vertex 4.04215 18.208 -2
    endloop
  endfacet
  facet normal 0.973579 0.22835 0
    outer loop
      vertex 6.32817 13.0735 5
      vertex 6.00412 14.4551 -2
      vertex 6.00412 14.4551 5
    endloop
  endfacet
  facet normal 0.973579 0.22835 0
    outer loop
      vertex 6.00412 14.4551 -2
      vertex 6.32817 13.0735 5
      vertex 6.32817 13.0735 -2
    endloop
  endfacet
  facet normal 0.937287 0.34856 0
    outer loop
      vertex 6.00412 14.4551 5
      vertex 5.50948 15.7852 -2
      vertex 5.50948 15.7852 5
    endloop
  endfacet
  facet normal 0.937287 0.34856 0
    outer loop
      vertex 5.50948 15.7852 -2
      vertex 6.00412 14.4551 5
      vertex 6.00412 14.4551 -2
    endloop
  endfacet
  facet normal 0.886191 0.463321 0
    outer loop
      vertex 5.50948 15.7852 5
      vertex 4.85203 17.0427 -2
      vertex 4.85203 17.0427 5
    endloop
  endfacet
  facet normal 0.886191 0.463321 0
    outer loop
      vertex 4.85203 17.0427 -2
      vertex 5.50948 15.7852 5
      vertex 5.50948 15.7852 -2
    endloop
  endfacet
  facet normal 0.714487 -0.699648 0
    outer loop
      vertex 3.70887 3.77313 5
      vertex 3.74046 3.80539 -2
      vertex 3.74046 3.80539 5
    endloop
  endfacet
  facet normal 0.714487 -0.699648 0
    outer loop
      vertex 3.74046 3.80539 -2
      vertex 3.70887 3.77313 5
      vertex 3.70887 3.77313 -2
    endloop
  endfacet
  facet normal 0 0 -1
    outer loop
      vertex 1.41494e-08 5.3 -2
      vertex 6.4765 11.6622 -2
      vertex 6.44678 10.2435 -2
    endloop
  endfacet
  facet normal 0 0 -1
    outer loop
      vertex 0.789924 5.2408 -2
      vertex 6.44678 10.2435 -2
      vertex 6.23948 8.83964 -2
    endloop
  endfacet
  facet normal -0 0 -1
    outer loop
      vertex 6.4765 11.6622 -2
      vertex 1.41494e-08 5.3 -2
      vertex 6.32817 13.0735 -2
    endloop
  endfacet
  facet normal 0 0 -1
    outer loop
      vertex 0.789924 5.2408 -2
      vertex 6.23948 8.83964 -2
      vertex 5.85787 7.47285 -2
    endloop
  endfacet
  facet normal 0 0 -1
    outer loop
      vertex 6.44678 10.2435 -2
      vertex 0.789924 5.2408 -2
      vertex 1.41494e-08 5.3 -2
    endloop
  endfacet
  facet normal 0 0 -1
    outer loop
      vertex 1.5622 5.06454 -2
      vertex 5.85787 7.47285 -2
      vertex 5.30796 6.16466 -2
    endloop
  endfacet
  facet normal -0 0 -1
    outer loop
      vertex 6.32817 13.0735 -2
      vertex 1.41494e-08 5.3 -2
      vertex 6.00412 14.4551 -2
    endloop
  endfacet
  facet normal 0 0 -1
    outer loop
      vertex 2.29958 4.77514 -2
      vertex 5.30796 6.16466 -2
      vertex 4.59842 4.93572 -2
    endloop
  endfacet
  facet normal 0 0 -1
    outer loop
      vertex 5.85787 7.47285 -2
      vertex 1.5622 5.06454 -2
      vertex 0.789924 5.2408 -2
    endloop
  endfacet
  facet normal 0 0 -1
    outer loop
      vertex 3.60492 3.88518 -2
      vertex 4.59842 4.93572 -2
      vertex 3.74046 3.80539 -2
    endloop
  endfacet
  facet normal 0 0 -1
    outer loop
      vertex 3.60492 3.88518 -2
      vertex 3.74046 3.80539 -2
      vertex 3.70887 3.77313 -2
    endloop
  endfacet
  facet normal 0 0 -1
    outer loop
      vertex 4.59842 4.93572 -2
      vertex 3.60492 3.88518 -2
      vertex 2.9856 4.37907 -2
    endloop
  endfacet
  facet normal 0 0 -1
    outer loop
      vertex 2.29958 4.77514 -2
      vertex 4.59842 4.93572 -2
      vertex 2.9856 4.37907 -2
    endloop
  endfacet
  facet normal 0 0 -1
    outer loop
      vertex 5.30796 6.16466 -2
      vertex 2.29958 4.77514 -2
      vertex 1.5622 5.06454 -2
    endloop
  endfacet
  facet normal 0 0 -1
    outer loop
      vertex -0.789924 5.2408 -2
      vertex 6.00412 14.4551 -2
      vertex 1.41494e-08 5.3 -2
    endloop
  endfacet
  facet normal -0 0 -1
    outer loop
      vertex 6.00412 14.4551 -2
      vertex -0.789924 5.2408 -2
      vertex 5.50948 15.7852 -2
    endloop
  endfacet
  facet normal -0 0 -1
    outer loop
      vertex 5.50948 15.7852 -2
      vertex -0.789924 5.2408 -2
      vertex 4.85203 17.0427 -2
    endloop
  endfacet
  facet normal -0 0 -1
    outer loop
      vertex 4.85203 17.0427 -2
      vertex -0.789924 5.2408 -2
      vertex 4.04215 18.208 -2
    endloop
  endfacet
  facet normal -0 0 -1
    outer loop
      vertex 4.04215 18.208 -2
      vertex -0.789924 5.2408 -2
      vertex 3.09261 19.2626 -2
    endloop
  endfacet
  facet normal -0 0 -1
    outer loop
      vertex 3.09261 19.2626 -2
      vertex -0.789924 5.2408 -2
      vertex 2.01838 20.1898 -2
    endloop
  endfacet
  facet normal 0 0 -1
    outer loop
      vertex -1.5622 5.06454 -2
      vertex 2.01838 20.1898 -2
      vertex -0.789924 5.2408 -2
    endloop
  endfacet
  facet normal -0 0 -1
    outer loop
      vertex 2.01838 20.1898 -2
      vertex -1.5622 5.06454 -2
      vertex 0.836414 20.9751 -2
    endloop
  endfacet
  facet normal -0 0 -1
    outer loop
      vertex 0.836414 20.9751 -2
      vertex -1.5622 5.06454 -2
      vertex -0.434659 21.6061 -2
    endloop
  endfacet
  facet normal 0 0 -1
    outer loop
      vertex -1.5622 5.06454 -2
      vertex -1.77479 22.0728 -2
      vertex -0.434659 21.6061 -2
    endloop
  endfacet
  facet normal 0 0 -1
    outer loop
      vertex -5.99476 22.4271 -2
      vertex -1.5622 5.06454 -2
      vertex -2.29958 4.77514 -2
    endloop
  endfacet
  facet normal 0 0 -1
    outer loop
      vertex -14.9351 16.2134 -2
      vertex -2.29958 4.77514 -2
      vertex -2.9856 4.37907 -2
    endloop
  endfacet
  facet normal 0 0 -1
    outer loop
      vertex -1.5622 5.06454 -2
      vertex -3.16285 22.3678 -2
      vertex -1.77479 22.0728 -2
    endloop
  endfacet
  facet normal 0 0 -1
    outer loop
      vertex -15.6313 7.92298 -2
      vertex -2.9856 4.37907 -2
      vertex -3.60492 3.88518 -2
    endloop
  endfacet
  facet normal 0 0 -1
    outer loop
      vertex -13.6693 4.17007 -2
      vertex -3.60492 3.88518 -2
      vertex -4.14371 3.3045 -2
    endloop
  endfacet
  facet normal 0 0 -1
    outer loop
      vertex -1.5622 5.06454 -2
      vertex -4.57694 22.4866 -2
      vertex -3.16285 22.3678 -2
    endloop
  endfacet
  facet normal 0 0 -1
    outer loop
      vertex -10.4636 1.40295 -2
      vertex -4.14371 3.3045 -2
      vertex -4.58993 2.65 -2
    endloop
  endfacet
  facet normal 0 0 -1
    outer loop
      vertex -9.19251 0.771986 -2
      vertex -4.58993 2.65 -2
      vertex -4.93363 1.93631 -2
    endloop
  endfacet
  facet normal 0 0 -1
    outer loop
      vertex -7.85238 0.305303 -2
      vertex -4.93363 1.93631 -2
      vertex -5.16712 1.17936 -2
    endloop
  endfacet
  facet normal 0 0 -1
    outer loop
      vertex -6.46432 0.010263 -2
      vertex -5.16712 1.17936 -2
      vertex -5.28518 0.396071 -2
    endloop
  endfacet
  facet normal 0 0 -1
    outer loop
      vertex -1.5622 5.06454 -2
      vertex -5.99476 22.4271 -2
      vertex -4.57694 22.4866 -2
    endloop
  endfacet
  facet normal 0 0 -1
    outer loop
      vertex -6.46432 0.010263 -2
      vertex -5.28518 0.396071 -2
      vertex -5.28518 -0.0887523 -2
    endloop
  endfacet
  facet normal 0 0 -1
    outer loop
      vertex -5.16712 1.17936 -2
      vertex -6.46432 0.010263 -2
      vertex -7.85238 0.305303 -2
    endloop
  endfacet
  facet normal 0 0 -1
    outer loop
      vertex -2.29958 4.77514 -2
      vertex -7.39395 22.1905 -2
      vertex -5.99476 22.4271 -2
    endloop
  endfacet
  facet normal 0 0 -1
    outer loop
      vertex -4.93363 1.93631 -2
      vertex -7.85238 0.305303 -2
      vertex -9.19251 0.771986 -2
    endloop
  endfacet
  facet normal 0 0 -1
    outer loop
      vertex -2.29958 4.77514 -2
      vertex -8.75245 21.7803 -2
      vertex -7.39395 22.1905 -2
    endloop
  endfacet
  facet normal 0 0 -1
    outer loop
      vertex -4.58993 2.65 -2
      vertex -9.19251 0.771986 -2
      vertex -10.4636 1.40295 -2
    endloop
  endfacet
  facet normal 0 0 -1
    outer loop
      vertex -2.29958 4.77514 -2
      vertex -10.0488 21.2031 -2
      vertex -8.75245 21.7803 -2
    endloop
  endfacet
  facet normal 0 0 -1
    outer loop
      vertex -4.14371 3.3045 -2
      vertex -10.4636 1.40295 -2
      vertex -11.6456 2.18825 -2
    endloop
  endfacet
  facet normal 0 0 -1
    outer loop
      vertex -2.29958 4.77514 -2
      vertex -11.2626 20.468 -2
      vertex -10.0488 21.2031 -2
    endloop
  endfacet
  facet normal 0 0 -1
    outer loop
      vertex -4.14371 3.3045 -2
      vertex -11.6456 2.18825 -2
      vertex -12.7198 3.1155 -2
    endloop
  endfacet
  facet normal 0 0 -1
    outer loop
      vertex -2.29958 4.77514 -2
      vertex -12.3748 19.5866 -2
      vertex -11.2626 20.468 -2
    endloop
  endfacet
  facet normal -0 0 -1
    outer loop
      vertex -4.14371 3.3045 -2
      vertex -12.7198 3.1155 -2
      vertex -13.6693 4.17007 -2
    endloop
  endfacet
  facet normal 0 0 -1
    outer loop
      vertex -2.29958 4.77514 -2
      vertex -13.3676 18.5727 -2
      vertex -12.3748 19.5866 -2
    endloop
  endfacet
  facet normal 0 0 -1
    outer loop
      vertex -3.60492 3.88518 -2
      vertex -13.6693 4.17007 -2
      vertex -14.4792 5.33533 -2
    endloop
  endfacet
  facet normal 0 0 -1
    outer loop
      vertex -2.29958 4.77514 -2
      vertex -14.2256 17.4424 -2
      vertex -13.3676 18.5727 -2
    endloop
  endfacet
  facet normal 0 0 -1
    outer loop
      vertex -3.60492 3.88518 -2
      vertex -14.4792 5.33533 -2
      vertex -15.1366 6.59292 -2
    endloop
  endfacet
  facet normal 0 0 -1
    outer loop
      vertex -2.29958 4.77514 -2
      vertex -14.9351 16.2134 -2
      vertex -14.2256 17.4424 -2
    endloop
  endfacet
  facet normal 0 0 -1
    outer loop
      vertex -3.60492 3.88518 -2
      vertex -15.1366 6.59292 -2
      vertex -15.6313 7.92298 -2
    endloop
  endfacet
  facet normal 0 0 -1
    outer loop
      vertex -2.9856 4.37907 -2
      vertex -15.485 14.9052 -2
      vertex -14.9351 16.2134 -2
    endloop
  endfacet
  facet normal 0 0 -1
    outer loop
      vertex -2.9856 4.37907 -2
      vertex -15.6313 7.92298 -2
      vertex -15.9553 9.30455 -2
    endloop
  endfacet
  facet normal 0 0 -1
    outer loop
      vertex -2.9856 4.37907 -2
      vertex -15.8667 13.5384 -2
      vertex -15.485 14.9052 -2
    endloop
  endfacet
  facet normal 0 0 -1
    outer loop
      vertex -2.9856 4.37907 -2
      vertex -15.9553 9.30455 -2
      vertex -16.1037 10.7158 -2
    endloop
  endfacet
  facet normal 0 0 -1
    outer loop
      vertex -2.9856 4.37907 -2
      vertex -16.074 12.1346 -2
      vertex -15.8667 13.5384 -2
    endloop
  endfacet
  facet normal 0 0 -1
    outer loop
      vertex -2.9856 4.37907 -2
      vertex -16.1037 10.7158 -2
      vertex -16.074 12.1346 -2
    endloop
  endfacet
  facet normal -0.207911 -0.978148 0
    outer loop
      vertex -7.85238 0.305303 -2
      vertex -6.46432 0.010263 5
      vertex -7.85238 0.305303 5
    endloop
  endfacet
  facet normal -0.207911 -0.978148 -0
    outer loop
      vertex -6.46432 0.010263 5
      vertex -7.85238 0.305303 -2
      vertex -6.46432 0.010263 -2
    endloop
  endfacet
  facet normal -0.328867 -0.944376 0
    outer loop
      vertex -9.19251 0.771986 -2
      vertex -7.85238 0.305303 5
      vertex -9.19251 0.771986 5
    endloop
  endfacet
  facet normal -0.328867 -0.944376 -0
    outer loop
      vertex -7.85238 0.305303 5
      vertex -9.19251 0.771986 -2
      vertex -7.85238 0.305303 -2
    endloop
  endfacet
  facet normal 0.963163 -0.268917 0
    outer loop
      vertex 5.85787 7.47285 5
      vertex 6.23948 8.83964 -2
      vertex 6.23948 8.83964 5
    endloop
  endfacet
  facet normal 0.963163 -0.268917 0
    outer loop
      vertex 6.23948 8.83964 -2
      vertex 5.85787 7.47285 5
      vertex 5.85787 7.47285 -2
    endloop
  endfacet
  facet normal 0.994522 0.104526 0
    outer loop
      vertex 6.4765 11.6622 5
      vertex 6.32817 13.0735 -2
      vertex 6.32817 13.0735 5
    endloop
  endfacet
  facet normal 0.994522 0.104526 0
    outer loop
      vertex 6.32817 13.0735 -2
      vertex 6.4765 11.6622 5
      vertex 6.4765 11.6622 -2
    endloop
  endfacet
  facet normal 0.866022 -0.500006 0
    outer loop
      vertex 4.59842 4.93572 5
      vertex 5.30796 6.16466 -2
      vertex 5.30796 6.16466 5
    endloop
  endfacet
  facet normal 0.866022 -0.500006 0
    outer loop
      vertex 5.30796 6.16466 -2
      vertex 4.59842 4.93572 5
      vertex 4.59842 4.93572 -2
    endloop
  endfacet
  facet normal 0.796532 -0.604596 0
    outer loop
      vertex 3.74046 3.80539 5
      vertex 4.59842 4.93572 -2
      vertex 4.59842 4.93572 5
    endloop
  endfacet
  facet normal 0.796532 -0.604596 0
    outer loop
      vertex 4.59842 4.93572 -2
      vertex 3.74046 3.80539 5
      vertex 3.74046 3.80539 -2
    endloop
  endfacet
  facet normal 0.222513 0.97493 -0
    outer loop
      vertex 1.13492 5.16206 0
      vertex 0.789924 5.2408 5
      vertex 1.13492 5.16206 5
    endloop
  endfacet
  facet normal 0.222513 0.97493 0
    outer loop
      vertex 0.789924 5.2408 5
      vertex 1.13492 5.16206 0
      vertex 0.789924 5.2408 0
    endloop
  endfacet
  facet normal 0.222513 0.97493 -0
    outer loop
      vertex 1.5622 5.06454 -2.05
      vertex 0.789924 5.2408 -2
      vertex 1.5622 5.06454 -2
    endloop
  endfacet
  facet normal 0.222513 0.97493 0
    outer loop
      vertex 0.789924 5.2408 -2
      vertex 1.5622 5.06454 -2.05
      vertex 0.789924 5.2408 -2.05
    endloop
  endfacet
  facet normal 0.826245 0.563311 0
    outer loop
      vertex 4.58993 2.65 5
      vertex 4.14371 3.3045 -2.05
      vertex 4.14371 3.3045 5
    endloop
  endfacet
  facet normal 0.826245 0.563311 0
    outer loop
      vertex 4.14371 3.3045 -2.05
      vertex 4.58993 2.65 5
      vertex 4.58993 2.65 -2.05
    endloop
  endfacet
  facet normal 0.365341 0.930874 -0
    outer loop
      vertex 2.29958 4.77514 -2.05
      vertex 1.5622 5.06454 -2
      vertex 2.29958 4.77514 -2
    endloop
  endfacet
  facet normal 0.365341 0.930874 0
    outer loop
      vertex 1.5622 5.06454 -2
      vertex 2.29958 4.77514 -2.05
      vertex 1.5622 5.06454 -2.05
    endloop
  endfacet
  facet normal -0.955572 0.294757 0
    outer loop
      vertex -5.16712 1.17936 -2.05
      vertex -4.93363 1.93631 -2
      vertex -4.93363 1.93631 -2.05
    endloop
  endfacet
  facet normal -0.955572 0.294757 0
    outer loop
      vertex -4.93363 1.93631 -2
      vertex -5.16712 1.17936 -2.05
      vertex -5.16712 1.17936 -2
    endloop
  endfacet
  facet normal -0.365341 0.930874 0
    outer loop
      vertex -1.5622 5.06454 0
      vertex -2.29958 4.77514 5
      vertex -1.5622 5.06454 5
    endloop
  endfacet
  facet normal -0.365341 0.930874 0
    outer loop
      vertex -2.29958 4.77514 5
      vertex -1.5622 5.06454 0
      vertex -2.29958 4.77514 0
    endloop
  endfacet
  facet normal -0.365341 0.930874 0
    outer loop
      vertex -1.5622 5.06454 -2.05
      vertex -2.29958 4.77514 -2
      vertex -1.5622 5.06454 -2
    endloop
  endfacet
  facet normal -0.365341 0.930874 0
    outer loop
      vertex -2.29958 4.77514 -2
      vertex -1.5622 5.06454 -2.05
      vertex -2.29958 4.77514 -2.05
    endloop
  endfacet
  facet normal -0.900966 -0.433889 0
    outer loop
      vertex -4.58993 -2.65 -2.05
      vertex -4.93363 -1.93631 5
      vertex -4.93363 -1.93631 -2.05
    endloop
  endfacet
  facet normal -0.900966 -0.433889 0
    outer loop
      vertex -4.93363 -1.93631 5
      vertex -4.58993 -2.65 -2.05
      vertex -4.58993 -2.65 5
    endloop
  endfacet
  facet normal 0.0747344 -0.997203 0
    outer loop
      vertex -3.55578e-07 -5.3 -2.05
      vertex 0.789923 -5.2408 5
      vertex -3.55578e-07 -5.3 5
    endloop
  endfacet
  facet normal 0.0747344 -0.997203 0
    outer loop
      vertex 0.789923 -5.2408 5
      vertex -3.55578e-07 -5.3 -2.05
      vertex 0.789923 -5.2408 -2.05
    endloop
  endfacet
  facet normal -0.222513 -0.97493 0
    outer loop
      vertex -1.5622 -5.06454 -2.05
      vertex -0.789924 -5.2408 5
      vertex -1.5622 -5.06454 5
    endloop
  endfacet
  facet normal -0.222513 -0.97493 -0
    outer loop
      vertex -0.789924 -5.2408 5
      vertex -1.5622 -5.06454 -2.05
      vertex -0.789924 -5.2408 -2.05
    endloop
  endfacet
  facet normal 0.0747343 0.997203 -0
    outer loop
      vertex 0.789924 5.2408 0
      vertex 1.41494e-08 5.3 5
      vertex 0.789924 5.2408 5
    endloop
  endfacet
  facet normal 0.0747343 0.997203 0
    outer loop
      vertex 1.41494e-08 5.3 5
      vertex 0.789924 5.2408 0
      vertex 1.41494e-08 5.3 0
    endloop
  endfacet
  facet normal 0.0747343 0.997203 -0
    outer loop
      vertex 0.789924 5.2408 -2.05
      vertex 1.41494e-08 5.3 -2
      vertex 0.789924 5.2408 -2
    endloop
  endfacet
  facet normal 0.0747343 0.997203 0
    outer loop
      vertex 1.41494e-08 5.3 -2
      vertex 0.789924 5.2408 -2.05
      vertex 1.41494e-08 5.3 -2.05
    endloop
  endfacet
  facet normal -0.733047 -0.680177 0
    outer loop
      vertex -3.60492 -3.88517 -2.05
      vertex -4.14371 -3.3045 5
      vertex -4.14371 -3.3045 -2.05
    endloop
  endfacet
  facet normal -0.733047 -0.680177 0
    outer loop
      vertex -4.14371 -3.3045 5
      vertex -3.60492 -3.88517 -2.05
      vertex -3.60492 -3.88517 5
    endloop
  endfacet
  facet normal 0 0 -1
    outer loop
      vertex 5.16712 -1.17936 -2.05
      vertex 5.28518 0.396071 -2.05
      vertex 5.28518 -0.396069 -2.05
    endloop
  endfacet
  facet normal 0 0 -1
    outer loop
      vertex 5.16712 -1.17936 -2.05
      vertex 5.16712 1.17936 -2.05
      vertex 5.28518 0.396071 -2.05
    endloop
  endfacet
  facet normal 0 0 -1
    outer loop
      vertex 4.93363 -1.93631 -2.05
      vertex 5.16712 1.17936 -2.05
      vertex 5.16712 -1.17936 -2.05
    endloop
  endfacet
  facet normal 0 0 -1
    outer loop
      vertex 4.93363 -1.93631 -2.05
      vertex 4.93363 1.93631 -2.05
      vertex 5.16712 1.17936 -2.05
    endloop
  endfacet
  facet normal 0 0 -1
    outer loop
      vertex 4.58993 -2.65 -2.05
      vertex 4.93363 1.93631 -2.05
      vertex 4.93363 -1.93631 -2.05
    endloop
  endfacet
  facet normal 0 0 -1
    outer loop
      vertex 4.58993 -2.65 -2.05
      vertex 4.58993 2.65 -2.05
      vertex 4.93363 1.93631 -2.05
    endloop
  endfacet
  facet normal 0 0 -1
    outer loop
      vertex 4.14371 -3.3045 -2.05
      vertex 4.58993 2.65 -2.05
      vertex 4.58993 -2.65 -2.05
    endloop
  endfacet
  facet normal 0 0 -1
    outer loop
      vertex 4.14371 -3.3045 -2.05
      vertex 4.14371 3.3045 -2.05
      vertex 4.58993 2.65 -2.05
    endloop
  endfacet
  facet normal 0 0 -1
    outer loop
      vertex 4.14371 -3.3045 -2.05
      vertex 3.60492 3.88518 -2.05
      vertex 4.14371 3.3045 -2.05
    endloop
  endfacet
  facet normal 0 0 -1
    outer loop
      vertex 3.60492 -3.88517 -2.05
      vertex 3.60492 3.88518 -2.05
      vertex 4.14371 -3.3045 -2.05
    endloop
  endfacet
  facet normal 0 0 -1
    outer loop
      vertex 2.9856 -4.37906 -2.05
      vertex 3.60492 3.88518 -2.05
      vertex 3.60492 -3.88517 -2.05
    endloop
  endfacet
  facet normal 0 0 -1
    outer loop
      vertex 2.9856 -4.37906 -2.05
      vertex 2.9856 4.37907 -2.05
      vertex 3.60492 3.88518 -2.05
    endloop
  endfacet
  facet normal 0 0 -1
    outer loop
      vertex 2.9856 -4.37906 -2.05
      vertex 2.29958 4.77514 -2.05
      vertex 2.9856 4.37907 -2.05
    endloop
  endfacet
  facet normal 0 0 -1
    outer loop
      vertex 2.29958 -4.77513 -2.05
      vertex 2.29958 4.77514 -2.05
      vertex 2.9856 -4.37906 -2.05
    endloop
  endfacet
  facet normal 0 0 -1
    outer loop
      vertex 1.5622 -5.06454 -2.05
      vertex 2.29958 4.77514 -2.05
      vertex 2.29958 -4.77513 -2.05
    endloop
  endfacet
  facet normal 0 0 -1
    outer loop
      vertex 1.5622 -5.06454 -2.05
      vertex 1.5622 5.06454 -2.05
      vertex 2.29958 4.77514 -2.05
    endloop
  endfacet
  facet normal 0 0 -1
    outer loop
      vertex 1.5622 -5.06454 -2.05
      vertex 0.789924 5.2408 -2.05
      vertex 1.5622 5.06454 -2.05
    endloop
  endfacet
  facet normal 0 0 -1
    outer loop
      vertex 0.789923 -5.2408 -2.05
      vertex 0.789924 5.2408 -2.05
      vertex 1.5622 -5.06454 -2.05
    endloop
  endfacet
  facet normal 0 0 -1
    outer loop
      vertex 0.789923 -5.2408 -2.05
      vertex 1.41494e-08 5.3 -2.05
      vertex 0.789924 5.2408 -2.05
    endloop
  endfacet
  facet normal 0 0 -1
    outer loop
      vertex -3.55578e-07 -5.3 -2.05
      vertex 1.41494e-08 5.3 -2.05
      vertex 0.789923 -5.2408 -2.05
    endloop
  endfacet
  facet normal 0 0 -1
    outer loop
      vertex -0.789924 -5.2408 -2.05
      vertex 1.41494e-08 5.3 -2.05
      vertex -3.55578e-07 -5.3 -2.05
    endloop
  endfacet
  facet normal 0 0 -1
    outer loop
      vertex -0.789924 -5.2408 -2.05
      vertex -0.789924 5.2408 -2.05
      vertex 1.41494e-08 5.3 -2.05
    endloop
  endfacet
  facet normal 0 0 -1
    outer loop
      vertex -1.5622 -5.06454 -2.05
      vertex -0.789924 5.2408 -2.05
      vertex -0.789924 -5.2408 -2.05
    endloop
  endfacet
  facet normal 0 0 -1
    outer loop
      vertex -1.5622 -5.06454 -2.05
      vertex -1.5622 5.06454 -2.05
      vertex -0.789924 5.2408 -2.05
    endloop
  endfacet
  facet normal 0 0 -1
    outer loop
      vertex -2.29958 -4.77513 -2.05
      vertex -1.5622 5.06454 -2.05
      vertex -1.5622 -5.06454 -2.05
    endloop
  endfacet
  facet normal 0 0 -1
    outer loop
      vertex -2.29958 -4.77513 -2.05
      vertex -2.29958 4.77514 -2.05
      vertex -1.5622 5.06454 -2.05
    endloop
  endfacet
  facet normal 0 0 -1
    outer loop
      vertex -2.9856 -4.37906 -2.05
      vertex -2.29958 4.77514 -2.05
      vertex -2.29958 -4.77513 -2.05
    endloop
  endfacet
  facet normal 0 0 -1
    outer loop
      vertex -2.9856 -4.37906 -2.05
      vertex -2.9856 4.37907 -2.05
      vertex -2.29958 4.77514 -2.05
    endloop
  endfacet
  facet normal 0 0 -1
    outer loop
      vertex -2.9856 -4.37906 -2.05
      vertex -3.60492 3.88518 -2.05
      vertex -2.9856 4.37907 -2.05
    endloop
  endfacet
  facet normal 0 0 -1
    outer loop
      vertex -3.60492 -3.88517 -2.05
      vertex -3.60492 3.88518 -2.05
      vertex -2.9856 -4.37906 -2.05
    endloop
  endfacet
  facet normal 0 0 -1
    outer loop
      vertex -4.14371 -3.3045 -2.05
      vertex -3.60492 3.88518 -2.05
      vertex -3.60492 -3.88517 -2.05
    endloop
  endfacet
  facet normal 0 0 -1
    outer loop
      vertex -4.14371 -3.3045 -2.05
      vertex -4.14371 3.3045 -2.05
      vertex -3.60492 3.88518 -2.05
    endloop
  endfacet
  facet normal 0 0 -1
    outer loop
      vertex -4.58993 -2.65 -2.05
      vertex -4.14371 3.3045 -2.05
      vertex -4.14371 -3.3045 -2.05
    endloop
  endfacet
  facet normal 0 0 -1
    outer loop
      vertex -4.58993 -2.65 -2.05
      vertex -4.58993 2.65 -2.05
      vertex -4.14371 3.3045 -2.05
    endloop
  endfacet
  facet normal 0 0 -1
    outer loop
      vertex -4.93363 -1.93631 -2.05
      vertex -4.58993 2.65 -2.05
      vertex -4.58993 -2.65 -2.05
    endloop
  endfacet
  facet normal 0 0 -1
    outer loop
      vertex -4.93363 -1.93631 -2.05
      vertex -4.93363 1.93631 -2.05
      vertex -4.58993 2.65 -2.05
    endloop
  endfacet
  facet normal 0 0 -1
    outer loop
      vertex -5.16712 -1.17936 -2.05
      vertex -4.93363 1.93631 -2.05
      vertex -4.93363 -1.93631 -2.05
    endloop
  endfacet
  facet normal 0 0 -1
    outer loop
      vertex -5.16712 -1.17936 -2.05
      vertex -5.16712 1.17936 -2.05
      vertex -4.93363 1.93631 -2.05
    endloop
  endfacet
  facet normal 0 0 -1
    outer loop
      vertex -5.16712 -1.17936 -2.05
      vertex -5.28518 0.396071 -2.05
      vertex -5.16712 1.17936 -2.05
    endloop
  endfacet
  facet normal 0 0 -1
    outer loop
      vertex -5.28518 0.396071 -2.05
      vertex -5.16712 -1.17936 -2.05
      vertex -5.28518 -0.396069 -2.05
    endloop
  endfacet
  facet normal -0.733053 0.680171 0
    outer loop
      vertex -4.14371 3.3045 -2.05
      vertex -3.60492 3.88518 -2
      vertex -3.60492 3.88518 -2.05
    endloop
  endfacet
  facet normal -0.733053 0.680171 0
    outer loop
      vertex -3.60492 3.88518 -2
      vertex -4.14371 3.3045 -2.05
      vertex -4.14371 3.3045 -2
    endloop
  endfacet
  facet normal -0.733053 0.680171 0
    outer loop
      vertex -4.14371 3.3045 0
      vertex -3.60492 3.88518 5
      vertex -3.60492 3.88518 0
    endloop
  endfacet
  facet normal -0.733053 0.680171 0
    outer loop
      vertex -3.60492 3.88518 5
      vertex -4.14371 3.3045 0
      vertex -4.14371 3.3045 5
    endloop
  endfacet
  facet normal -0.623489 0.781832 0
    outer loop
      vertex -2.9856 4.37907 -2.05
      vertex -3.60492 3.88518 -2
      vertex -2.9856 4.37907 -2
    endloop
  endfacet
  facet normal -0.623489 0.781832 0
    outer loop
      vertex -3.60492 3.88518 -2
      vertex -2.9856 4.37907 -2.05
      vertex -3.60492 3.88518 -2.05
    endloop
  endfacet
  facet normal -0.623489 0.781832 0
    outer loop
      vertex -2.9856 4.37907 0
      vertex -3.60492 3.88518 5
      vertex -2.9856 4.37907 5
    endloop
  endfacet
  facet normal -0.623489 0.781832 0
    outer loop
      vertex -3.60492 3.88518 5
      vertex -2.9856 4.37907 0
      vertex -3.60492 3.88518 0
    endloop
  endfacet
  facet normal -1 0 0
    outer loop
      vertex -5.28518 0.396071 -2.05
      vertex -5.28518 -0.0887523 -2
      vertex -5.28518 0.396071 -2
    endloop
  endfacet
  facet normal -1 0 0
    outer loop
      vertex -5.28518 -0.396069 -2.05
      vertex -5.28518 -0.0887523 -2
      vertex -5.28518 0.396071 -2.05
    endloop
  endfacet
  facet normal -1 0 0
    outer loop
      vertex -5.28518 -0.396069 5
      vertex -5.28518 -0.0887523 -2
      vertex -5.28518 -0.396069 -2.05
    endloop
  endfacet
  facet normal -1 0 0
    outer loop
      vertex -5.28518 -0.0887523 -2
      vertex -5.28518 -0.396069 5
      vertex -5.28518 -0.0887523 5
    endloop
  endfacet
  facet normal -0.988831 0.14904 0
    outer loop
      vertex -5.28518 0.396071 -2.05
      vertex -5.16712 1.17936 -2
      vertex -5.16712 1.17936 -2.05
    endloop
  endfacet
  facet normal -0.988831 0.14904 0
    outer loop
      vertex -5.16712 1.17936 -2
      vertex -5.28518 0.396071 -2.05
      vertex -5.28518 0.396071 -2
    endloop
  endfacet
  facet normal -0.826245 -0.563311 0
    outer loop
      vertex -4.14371 -3.3045 -2.05
      vertex -4.58993 -2.65 5
      vertex -4.58993 -2.65 -2.05
    endloop
  endfacet
  facet normal -0.826245 -0.563311 0
    outer loop
      vertex -4.58993 -2.65 5
      vertex -4.14371 -3.3045 -2.05
      vertex -4.14371 -3.3045 5
    endloop
  endfacet
  facet normal 0.623489 0.781832 -0
    outer loop
      vertex 3.60492 3.88518 -2.05
      vertex 2.9856 4.37907 -2
      vertex 3.60492 3.88518 -2
    endloop
  endfacet
  facet normal 0.623489 0.781832 0
    outer loop
      vertex 2.9856 4.37907 -2
      vertex 3.60492 3.88518 -2.05
      vertex 2.9856 4.37907 -2.05
    endloop
  endfacet
  facet normal 0.988831 0.14904 0
    outer loop
      vertex 5.28518 0.396071 5
      vertex 5.16712 1.17936 -2.05
      vertex 5.16712 1.17936 5
    endloop
  endfacet
  facet normal 0.988831 0.14904 0
    outer loop
      vertex 5.16712 1.17936 -2.05
      vertex 5.28518 0.396071 5
      vertex 5.28518 0.396071 -2.05
    endloop
  endfacet
  facet normal 0.222512 -0.97493 0
    outer loop
      vertex 0.789923 -5.2408 -2.05
      vertex 1.5622 -5.06454 5
      vertex 0.789923 -5.2408 5
    endloop
  endfacet
  facet normal 0.222512 -0.97493 0
    outer loop
      vertex 1.5622 -5.06454 5
      vertex 0.789923 -5.2408 -2.05
      vertex 1.5622 -5.06454 -2.05
    endloop
  endfacet
  facet normal -0.222513 0.97493 0
    outer loop
      vertex -0.789924 5.2408 0
      vertex -1.5622 5.06454 5
      vertex -0.789924 5.2408 5
    endloop
  endfacet
  facet normal -0.222513 0.97493 0
    outer loop
      vertex -1.5622 5.06454 5
      vertex -0.789924 5.2408 0
      vertex -1.5622 5.06454 0
    endloop
  endfacet
  facet normal -0.222513 0.97493 0
    outer loop
      vertex -0.789924 5.2408 -2.05
      vertex -1.5622 5.06454 -2
      vertex -0.789924 5.2408 -2
    endloop
  endfacet
  facet normal -0.222513 0.97493 0
    outer loop
      vertex -1.5622 5.06454 -2
      vertex -0.789924 5.2408 -2.05
      vertex -1.5622 5.06454 -2.05
    endloop
  endfacet
  facet normal -0.0747343 0.997203 0
    outer loop
      vertex 1.41494e-08 5.3 0
      vertex -0.789924 5.2408 5
      vertex 1.41494e-08 5.3 5
    endloop
  endfacet
  facet normal -0.0747343 0.997203 0
    outer loop
      vertex -0.789924 5.2408 5
      vertex 1.41494e-08 5.3 0
      vertex -0.789924 5.2408 0
    endloop
  endfacet
  facet normal -0.0747343 0.997203 0
    outer loop
      vertex 1.41494e-08 5.3 -2.05
      vertex -0.789924 5.2408 -2
      vertex 1.41494e-08 5.3 -2
    endloop
  endfacet
  facet normal -0.0747343 0.997203 0
    outer loop
      vertex -0.789924 5.2408 -2
      vertex 1.41494e-08 5.3 -2.05
      vertex -0.789924 5.2408 -2.05
    endloop
  endfacet
  facet normal -0.826245 0.563311 0
    outer loop
      vertex -4.58993 2.65 -2.05
      vertex -4.14371 3.3045 -2
      vertex -4.14371 3.3045 -2.05
    endloop
  endfacet
  facet normal -0.826245 0.563311 0
    outer loop
      vertex -4.14371 3.3045 -2
      vertex -4.58993 2.65 -2.05
      vertex -4.58993 2.65 -2
    endloop
  endfacet
  facet normal -0.826245 0.563311 0
    outer loop
      vertex -4.53157 2.7356 0
      vertex -4.14371 3.3045 5
      vertex -4.14371 3.3045 0
    endloop
  endfacet
  facet normal -0.826245 0.563311 0
    outer loop
      vertex -4.14371 3.3045 5
      vertex -4.53157 2.7356 0
      vertex -4.53157 2.7356 5
    endloop
  endfacet
  facet normal -0.900966 0.433889 0
    outer loop
      vertex -4.93363 1.93631 -2.05
      vertex -4.58993 2.65 -2
      vertex -4.58993 2.65 -2.05
    endloop
  endfacet
  facet normal -0.900966 0.433889 0
    outer loop
      vertex -4.58993 2.65 -2
      vertex -4.93363 1.93631 -2.05
      vertex -4.93363 1.93631 -2
    endloop
  endfacet
  facet normal -0.499996 0.866027 0
    outer loop
      vertex -2.29958 4.77514 0
      vertex -2.9856 4.37907 5
      vertex -2.29958 4.77514 5
    endloop
  endfacet
  facet normal -0.499996 0.866027 0
    outer loop
      vertex -2.9856 4.37907 5
      vertex -2.29958 4.77514 0
      vertex -2.9856 4.37907 0
    endloop
  endfacet
  facet normal -0.499996 0.866027 0
    outer loop
      vertex -2.29958 4.77514 -2.05
      vertex -2.9856 4.37907 -2
      vertex -2.29958 4.77514 -2
    endloop
  endfacet
  facet normal -0.499996 0.866027 0
    outer loop
      vertex -2.9856 4.37907 -2
      vertex -2.29958 4.77514 -2.05
      vertex -2.9856 4.37907 -2.05
    endloop
  endfacet
  facet normal -0.955572 -0.294757 0
    outer loop
      vertex -4.93363 -1.93631 -2.05
      vertex -5.16712 -1.17936 5
      vertex -5.16712 -1.17936 -2.05
    endloop
  endfacet
  facet normal -0.955572 -0.294757 0
    outer loop
      vertex -5.16712 -1.17936 5
      vertex -4.93363 -1.93631 -2.05
      vertex -4.93363 -1.93631 5
    endloop
  endfacet
  facet normal -0.988831 -0.14904 0
    outer loop
      vertex -5.16712 -1.17936 -2.05
      vertex -5.28518 -0.396069 5
      vertex -5.28518 -0.396069 -2.05
    endloop
  endfacet
  facet normal -0.988831 -0.14904 0
    outer loop
      vertex -5.28518 -0.396069 5
      vertex -5.16712 -1.17936 -2.05
      vertex -5.16712 -1.17936 5
    endloop
  endfacet
  facet normal -0.623489 -0.781832 0
    outer loop
      vertex -3.60492 -3.88517 -2.05
      vertex -2.9856 -4.37906 5
      vertex -3.60492 -3.88517 5
    endloop
  endfacet
  facet normal -0.623489 -0.781832 -0
    outer loop
      vertex -2.9856 -4.37906 5
      vertex -3.60492 -3.88517 -2.05
      vertex -2.9856 -4.37906 -2.05
    endloop
  endfacet
  facet normal -0.499996 -0.866027 0
    outer loop
      vertex -2.9856 -4.37906 -2.05
      vertex -2.29958 -4.77513 5
      vertex -2.9856 -4.37906 5
    endloop
  endfacet
  facet normal -0.499996 -0.866027 -0
    outer loop
      vertex -2.29958 -4.77513 5
      vertex -2.9856 -4.37906 -2.05
      vertex -2.29958 -4.77513 -2.05
    endloop
  endfacet
  facet normal -0.365352 -0.93087 0
    outer loop
      vertex -2.29958 -4.77513 -2.05
      vertex -1.5622 -5.06454 5
      vertex -2.29958 -4.77513 5
    endloop
  endfacet
  facet normal -0.365352 -0.93087 -0
    outer loop
      vertex -1.5622 -5.06454 5
      vertex -2.29958 -4.77513 -2.05
      vertex -1.5622 -5.06454 -2.05
    endloop
  endfacet
  facet normal 0.988831 -0.14904 0
    outer loop
      vertex 5.16712 -1.17936 5
      vertex 5.28518 -0.396069 -2.05
      vertex 5.28518 -0.396069 5
    endloop
  endfacet
  facet normal 0.988831 -0.14904 0
    outer loop
      vertex 5.28518 -0.396069 -2.05
      vertex 5.16712 -1.17936 5
      vertex 5.16712 -1.17936 -2.05
    endloop
  endfacet
  facet normal 0.900966 0.433889 0
    outer loop
      vertex 4.93363 1.93631 5
      vertex 4.58993 2.65 -2.05
      vertex 4.58993 2.65 5
    endloop
  endfacet
  facet normal 0.900966 0.433889 0
    outer loop
      vertex 4.58993 2.65 -2.05
      vertex 4.93363 1.93631 5
      vertex 4.93363 1.93631 -2.05
    endloop
  endfacet
  facet normal -0.0747344 -0.997203 0
    outer loop
      vertex -0.789924 -5.2408 -2.05
      vertex -3.55578e-07 -5.3 5
      vertex -0.789924 -5.2408 5
    endloop
  endfacet
  facet normal -0.0747344 -0.997203 -0
    outer loop
      vertex -3.55578e-07 -5.3 5
      vertex -0.789924 -5.2408 -2.05
      vertex -3.55578e-07 -5.3 -2.05
    endloop
  endfacet
  facet normal 0.365352 -0.93087 0
    outer loop
      vertex 1.5622 -5.06454 -2.05
      vertex 2.29958 -4.77513 5
      vertex 1.5622 -5.06454 5
    endloop
  endfacet
  facet normal 0.365352 -0.93087 0
    outer loop
      vertex 2.29958 -4.77513 5
      vertex 1.5622 -5.06454 -2.05
      vertex 2.29958 -4.77513 -2.05
    endloop
  endfacet
  facet normal 0.826245 -0.563311 0
    outer loop
      vertex 4.14371 -3.3045 5
      vertex 4.58993 -2.65 -2.05
      vertex 4.58993 -2.65 5
    endloop
  endfacet
  facet normal 0.826245 -0.563311 0
    outer loop
      vertex 4.58993 -2.65 -2.05
      vertex 4.14371 -3.3045 5
      vertex 4.14371 -3.3045 -2.05
    endloop
  endfacet
  facet normal 0.955572 -0.294757 0
    outer loop
      vertex 4.93363 -1.93631 5
      vertex 5.16712 -1.17936 -2.05
      vertex 5.16712 -1.17936 5
    endloop
  endfacet
  facet normal 0.955572 -0.294757 0
    outer loop
      vertex 5.16712 -1.17936 -2.05
      vertex 4.93363 -1.93631 5
      vertex 4.93363 -1.93631 -2.05
    endloop
  endfacet
  facet normal 0.733047 -0.680177 0
    outer loop
      vertex 3.60492 -3.88517 5
      vertex 4.14371 -3.3045 -2.05
      vertex 4.14371 -3.3045 5
    endloop
  endfacet
  facet normal 0.733047 -0.680177 0
    outer loop
      vertex 4.14371 -3.3045 -2.05
      vertex 3.60492 -3.88517 5
      vertex 3.60492 -3.88517 -2.05
    endloop
  endfacet
  facet normal 0.499996 -0.866027 0
    outer loop
      vertex 2.29958 -4.77513 -2.05
      vertex 2.9856 -4.37906 5
      vertex 2.29958 -4.77513 5
    endloop
  endfacet
  facet normal 0.499996 -0.866027 0
    outer loop
      vertex 2.9856 -4.37906 5
      vertex 2.29958 -4.77513 -2.05
      vertex 2.9856 -4.37906 -2.05
    endloop
  endfacet
  facet normal 0.499996 0.866027 -0
    outer loop
      vertex 2.9856 4.37907 -2.05
      vertex 2.29958 4.77514 -2
      vertex 2.9856 4.37907 -2
    endloop
  endfacet
  facet normal 0.499996 0.866027 0
    outer loop
      vertex 2.29958 4.77514 -2
      vertex 2.9856 4.37907 -2.05
      vertex 2.29958 4.77514 -2.05
    endloop
  endfacet
  facet normal 0.73304 0.680185 0
    outer loop
      vertex 3.70887 3.77313 5
      vertex 4.14371 3.3045 5
      vertex 3.70887 3.77313 -2
    endloop
  endfacet
  facet normal 0.733108 0.680112 0
    outer loop
      vertex 3.70887 3.77313 -2
      vertex 3.60492 3.88518 -2.05
      vertex 3.60492 3.88518 -2
    endloop
  endfacet
  facet normal 0.733053 0.680171 0.000245752
    outer loop
      vertex 3.70887 3.77313 -2
      vertex 4.14371 3.3045 -2.05
      vertex 3.60492 3.88518 -2.05
    endloop
  endfacet
  facet normal 0.73304 0.680185 -0
    outer loop
      vertex 4.14371 3.3045 -2.05
      vertex 3.70887 3.77313 -2
      vertex 4.14371 3.3045 5
    endloop
  endfacet
  facet normal 0.955572 0.294757 0
    outer loop
      vertex 5.16712 1.17936 5
      vertex 4.93363 1.93631 -2.05
      vertex 4.93363 1.93631 5
    endloop
  endfacet
  facet normal 0.955572 0.294757 0
    outer loop
      vertex 4.93363 1.93631 -2.05
      vertex 5.16712 1.17936 5
      vertex 5.16712 1.17936 -2.05
    endloop
  endfacet
  facet normal 1 -0 0
    outer loop
      vertex 5.28518 -0.396069 5
      vertex 5.28518 0.396071 -2.05
      vertex 5.28518 0.396071 5
    endloop
  endfacet
  facet normal 1 0 0
    outer loop
      vertex 5.28518 0.396071 -2.05
      vertex 5.28518 -0.396069 5
      vertex 5.28518 -0.396069 -2.05
    endloop
  endfacet
  facet normal 0.900966 -0.433889 0
    outer loop
      vertex 4.58993 -2.65 5
      vertex 4.93363 -1.93631 -2.05
      vertex 4.93363 -1.93631 5
    endloop
  endfacet
  facet normal 0.900966 -0.433889 0
    outer loop
      vertex 4.93363 -1.93631 -2.05
      vertex 4.58993 -2.65 5
      vertex 4.58993 -2.65 -2.05
    endloop
  endfacet
  facet normal 0.623489 -0.781832 0
    outer loop
      vertex 2.9856 -4.37906 -2.05
      vertex 3.60492 -3.88517 5
      vertex 2.9856 -4.37906 5
    endloop
  endfacet
  facet normal 0.623489 -0.781832 0
    outer loop
      vertex 3.60492 -3.88517 5
      vertex 2.9856 -4.37906 -2.05
      vertex 3.60492 -3.88517 -2.05
    endloop
  endfacet
  facet normal 0 0 1
    outer loop
      vertex 3.68641 11.189 5
      vertex 6.4765 11.6622 5
      vertex 6.32817 13.0735 5
    endloop
  endfacet
  facet normal 0 0 1
    outer loop
      vertex 6.4765 11.6622 5
      vertex 3.68641 11.189 5
      vertex 6.44678 10.2435 5
    endloop
  endfacet
  facet normal 0 0 1
    outer loop
      vertex 3.50067 12.9563 5
      vertex 6.32817 13.0735 5
      vertex 6.00412 14.4551 5
    endloop
  endfacet
  facet normal 0 0 1
    outer loop
      vertex 3.50067 9.42179 5
      vertex 6.44678 10.2435 5
      vertex 3.68641 11.189 5
    endloop
  endfacet
  facet normal -0 0 1
    outer loop
      vertex 2.95155 14.6463 5
      vertex 6.00412 14.4551 5
      vertex 5.50948 15.7852 5
    endloop
  endfacet
  facet normal 0 0 1
    outer loop
      vertex 6.44678 10.2435 5
      vertex 3.50067 9.42179 5
      vertex 6.23948 8.83964 5
    endloop
  endfacet
  facet normal 0 0 1
    outer loop
      vertex 2.95155 14.6463 5
      vertex 5.50948 15.7852 5
      vertex 4.85203 17.0427 5
    endloop
  endfacet
  facet normal 0 0 1
    outer loop
      vertex 6.23948 8.83964 5
      vertex 3.50067 9.42179 5
      vertex 5.85787 7.47285 5
    endloop
  endfacet
  facet normal 0 0 1
    outer loop
      vertex 2.06306 16.1852 5
      vertex 4.85203 17.0427 5
      vertex 4.04215 18.208 5
    endloop
  endfacet
  facet normal -0 0 1
    outer loop
      vertex 2.95155 7.73178 5
      vertex 5.85787 7.47285 5
      vertex 3.50067 9.42179 5
    endloop
  endfacet
  facet normal 0 0 1
    outer loop
      vertex 5.85787 7.47285 5
      vertex 2.95155 7.73178 5
      vertex 5.30796 6.16466 5
    endloop
  endfacet
  facet normal 0 0 1
    outer loop
      vertex 5.30796 6.16466 5
      vertex 2.95155 7.73178 5
      vertex 4.59842 4.93572 5
    endloop
  endfacet
  facet normal 0 0 1
    outer loop
      vertex 6.32817 13.0735 5
      vertex 3.50067 12.9563 5
      vertex 3.68641 11.189 5
    endloop
  endfacet
  facet normal 0 0 1
    outer loop
      vertex 2.06306 16.1852 5
      vertex 4.04215 18.208 5
      vertex 3.09261 19.2626 5
    endloop
  endfacet
  facet normal 0 0 1
    outer loop
      vertex 6.00412 14.4551 5
      vertex 2.95155 14.6463 5
      vertex 3.50067 12.9563 5
    endloop
  endfacet
  facet normal 0 0 1
    outer loop
      vertex 4.85203 17.0427 5
      vertex 2.06306 16.1852 5
      vertex 2.95155 14.6463 5
    endloop
  endfacet
  facet normal 0 0 1
    outer loop
      vertex 0.874024 17.5058 5
      vertex 3.09261 19.2626 5
      vertex 2.01838 20.1898 5
    endloop
  endfacet
  facet normal 0 0 1
    outer loop
      vertex 3.09261 19.2626 5
      vertex 0.874024 17.5058 5
      vertex 2.06306 16.1852 5
    endloop
  endfacet
  facet normal 0 0 1
    outer loop
      vertex -0.563585 18.5503 5
      vertex 2.01838 20.1898 5
      vertex 0.836414 20.9751 5
    endloop
  endfacet
  facet normal 0 0 1
    outer loop
      vertex -0.563585 18.5503 5
      vertex 0.836414 20.9751 5
      vertex -0.434659 21.6061 5
    endloop
  endfacet
  facet normal 0 0 1
    outer loop
      vertex 2.01838 20.1898 5
      vertex -0.563585 18.5503 5
      vertex 0.874024 17.5058 5
    endloop
  endfacet
  facet normal 0 0 1
    outer loop
      vertex -2.18694 19.273 5
      vertex -0.434659 21.6061 5
      vertex -1.77479 22.0728 5
    endloop
  endfacet
  facet normal 0 0 1
    outer loop
      vertex -0.434659 21.6061 5
      vertex -2.18694 19.273 5
      vertex -0.563585 18.5503 5
    endloop
  endfacet
  facet normal 0 0 1
    outer loop
      vertex -3.16285 22.3678 5
      vertex -2.18694 19.273 5
      vertex -1.77479 22.0728 5
    endloop
  endfacet
  facet normal 0 0 1
    outer loop
      vertex -3.16285 22.3678 5
      vertex -3.92509 19.6425 5
      vertex -2.18694 19.273 5
    endloop
  endfacet
  facet normal 0 0 1
    outer loop
      vertex -4.57694 22.4866 5
      vertex -3.92509 19.6425 5
      vertex -3.16285 22.3678 5
    endloop
  endfacet
  facet normal 0 0 1
    outer loop
      vertex -4.57694 22.4866 5
      vertex -5.70208 19.6425 5
      vertex -3.92509 19.6425 5
    endloop
  endfacet
  facet normal -0 0 1
    outer loop
      vertex -5.99476 22.4271 5
      vertex -5.70208 19.6425 5
      vertex -4.57694 22.4866 5
    endloop
  endfacet
  facet normal -0 0 1
    outer loop
      vertex -7.39395 22.1905 5
      vertex -5.70208 19.6425 5
      vertex -5.99476 22.4271 5
    endloop
  endfacet
  facet normal 0 0 1
    outer loop
      vertex -7.39395 22.1905 5
      vertex -7.44023 19.273 5
      vertex -5.70208 19.6425 5
    endloop
  endfacet
  facet normal -0 0 1
    outer loop
      vertex -8.75245 21.7803 5
      vertex -7.44023 19.273 5
      vertex -7.39395 22.1905 5
    endloop
  endfacet
  facet normal 0 0 1
    outer loop
      vertex -8.75245 21.7803 5
      vertex -9.06359 18.5503 5
      vertex -7.44023 19.273 5
    endloop
  endfacet
  facet normal -0 0 1
    outer loop
      vertex -10.0488 21.2031 5
      vertex -9.06359 18.5503 5
      vertex -8.75245 21.7803 5
    endloop
  endfacet
  facet normal -0 0 1
    outer loop
      vertex -11.2626 20.468 5
      vertex -9.06359 18.5503 5
      vertex -10.0488 21.2031 5
    endloop
  endfacet
  facet normal 0 0 1
    outer loop
      vertex -9.06359 18.5503 5
      vertex -11.2626 20.468 5
      vertex -10.5012 17.5058 5
    endloop
  endfacet
  facet normal -0 0 1
    outer loop
      vertex -12.3748 19.5866 5
      vertex -10.5012 17.5058 5
      vertex -11.2626 20.468 5
    endloop
  endfacet
  facet normal -0 0 1
    outer loop
      vertex -13.3676 18.5727 5
      vertex -10.5012 17.5058 5
      vertex -12.3748 19.5866 5
    endloop
  endfacet
  facet normal 0 0 1
    outer loop
      vertex -10.5012 17.5058 5
      vertex -13.3676 18.5727 5
      vertex -11.6902 16.1852 5
    endloop
  endfacet
  facet normal -0 0 1
    outer loop
      vertex -14.2256 17.4424 5
      vertex -11.6902 16.1852 5
      vertex -13.3676 18.5727 5
    endloop
  endfacet
  facet normal -0 0 1
    outer loop
      vertex -14.9351 16.2134 5
      vertex -12.5787 14.6463 5
      vertex -14.2256 17.4424 5
    endloop
  endfacet
  facet normal 0 0 1
    outer loop
      vertex -11.6902 16.1852 5
      vertex -14.2256 17.4424 5
      vertex -12.5787 14.6463 5
    endloop
  endfacet
  facet normal 0 0 1
    outer loop
      vertex 5.28518 0.396071 5
      vertex 5.16712 -1.17936 5
      vertex 5.28518 -0.396069 5
    endloop
  endfacet
  facet normal 0 0 1
    outer loop
      vertex 5.16712 1.17936 5
      vertex 5.16712 -1.17936 5
      vertex 5.28518 0.396071 5
    endloop
  endfacet
  facet normal 0 0 1
    outer loop
      vertex 5.16712 1.17936 5
      vertex 4.93363 -1.93631 5
      vertex 5.16712 -1.17936 5
    endloop
  endfacet
  facet normal 0 0 1
    outer loop
      vertex 4.93363 1.93631 5
      vertex 4.93363 -1.93631 5
      vertex 5.16712 1.17936 5
    endloop
  endfacet
  facet normal 0 0 1
    outer loop
      vertex 4.93363 1.93631 5
      vertex 4.58993 -2.65 5
      vertex 4.93363 -1.93631 5
    endloop
  endfacet
  facet normal 0 0 1
    outer loop
      vertex 4.58993 2.65 5
      vertex 4.58993 -2.65 5
      vertex 4.93363 1.93631 5
    endloop
  endfacet
  facet normal 0 0 1
    outer loop
      vertex 3.70887 3.77313 5
      vertex 4.58993 2.65 5
      vertex 4.14371 3.3045 5
    endloop
  endfacet
  facet normal 0 0 1
    outer loop
      vertex 4.58993 2.65 5
      vertex 3.70887 3.77313 5
      vertex 4.58993 -2.65 5
    endloop
  endfacet
  facet normal 0 0 1
    outer loop
      vertex 4.58993 -2.65 5
      vertex 3.70887 3.77313 5
      vertex 4.14371 -3.3045 5
    endloop
  endfacet
  facet normal 0 0 1
    outer loop
      vertex 3.70887 3.77313 5
      vertex 3.60492 -3.88517 5
      vertex 4.14371 -3.3045 5
    endloop
  endfacet
  facet normal -0 0 1
    outer loop
      vertex 2.06306 6.19287 5
      vertex 4.59842 4.93572 5
      vertex 2.95155 7.73178 5
    endloop
  endfacet
  facet normal 0 0 1
    outer loop
      vertex 4.59842 4.93572 5
      vertex 2.06306 6.19287 5
      vertex 3.74046 3.80539 5
    endloop
  endfacet
  facet normal 0 0 1
    outer loop
      vertex 3.74046 3.80539 5
      vertex 2.06306 6.19287 5
      vertex 3.70887 3.77313 5
    endloop
  endfacet
  facet normal -0 0 1
    outer loop
      vertex 1.13492 5.16206 5
      vertex 3.70887 3.77313 5
      vertex 2.06306 6.19287 5
    endloop
  endfacet
  facet normal 0 0 1
    outer loop
      vertex 3.70887 3.77313 5
      vertex 1.13492 5.16206 5
      vertex 3.60492 -3.88517 5
    endloop
  endfacet
  facet normal 0 0 1
    outer loop
      vertex 3.60492 -3.88517 5
      vertex 1.13492 5.16206 5
      vertex 2.9856 -4.37906 5
    endloop
  endfacet
  facet normal 0 0 1
    outer loop
      vertex 2.9856 -4.37906 5
      vertex 1.13492 5.16206 5
      vertex 2.29958 -4.77513 5
    endloop
  endfacet
  facet normal 0 0 1
    outer loop
      vertex 2.29958 -4.77513 5
      vertex 1.13492 5.16206 5
      vertex 1.5622 -5.06454 5
    endloop
  endfacet
  facet normal 0 0 1
    outer loop
      vertex 1.41494e-08 5.3 5
      vertex 1.13492 5.16206 5
      vertex 0.789924 5.2408 5
    endloop
  endfacet
  facet normal 0 0 1
    outer loop
      vertex 1.13492 5.16206 5
      vertex 0.789923 -5.2408 5
      vertex 1.5622 -5.06454 5
    endloop
  endfacet
  facet normal -0 0 1
    outer loop
      vertex -0.789924 5.2408 5
      vertex 1.13492 5.16206 5
      vertex 1.41494e-08 5.3 5
    endloop
  endfacet
  facet normal 0 0 1
    outer loop
      vertex 1.13492 5.16206 5
      vertex -3.55578e-07 -5.3 5
      vertex 0.789923 -5.2408 5
    endloop
  endfacet
  facet normal 0 0 1
    outer loop
      vertex 1.13492 5.16206 5
      vertex -0.789924 -5.2408 5
      vertex -3.55578e-07 -5.3 5
    endloop
  endfacet
  facet normal 0 0 1
    outer loop
      vertex 1.13492 5.16206 5
      vertex -0.789924 5.2408 5
      vertex -0.789924 -5.2408 5
    endloop
  endfacet
  facet normal 0 0 1
    outer loop
      vertex -0.789924 5.2408 5
      vertex -1.5622 -5.06454 5
      vertex -0.789924 -5.2408 5
    endloop
  endfacet
  facet normal -0 0 1
    outer loop
      vertex -1.5622 5.06454 5
      vertex -1.5622 -5.06454 5
      vertex -0.789924 5.2408 5
    endloop
  endfacet
  facet normal -0 0 1
    outer loop
      vertex -2.29958 4.77514 5
      vertex -1.5622 -5.06454 5
      vertex -1.5622 5.06454 5
    endloop
  endfacet
  facet normal 0 0 1
    outer loop
      vertex -2.29958 4.77514 5
      vertex -2.29958 -4.77513 5
      vertex -1.5622 -5.06454 5
    endloop
  endfacet
  facet normal 0 0 1
    outer loop
      vertex -2.29958 4.77514 5
      vertex -2.9856 -4.37906 5
      vertex -2.29958 -4.77513 5
    endloop
  endfacet
  facet normal -0 0 1
    outer loop
      vertex -2.9856 4.37907 5
      vertex -2.9856 -4.37906 5
      vertex -2.29958 4.77514 5
    endloop
  endfacet
  facet normal -0 0 1
    outer loop
      vertex -3.60492 3.88518 5
      vertex -2.9856 -4.37906 5
      vertex -2.9856 4.37907 5
    endloop
  endfacet
  facet normal 0 0 1
    outer loop
      vertex -3.60492 3.88518 5
      vertex -3.60492 -3.88517 5
      vertex -2.9856 -4.37906 5
    endloop
  endfacet
  facet normal 0 0 1
    outer loop
      vertex -3.60492 3.88518 5
      vertex -4.14371 -3.3045 5
      vertex -3.60492 -3.88517 5
    endloop
  endfacet
  facet normal 0 0 1
    outer loop
      vertex -4.53157 2.7356 5
      vertex -3.60492 3.88518 5
      vertex -4.14371 3.3045 5
    endloop
  endfacet
  facet normal 0 0 1
    outer loop
      vertex -3.60492 3.88518 5
      vertex -4.53157 2.7356 5
      vertex -4.14371 -3.3045 5
    endloop
  endfacet
  facet normal 0 0 1
    outer loop
      vertex -4.53157 2.7356 5
      vertex -4.58993 -2.65 5
      vertex -4.14371 -3.3045 5
    endloop
  endfacet
  facet normal -0 0 1
    outer loop
      vertex -5.28518 -0.0887523 5
      vertex -4.58993 -2.65 5
      vertex -4.53157 2.7356 5
    endloop
  endfacet
  facet normal 0 0 1
    outer loop
      vertex -4.58993 -2.65 5
      vertex -5.28518 -0.0887523 5
      vertex -4.93363 -1.93631 5
    endloop
  endfacet
  facet normal 0 0 1
    outer loop
      vertex -4.93363 -1.93631 5
      vertex -5.28518 -0.0887523 5
      vertex -5.16712 -1.17936 5
    endloop
  endfacet
  facet normal -0 0 1
    outer loop
      vertex -5.70208 2.7356 5
      vertex -5.28518 -0.0887523 5
      vertex -4.53157 2.7356 5
    endloop
  endfacet
  facet normal 0 0 1
    outer loop
      vertex -5.70208 2.7356 5
      vertex -6.46432 0.010263 5
      vertex -5.28518 -0.0887523 5
    endloop
  endfacet
  facet normal 0 0 1
    outer loop
      vertex -7.44023 3.10506 5
      vertex -6.46432 0.010263 5
      vertex -5.70208 2.7356 5
    endloop
  endfacet
  facet normal 0 0 1
    outer loop
      vertex -7.44023 3.10506 5
      vertex -7.85238 0.305303 5
      vertex -6.46432 0.010263 5
    endloop
  endfacet
  facet normal 0 0 1
    outer loop
      vertex -9.19251 0.771986 5
      vertex -7.44023 3.10506 5
      vertex -9.06359 3.82782 5
    endloop
  endfacet
  facet normal 0 0 1
    outer loop
      vertex -7.44023 3.10506 5
      vertex -9.19251 0.771986 5
      vertex -7.85238 0.305303 5
    endloop
  endfacet
  facet normal 0 0 1
    outer loop
      vertex -9.06359 3.82782 5
      vertex -10.4636 1.40295 5
      vertex -9.19251 0.771986 5
    endloop
  endfacet
  facet normal 0 0 1
    outer loop
      vertex -11.6456 2.18825 5
      vertex -9.06359 3.82782 5
      vertex -10.5012 4.87231 5
    endloop
  endfacet
  facet normal 0 0 1
    outer loop
      vertex -9.06359 3.82782 5
      vertex -11.6456 2.18825 5
      vertex -10.4636 1.40295 5
    endloop
  endfacet
  facet normal 0 0 1
    outer loop
      vertex -12.7198 3.1155 5
      vertex -10.5012 4.87231 5
      vertex -11.6902 6.19287 5
    endloop
  endfacet
  facet normal 0 0 1
    outer loop
      vertex -14.4792 5.33533 5
      vertex -11.6902 6.19287 5
      vertex -12.5787 7.73178 5
    endloop
  endfacet
  facet normal 0 0 1
    outer loop
      vertex -10.5012 4.87231 5
      vertex -12.7198 3.1155 5
      vertex -11.6456 2.18825 5
    endloop
  endfacet
  facet normal -0 0 1
    outer loop
      vertex -15.6313 7.92298 5
      vertex -12.5787 7.73178 5
      vertex -13.1278 9.42179 5
    endloop
  endfacet
  facet normal 0 0 1
    outer loop
      vertex -15.9553 9.30455 5
      vertex -13.1278 9.42179 5
      vertex -13.3136 11.189 5
    endloop
  endfacet
  facet normal 0 0 1
    outer loop
      vertex -11.6902 6.19287 5
      vertex -13.6693 4.17007 5
      vertex -12.7198 3.1155 5
    endloop
  endfacet
  facet normal -0 0 1
    outer loop
      vertex -15.485 14.9052 5
      vertex -12.5787 14.6463 5
      vertex -14.9351 16.2134 5
    endloop
  endfacet
  facet normal 0 0 1
    outer loop
      vertex -12.5787 14.6463 5
      vertex -15.485 14.9052 5
      vertex -13.1278 12.9563 5
    endloop
  endfacet
  facet normal 0 0 1
    outer loop
      vertex -11.6902 6.19287 5
      vertex -14.4792 5.33533 5
      vertex -13.6693 4.17007 5
    endloop
  endfacet
  facet normal -0 0 1
    outer loop
      vertex -15.8667 13.5384 5
      vertex -13.1278 12.9563 5
      vertex -15.485 14.9052 5
    endloop
  endfacet
  facet normal 0 0 1
    outer loop
      vertex -12.5787 7.73178 5
      vertex -15.1366 6.59292 5
      vertex -14.4792 5.33533 5
    endloop
  endfacet
  facet normal 0 0 1
    outer loop
      vertex -16.074 12.1346 5
      vertex -13.1278 12.9563 5
      vertex -15.8667 13.5384 5
    endloop
  endfacet
  facet normal 0 0 1
    outer loop
      vertex -12.5787 7.73178 5
      vertex -15.6313 7.92298 5
      vertex -15.1366 6.59292 5
    endloop
  endfacet
  facet normal 0 0 1
    outer loop
      vertex -13.1278 12.9563 5
      vertex -16.074 12.1346 5
      vertex -13.3136 11.189 5
    endloop
  endfacet
  facet normal 0 0 1
    outer loop
      vertex -13.1278 9.42179 5
      vertex -15.9553 9.30455 5
      vertex -15.6313 7.92298 5
    endloop
  endfacet
  facet normal 0 0 1
    outer loop
      vertex -16.1037 10.7158 5
      vertex -13.3136 11.189 5
      vertex -16.074 12.1346 5
    endloop
  endfacet
  facet normal 0 0 1
    outer loop
      vertex -13.3136 11.189 5
      vertex -16.1037 10.7158 5
      vertex -15.9553 9.30455 5
    endloop
  endfacet
  facet normal 0 0 1
    outer loop
      vertex -5.16712 -1.17936 5
      vertex -5.28518 -0.0887523 5
      vertex -5.28518 -0.396069 5
    endloop
  endfacet
endsolid OpenSCAD_Model
