solid OpenSCAD_Model
  facet normal 0 -1 0
    outer loop
      vertex -6.49228 17.8353 0
      vertex -4.81983 17.8353 5
      vertex -6.49228 17.8353 5
    endloop
  endfacet
  facet normal 0 -1 -0
    outer loop
      vertex -4.81983 17.8353 5
      vertex -6.49228 17.8353 0
      vertex -4.81983 17.8353 0
    endloop
  endfacet
  facet normal 0.743143 0.669133 0
    outer loop
      vertex -11.0091 3.93399 5
      vertex -12.1282 5.17687 0
      vertex -12.1282 5.17687 5
    endloop
  endfacet
  facet normal 0.743143 0.669133 0
    outer loop
      vertex -12.1282 5.17687 0
      vertex -11.0091 3.93399 5
      vertex -11.0091 3.93399 0
    endloop
  endfacet
  facet normal 0.207898 -0.97815 0
    outer loop
      vertex -8.12819 17.4876 0
      vertex -6.49228 17.8353 5
      vertex -8.12819 17.4876 5
    endloop
  endfacet
  facet normal 0.207898 -0.97815 0
    outer loop
      vertex -6.49228 17.8353 5
      vertex -8.12819 17.4876 0
      vertex -6.49228 17.8353 0
    endloop
  endfacet
  facet normal 0.743148 -0.669127 0
    outer loop
      vertex -12.1282 14.5814 5
      vertex -11.0091 15.8243 0
      vertex -11.0091 15.8243 5
    endloop
  endfacet
  facet normal 0.743148 -0.669127 0
    outer loop
      vertex -11.0091 15.8243 0
      vertex -12.1282 14.5814 5
      vertex -12.1282 14.5814 0
    endloop
  endfacet
  facet normal 0.994517 -0.104579 0
    outer loop
      vertex -13.6561 9.87915 5
      vertex -13.4812 11.5424 0
      vertex -13.4812 11.5424 5
    endloop
  endfacet
  facet normal 0.994517 -0.104579 0
    outer loop
      vertex -13.4812 11.5424 0
      vertex -13.6561 9.87915 5
      vertex -13.6561 9.87915 0
    endloop
  endfacet
  facet normal -0.587806 -0.809002 0
    outer loop
      vertex -1.65606 16.8074 0
      vertex -0.303012 15.8243 5
      vertex -1.65606 16.8074 5
    endloop
  endfacet
  facet normal -0.587806 -0.809002 -0
    outer loop
      vertex -0.303012 15.8243 5
      vertex -1.65606 16.8074 0
      vertex -0.303012 15.8243 0
    endloop
  endfacet
  facet normal -0.207898 -0.97815 0
    outer loop
      vertex -4.81983 17.8353 0
      vertex -3.18392 17.4876 5
      vertex -4.81983 17.8353 5
    endloop
  endfacet
  facet normal -0.207898 -0.97815 -0
    outer loop
      vertex -3.18392 17.4876 5
      vertex -4.81983 17.8353 0
      vertex -3.18392 17.4876 0
    endloop
  endfacet
  facet normal 0.406713 -0.913556 0
    outer loop
      vertex -9.65605 16.8074 0
      vertex -8.12819 17.4876 5
      vertex -9.65605 16.8074 5
    endloop
  endfacet
  facet normal 0.406713 -0.913556 0
    outer loop
      vertex -8.12819 17.4876 5
      vertex -9.65605 16.8074 0
      vertex -8.12819 17.4876 0
    endloop
  endfacet
  facet normal 0.866034 -0.499985 0
    outer loop
      vertex -12.9644 13.133 5
      vertex -12.1282 14.5814 0
      vertex -12.1282 14.5814 5
    endloop
  endfacet
  facet normal 0.866034 -0.499985 0
    outer loop
      vertex -12.1282 14.5814 0
      vertex -12.9644 13.133 5
      vertex -12.9644 13.133 0
    endloop
  endfacet
  facet normal 0.587805 -0.809002 0
    outer loop
      vertex -11.0091 15.8243 0
      vertex -9.65605 16.8074 5
      vertex -11.0091 15.8243 5
    endloop
  endfacet
  facet normal 0.587805 -0.809002 0
    outer loop
      vertex -9.65605 16.8074 5
      vertex -11.0091 15.8243 0
      vertex -9.65605 16.8074 0
    endloop
  endfacet
  facet normal 0.587789 0.809014 -0
    outer loop
      vertex -9.65606 2.95094 0
      vertex -11.0091 3.93399 5
      vertex -9.65606 2.95094 5
    endloop
  endfacet
  facet normal 0.587789 0.809014 0
    outer loop
      vertex -11.0091 3.93399 5
      vertex -9.65606 2.95094 0
      vertex -11.0091 3.93399 0
    endloop
  endfacet
  facet normal 0.866031 0.49999 0
    outer loop
      vertex -12.1282 5.17687 5
      vertex -12.9644 6.62525 0
      vertex -12.9644 6.62525 5
    endloop
  endfacet
  facet normal 0.866031 0.49999 0
    outer loop
      vertex -12.9644 6.62525 0
      vertex -12.1282 5.17687 5
      vertex -12.1282 5.17687 0
    endloop
  endfacet
  facet normal 0.994517 0.104576 0
    outer loop
      vertex -13.4812 8.21585 5
      vertex -13.6561 9.87915 0
      vertex -13.6561 9.87915 5
    endloop
  endfacet
  facet normal 0.994517 0.104576 0
    outer loop
      vertex -13.6561 9.87915 0
      vertex -13.4812 8.21585 5
      vertex -13.4812 8.21585 0
    endloop
  endfacet
  facet normal 0.95106 -0.309008 0
    outer loop
      vertex -13.4812 11.5424 5
      vertex -12.9644 13.133 0
      vertex -12.9644 13.133 5
    endloop
  endfacet
  facet normal 0.95106 -0.309008 0
    outer loop
      vertex -12.9644 13.133 0
      vertex -13.4812 11.5424 5
      vertex -13.4812 11.5424 0
    endloop
  endfacet
  facet normal 0.95106 0.309008 0
    outer loop
      vertex -12.9644 6.62525 5
      vertex -13.4812 8.21585 0
      vertex -13.4812 8.21585 5
    endloop
  endfacet
  facet normal 0.95106 0.309008 0
    outer loop
      vertex -13.4812 8.21585 0
      vertex -12.9644 6.62525 5
      vertex -12.9644 6.62525 0
    endloop
  endfacet
  facet normal -0.406713 -0.913556 0
    outer loop
      vertex -3.18392 17.4876 0
      vertex -1.65606 16.8074 5
      vertex -3.18392 17.4876 5
    endloop
  endfacet
  facet normal -0.406713 -0.913556 -0
    outer loop
      vertex -1.65606 16.8074 5
      vertex -3.18392 17.4876 0
      vertex -1.65606 16.8074 0
    endloop
  endfacet
  facet normal 0 1 -0
    outer loop
      vertex -4.93774 1.92297 0
      vertex -6.49228 1.92297 5
      vertex -4.93774 1.92297 5
    endloop
  endfacet
  facet normal 0 1 0
    outer loop
      vertex -6.49228 1.92297 5
      vertex -4.93774 1.92297 0
      vertex -6.49228 1.92297 0
    endloop
  endfacet
  facet normal -0.994522 -0.104532 0
    outer loop
      vertex 2.34394 9.87915 0
      vertex 2.16912 11.5424 5
      vertex 2.16912 11.5424 0
    endloop
  endfacet
  facet normal -0.994522 -0.104532 0
    outer loop
      vertex 2.16912 11.5424 5
      vertex 2.34394 9.87915 0
      vertex 2.34394 9.87915 5
    endloop
  endfacet
  facet normal -0.866026 -0.499998 0
    outer loop
      vertex 1.65231 13.133 0
      vertex 0.81608 14.5814 5
      vertex 0.81608 14.5814 0
    endloop
  endfacet
  facet normal -0.866026 -0.499998 0
    outer loop
      vertex 0.81608 14.5814 5
      vertex 1.65231 13.133 0
      vertex 1.65231 13.133 5
    endloop
  endfacet
  facet normal -0.866025 0.500001 0
    outer loop
      vertex 0.845651 5.22808 0
      vertex 1.65231 6.62525 5
      vertex 1.65231 6.62525 0
    endloop
  endfacet
  facet normal -0.866025 0.500001 0
    outer loop
      vertex 1.65231 6.62525 5
      vertex 0.845651 5.22808 0
      vertex 0.845651 5.22808 5
    endloop
  endfacet
  facet normal 0 0 1
    outer loop
      vertex -1.5622 5.06454 0
      vertex 2.34394 9.87915 0
      vertex 2.16912 11.5424 0
    endloop
  endfacet
  facet normal 0 0 1
    outer loop
      vertex -1.5622 5.06454 0
      vertex 2.16912 11.5424 0
      vertex 1.65231 13.133 0
    endloop
  endfacet
  facet normal 0 -0 1
    outer loop
      vertex -0.789924 5.2408 0
      vertex 2.34394 9.87915 0
      vertex -1.5622 5.06454 0
    endloop
  endfacet
  facet normal 0 0 1
    outer loop
      vertex 2.16912 8.21585 0
      vertex -0.789924 5.2408 0
      vertex 1.65231 6.62525 0
    endloop
  endfacet
  facet normal 0 0 1
    outer loop
      vertex -1.5622 5.06454 0
      vertex 1.65231 13.133 0
      vertex 0.81608 14.5814 0
    endloop
  endfacet
  facet normal 0 0 1
    outer loop
      vertex 1.65231 6.62525 0
      vertex 0.789923 5.2408 0
      vertex 0.845651 5.22808 0
    endloop
  endfacet
  facet normal 0 0 1
    outer loop
      vertex 1.65231 6.62525 0
      vertex -3.96897e-07 5.3 0
      vertex 0.789923 5.2408 0
    endloop
  endfacet
  facet normal 0 0 1
    outer loop
      vertex -2.29958 4.77514 0
      vertex 0.81608 14.5814 0
      vertex -0.303012 15.8243 0
    endloop
  endfacet
  facet normal 0 0 1
    outer loop
      vertex 1.65231 6.62525 0
      vertex -0.789924 5.2408 0
      vertex -3.96897e-07 5.3 0
    endloop
  endfacet
  facet normal 0 0 1
    outer loop
      vertex 2.34394 9.87915 0
      vertex -0.789924 5.2408 0
      vertex 2.16912 8.21585 0
    endloop
  endfacet
  facet normal 0 0 1
    outer loop
      vertex -2.29958 4.77514 0
      vertex -0.303012 15.8243 0
      vertex -1.65606 16.8074 0
    endloop
  endfacet
  facet normal 0 0 1
    outer loop
      vertex 0.81608 14.5814 0
      vertex -2.29958 4.77514 0
      vertex -1.5622 5.06454 0
    endloop
  endfacet
  facet normal 0 0 1
    outer loop
      vertex -3.18392 17.4876 0
      vertex -2.29958 4.77514 0
      vertex -1.65606 16.8074 0
    endloop
  endfacet
  facet normal 0 0 1
    outer loop
      vertex -4.81983 17.8353 0
      vertex -2.29958 4.77514 0
      vertex -3.18392 17.4876 0
    endloop
  endfacet
  facet normal -0 0 1
    outer loop
      vertex -6.49228 17.8353 0
      vertex -2.29958 4.77514 0
      vertex -4.81983 17.8353 0
    endloop
  endfacet
  facet normal -0 0 1
    outer loop
      vertex -8.12819 17.4876 0
      vertex -2.29958 4.77514 0
      vertex -6.49228 17.8353 0
    endloop
  endfacet
  facet normal -0 0 1
    outer loop
      vertex -9.65605 16.8074 0
      vertex -2.29958 4.77514 0
      vertex -8.12819 17.4876 0
    endloop
  endfacet
  facet normal 0 0 1
    outer loop
      vertex -2.29958 4.77514 0
      vertex -9.65605 16.8074 0
      vertex -2.9856 4.37907 0
    endloop
  endfacet
  facet normal -0 0 1
    outer loop
      vertex -11.0091 15.8243 0
      vertex -2.9856 4.37907 0
      vertex -9.65605 16.8074 0
    endloop
  endfacet
  facet normal -0 0 1
    outer loop
      vertex -12.1282 14.5814 0
      vertex -2.9856 4.37907 0
      vertex -11.0091 15.8243 0
    endloop
  endfacet
  facet normal 0 0 1
    outer loop
      vertex -4.93363 1.93631 0
      vertex -6.49228 1.92297 0
      vertex -4.93774 1.92297 0
    endloop
  endfacet
  facet normal -0 0 1
    outer loop
      vertex -12.9644 13.133 0
      vertex -2.9856 4.37907 0
      vertex -12.1282 14.5814 0
    endloop
  endfacet
  facet normal 0 0 1
    outer loop
      vertex -4.14371 3.3045 0
      vertex -6.49228 1.92297 0
      vertex -4.58993 2.65 0
    endloop
  endfacet
  facet normal 0 0 1
    outer loop
      vertex -4.58993 2.65 0
      vertex -6.49228 1.92297 0
      vertex -4.93363 1.93631 0
    endloop
  endfacet
  facet normal -0 0 1
    outer loop
      vertex -13.4812 11.5424 0
      vertex -2.9856 4.37907 0
      vertex -12.9644 13.133 0
    endloop
  endfacet
  facet normal 0 -0 1
    outer loop
      vertex -6.49228 1.92297 0
      vertex -4.14371 3.3045 0
      vertex -8.12819 2.2707 0
    endloop
  endfacet
  facet normal 0 -0 1
    outer loop
      vertex -8.12819 2.2707 0
      vertex -4.14371 3.3045 0
      vertex -9.65606 2.95094 0
    endloop
  endfacet
  facet normal -0 0 1
    outer loop
      vertex -13.6561 9.87915 0
      vertex -2.9856 4.37907 0
      vertex -13.4812 11.5424 0
    endloop
  endfacet
  facet normal -0 -0 1
    outer loop
      vertex -13.4812 8.21585 0
      vertex -2.9856 4.37907 0
      vertex -13.6561 9.87915 0
    endloop
  endfacet
  facet normal 0 0 1
    outer loop
      vertex -3.60492 3.88518 0
      vertex -9.65606 2.95094 0
      vertex -4.14371 3.3045 0
    endloop
  endfacet
  facet normal -0 -0 1
    outer loop
      vertex -12.9644 6.62525 0
      vertex -2.9856 4.37907 0
      vertex -13.4812 8.21585 0
    endloop
  endfacet
  facet normal 0 -0 1
    outer loop
      vertex -9.65606 2.95094 0
      vertex -3.60492 3.88518 0
      vertex -11.0091 3.93399 0
    endloop
  endfacet
  facet normal 0 0 1
    outer loop
      vertex -2.9856 4.37907 0
      vertex -12.9644 6.62525 0
      vertex -3.60492 3.88518 0
    endloop
  endfacet
  facet normal -0 -0 1
    outer loop
      vertex -11.0091 3.93399 0
      vertex -3.60492 3.88518 0
      vertex -12.1282 5.17687 0
    endloop
  endfacet
  facet normal -0 -0 1
    outer loop
      vertex -12.1282 5.17687 0
      vertex -3.60492 3.88518 0
      vertex -12.9644 6.62525 0
    endloop
  endfacet
  facet normal -0.951058 0.309013 0
    outer loop
      vertex 1.65231 6.62525 0
      vertex 2.16912 8.21585 5
      vertex 2.16912 8.21585 0
    endloop
  endfacet
  facet normal -0.951058 0.309013 0
    outer loop
      vertex 2.16912 8.21585 5
      vertex 1.65231 6.62525 0
      vertex 1.65231 6.62525 5
    endloop
  endfacet
  facet normal -0.994522 0.104529 0
    outer loop
      vertex 2.16912 8.21585 0
      vertex 2.34394 9.87915 5
      vertex 2.34394 9.87915 0
    endloop
  endfacet
  facet normal -0.994522 0.104529 0
    outer loop
      vertex 2.34394 9.87915 5
      vertex 2.16912 8.21585 0
      vertex 2.16912 8.21585 5
    endloop
  endfacet
  facet normal -0.743151 -0.669124 0
    outer loop
      vertex 0.81608 14.5814 0
      vertex -0.303012 15.8243 5
      vertex -0.303012 15.8243 0
    endloop
  endfacet
  facet normal -0.743151 -0.669124 0
    outer loop
      vertex -0.303012 15.8243 5
      vertex 0.81608 14.5814 0
      vertex 0.81608 14.5814 5
    endloop
  endfacet
  facet normal 0.207915 0.978147 -0
    outer loop
      vertex -6.49228 1.92297 0
      vertex -8.12819 2.2707 5
      vertex -6.49228 1.92297 5
    endloop
  endfacet
  facet normal 0.207915 0.978147 0
    outer loop
      vertex -8.12819 2.2707 5
      vertex -6.49228 1.92297 0
      vertex -8.12819 2.2707 0
    endloop
  endfacet
  facet normal 0.406731 0.913548 -0
    outer loop
      vertex -8.12819 2.2707 0
      vertex -9.65606 2.95094 5
      vertex -8.12819 2.2707 5
    endloop
  endfacet
  facet normal 0.406731 0.913548 0
    outer loop
      vertex -9.65606 2.95094 5
      vertex -8.12819 2.2707 0
      vertex -9.65606 2.95094 0
    endloop
  endfacet
  facet normal -0.951058 -0.309013 0
    outer loop
      vertex 2.16912 11.5424 0
      vertex 1.65231 13.133 5
      vertex 1.65231 13.133 0
    endloop
  endfacet
  facet normal -0.951058 -0.309013 0
    outer loop
      vertex 1.65231 13.133 5
      vertex 2.16912 11.5424 0
      vertex 2.16912 11.5424 5
    endloop
  endfacet
  facet normal 0.0837167 0.99649 -0
    outer loop
      vertex -4.00532 21.0579 -2
      vertex -5.41941 21.1767 5
      vertex -4.00532 21.0579 5
    endloop
  endfacet
  facet normal 0.0837167 0.99649 0
    outer loop
      vertex -5.41941 21.1767 5
      vertex -4.00532 21.0579 -2
      vertex -5.41941 21.1767 -2
    endloop
  endfacet
  facet normal -0.0419289 0.999121 0
    outer loop
      vertex -5.41941 21.1767 -2
      vertex -6.83723 21.1172 5
      vertex -5.41941 21.1767 5
    endloop
  endfacet
  facet normal -0.0419289 0.999121 0
    outer loop
      vertex -6.83723 21.1172 5
      vertex -5.41941 21.1767 -2
      vertex -6.83723 21.1172 -2
    endloop
  endfacet
  facet normal -0.714467 0.699669 0
    outer loop
      vertex -14.2101 17.2628 -2
      vertex -13.2172 18.2767 5
      vertex -13.2172 18.2767 -2
    endloop
  endfacet
  facet normal -0.714467 0.699669 0
    outer loop
      vertex -13.2172 18.2767 5
      vertex -14.2101 17.2628 -2
      vertex -14.2101 17.2628 5
    endloop
  endfacet
  facet normal -0.621131 0.783707 0
    outer loop
      vertex -12.1051 19.1581 -2
      vertex -13.2172 18.2767 5
      vertex -12.1051 19.1581 5
    endloop
  endfacet
  facet normal -0.621131 0.783707 0
    outer loop
      vertex -13.2172 18.2767 5
      vertex -12.1051 19.1581 -2
      vertex -13.2172 18.2767 -2
    endloop
  endfacet
  facet normal -0.989272 0.146086 0
    outer loop
      vertex -16.9164 10.8247 -2
      vertex -16.7091 12.2285 5
      vertex -16.7091 12.2285 -2
    endloop
  endfacet
  facet normal -0.989272 0.146086 0
    outer loop
      vertex -16.7091 12.2285 5
      vertex -16.9164 10.8247 -2
      vertex -16.9164 10.8247 5
    endloop
  endfacet
  facet normal -0.821142 -0.570725 0
    outer loop
      vertex -14.5118 2.86018 -2
      vertex -15.3217 4.02544 5
      vertex -15.3217 4.02544 -2
    endloop
  endfacet
  facet normal -0.821142 -0.570725 0
    outer loop
      vertex -15.3217 4.02544 5
      vertex -14.5118 2.86018 -2
      vertex -14.5118 2.86018 5
    endloop
  endfacet
  facet normal 0.553393 0.83292 -0
    outer loop
      vertex 1.17591 18.8799 -2
      vertex -0.00605581 19.6652 5
      vertex 1.17591 18.8799 5
    endloop
  endfacet
  facet normal 0.553393 0.83292 0
    outer loop
      vertex -0.00605581 19.6652 5
      vertex 1.17591 18.8799 -2
      vertex -0.00605581 19.6652 -2
    endloop
  endfacet
  facet normal -0.289061 0.957311 0
    outer loop
      vertex -8.23642 20.8806 -2
      vertex -9.59492 20.4704 5
      vertex -8.23642 20.8806 5
    endloop
  endfacet
  facet normal -0.289061 0.957311 0
    outer loop
      vertex -9.59492 20.4704 5
      vertex -8.23642 20.8806 -2
      vertex -9.59492 20.4704 -2
    endloop
  endfacet
  facet normal -0.796511 0.604624 0
    outer loop
      vertex -15.0681 16.1325 -2
      vertex -14.2101 17.2628 5
      vertex -14.2101 17.2628 -2
    endloop
  endfacet
  facet normal -0.796511 0.604624 0
    outer loop
      vertex -14.2101 17.2628 5
      vertex -15.0681 16.1325 -2
      vertex -15.0681 16.1325 5
    endloop
  endfacet
  facet normal -0.518025 0.855365 0
    outer loop
      vertex -10.8913 19.8932 -2
      vertex -12.1051 19.1581 5
      vertex -10.8913 19.8932 5
    endloop
  endfacet
  facet normal -0.518025 0.855365 0
    outer loop
      vertex -12.1051 19.1581 5
      vertex -10.8913 19.8932 -2
      vertex -12.1051 19.1581 -2
    endloop
  endfacet
  facet normal -0.553414 -0.832906 0
    outer loop
      vertex -12.488 0.87836 -2
      vertex -11.3061 0.093061 5
      vertex -12.488 0.87836 5
    endloop
  endfacet
  facet normal -0.553414 -0.832906 -0
    outer loop
      vertex -11.3061 0.093061 5
      vertex -12.488 0.87836 -2
      vertex -11.3061 0.093061 -2
    endloop
  endfacet
  facet normal -0.93727 -0.348604 0
    outer loop
      vertex -15.9791 5.28302 -2
      vertex -16.4738 6.61309 5
      vertex -16.4738 6.61309 -2
    endloop
  endfacet
  facet normal -0.93727 -0.348604 0
    outer loop
      vertex -16.4738 6.61309 5
      vertex -15.9791 5.28302 -2
      vertex -15.9791 5.28302 5
    endloop
  endfacet
  facet normal -0.921867 0.387506 0
    outer loop
      vertex -16.3275 13.5953 -2
      vertex -15.7776 14.9035 5
      vertex -15.7776 14.9035 -2
    endloop
  endfacet
  facet normal -0.921867 0.387506 0
    outer loop
      vertex -15.7776 14.9035 5
      vertex -16.3275 13.5953 -2
      vertex -16.3275 13.5953 5
    endloop
  endfacet
  facet normal -0.973586 -0.228321 0
    outer loop
      vertex -16.4738 6.61309 -2
      vertex -16.7978 7.99466 5
      vertex -16.7978 7.99466 -2
    endloop
  endfacet
  facet normal -0.973586 -0.228321 0
    outer loop
      vertex -16.7978 7.99466 5
      vertex -16.4738 6.61309 -2
      vertex -16.4738 6.61309 5
    endloop
  endfacet
  facet normal 0.999781 -0.020944 0
    outer loop
      vertex 5.60431 8.93359 5
      vertex 5.63403 10.3523 -2
      vertex 5.63403 10.3523 5
    endloop
  endfacet
  facet normal 0.999781 -0.020944 0
    outer loop
      vertex 5.63403 10.3523 -2
      vertex 5.60431 8.93359 5
      vertex 5.60431 8.93359 -2
    endloop
  endfacet
  facet normal 0.207884 0.978154 -0
    outer loop
      vertex -2.61726 20.7629 -2
      vertex -4.00532 21.0579 5
      vertex -2.61726 20.7629 5
    endloop
  endfacet
  facet normal 0.207884 0.978154 0
    outer loop
      vertex -4.00532 21.0579 5
      vertex -2.61726 20.7629 -2
      vertex -4.00532 21.0579 -2
    endloop
  endfacet
  facet normal -0.166731 0.986002 0
    outer loop
      vertex -6.83723 21.1172 -2
      vertex -8.23642 20.8806 5
      vertex -6.83723 21.1172 5
    endloop
  endfacet
  facet normal -0.166731 0.986002 0
    outer loop
      vertex -8.23642 20.8806 5
      vertex -6.83723 21.1172 -2
      vertex -8.23642 20.8806 -2
    endloop
  endfacet
  facet normal -0.866045 0.499966 0
    outer loop
      vertex -15.7776 14.9035 -2
      vertex -15.0681 16.1325 5
      vertex -15.0681 16.1325 -2
    endloop
  endfacet
  facet normal -0.866045 0.499966 0
    outer loop
      vertex -15.0681 16.1325 5
      vertex -15.7776 14.9035 -2
      vertex -15.7776 14.9035 5
    endloop
  endfacet
  facet normal -0.406745 0.913542 0
    outer loop
      vertex -9.59492 20.4704 -2
      vertex -10.8913 19.8932 5
      vertex -9.59492 20.4704 5
    endloop
  endfacet
  facet normal -0.406745 0.913542 0
    outer loop
      vertex -10.8913 19.8932 5
      vertex -9.59492 20.4704 -2
      vertex -10.8913 19.8932 -2
    endloop
  endfacet
  facet normal -0.743159 -0.669115 0
    outer loop
      vertex -13.5623 1.80561 -2
      vertex -14.5118 2.86018 5
      vertex -14.5118 2.86018 -2
    endloop
  endfacet
  facet normal -0.743159 -0.669115 0
    outer loop
      vertex -14.5118 2.86018 5
      vertex -13.5623 1.80561 -2
      vertex -13.5623 1.80561 5
    endloop
  endfacet
  facet normal -0.653396 -0.757016 0
    outer loop
      vertex -13.5623 1.80561 -2
      vertex -12.488 0.87836 5
      vertex -13.5623 1.80561 5
    endloop
  endfacet
  facet normal -0.653396 -0.757016 -0
    outer loop
      vertex -12.488 0.87836 5
      vertex -13.5623 1.80561 -2
      vertex -12.488 0.87836 -2
    endloop
  endfacet
  facet normal -0.886217 -0.46327 0
    outer loop
      vertex -15.3217 4.02544 -2
      vertex -15.9791 5.28302 5
      vertex -15.9791 5.28302 -2
    endloop
  endfacet
  facet normal -0.886217 -0.46327 0
    outer loop
      vertex -15.9791 5.28302 5
      vertex -15.3217 4.02544 -2
      vertex -15.3217 4.02544 5
    endloop
  endfacet
  facet normal -0.963166 0.268908 0
    outer loop
      vertex -16.7091 12.2285 -2
      vertex -16.3275 13.5953 5
      vertex -16.3275 13.5953 -2
    endloop
  endfacet
  facet normal -0.963166 0.268908 0
    outer loop
      vertex -16.3275 13.5953 5
      vertex -16.7091 12.2285 -2
      vertex -16.7091 12.2285 5
    endloop
  endfacet
  facet normal -0.994524 -0.104506 0
    outer loop
      vertex -16.7978 7.99466 -2
      vertex -16.9461 9.40595 5
      vertex -16.9461 9.40595 -2
    endloop
  endfacet
  facet normal -0.994524 -0.104506 0
    outer loop
      vertex -16.9461 9.40595 5
      vertex -16.7978 7.99466 -2
      vertex -16.7978 7.99466 5
    endloop
  endfacet
  facet normal -0.999781 0.0209293 0
    outer loop
      vertex -16.9461 9.40595 -2
      vertex -16.9164 10.8247 5
      vertex -16.9164 10.8247 -2
    endloop
  endfacet
  facet normal -0.999781 0.0209293 0
    outer loop
      vertex -16.9164 10.8247 5
      vertex -16.9461 9.40595 -2
      vertex -16.9461 9.40595 5
    endloop
  endfacet
  facet normal 0.444654 0.895702 -0
    outer loop
      vertex -0.00605581 19.6652 -2
      vertex -1.27713 20.2962 5
      vertex -0.00605581 19.6652 5
    endloop
  endfacet
  facet normal 0.444654 0.895702 0
    outer loop
      vertex -1.27713 20.2962 5
      vertex -0.00605581 19.6652 -2
      vertex -1.27713 20.2962 -2
    endloop
  endfacet
  facet normal 0.6534 0.757013 -0
    outer loop
      vertex 2.25014 17.9527 -2
      vertex 1.17591 18.8799 5
      vertex 2.25014 17.9527 5
    endloop
  endfacet
  facet normal 0.6534 0.757013 0
    outer loop
      vertex 1.17591 18.8799 5
      vertex 2.25014 17.9527 -2
      vertex 1.17591 18.8799 -2
    endloop
  endfacet
  facet normal -0.444628 -0.895715 0
    outer loop
      vertex -11.3061 0.093061 -2
      vertex -10.035 -0.537906 5
      vertex -11.3061 0.093061 5
    endloop
  endfacet
  facet normal -0.444628 -0.895715 -0
    outer loop
      vertex -10.035 -0.537906 5
      vertex -11.3061 0.093061 -2
      vertex -10.035 -0.537906 -2
    endloop
  endfacet
  facet normal -0.0836747 -0.996493 0
    outer loop
      vertex -7.30679 -1.29963 -2
      vertex -5.8927 -1.41837 5
      vertex -7.30679 -1.29963 5
    endloop
  endfacet
  facet normal -0.0836747 -0.996493 -0
    outer loop
      vertex -5.8927 -1.41837 5
      vertex -7.30679 -1.29963 -2
      vertex -5.8927 -1.41837 -2
    endloop
  endfacet
  facet normal 0.921863 -0.387517 0
    outer loop
      vertex 4.46549 4.85477 5
      vertex 5.0154 6.16295 -2
      vertex 5.0154 6.16295 5
    endloop
  endfacet
  facet normal 0.921863 -0.387517 0
    outer loop
      vertex 5.0154 6.16295 -2
      vertex 4.46549 4.85477 5
      vertex 4.46549 4.85477 -2
    endloop
  endfacet
  facet normal 0.989272 -0.146082 0
    outer loop
      vertex 5.39701 7.52975 5
      vertex 5.60431 8.93359 -2
      vertex 5.60431 8.93359 5
    endloop
  endfacet
  facet normal 0.989272 -0.146082 0
    outer loop
      vertex 5.60431 8.93359 -2
      vertex 5.39701 7.52975 5
      vertex 5.39701 7.52975 -2
    endloop
  endfacet
  facet normal 0.328878 0.944373 -0
    outer loop
      vertex -1.27713 20.2962 -2
      vertex -2.61726 20.7629 5
      vertex -1.27713 20.2962 5
    endloop
  endfacet
  facet normal 0.328878 0.944373 0
    outer loop
      vertex -2.61726 20.7629 5
      vertex -1.27713 20.2962 -2
      vertex -2.61726 20.7629 -2
    endloop
  endfacet
  facet normal 0.821134 0.570735 0
    outer loop
      vertex 4.00956 15.7329 5
      vertex 3.19968 16.8981 -2
      vertex 3.19968 16.8981 5
    endloop
  endfacet
  facet normal 0.821134 0.570735 0
    outer loop
      vertex 3.19968 16.8981 -2
      vertex 4.00956 15.7329 5
      vertex 4.00956 15.7329 -2
    endloop
  endfacet
  facet normal 0.743154 0.66912 0
    outer loop
      vertex 3.19968 16.8981 5
      vertex 2.25014 17.9527 -2
      vertex 2.25014 17.9527 5
    endloop
  endfacet
  facet normal 0.743154 0.66912 0
    outer loop
      vertex 2.25014 17.9527 -2
      vertex 3.19968 16.8981 5
      vertex 3.19968 16.8981 -2
    endloop
  endfacet
  facet normal 0.973579 0.22835 0
    outer loop
      vertex 5.4857 11.7636 5
      vertex 5.16165 13.1452 -2
      vertex 5.16165 13.1452 5
    endloop
  endfacet
  facet normal 0.973579 0.22835 0
    outer loop
      vertex 5.16165 13.1452 -2
      vertex 5.4857 11.7636 5
      vertex 5.4857 11.7636 -2
    endloop
  endfacet
  facet normal 0.937287 0.34856 0
    outer loop
      vertex 5.16165 13.1452 5
      vertex 4.66701 14.4753 -2
      vertex 4.66701 14.4753 5
    endloop
  endfacet
  facet normal 0.937287 0.34856 0
    outer loop
      vertex 4.66701 14.4753 -2
      vertex 5.16165 13.1452 5
      vertex 5.16165 13.1452 -2
    endloop
  endfacet
  facet normal 0 0 -1
    outer loop
      vertex -7.30679 -1.29963 -2
      vertex -5.28518 0.39607 -2
      vertex -5.28518 -0.396069 -2
    endloop
  endfacet
  facet normal 0 0 -1
    outer loop
      vertex -5.8927 -1.41837 -2
      vertex -5.16712 -1.17936 -2
      vertex -5.10359 -1.3853 -2
    endloop
  endfacet
  facet normal 0 0 -1
    outer loop
      vertex -5.8927 -1.41837 -2
      vertex -5.28518 -0.396069 -2
      vertex -5.16712 -1.17936 -2
    endloop
  endfacet
  facet normal 0 0 -1
    outer loop
      vertex -7.30679 -1.29963 -2
      vertex -5.28518 -0.396069 -2
      vertex -5.8927 -1.41837 -2
    endloop
  endfacet
  facet normal 0 0 -1
    outer loop
      vertex -5.28518 0.39607 -2
      vertex -6.83723 21.1172 -2
      vertex -5.41941 21.1767 -2
    endloop
  endfacet
  facet normal 0 0 -1
    outer loop
      vertex -5.28518 0.39607 -2
      vertex -7.30679 -1.29963 -2
      vertex -8.69485 -1.00459 -2
    endloop
  endfacet
  facet normal 0 0 -1
    outer loop
      vertex -5.28518 0.39607 -2
      vertex -8.23642 20.8806 -2
      vertex -6.83723 21.1172 -2
    endloop
  endfacet
  facet normal 0 0 -1
    outer loop
      vertex -5.28518 0.39607 -2
      vertex -8.69485 -1.00459 -2
      vertex -10.035 -0.537906 -2
    endloop
  endfacet
  facet normal 0 0 -1
    outer loop
      vertex -5.28518 0.39607 -2
      vertex -9.59492 20.4704 -2
      vertex -8.23642 20.8806 -2
    endloop
  endfacet
  facet normal 0 0 -1
    outer loop
      vertex -5.28518 0.39607 -2
      vertex -10.035 -0.537906 -2
      vertex -11.3061 0.093061 -2
    endloop
  endfacet
  facet normal 0 0 -1
    outer loop
      vertex -5.28518 0.39607 -2
      vertex -10.8913 19.8932 -2
      vertex -9.59492 20.4704 -2
    endloop
  endfacet
  facet normal -0 0 -1
    outer loop
      vertex -5.28518 0.39607 -2
      vertex -11.3061 0.093061 -2
      vertex -12.488 0.87836 -2
    endloop
  endfacet
  facet normal 0 0 -1
    outer loop
      vertex -5.28518 0.39607 -2
      vertex -12.1051 19.1581 -2
      vertex -10.8913 19.8932 -2
    endloop
  endfacet
  facet normal 0 0 -1
    outer loop
      vertex -5.28518 0.39607 -2
      vertex -12.488 0.87836 -2
      vertex -13.5623 1.80561 -2
    endloop
  endfacet
  facet normal 0 0 -1
    outer loop
      vertex -5.28518 0.39607 -2
      vertex -13.2172 18.2767 -2
      vertex -12.1051 19.1581 -2
    endloop
  endfacet
  facet normal 0 0 -1
    outer loop
      vertex -5.28518 0.39607 -2
      vertex -13.5623 1.80561 -2
      vertex -14.5118 2.86018 -2
    endloop
  endfacet
  facet normal 0 0 -1
    outer loop
      vertex -5.28518 0.39607 -2
      vertex -14.2101 17.2628 -2
      vertex -13.2172 18.2767 -2
    endloop
  endfacet
  facet normal 0 0 -1
    outer loop
      vertex -5.28518 0.39607 -2
      vertex -14.5118 2.86018 -2
      vertex -15.3217 4.02544 -2
    endloop
  endfacet
  facet normal 0 0 -1
    outer loop
      vertex -5.28518 0.39607 -2
      vertex -15.0681 16.1325 -2
      vertex -14.2101 17.2628 -2
    endloop
  endfacet
  facet normal 0 0 -1
    outer loop
      vertex -5.28518 0.39607 -2
      vertex -15.3217 4.02544 -2
      vertex -15.9791 5.28302 -2
    endloop
  endfacet
  facet normal 0 0 -1
    outer loop
      vertex -5.28518 0.39607 -2
      vertex -15.7776 14.9035 -2
      vertex -15.0681 16.1325 -2
    endloop
  endfacet
  facet normal 0 0 -1
    outer loop
      vertex -5.28518 0.39607 -2
      vertex -15.9791 5.28302 -2
      vertex -16.4738 6.61309 -2
    endloop
  endfacet
  facet normal 0 0 -1
    outer loop
      vertex -5.28518 0.39607 -2
      vertex -16.3275 13.5953 -2
      vertex -15.7776 14.9035 -2
    endloop
  endfacet
  facet normal 0 0 -1
    outer loop
      vertex -5.28518 0.39607 -2
      vertex -16.4738 6.61309 -2
      vertex -16.7978 7.99466 -2
    endloop
  endfacet
  facet normal 0 0 -1
    outer loop
      vertex -5.28518 0.39607 -2
      vertex -16.7091 12.2285 -2
      vertex -16.3275 13.5953 -2
    endloop
  endfacet
  facet normal 0 0 -1
    outer loop
      vertex -5.28518 0.39607 -2
      vertex -16.7978 7.99466 -2
      vertex -16.9461 9.40595 -2
    endloop
  endfacet
  facet normal 0 0 -1
    outer loop
      vertex -5.28518 0.39607 -2
      vertex -16.9164 10.8247 -2
      vertex -16.7091 12.2285 -2
    endloop
  endfacet
  facet normal 0 0 -1
    outer loop
      vertex -5.28518 0.39607 -2
      vertex -16.9461 9.40595 -2
      vertex -16.9164 10.8247 -2
    endloop
  endfacet
  facet normal 0 0 -1
    outer loop
      vertex 0.789923 5.2408 -2
      vertex 5.63403 10.3523 -2
      vertex 5.60431 8.93359 -2
    endloop
  endfacet
  facet normal 0 0 -1
    outer loop
      vertex 0.789923 5.2408 -2
      vertex 5.60431 8.93359 -2
      vertex 5.39701 7.52975 -2
    endloop
  endfacet
  facet normal 0 0 -1
    outer loop
      vertex -3.96897e-07 5.3 -2
      vertex 5.63403 10.3523 -2
      vertex 0.789923 5.2408 -2
    endloop
  endfacet
  facet normal 0 0 -1
    outer loop
      vertex 1.5622 5.06454 -2
      vertex 5.39701 7.52975 -2
      vertex 5.0154 6.16295 -2
    endloop
  endfacet
  facet normal -0 0 -1
    outer loop
      vertex 5.63403 10.3523 -2
      vertex -3.96897e-07 5.3 -2
      vertex 5.4857 11.7636 -2
    endloop
  endfacet
  facet normal 0 0 -1
    outer loop
      vertex 2.29958 4.77514 -2
      vertex 5.0154 6.16295 -2
      vertex 4.46549 4.85477 -2
    endloop
  endfacet
  facet normal 0 0 -1
    outer loop
      vertex 5.39701 7.52975 -2
      vertex 1.5622 5.06454 -2
      vertex 0.789923 5.2408 -2
    endloop
  endfacet
  facet normal 0 0 -1
    outer loop
      vertex 3.60491 3.88518 -2
      vertex 4.46549 4.85477 -2
      vertex 3.79032 3.68535 -2
    endloop
  endfacet
  facet normal 0 0 -1
    outer loop
      vertex 2.9856 4.37907 -2
      vertex 4.46549 4.85477 -2
      vertex 3.60491 3.88518 -2
    endloop
  endfacet
  facet normal 0 0 -1
    outer loop
      vertex 2.29958 4.77514 -2
      vertex 4.46549 4.85477 -2
      vertex 2.9856 4.37907 -2
    endloop
  endfacet
  facet normal 0 0 -1
    outer loop
      vertex 5.0154 6.16295 -2
      vertex 2.29958 4.77514 -2
      vertex 1.5622 5.06454 -2
    endloop
  endfacet
  facet normal -0 0 -1
    outer loop
      vertex 5.4857 11.7636 -2
      vertex -3.96897e-07 5.3 -2
      vertex 5.16165 13.1452 -2
    endloop
  endfacet
  facet normal 0 0 -1
    outer loop
      vertex -0.789924 5.2408 -2
      vertex 5.16165 13.1452 -2
      vertex -3.96897e-07 5.3 -2
    endloop
  endfacet
  facet normal -0 0 -1
    outer loop
      vertex 5.16165 13.1452 -2
      vertex -0.789924 5.2408 -2
      vertex 4.66701 14.4753 -2
    endloop
  endfacet
  facet normal -0 0 -1
    outer loop
      vertex 4.66701 14.4753 -2
      vertex -0.789924 5.2408 -2
      vertex 4.00956 15.7329 -2
    endloop
  endfacet
  facet normal -0 0 -1
    outer loop
      vertex 4.00956 15.7329 -2
      vertex -0.789924 5.2408 -2
      vertex 3.19968 16.8981 -2
    endloop
  endfacet
  facet normal -0 0 -1
    outer loop
      vertex 3.19968 16.8981 -2
      vertex -0.789924 5.2408 -2
      vertex 2.25014 17.9527 -2
    endloop
  endfacet
  facet normal 0 0 -1
    outer loop
      vertex -1.5622 5.06454 -2
      vertex 2.25014 17.9527 -2
      vertex -0.789924 5.2408 -2
    endloop
  endfacet
  facet normal -0 0 -1
    outer loop
      vertex 2.25014 17.9527 -2
      vertex -1.5622 5.06454 -2
      vertex 1.17591 18.8799 -2
    endloop
  endfacet
  facet normal -0 0 -1
    outer loop
      vertex 1.17591 18.8799 -2
      vertex -1.5622 5.06454 -2
      vertex -0.00605581 19.6652 -2
    endloop
  endfacet
  facet normal -0 0 -1
    outer loop
      vertex -0.00605581 19.6652 -2
      vertex -1.5622 5.06454 -2
      vertex -1.27713 20.2962 -2
    endloop
  endfacet
  facet normal 0 0 -1
    outer loop
      vertex -2.61726 20.7629 -2
      vertex -1.5622 5.06454 -2
      vertex -2.29958 4.77514 -2
    endloop
  endfacet
  facet normal 0 0 -1
    outer loop
      vertex -1.5622 5.06454 -2
      vertex -2.61726 20.7629 -2
      vertex -1.27713 20.2962 -2
    endloop
  endfacet
  facet normal 0 0 -1
    outer loop
      vertex -5.41941 21.1767 -2
      vertex -2.29958 4.77514 -2
      vertex -2.9856 4.37907 -2
    endloop
  endfacet
  facet normal 0 0 -1
    outer loop
      vertex -5.41941 21.1767 -2
      vertex -2.9856 4.37907 -2
      vertex -3.60492 3.88518 -2
    endloop
  endfacet
  facet normal 0 0 -1
    outer loop
      vertex -2.29958 4.77514 -2
      vertex -4.00532 21.0579 -2
      vertex -2.61726 20.7629 -2
    endloop
  endfacet
  facet normal 0 0 -1
    outer loop
      vertex -5.41941 21.1767 -2
      vertex -3.60492 3.88518 -2
      vertex -4.14371 3.3045 -2
    endloop
  endfacet
  facet normal 0 0 -1
    outer loop
      vertex -5.41941 21.1767 -2
      vertex -4.14371 3.3045 -2
      vertex -4.58993 2.65 -2
    endloop
  endfacet
  facet normal 0 0 -1
    outer loop
      vertex -5.41941 21.1767 -2
      vertex -4.58993 2.65 -2
      vertex -4.93363 1.93631 -2
    endloop
  endfacet
  facet normal 0 0 -1
    outer loop
      vertex -5.41941 21.1767 -2
      vertex -4.93363 1.93631 -2
      vertex -5.16712 1.17936 -2
    endloop
  endfacet
  facet normal 0 0 -1
    outer loop
      vertex -5.41941 21.1767 -2
      vertex -5.16712 1.17936 -2
      vertex -5.28518 0.39607 -2
    endloop
  endfacet
  facet normal 0 0 -1
    outer loop
      vertex -2.29958 4.77514 -2
      vertex -5.41941 21.1767 -2
      vertex -4.00532 21.0579 -2
    endloop
  endfacet
  facet normal -0.207911 -0.978148 0
    outer loop
      vertex -8.69485 -1.00459 -2
      vertex -7.30679 -1.29963 5
      vertex -8.69485 -1.00459 5
    endloop
  endfacet
  facet normal -0.207911 -0.978148 -0
    outer loop
      vertex -7.30679 -1.29963 5
      vertex -8.69485 -1.00459 -2
      vertex -7.30679 -1.29963 -2
    endloop
  endfacet
  facet normal -0.328863 -0.944378 0
    outer loop
      vertex -10.035 -0.537906 -2
      vertex -8.69485 -1.00459 5
      vertex -10.035 -0.537906 5
    endloop
  endfacet
  facet normal -0.328863 -0.944378 -0
    outer loop
      vertex -8.69485 -1.00459 5
      vertex -10.035 -0.537906 -2
      vertex -8.69485 -1.00459 -2
    endloop
  endfacet
  facet normal 0.963164 -0.268915 0
    outer loop
      vertex 5.0154 6.16295 5
      vertex 5.39701 7.52975 -2
      vertex 5.39701 7.52975 5
    endloop
  endfacet
  facet normal 0.963164 -0.268915 0
    outer loop
      vertex 5.39701 7.52975 -2
      vertex 5.0154 6.16295 5
      vertex 5.0154 6.16295 -2
    endloop
  endfacet
  facet normal 0.994522 0.104526 0
    outer loop
      vertex 5.63403 10.3523 5
      vertex 5.4857 11.7636 -2
      vertex 5.4857 11.7636 5
    endloop
  endfacet
  facet normal 0.994522 0.104526 0
    outer loop
      vertex 5.4857 11.7636 -2
      vertex 5.63403 10.3523 5
      vertex 5.63403 10.3523 -2
    endloop
  endfacet
  facet normal 0.886206 0.463292 0
    outer loop
      vertex 4.66701 14.4753 5
      vertex 4.00956 15.7329 -2
      vertex 4.00956 15.7329 5
    endloop
  endfacet
  facet normal 0.886206 0.463292 0
    outer loop
      vertex 4.00956 15.7329 -2
      vertex 4.66701 14.4753 5
      vertex 4.66701 14.4753 -2
    endloop
  endfacet
  facet normal 0.866024 -0.500003 0
    outer loop
      vertex 3.79032 3.68535 5
      vertex 4.46549 4.85477 -2
      vertex 4.46549 4.85477 5
    endloop
  endfacet
  facet normal 0.866024 -0.500003 0
    outer loop
      vertex 4.46549 4.85477 -2
      vertex 3.79032 3.68535 5
      vertex 3.79032 3.68535 -2
    endloop
  endfacet
  facet normal 0.0418712 -0.999123 0
    outer loop
      vertex -5.8927 -1.41837 -2
      vertex -5.10359 -1.3853 5
      vertex -5.8927 -1.41837 5
    endloop
  endfacet
  facet normal 0.0418712 -0.999123 0
    outer loop
      vertex -5.10359 -1.3853 5
      vertex -5.8927 -1.41837 -2
      vertex -5.10359 -1.3853 -2
    endloop
  endfacet
  facet normal 0.365352 -0.93087 0
    outer loop
      vertex 1.5622 -5.06454 -2.05
      vertex 2.29958 -4.77513 5
      vertex 1.5622 -5.06454 5
    endloop
  endfacet
  facet normal 0.365352 -0.93087 0
    outer loop
      vertex 2.29958 -4.77513 5
      vertex 1.5622 -5.06454 -2.05
      vertex 2.29958 -4.77513 -2.05
    endloop
  endfacet
  facet normal 0.365341 0.930874 -0
    outer loop
      vertex 2.29958 4.77514 -2.05
      vertex 1.5622 5.06454 -2
      vertex 2.29958 4.77514 -2
    endloop
  endfacet
  facet normal 0.365341 0.930874 0
    outer loop
      vertex 1.5622 5.06454 -2
      vertex 2.29958 4.77514 -2.05
      vertex 1.5622 5.06454 -2.05
    endloop
  endfacet
  facet normal 0.623495 0.781827 -0
    outer loop
      vertex 3.60491 3.88518 -2.05
      vertex 2.9856 4.37907 -2
      vertex 3.60491 3.88518 -2
    endloop
  endfacet
  facet normal 0.623495 0.781827 0
    outer loop
      vertex 2.9856 4.37907 -2
      vertex 3.60491 3.88518 -2.05
      vertex 2.9856 4.37907 -2.05
    endloop
  endfacet
  facet normal 0.73304 0.680186 0
    outer loop
      vertex 3.79032 3.68535 5
      vertex 4.14371 3.3045 5
      vertex 3.79032 3.68535 -2
    endloop
  endfacet
  facet normal 0.733061 0.680163 0
    outer loop
      vertex 3.79032 3.68535 -2
      vertex 3.60491 3.88518 -2.05
      vertex 3.60491 3.88518 -2
    endloop
  endfacet
  facet normal 0.733047 0.680178 0.000114252
    outer loop
      vertex 3.79032 3.68535 -2
      vertex 4.14371 3.3045 -2.05
      vertex 3.60491 3.88518 -2.05
    endloop
  endfacet
  facet normal 0.73304 0.680186 -0
    outer loop
      vertex 4.14371 3.3045 -2.05
      vertex 3.79032 3.68535 -2
      vertex 4.14371 3.3045 5
    endloop
  endfacet
  facet normal -0.365341 -0.930874 0
    outer loop
      vertex -2.29958 -4.77513 -2.05
      vertex -1.5622 -5.06453 5
      vertex -2.29958 -4.77513 5
    endloop
  endfacet
  facet normal -0.365341 -0.930874 -0
    outer loop
      vertex -1.5622 -5.06453 5
      vertex -2.29958 -4.77513 -2.05
      vertex -1.5622 -5.06453 -2.05
    endloop
  endfacet
  facet normal 0 0 -1
    outer loop
      vertex 5.16712 -1.17936 -2.05
      vertex 5.28518 0.39607 -2.05
      vertex 5.28518 -0.396069 -2.05
    endloop
  endfacet
  facet normal 0 0 -1
    outer loop
      vertex 5.16712 -1.17936 -2.05
      vertex 5.16712 1.17936 -2.05
      vertex 5.28518 0.39607 -2.05
    endloop
  endfacet
  facet normal 0 0 -1
    outer loop
      vertex 5.16712 -1.17936 -2.05
      vertex 4.93363 1.93631 -2.05
      vertex 5.16712 1.17936 -2.05
    endloop
  endfacet
  facet normal 0 0 -1
    outer loop
      vertex 4.93363 -1.93631 -2.05
      vertex 4.93363 1.93631 -2.05
      vertex 5.16712 -1.17936 -2.05
    endloop
  endfacet
  facet normal 0 0 -1
    outer loop
      vertex 4.58993 -2.65 -2.05
      vertex 4.93363 1.93631 -2.05
      vertex 4.93363 -1.93631 -2.05
    endloop
  endfacet
  facet normal 0 0 -1
    outer loop
      vertex 4.58993 -2.65 -2.05
      vertex 4.58993 2.65 -2.05
      vertex 4.93363 1.93631 -2.05
    endloop
  endfacet
  facet normal 0 0 -1
    outer loop
      vertex 4.14371 -3.3045 -2.05
      vertex 4.58993 2.65 -2.05
      vertex 4.58993 -2.65 -2.05
    endloop
  endfacet
  facet normal 0 0 -1
    outer loop
      vertex 4.14371 -3.3045 -2.05
      vertex 4.14371 3.3045 -2.05
      vertex 4.58993 2.65 -2.05
    endloop
  endfacet
  facet normal 0 0 -1
    outer loop
      vertex 3.60492 -3.88517 -2.05
      vertex 4.14371 3.3045 -2.05
      vertex 4.14371 -3.3045 -2.05
    endloop
  endfacet
  facet normal 0 0 -1
    outer loop
      vertex 3.60492 -3.88517 -2.05
      vertex 3.60491 3.88518 -2.05
      vertex 4.14371 3.3045 -2.05
    endloop
  endfacet
  facet normal 0 0 -1
    outer loop
      vertex 2.9856 -4.37907 -2.05
      vertex 3.60491 3.88518 -2.05
      vertex 3.60492 -3.88517 -2.05
    endloop
  endfacet
  facet normal 0 0 -1
    outer loop
      vertex 2.9856 -4.37907 -2.05
      vertex 2.9856 4.37907 -2.05
      vertex 3.60491 3.88518 -2.05
    endloop
  endfacet
  facet normal 0 0 -1
    outer loop
      vertex 2.29958 -4.77513 -2.05
      vertex 2.9856 4.37907 -2.05
      vertex 2.9856 -4.37907 -2.05
    endloop
  endfacet
  facet normal 0 0 -1
    outer loop
      vertex 2.29958 -4.77513 -2.05
      vertex 2.29958 4.77514 -2.05
      vertex 2.9856 4.37907 -2.05
    endloop
  endfacet
  facet normal 0 0 -1
    outer loop
      vertex 1.5622 -5.06454 -2.05
      vertex 2.29958 4.77514 -2.05
      vertex 2.29958 -4.77513 -2.05
    endloop
  endfacet
  facet normal 0 0 -1
    outer loop
      vertex 1.5622 -5.06454 -2.05
      vertex 1.5622 5.06454 -2.05
      vertex 2.29958 4.77514 -2.05
    endloop
  endfacet
  facet normal 0 0 -1
    outer loop
      vertex 0.789924 -5.2408 -2.05
      vertex 1.5622 5.06454 -2.05
      vertex 1.5622 -5.06454 -2.05
    endloop
  endfacet
  facet normal 0 0 -1
    outer loop
      vertex 0.789924 -5.2408 -2.05
      vertex 0.789923 5.2408 -2.05
      vertex 1.5622 5.06454 -2.05
    endloop
  endfacet
  facet normal 0 0 -1
    outer loop
      vertex 0.789924 -5.2408 -2.05
      vertex -3.96897e-07 5.3 -2.05
      vertex 0.789923 5.2408 -2.05
    endloop
  endfacet
  facet normal 0 0 -1
    outer loop
      vertex -4.17555e-07 -5.3 -2.05
      vertex -3.96897e-07 5.3 -2.05
      vertex 0.789924 -5.2408 -2.05
    endloop
  endfacet
  facet normal 0 0 -1
    outer loop
      vertex -4.17555e-07 -5.3 -2.05
      vertex -0.789924 5.2408 -2.05
      vertex -3.96897e-07 5.3 -2.05
    endloop
  endfacet
  facet normal 0 0 -1
    outer loop
      vertex -0.789925 -5.2408 -2.05
      vertex -0.789924 5.2408 -2.05
      vertex -4.17555e-07 -5.3 -2.05
    endloop
  endfacet
  facet normal 0 0 -1
    outer loop
      vertex -0.789925 -5.2408 -2.05
      vertex -1.5622 5.06454 -2.05
      vertex -0.789924 5.2408 -2.05
    endloop
  endfacet
  facet normal 0 0 -1
    outer loop
      vertex -1.5622 -5.06453 -2.05
      vertex -1.5622 5.06454 -2.05
      vertex -0.789925 -5.2408 -2.05
    endloop
  endfacet
  facet normal 0 0 -1
    outer loop
      vertex -2.29958 -4.77513 -2.05
      vertex -1.5622 5.06454 -2.05
      vertex -1.5622 -5.06453 -2.05
    endloop
  endfacet
  facet normal 0 0 -1
    outer loop
      vertex -2.29958 -4.77513 -2.05
      vertex -2.29958 4.77514 -2.05
      vertex -1.5622 5.06454 -2.05
    endloop
  endfacet
  facet normal 0 0 -1
    outer loop
      vertex -2.29958 -4.77513 -2.05
      vertex -2.9856 4.37907 -2.05
      vertex -2.29958 4.77514 -2.05
    endloop
  endfacet
  facet normal 0 0 -1
    outer loop
      vertex -2.9856 -4.37907 -2.05
      vertex -2.9856 4.37907 -2.05
      vertex -2.29958 -4.77513 -2.05
    endloop
  endfacet
  facet normal 0 0 -1
    outer loop
      vertex -3.60492 -3.88517 -2.05
      vertex -2.9856 4.37907 -2.05
      vertex -2.9856 -4.37907 -2.05
    endloop
  endfacet
  facet normal 0 0 -1
    outer loop
      vertex -3.60492 -3.88517 -2.05
      vertex -3.60492 3.88518 -2.05
      vertex -2.9856 4.37907 -2.05
    endloop
  endfacet
  facet normal 0 0 -1
    outer loop
      vertex -3.60492 -3.88517 -2.05
      vertex -4.14371 3.3045 -2.05
      vertex -3.60492 3.88518 -2.05
    endloop
  endfacet
  facet normal 0 0 -1
    outer loop
      vertex -4.14371 -3.3045 -2.05
      vertex -4.14371 3.3045 -2.05
      vertex -3.60492 -3.88517 -2.05
    endloop
  endfacet
  facet normal 0 0 -1
    outer loop
      vertex -4.14371 -3.3045 -2.05
      vertex -4.58993 2.65 -2.05
      vertex -4.14371 3.3045 -2.05
    endloop
  endfacet
  facet normal 0 0 -1
    outer loop
      vertex -4.58994 -2.65 -2.05
      vertex -4.58993 2.65 -2.05
      vertex -4.14371 -3.3045 -2.05
    endloop
  endfacet
  facet normal 0 0 -1
    outer loop
      vertex -4.93363 -1.93631 -2.05
      vertex -4.58993 2.65 -2.05
      vertex -4.58994 -2.65 -2.05
    endloop
  endfacet
  facet normal 0 0 -1
    outer loop
      vertex -4.93363 -1.93631 -2.05
      vertex -4.93363 1.93631 -2.05
      vertex -4.58993 2.65 -2.05
    endloop
  endfacet
  facet normal 0 0 -1
    outer loop
      vertex -5.16712 -1.17936 -2.05
      vertex -4.93363 1.93631 -2.05
      vertex -4.93363 -1.93631 -2.05
    endloop
  endfacet
  facet normal 0 0 -1
    outer loop
      vertex -5.16712 -1.17936 -2.05
      vertex -5.16712 1.17936 -2.05
      vertex -4.93363 1.93631 -2.05
    endloop
  endfacet
  facet normal 0 0 -1
    outer loop
      vertex -5.28518 -0.396069 -2.05
      vertex -5.16712 1.17936 -2.05
      vertex -5.16712 -1.17936 -2.05
    endloop
  endfacet
  facet normal 0 0 -1
    outer loop
      vertex -5.16712 1.17936 -2.05
      vertex -5.28518 -0.396069 -2.05
      vertex -5.28518 0.39607 -2.05
    endloop
  endfacet
  facet normal 0.222528 0.974926 -0
    outer loop
      vertex 0.845651 5.22808 0
      vertex 0.789923 5.2408 5
      vertex 0.845651 5.22808 5
    endloop
  endfacet
  facet normal 0.222528 0.974926 0
    outer loop
      vertex 0.789923 5.2408 5
      vertex 0.845651 5.22808 0
      vertex 0.789923 5.2408 0
    endloop
  endfacet
  facet normal 0.222512 0.97493 -0
    outer loop
      vertex 1.5622 5.06454 -2.05
      vertex 0.789923 5.2408 -2
      vertex 1.5622 5.06454 -2
    endloop
  endfacet
  facet normal 0.222512 0.97493 0
    outer loop
      vertex 0.789923 5.2408 -2
      vertex 1.5622 5.06454 -2.05
      vertex 0.789923 5.2408 -2.05
    endloop
  endfacet
  facet normal -0.826245 0.563311 0
    outer loop
      vertex -4.58993 2.65 0
      vertex -4.14371 3.3045 5
      vertex -4.14371 3.3045 0
    endloop
  endfacet
  facet normal -0.826245 0.563311 0
    outer loop
      vertex -4.14371 3.3045 5
      vertex -4.58993 2.65 0
      vertex -4.58993 2.65 5
    endloop
  endfacet
  facet normal -0.826245 0.563311 0
    outer loop
      vertex -4.58993 2.65 -2.05
      vertex -4.14371 3.3045 -2
      vertex -4.14371 3.3045 -2.05
    endloop
  endfacet
  facet normal -0.826245 0.563311 0
    outer loop
      vertex -4.14371 3.3045 -2
      vertex -4.58993 2.65 -2.05
      vertex -4.58993 2.65 -2
    endloop
  endfacet
  facet normal -0.499987 -0.866033 0
    outer loop
      vertex -2.9856 -4.37907 -2.05
      vertex -2.29958 -4.77513 5
      vertex -2.9856 -4.37907 5
    endloop
  endfacet
  facet normal -0.499987 -0.866033 -0
    outer loop
      vertex -2.29958 -4.77513 5
      vertex -2.9856 -4.37907 -2.05
      vertex -2.29958 -4.77513 -2.05
    endloop
  endfacet
  facet normal -0.0747343 -0.997203 0
    outer loop
      vertex -0.789925 -5.2408 -2.05
      vertex -4.17555e-07 -5.3 5
      vertex -0.789925 -5.2408 5
    endloop
  endfacet
  facet normal -0.0747343 -0.997203 -0
    outer loop
      vertex -4.17555e-07 -5.3 5
      vertex -0.789925 -5.2408 -2.05
      vertex -4.17555e-07 -5.3 -2.05
    endloop
  endfacet
  facet normal 0.900966 -0.433889 0
    outer loop
      vertex 4.58993 -2.65 5
      vertex 4.93363 -1.93631 -2.05
      vertex 4.93363 -1.93631 5
    endloop
  endfacet
  facet normal 0.900966 -0.433889 0
    outer loop
      vertex 4.93363 -1.93631 -2.05
      vertex 4.58993 -2.65 5
      vertex 4.58993 -2.65 -2.05
    endloop
  endfacet
  facet normal 0.499996 0.866027 -0
    outer loop
      vertex 2.9856 4.37907 -2.05
      vertex 2.29958 4.77514 -2
      vertex 2.9856 4.37907 -2
    endloop
  endfacet
  facet normal 0.499996 0.866027 0
    outer loop
      vertex 2.29958 4.77514 -2
      vertex 2.9856 4.37907 -2.05
      vertex 2.29958 4.77514 -2.05
    endloop
  endfacet
  facet normal 0.900966 0.433889 0
    outer loop
      vertex 4.93363 1.93631 5
      vertex 4.58993 2.65 -2.05
      vertex 4.58993 2.65 5
    endloop
  endfacet
  facet normal 0.900966 0.433889 0
    outer loop
      vertex 4.58993 2.65 -2.05
      vertex 4.93363 1.93631 5
      vertex 4.93363 1.93631 -2.05
    endloop
  endfacet
  facet normal -0.222513 0.97493 0
    outer loop
      vertex -0.789924 5.2408 0
      vertex -1.5622 5.06454 5
      vertex -0.789924 5.2408 5
    endloop
  endfacet
  facet normal -0.222513 0.97493 0
    outer loop
      vertex -1.5622 5.06454 5
      vertex -0.789924 5.2408 0
      vertex -1.5622 5.06454 0
    endloop
  endfacet
  facet normal -0.222513 0.97493 0
    outer loop
      vertex -0.789924 5.2408 -2.05
      vertex -1.5622 5.06454 -2
      vertex -0.789924 5.2408 -2
    endloop
  endfacet
  facet normal -0.222513 0.97493 0
    outer loop
      vertex -1.5622 5.06454 -2
      vertex -0.789924 5.2408 -2.05
      vertex -1.5622 5.06454 -2.05
    endloop
  endfacet
  facet normal -0.0747344 0.997203 0
    outer loop
      vertex -3.96897e-07 5.3 0
      vertex -0.789924 5.2408 5
      vertex -3.96897e-07 5.3 5
    endloop
  endfacet
  facet normal -0.0747344 0.997203 0
    outer loop
      vertex -0.789924 5.2408 5
      vertex -3.96897e-07 5.3 0
      vertex -0.789924 5.2408 0
    endloop
  endfacet
  facet normal -0.0747344 0.997203 0
    outer loop
      vertex -3.96897e-07 5.3 -2.05
      vertex -0.789924 5.2408 -2
      vertex -3.96897e-07 5.3 -2
    endloop
  endfacet
  facet normal -0.0747344 0.997203 0
    outer loop
      vertex -0.789924 5.2408 -2
      vertex -3.96897e-07 5.3 -2.05
      vertex -0.789924 5.2408 -2.05
    endloop
  endfacet
  facet normal 0.0747344 0.997203 -0
    outer loop
      vertex 0.789923 5.2408 0
      vertex -3.96897e-07 5.3 5
      vertex 0.789923 5.2408 5
    endloop
  endfacet
  facet normal 0.0747344 0.997203 0
    outer loop
      vertex -3.96897e-07 5.3 5
      vertex 0.789923 5.2408 0
      vertex -3.96897e-07 5.3 0
    endloop
  endfacet
  facet normal 0.0747344 0.997203 -0
    outer loop
      vertex 0.789923 5.2408 -2.05
      vertex -3.96897e-07 5.3 -2
      vertex 0.789923 5.2408 -2
    endloop
  endfacet
  facet normal 0.0747344 0.997203 0
    outer loop
      vertex -3.96897e-07 5.3 -2
      vertex 0.789923 5.2408 -2.05
      vertex -3.96897e-07 5.3 -2.05
    endloop
  endfacet
  facet normal -0.900966 0.433889 0
    outer loop
      vertex -4.93363 1.93631 0
      vertex -4.58993 2.65 5
      vertex -4.58993 2.65 0
    endloop
  endfacet
  facet normal -0.900966 0.433889 0
    outer loop
      vertex -4.58993 2.65 5
      vertex -4.93363 1.93631 0
      vertex -4.93363 1.93631 5
    endloop
  endfacet
  facet normal -0.900966 0.433889 0
    outer loop
      vertex -4.93363 1.93631 -2.05
      vertex -4.58993 2.65 -2
      vertex -4.58993 2.65 -2.05
    endloop
  endfacet
  facet normal -0.900966 0.433889 0
    outer loop
      vertex -4.58993 2.65 -2
      vertex -4.93363 1.93631 -2.05
      vertex -4.93363 1.93631 -2
    endloop
  endfacet
  facet normal -1 0 0
    outer loop
      vertex -5.28518 -0.396069 -2.05
      vertex -5.28518 0.39607 -2
      vertex -5.28518 0.39607 -2.05
    endloop
  endfacet
  facet normal -1 -0 0
    outer loop
      vertex -5.28518 0.39607 -2
      vertex -5.28518 -0.396069 -2.05
      vertex -5.28518 -0.396069 -2
    endloop
  endfacet
  facet normal -0.222525 -0.974927 0
    outer loop
      vertex -1.5622 -5.06453 -2.05
      vertex -0.789925 -5.2408 5
      vertex -1.5622 -5.06453 5
    endloop
  endfacet
  facet normal -0.222525 -0.974927 -0
    outer loop
      vertex -0.789925 -5.2408 5
      vertex -1.5622 -5.06453 -2.05
      vertex -0.789925 -5.2408 -2.05
    endloop
  endfacet
  facet normal 0.733047 -0.680177 0
    outer loop
      vertex 3.60492 -3.88517 5
      vertex 4.14371 -3.3045 -2.05
      vertex 4.14371 -3.3045 5
    endloop
  endfacet
  facet normal 0.733047 -0.680177 0
    outer loop
      vertex 4.14371 -3.3045 -2.05
      vertex 3.60492 -3.88517 5
      vertex 3.60492 -3.88517 -2.05
    endloop
  endfacet
  facet normal 0.623497 -0.781826 0
    outer loop
      vertex 2.9856 -4.37907 -2.05
      vertex 3.60492 -3.88517 5
      vertex 2.9856 -4.37907 5
    endloop
  endfacet
  facet normal 0.623497 -0.781826 0
    outer loop
      vertex 3.60492 -3.88517 5
      vertex 2.9856 -4.37907 -2.05
      vertex 3.60492 -3.88517 -2.05
    endloop
  endfacet
  facet normal 1 -0 0
    outer loop
      vertex 5.28518 -0.396069 5
      vertex 5.28518 0.39607 -2.05
      vertex 5.28518 0.39607 5
    endloop
  endfacet
  facet normal 1 0 0
    outer loop
      vertex 5.28518 0.39607 -2.05
      vertex 5.28518 -0.396069 5
      vertex 5.28518 -0.396069 -2.05
    endloop
  endfacet
  facet normal 0.826245 0.563311 0
    outer loop
      vertex 4.58993 2.65 5
      vertex 4.14371 3.3045 -2.05
      vertex 4.14371 3.3045 5
    endloop
  endfacet
  facet normal 0.826245 0.563311 0
    outer loop
      vertex 4.14371 3.3045 -2.05
      vertex 4.58993 2.65 5
      vertex 4.58993 2.65 -2.05
    endloop
  endfacet
  facet normal -0.365341 0.930874 0
    outer loop
      vertex -1.5622 5.06454 0
      vertex -2.29958 4.77514 5
      vertex -1.5622 5.06454 5
    endloop
  endfacet
  facet normal -0.365341 0.930874 0
    outer loop
      vertex -2.29958 4.77514 5
      vertex -1.5622 5.06454 0
      vertex -2.29958 4.77514 0
    endloop
  endfacet
  facet normal -0.365341 0.930874 0
    outer loop
      vertex -1.5622 5.06454 -2.05
      vertex -2.29958 4.77514 -2
      vertex -1.5622 5.06454 -2
    endloop
  endfacet
  facet normal -0.365341 0.930874 0
    outer loop
      vertex -2.29958 4.77514 -2
      vertex -1.5622 5.06454 -2.05
      vertex -2.29958 4.77514 -2.05
    endloop
  endfacet
  facet normal -0.499996 0.866027 0
    outer loop
      vertex -2.29958 4.77514 -2.05
      vertex -2.9856 4.37907 -2
      vertex -2.29958 4.77514 -2
    endloop
  endfacet
  facet normal -0.499996 0.866027 0
    outer loop
      vertex -2.9856 4.37907 -2
      vertex -2.29958 4.77514 -2.05
      vertex -2.9856 4.37907 -2.05
    endloop
  endfacet
  facet normal -0.499996 0.866027 0
    outer loop
      vertex -2.29958 4.77514 0
      vertex -2.9856 4.37907 5
      vertex -2.29958 4.77514 5
    endloop
  endfacet
  facet normal -0.499996 0.866027 0
    outer loop
      vertex -2.9856 4.37907 5
      vertex -2.29958 4.77514 0
      vertex -2.9856 4.37907 0
    endloop
  endfacet
  facet normal -0.733053 0.680171 0
    outer loop
      vertex -4.14371 3.3045 0
      vertex -3.60492 3.88518 5
      vertex -3.60492 3.88518 0
    endloop
  endfacet
  facet normal -0.733053 0.680171 0
    outer loop
      vertex -3.60492 3.88518 5
      vertex -4.14371 3.3045 0
      vertex -4.14371 3.3045 5
    endloop
  endfacet
  facet normal -0.733053 0.680171 0
    outer loop
      vertex -4.14371 3.3045 -2.05
      vertex -3.60492 3.88518 -2
      vertex -3.60492 3.88518 -2.05
    endloop
  endfacet
  facet normal -0.733053 0.680171 0
    outer loop
      vertex -3.60492 3.88518 -2
      vertex -4.14371 3.3045 -2.05
      vertex -4.14371 3.3045 -2
    endloop
  endfacet
  facet normal -0.988831 0.14904 0
    outer loop
      vertex -5.28518 0.39607 -2.05
      vertex -5.16712 1.17936 -2
      vertex -5.16712 1.17936 -2.05
    endloop
  endfacet
  facet normal -0.988831 0.14904 0
    outer loop
      vertex -5.16712 1.17936 -2
      vertex -5.28518 0.39607 -2.05
      vertex -5.28518 0.39607 -2
    endloop
  endfacet
  facet normal -0.955565 -0.29478 0
    outer loop
      vertex -5.16712 -1.17936 -2.05
      vertex -5.10359 -1.3853 -2
      vertex -5.16712 -1.17936 -2
    endloop
  endfacet
  facet normal -0.955572 -0.294757 0.00010359
    outer loop
      vertex -4.93363 -1.93631 -2.05
      vertex -5.10359 -1.3853 -2
      vertex -5.16712 -1.17936 -2.05
    endloop
  endfacet
  facet normal -0.955575 -0.294749 -0
    outer loop
      vertex -4.93363 -1.93631 5
      vertex -5.10359 -1.3853 -2
      vertex -4.93363 -1.93631 -2.05
    endloop
  endfacet
  facet normal -0.955575 -0.294749 0
    outer loop
      vertex -5.10359 -1.3853 -2
      vertex -4.93363 -1.93631 5
      vertex -5.10359 -1.3853 5
    endloop
  endfacet
  facet normal -0.900971 -0.433879 0
    outer loop
      vertex -4.58994 -2.65 -2.05
      vertex -4.93363 -1.93631 5
      vertex -4.93363 -1.93631 -2.05
    endloop
  endfacet
  facet normal -0.900971 -0.433879 0
    outer loop
      vertex -4.93363 -1.93631 5
      vertex -4.58994 -2.65 -2.05
      vertex -4.58994 -2.65 5
    endloop
  endfacet
  facet normal -0.623497 -0.781826 0
    outer loop
      vertex -3.60492 -3.88517 -2.05
      vertex -2.9856 -4.37907 5
      vertex -3.60492 -3.88517 5
    endloop
  endfacet
  facet normal -0.623497 -0.781826 -0
    outer loop
      vertex -2.9856 -4.37907 5
      vertex -3.60492 -3.88517 -2.05
      vertex -2.9856 -4.37907 -2.05
    endloop
  endfacet
  facet normal -0.733047 -0.680177 0
    outer loop
      vertex -3.60492 -3.88517 -2.05
      vertex -4.14371 -3.3045 5
      vertex -4.14371 -3.3045 -2.05
    endloop
  endfacet
  facet normal -0.733047 -0.680177 0
    outer loop
      vertex -4.14371 -3.3045 5
      vertex -3.60492 -3.88517 -2.05
      vertex -3.60492 -3.88517 5
    endloop
  endfacet
  facet normal -0.826239 -0.56332 0
    outer loop
      vertex -4.14371 -3.3045 -2.05
      vertex -4.58994 -2.65 5
      vertex -4.58994 -2.65 -2.05
    endloop
  endfacet
  facet normal -0.826239 -0.56332 0
    outer loop
      vertex -4.58994 -2.65 5
      vertex -4.14371 -3.3045 -2.05
      vertex -4.14371 -3.3045 5
    endloop
  endfacet
  facet normal 0.222513 -0.97493 0
    outer loop
      vertex 0.789924 -5.2408 -2.05
      vertex 1.5622 -5.06454 5
      vertex 0.789924 -5.2408 5
    endloop
  endfacet
  facet normal 0.222513 -0.97493 0
    outer loop
      vertex 1.5622 -5.06454 5
      vertex 0.789924 -5.2408 -2.05
      vertex 1.5622 -5.06454 -2.05
    endloop
  endfacet
  facet normal 0.0747343 -0.997203 0
    outer loop
      vertex -4.17555e-07 -5.3 -2.05
      vertex 0.789924 -5.2408 5
      vertex -4.17555e-07 -5.3 5
    endloop
  endfacet
  facet normal 0.0747343 -0.997203 0
    outer loop
      vertex 0.789924 -5.2408 5
      vertex -4.17555e-07 -5.3 -2.05
      vertex 0.789924 -5.2408 -2.05
    endloop
  endfacet
  facet normal 0.826245 -0.563311 0
    outer loop
      vertex 4.14371 -3.3045 5
      vertex 4.58993 -2.65 -2.05
      vertex 4.58993 -2.65 5
    endloop
  endfacet
  facet normal 0.826245 -0.563311 0
    outer loop
      vertex 4.58993 -2.65 -2.05
      vertex 4.14371 -3.3045 5
      vertex 4.14371 -3.3045 -2.05
    endloop
  endfacet
  facet normal 0.499987 -0.866033 0
    outer loop
      vertex 2.29958 -4.77513 -2.05
      vertex 2.9856 -4.37907 5
      vertex 2.29958 -4.77513 5
    endloop
  endfacet
  facet normal 0.499987 -0.866033 0
    outer loop
      vertex 2.9856 -4.37907 5
      vertex 2.29958 -4.77513 -2.05
      vertex 2.9856 -4.37907 -2.05
    endloop
  endfacet
  facet normal 0.955572 -0.294757 0
    outer loop
      vertex 4.93363 -1.93631 5
      vertex 5.16712 -1.17936 -2.05
      vertex 5.16712 -1.17936 5
    endloop
  endfacet
  facet normal 0.955572 -0.294757 0
    outer loop
      vertex 5.16712 -1.17936 -2.05
      vertex 4.93363 -1.93631 5
      vertex 4.93363 -1.93631 -2.05
    endloop
  endfacet
  facet normal 0.988831 -0.14904 0
    outer loop
      vertex 5.16712 -1.17936 5
      vertex 5.28518 -0.396069 -2.05
      vertex 5.28518 -0.396069 5
    endloop
  endfacet
  facet normal 0.988831 -0.14904 0
    outer loop
      vertex 5.28518 -0.396069 -2.05
      vertex 5.16712 -1.17936 5
      vertex 5.16712 -1.17936 -2.05
    endloop
  endfacet
  facet normal 0.988831 0.14904 0
    outer loop
      vertex 5.28518 0.39607 5
      vertex 5.16712 1.17936 -2.05
      vertex 5.16712 1.17936 5
    endloop
  endfacet
  facet normal 0.988831 0.14904 0
    outer loop
      vertex 5.16712 1.17936 -2.05
      vertex 5.28518 0.39607 5
      vertex 5.28518 0.39607 -2.05
    endloop
  endfacet
  facet normal -0.623489 0.781832 0
    outer loop
      vertex -2.9856 4.37907 0
      vertex -3.60492 3.88518 5
      vertex -2.9856 4.37907 5
    endloop
  endfacet
  facet normal -0.623489 0.781832 0
    outer loop
      vertex -3.60492 3.88518 5
      vertex -2.9856 4.37907 0
      vertex -3.60492 3.88518 0
    endloop
  endfacet
  facet normal -0.623489 0.781832 0
    outer loop
      vertex -2.9856 4.37907 -2.05
      vertex -3.60492 3.88518 -2
      vertex -2.9856 4.37907 -2
    endloop
  endfacet
  facet normal -0.623489 0.781832 0
    outer loop
      vertex -3.60492 3.88518 -2
      vertex -2.9856 4.37907 -2.05
      vertex -3.60492 3.88518 -2.05
    endloop
  endfacet
  facet normal -0.955671 0.294438 0
    outer loop
      vertex -4.93774 1.92297 0
      vertex -4.93363 1.93631 5
      vertex -4.93363 1.93631 0
    endloop
  endfacet
  facet normal -0.955671 0.294438 0
    outer loop
      vertex -4.93363 1.93631 5
      vertex -4.93774 1.92297 0
      vertex -4.93774 1.92297 5
    endloop
  endfacet
  facet normal -0.955572 0.294757 0
    outer loop
      vertex -5.16712 1.17936 -2.05
      vertex -4.93363 1.93631 -2
      vertex -4.93363 1.93631 -2.05
    endloop
  endfacet
  facet normal -0.955572 0.294757 0
    outer loop
      vertex -4.93363 1.93631 -2
      vertex -5.16712 1.17936 -2.05
      vertex -5.16712 1.17936 -2
    endloop
  endfacet
  facet normal 0.955572 0.294757 0
    outer loop
      vertex 5.16712 1.17936 5
      vertex 4.93363 1.93631 -2.05
      vertex 4.93363 1.93631 5
    endloop
  endfacet
  facet normal 0.955572 0.294757 0
    outer loop
      vertex 4.93363 1.93631 -2.05
      vertex 5.16712 1.17936 5
      vertex 5.16712 1.17936 -2.05
    endloop
  endfacet
  facet normal -0.988831 -0.14904 0
    outer loop
      vertex -5.16712 -1.17936 -2.05
      vertex -5.28518 -0.396069 -2
      vertex -5.28518 -0.396069 -2.05
    endloop
  endfacet
  facet normal -0.988831 -0.14904 0
    outer loop
      vertex -5.28518 -0.396069 -2
      vertex -5.16712 -1.17936 -2.05
      vertex -5.16712 -1.17936 -2
    endloop
  endfacet
  facet normal 0 0 1
    outer loop
      vertex 2.34394 9.87915 5
      vertex 5.63403 10.3523 5
      vertex 5.4857 11.7636 5
    endloop
  endfacet
  facet normal 0 0 1
    outer loop
      vertex 5.63403 10.3523 5
      vertex 2.34394 9.87915 5
      vertex 5.60431 8.93359 5
    endloop
  endfacet
  facet normal 0 0 1
    outer loop
      vertex 2.16912 11.5424 5
      vertex 5.4857 11.7636 5
      vertex 5.16165 13.1452 5
    endloop
  endfacet
  facet normal 0 0 1
    outer loop
      vertex 2.16912 8.21585 5
      vertex 5.60431 8.93359 5
      vertex 2.34394 9.87915 5
    endloop
  endfacet
  facet normal 0 0 1
    outer loop
      vertex 1.65231 13.133 5
      vertex 5.16165 13.1452 5
      vertex 4.66701 14.4753 5
    endloop
  endfacet
  facet normal 0 0 1
    outer loop
      vertex 5.60431 8.93359 5
      vertex 2.16912 8.21585 5
      vertex 5.39701 7.52975 5
    endloop
  endfacet
  facet normal 0 0 1
    outer loop
      vertex 1.65231 13.133 5
      vertex 4.66701 14.4753 5
      vertex 4.00956 15.7329 5
    endloop
  endfacet
  facet normal 0 0 1
    outer loop
      vertex 5.39701 7.52975 5
      vertex 2.16912 8.21585 5
      vertex 5.0154 6.16295 5
    endloop
  endfacet
  facet normal -0 0 1
    outer loop
      vertex 1.65231 6.62525 5
      vertex 5.0154 6.16295 5
      vertex 2.16912 8.21585 5
    endloop
  endfacet
  facet normal 0 0 1
    outer loop
      vertex 0.81608 14.5814 5
      vertex 4.00956 15.7329 5
      vertex 3.19968 16.8981 5
    endloop
  endfacet
  facet normal 0 0 1
    outer loop
      vertex 5.0154 6.16295 5
      vertex 1.65231 6.62525 5
      vertex 4.46549 4.85477 5
    endloop
  endfacet
  facet normal 0 0 1
    outer loop
      vertex 4.46549 4.85477 5
      vertex 1.65231 6.62525 5
      vertex 3.79032 3.68535 5
    endloop
  endfacet
  facet normal 0 0 1
    outer loop
      vertex 0.81608 14.5814 5
      vertex 3.19968 16.8981 5
      vertex 2.25014 17.9527 5
    endloop
  endfacet
  facet normal 0 0 1
    outer loop
      vertex 5.4857 11.7636 5
      vertex 2.16912 11.5424 5
      vertex 2.34394 9.87915 5
    endloop
  endfacet
  facet normal 0 0 1
    outer loop
      vertex 5.16165 13.1452 5
      vertex 1.65231 13.133 5
      vertex 2.16912 11.5424 5
    endloop
  endfacet
  facet normal 0 0 1
    outer loop
      vertex -0.303012 15.8243 5
      vertex 2.25014 17.9527 5
      vertex 1.17591 18.8799 5
    endloop
  endfacet
  facet normal 0 0 1
    outer loop
      vertex 4.00956 15.7329 5
      vertex 0.81608 14.5814 5
      vertex 1.65231 13.133 5
    endloop
  endfacet
  facet normal 0 0 1
    outer loop
      vertex -1.65606 16.8074 5
      vertex 1.17591 18.8799 5
      vertex -0.00605581 19.6652 5
    endloop
  endfacet
  facet normal 0 0 1
    outer loop
      vertex 2.25014 17.9527 5
      vertex -0.303012 15.8243 5
      vertex 0.81608 14.5814 5
    endloop
  endfacet
  facet normal 0 0 1
    outer loop
      vertex -1.65606 16.8074 5
      vertex -0.00605581 19.6652 5
      vertex -1.27713 20.2962 5
    endloop
  endfacet
  facet normal 0 0 1
    outer loop
      vertex 1.17591 18.8799 5
      vertex -1.65606 16.8074 5
      vertex -0.303012 15.8243 5
    endloop
  endfacet
  facet normal 0 0 1
    outer loop
      vertex -3.18392 17.4876 5
      vertex -1.27713 20.2962 5
      vertex -2.61726 20.7629 5
    endloop
  endfacet
  facet normal 0 0 1
    outer loop
      vertex -1.27713 20.2962 5
      vertex -3.18392 17.4876 5
      vertex -1.65606 16.8074 5
    endloop
  endfacet
  facet normal 0 0 1
    outer loop
      vertex -4.00532 21.0579 5
      vertex -3.18392 17.4876 5
      vertex -2.61726 20.7629 5
    endloop
  endfacet
  facet normal 0 0 1
    outer loop
      vertex -4.00532 21.0579 5
      vertex -4.81983 17.8353 5
      vertex -3.18392 17.4876 5
    endloop
  endfacet
  facet normal 0 0 1
    outer loop
      vertex -5.41941 21.1767 5
      vertex -4.81983 17.8353 5
      vertex -4.00532 21.0579 5
    endloop
  endfacet
  facet normal 0 0 1
    outer loop
      vertex -5.41941 21.1767 5
      vertex -6.49228 17.8353 5
      vertex -4.81983 17.8353 5
    endloop
  endfacet
  facet normal -0 0 1
    outer loop
      vertex -6.83723 21.1172 5
      vertex -6.49228 17.8353 5
      vertex -5.41941 21.1767 5
    endloop
  endfacet
  facet normal -0 0 1
    outer loop
      vertex -8.23642 20.8806 5
      vertex -6.49228 17.8353 5
      vertex -6.83723 21.1172 5
    endloop
  endfacet
  facet normal 0 0 1
    outer loop
      vertex -6.49228 17.8353 5
      vertex -8.23642 20.8806 5
      vertex -8.12819 17.4876 5
    endloop
  endfacet
  facet normal -0 0 1
    outer loop
      vertex -9.59492 20.4704 5
      vertex -8.12819 17.4876 5
      vertex -8.23642 20.8806 5
    endloop
  endfacet
  facet normal 0 0 1
    outer loop
      vertex -9.59492 20.4704 5
      vertex -9.65605 16.8074 5
      vertex -8.12819 17.4876 5
    endloop
  endfacet
  facet normal -0 0 1
    outer loop
      vertex -10.8913 19.8932 5
      vertex -9.65605 16.8074 5
      vertex -9.59492 20.4704 5
    endloop
  endfacet
  facet normal -0 0 1
    outer loop
      vertex -12.1051 19.1581 5
      vertex -9.65605 16.8074 5
      vertex -10.8913 19.8932 5
    endloop
  endfacet
  facet normal 0 0 1
    outer loop
      vertex -9.65605 16.8074 5
      vertex -12.1051 19.1581 5
      vertex -11.0091 15.8243 5
    endloop
  endfacet
  facet normal -0 0 1
    outer loop
      vertex -13.2172 18.2767 5
      vertex -11.0091 15.8243 5
      vertex -12.1051 19.1581 5
    endloop
  endfacet
  facet normal -0 0 1
    outer loop
      vertex -14.2101 17.2628 5
      vertex -11.0091 15.8243 5
      vertex -13.2172 18.2767 5
    endloop
  endfacet
  facet normal 0 0 1
    outer loop
      vertex -11.0091 15.8243 5
      vertex -14.2101 17.2628 5
      vertex -12.1282 14.5814 5
    endloop
  endfacet
  facet normal -0 0 1
    outer loop
      vertex -15.0681 16.1325 5
      vertex -12.1282 14.5814 5
      vertex -14.2101 17.2628 5
    endloop
  endfacet
  facet normal 0 0 1
    outer loop
      vertex -12.1282 14.5814 5
      vertex -15.0681 16.1325 5
      vertex -12.9644 13.133 5
    endloop
  endfacet
  facet normal -0 0 1
    outer loop
      vertex -15.7776 14.9035 5
      vertex -12.9644 13.133 5
      vertex -15.0681 16.1325 5
    endloop
  endfacet
  facet normal 0 0 1
    outer loop
      vertex 5.28518 0.39607 5
      vertex 5.16712 -1.17936 5
      vertex 5.28518 -0.396069 5
    endloop
  endfacet
  facet normal 0 0 1
    outer loop
      vertex 5.16712 1.17936 5
      vertex 5.16712 -1.17936 5
      vertex 5.28518 0.39607 5
    endloop
  endfacet
  facet normal 0 0 1
    outer loop
      vertex 4.93363 1.93631 5
      vertex 5.16712 -1.17936 5
      vertex 5.16712 1.17936 5
    endloop
  endfacet
  facet normal 0 0 1
    outer loop
      vertex 4.93363 1.93631 5
      vertex 4.93363 -1.93631 5
      vertex 5.16712 -1.17936 5
    endloop
  endfacet
  facet normal 0 0 1
    outer loop
      vertex 4.58993 2.65 5
      vertex 4.93363 -1.93631 5
      vertex 4.93363 1.93631 5
    endloop
  endfacet
  facet normal 0 0 1
    outer loop
      vertex 4.58993 2.65 5
      vertex 4.58993 -2.65 5
      vertex 4.93363 -1.93631 5
    endloop
  endfacet
  facet normal 0 0 1
    outer loop
      vertex 3.79032 3.68535 5
      vertex 4.58993 2.65 5
      vertex 4.14371 3.3045 5
    endloop
  endfacet
  facet normal 0 0 1
    outer loop
      vertex 4.58993 2.65 5
      vertex 3.79032 3.68535 5
      vertex 4.58993 -2.65 5
    endloop
  endfacet
  facet normal 0 0 1
    outer loop
      vertex 4.58993 -2.65 5
      vertex 3.79032 3.68535 5
      vertex 4.14371 -3.3045 5
    endloop
  endfacet
  facet normal 0 0 1
    outer loop
      vertex 4.14371 -3.3045 5
      vertex 3.79032 3.68535 5
      vertex 3.60492 -3.88517 5
    endloop
  endfacet
  facet normal -0 0 1
    outer loop
      vertex 0.845651 5.22808 5
      vertex 3.79032 3.68535 5
      vertex 1.65231 6.62525 5
    endloop
  endfacet
  facet normal 0 0 1
    outer loop
      vertex 3.79032 3.68535 5
      vertex 0.845651 5.22808 5
      vertex 3.60492 -3.88517 5
    endloop
  endfacet
  facet normal 0 0 1
    outer loop
      vertex 3.60492 -3.88517 5
      vertex 0.845651 5.22808 5
      vertex 2.9856 -4.37907 5
    endloop
  endfacet
  facet normal 0 0 1
    outer loop
      vertex 2.9856 -4.37907 5
      vertex 0.845651 5.22808 5
      vertex 2.29958 -4.77513 5
    endloop
  endfacet
  facet normal 0 0 1
    outer loop
      vertex 2.29958 -4.77513 5
      vertex 0.845651 5.22808 5
      vertex 1.5622 -5.06454 5
    endloop
  endfacet
  facet normal 0 0 1
    outer loop
      vertex 0.845651 5.22808 5
      vertex 0.789924 -5.2408 5
      vertex 1.5622 -5.06454 5
    endloop
  endfacet
  facet normal 0 0 1
    outer loop
      vertex -3.96897e-07 5.3 5
      vertex 0.845651 5.22808 5
      vertex 0.789923 5.2408 5
    endloop
  endfacet
  facet normal 0 0 1
    outer loop
      vertex 0.845651 5.22808 5
      vertex -3.96897e-07 5.3 5
      vertex 0.789924 -5.2408 5
    endloop
  endfacet
  facet normal 0 0 1
    outer loop
      vertex -3.96897e-07 5.3 5
      vertex -4.17555e-07 -5.3 5
      vertex 0.789924 -5.2408 5
    endloop
  endfacet
  facet normal -0 0 1
    outer loop
      vertex -0.789924 5.2408 5
      vertex -4.17555e-07 -5.3 5
      vertex -3.96897e-07 5.3 5
    endloop
  endfacet
  facet normal 0 0 1
    outer loop
      vertex -0.789924 5.2408 5
      vertex -0.789925 -5.2408 5
      vertex -4.17555e-07 -5.3 5
    endloop
  endfacet
  facet normal -0 0 1
    outer loop
      vertex -1.5622 5.06454 5
      vertex -0.789925 -5.2408 5
      vertex -0.789924 5.2408 5
    endloop
  endfacet
  facet normal 0 0 1
    outer loop
      vertex -1.5622 5.06454 5
      vertex -1.5622 -5.06453 5
      vertex -0.789925 -5.2408 5
    endloop
  endfacet
  facet normal -0 0 1
    outer loop
      vertex -2.29958 4.77514 5
      vertex -1.5622 -5.06453 5
      vertex -1.5622 5.06454 5
    endloop
  endfacet
  facet normal 0 0 1
    outer loop
      vertex -2.29958 4.77514 5
      vertex -2.29958 -4.77513 5
      vertex -1.5622 -5.06453 5
    endloop
  endfacet
  facet normal -0 0 1
    outer loop
      vertex -2.9856 4.37907 5
      vertex -2.29958 -4.77513 5
      vertex -2.29958 4.77514 5
    endloop
  endfacet
  facet normal 0 0 1
    outer loop
      vertex -2.9856 4.37907 5
      vertex -2.9856 -4.37907 5
      vertex -2.29958 -4.77513 5
    endloop
  endfacet
  facet normal 0 0 1
    outer loop
      vertex -2.9856 4.37907 5
      vertex -3.60492 -3.88517 5
      vertex -2.9856 -4.37907 5
    endloop
  endfacet
  facet normal -0 0 1
    outer loop
      vertex -3.60492 3.88518 5
      vertex -3.60492 -3.88517 5
      vertex -2.9856 4.37907 5
    endloop
  endfacet
  facet normal -0 0 1
    outer loop
      vertex -4.14371 3.3045 5
      vertex -3.60492 -3.88517 5
      vertex -3.60492 3.88518 5
    endloop
  endfacet
  facet normal 0 0 1
    outer loop
      vertex -4.14371 3.3045 5
      vertex -4.14371 -3.3045 5
      vertex -3.60492 -3.88517 5
    endloop
  endfacet
  facet normal -0 0 1
    outer loop
      vertex -4.58993 2.65 5
      vertex -4.14371 -3.3045 5
      vertex -4.14371 3.3045 5
    endloop
  endfacet
  facet normal -0 0 1
    outer loop
      vertex -5.10359 -1.3853 5
      vertex -4.14371 -3.3045 5
      vertex -4.58993 2.65 5
    endloop
  endfacet
  facet normal 0 0 1
    outer loop
      vertex -4.14371 -3.3045 5
      vertex -5.10359 -1.3853 5
      vertex -4.58994 -2.65 5
    endloop
  endfacet
  facet normal 0 0 1
    outer loop
      vertex -4.93774 1.92297 5
      vertex -4.58993 2.65 5
      vertex -4.93363 1.93631 5
    endloop
  endfacet
  facet normal 0 0 1
    outer loop
      vertex -5.10359 -1.3853 5
      vertex -4.58993 2.65 5
      vertex -4.93774 1.92297 5
    endloop
  endfacet
  facet normal 0 0 1
    outer loop
      vertex -4.58994 -2.65 5
      vertex -5.10359 -1.3853 5
      vertex -4.93363 -1.93631 5
    endloop
  endfacet
  facet normal 0 0 1
    outer loop
      vertex -4.93774 1.92297 5
      vertex -5.8927 -1.41837 5
      vertex -5.10359 -1.3853 5
    endloop
  endfacet
  facet normal -0 0 1
    outer loop
      vertex -6.49228 1.92297 5
      vertex -5.8927 -1.41837 5
      vertex -4.93774 1.92297 5
    endloop
  endfacet
  facet normal 0 0 1
    outer loop
      vertex -6.49228 1.92297 5
      vertex -7.30679 -1.29963 5
      vertex -5.8927 -1.41837 5
    endloop
  endfacet
  facet normal 0 0 1
    outer loop
      vertex -8.12819 2.2707 5
      vertex -7.30679 -1.29963 5
      vertex -6.49228 1.92297 5
    endloop
  endfacet
  facet normal 0 0 1
    outer loop
      vertex -8.12819 2.2707 5
      vertex -8.69485 -1.00459 5
      vertex -7.30679 -1.29963 5
    endloop
  endfacet
  facet normal 0 0 1
    outer loop
      vertex -10.035 -0.537906 5
      vertex -8.12819 2.2707 5
      vertex -9.65606 2.95094 5
    endloop
  endfacet
  facet normal 0 0 1
    outer loop
      vertex -8.12819 2.2707 5
      vertex -10.035 -0.537906 5
      vertex -8.69485 -1.00459 5
    endloop
  endfacet
  facet normal 0 0 1
    outer loop
      vertex -12.488 0.87836 5
      vertex -9.65606 2.95094 5
      vertex -11.0091 3.93399 5
    endloop
  endfacet
  facet normal 0 0 1
    outer loop
      vertex -9.65606 2.95094 5
      vertex -11.3061 0.093061 5
      vertex -10.035 -0.537906 5
    endloop
  endfacet
  facet normal 0 0 1
    outer loop
      vertex -13.5623 1.80561 5
      vertex -11.0091 3.93399 5
      vertex -12.1282 5.17687 5
    endloop
  endfacet
  facet normal 0 0 1
    outer loop
      vertex -9.65606 2.95094 5
      vertex -12.488 0.87836 5
      vertex -11.3061 0.093061 5
    endloop
  endfacet
  facet normal 0 0 1
    outer loop
      vertex -15.3217 4.02544 5
      vertex -12.1282 5.17687 5
      vertex -12.9644 6.62525 5
    endloop
  endfacet
  facet normal 0 0 1
    outer loop
      vertex -16.4738 6.61309 5
      vertex -12.9644 6.62525 5
      vertex -13.4812 8.21585 5
    endloop
  endfacet
  facet normal 0 0 1
    outer loop
      vertex -11.0091 3.93399 5
      vertex -13.5623 1.80561 5
      vertex -12.488 0.87836 5
    endloop
  endfacet
  facet normal 0 0 1
    outer loop
      vertex -16.7978 7.99466 5
      vertex -13.4812 8.21585 5
      vertex -13.6561 9.87915 5
    endloop
  endfacet
  facet normal -0 0 1
    outer loop
      vertex -16.3275 13.5953 5
      vertex -12.9644 13.133 5
      vertex -15.7776 14.9035 5
    endloop
  endfacet
  facet normal 0 0 1
    outer loop
      vertex -12.1282 5.17687 5
      vertex -14.5118 2.86018 5
      vertex -13.5623 1.80561 5
    endloop
  endfacet
  facet normal 0 0 1
    outer loop
      vertex -12.9644 13.133 5
      vertex -16.3275 13.5953 5
      vertex -13.4812 11.5424 5
    endloop
  endfacet
  facet normal 0 0 1
    outer loop
      vertex -12.1282 5.17687 5
      vertex -15.3217 4.02544 5
      vertex -14.5118 2.86018 5
    endloop
  endfacet
  facet normal -0 0 1
    outer loop
      vertex -16.7091 12.2285 5
      vertex -13.4812 11.5424 5
      vertex -16.3275 13.5953 5
    endloop
  endfacet
  facet normal 0 0 1
    outer loop
      vertex -12.9644 6.62525 5
      vertex -15.9791 5.28302 5
      vertex -15.3217 4.02544 5
    endloop
  endfacet
  facet normal 0 0 1
    outer loop
      vertex -16.9164 10.8247 5
      vertex -13.4812 11.5424 5
      vertex -16.7091 12.2285 5
    endloop
  endfacet
  facet normal 0 0 1
    outer loop
      vertex -12.9644 6.62525 5
      vertex -16.4738 6.61309 5
      vertex -15.9791 5.28302 5
    endloop
  endfacet
  facet normal 0 0 1
    outer loop
      vertex -13.4812 11.5424 5
      vertex -16.9164 10.8247 5
      vertex -13.6561 9.87915 5
    endloop
  endfacet
  facet normal 0 0 1
    outer loop
      vertex -13.4812 8.21585 5
      vertex -16.7978 7.99466 5
      vertex -16.4738 6.61309 5
    endloop
  endfacet
  facet normal 0 0 1
    outer loop
      vertex -16.9461 9.40595 5
      vertex -13.6561 9.87915 5
      vertex -16.9164 10.8247 5
    endloop
  endfacet
  facet normal 0 0 1
    outer loop
      vertex -13.6561 9.87915 5
      vertex -16.9461 9.40595 5
      vertex -16.7978 7.99466 5
    endloop
  endfacet
endsolid OpenSCAD_Model
