solid OpenSCAD_Model
  facet normal -0.430505 -0.902588 0
    outer loop
      vertex 0.602902 34.1558 0
      vertex 2.44412 33.2776 5
      vertex 0.602902 34.1558 5
    endloop
  endfacet
  facet normal -0.430505 -0.902588 -0
    outer loop
      vertex 2.44412 33.2776 5
      vertex 0.602902 34.1558 0
      vertex 2.44412 33.2776 0
    endloop
  endfacet
  facet normal 0.56641 0.824123 -0
    outer loop
      vertex -10.5559 10.7609 0
      vertex -12.237 11.9163 5
      vertex -10.5559 10.7609 5
    endloop
  endfacet
  facet normal 0.56641 0.824123 0
    outer loop
      vertex -12.237 11.9163 5
      vertex -10.5559 10.7609 0
      vertex -12.237 11.9163 0
    endloop
  endfacet
  facet normal 0.824139 -0.566387 0
    outer loop
      vertex -15.3142 28.5192 5
      vertex -14.1588 30.2004 0
      vertex -14.1588 30.2004 5
    endloop
  endfacet
  facet normal 0.824139 -0.566387 0
    outer loop
      vertex -14.1588 30.2004 0
      vertex -15.3142 28.5192 5
      vertex -15.3142 28.5192 0
    endloop
  endfacet
  facet normal 0.182212 -0.983259 0
    outer loop
      vertex -7.42053 34.5763 0
      vertex -5.41475 34.948 5
      vertex -7.42053 34.5763 5
    endloop
  endfacet
  facet normal 0.182212 -0.983259 0
    outer loop
      vertex -5.41475 34.948 5
      vertex -7.42053 34.5763 0
      vertex -5.41475 34.948 0
    endloop
  endfacet
  facet normal 0.983251 0.182258 0
    outer loop
      vertex -16.6129 18.6546 5
      vertex -16.9847 20.6604 0
      vertex -16.9847 20.6604 5
    endloop
  endfacet
  facet normal 0.983251 0.182258 0
    outer loop
      vertex -16.9847 20.6604 0
      vertex -16.6129 18.6546 5
      vertex -16.6129 18.6546 0
    endloop
  endfacet
  facet normal 0.991443 -0.130542 0
    outer loop
      vertex -17.0381 22.6996 5
      vertex -16.7718 24.7221 0
      vertex -16.7718 24.7221 5
    endloop
  endfacet
  facet normal 0.991443 -0.130542 0
    outer loop
      vertex -16.7718 24.7221 0
      vertex -17.0381 22.6996 5
      vertex -17.0381 22.6996 0
    endloop
  endfacet
  facet normal -0.878814 -0.477164 0
    outer loop
      vertex 7.82021 27.3068 0
      vertex 6.84684 29.0995 5
      vertex 6.84684 29.0995 0
    endloop
  endfacet
  facet normal -0.878814 -0.477164 0
    outer loop
      vertex 6.84684 29.0995 5
      vertex 7.82021 27.3068 0
      vertex 7.82021 27.3068 5
    endloop
  endfacet
  facet normal -0.182236 0.983255 0
    outer loop
      vertex -0.691234 9.4622 0
      vertex -2.69701 9.09045 5
      vertex -0.691234 9.4622 5
    endloop
  endfacet
  facet normal -0.182236 0.983255 0
    outer loop
      vertex -2.69701 9.09045 5
      vertex -0.691234 9.4622 0
      vertex -2.69701 9.09045 0
    endloop
  endfacet
  facet normal -0.130543 -0.991443 0
    outer loop
      vertex -3.37551 35.0014 0
      vertex -1.35303 34.7351 5
      vertex -3.37551 35.0014 5
    endloop
  endfacet
  facet normal -0.130543 -0.991443 -0
    outer loop
      vertex -1.35303 34.7351 5
      vertex -3.37551 35.0014 0
      vertex -1.35303 34.7351 0
    endloop
  endfacet
  facet normal -0.283982 -0.95883 0
    outer loop
      vertex -1.35303 34.7351 0
      vertex 0.602902 34.1558 5
      vertex -1.35303 34.7351 5
    endloop
  endfacet
  facet normal -0.283982 -0.95883 -0
    outer loop
      vertex 0.602902 34.1558 5
      vertex -1.35303 34.7351 0
      vertex 0.602902 34.1558 0
    endloop
  endfacet
  facet normal 0.0261773 -0.999657 0
    outer loop
      vertex -5.41475 34.948 0
      vertex -3.37551 35.0014 5
      vertex -5.41475 34.948 5
    endloop
  endfacet
  facet normal 0.0261773 -0.999657 0
    outer loop
      vertex -3.37551 35.0014 5
      vertex -5.41475 34.948 0
      vertex -3.37551 35.0014 0
    endloop
  endfacet
  facet normal 0.477167 -0.878813 0
    outer loop
      vertex -11.1362 32.9219 0
      vertex -9.34346 33.8953 5
      vertex -11.1362 32.9219 5
    endloop
  endfacet
  facet normal 0.477167 -0.878813 0
    outer loop
      vertex -9.34346 33.8953 5
      vertex -11.1362 32.9219 0
      vertex -9.34346 33.8953 0
    endloop
  endfacet
  facet normal 0.608748 -0.793363 0
    outer loop
      vertex -12.7546 31.6801 0
      vertex -11.1362 32.9219 5
      vertex -12.7546 31.6801 5
    endloop
  endfacet
  facet normal 0.608748 -0.793363 0
    outer loop
      vertex -11.1362 32.9219 5
      vertex -12.7546 31.6801 0
      vertex -11.1362 32.9219 0
    endloop
  endfacet
  facet normal 0.333831 -0.942633 0
    outer loop
      vertex -9.34346 33.8953 0
      vertex -7.42053 34.5763 5
      vertex -9.34346 33.8953 5
    endloop
  endfacet
  facet normal 0.333831 -0.942633 0
    outer loop
      vertex -7.42053 34.5763 5
      vertex -9.34346 33.8953 0
      vertex -7.42053 34.5763 0
    endloop
  endfacet
  facet normal 0.878819 0.477155 0
    outer loop
      vertex -14.9586 14.9389 5
      vertex -15.932 16.7317 0
      vertex -15.932 16.7317 5
    endloop
  endfacet
  facet normal 0.878819 0.477155 0
    outer loop
      vertex -15.932 16.7317 0
      vertex -14.9586 14.9389 5
      vertex -14.9586 14.9389 0
    endloop
  endfacet
  facet normal 0.942647 0.333792 0
    outer loop
      vertex -15.932 16.7317 5
      vertex -16.6129 18.6546 0
      vertex -16.6129 18.6546 5
    endloop
  endfacet
  facet normal 0.942647 0.333792 0
    outer loop
      vertex -16.6129 18.6546 0
      vertex -15.932 16.7317 5
      vertex -15.932 16.7317 0
    endloop
  endfacet
  facet normal 0.793363 0.608748 0
    outer loop
      vertex -13.7168 13.3205 5
      vertex -14.9586 14.9389 0
      vertex -14.9586 14.9389 5
    endloop
  endfacet
  facet normal 0.793363 0.608748 0
    outer loop
      vertex -14.9586 14.9389 0
      vertex -13.7168 13.3205 5
      vertex -13.7168 13.3205 0
    endloop
  endfacet
  facet normal 0.999657 0.0261778 0
    outer loop
      vertex -16.9847 20.6604 5
      vertex -17.0381 22.6996 0
      vertex -17.0381 22.6996 5
    endloop
  endfacet
  facet normal 0.999657 0.0261778 0
    outer loop
      vertex -17.0381 22.6996 0
      vertex -16.9847 20.6604 5
      vertex -16.9847 20.6604 0
    endloop
  endfacet
  facet normal 0.902587 -0.430508 0
    outer loop
      vertex -16.1924 26.678 5
      vertex -15.3142 28.5192 0
      vertex -15.3142 28.5192 5
    endloop
  endfacet
  facet normal 0.902587 -0.430508 0
    outer loop
      vertex -15.3142 28.5192 0
      vertex -16.1924 26.678 5
      vertex -16.1924 26.678 0
    endloop
  endfacet
  facet normal -0.942641 -0.333809 0
    outer loop
      vertex 8.50115 25.3839 0
      vertex 7.82021 27.3068 5
      vertex 7.82021 27.3068 0
    endloop
  endfacet
  facet normal -0.942641 -0.333809 0
    outer loop
      vertex 7.82021 27.3068 5
      vertex 8.50115 25.3839 0
      vertex 8.50115 25.3839 5
    endloop
  endfacet
  facet normal -0.999657 -0.0261778 0
    outer loop
      vertex 8.9263 21.3389 0
      vertex 8.8729 23.3781 5
      vertex 8.8729 23.3781 0
    endloop
  endfacet
  facet normal -0.999657 -0.0261778 0
    outer loop
      vertex 8.8729 23.3781 5
      vertex 8.9263 21.3389 0
      vertex 8.9263 21.3389 5
    endloop
  endfacet
  facet normal -0.56643 -0.82411 0
    outer loop
      vertex 2.44412 33.2776 0
      vertex 4.12528 32.1221 5
      vertex 2.44412 33.2776 5
    endloop
  endfacet
  facet normal -0.56643 -0.82411 -0
    outer loop
      vertex 4.12528 32.1221 5
      vertex 2.44412 33.2776 0
      vertex 4.12528 32.1221 0
    endloop
  endfacet
  facet normal -0.333788 0.942648 0
    outer loop
      vertex 1.23169 10.1431 0
      vertex -0.691234 9.4622 5
      vertex 1.23169 10.1431 5
    endloop
  endfacet
  facet normal -0.333788 0.942648 0
    outer loop
      vertex -0.691234 9.4622 5
      vertex 1.23169 10.1431 0
      vertex -0.691234 9.4622 0
    endloop
  endfacet
  facet normal -0.608751 0.793361 0
    outer loop
      vertex 4.64282 12.3583 0
      vertex 3.02443 11.1165 5
      vertex 4.64282 12.3583 5
    endloop
  endfacet
  facet normal -0.608751 0.793361 0
    outer loop
      vertex 3.02443 11.1165 5
      vertex 4.64282 12.3583 0
      vertex 3.02443 11.1165 0
    endloop
  endfacet
  facet normal 0.284019 0.958819 -0
    outer loop
      vertex -6.75873 9.30331 0
      vertex -8.71466 9.88269 5
      vertex -6.75873 9.30331 5
    endloop
  endfacet
  facet normal 0.284019 0.958819 0
    outer loop
      vertex -8.71466 9.88269 5
      vertex -6.75873 9.30331 0
      vertex -8.71466 9.88269 0
    endloop
  endfacet
  facet normal -0.0261773 0.999657 0
    outer loop
      vertex -2.69701 9.09045 0
      vertex -4.73625 9.03705 5
      vertex -2.69701 9.09045 5
    endloop
  endfacet
  facet normal -0.0261773 0.999657 0
    outer loop
      vertex -4.73625 9.03705 5
      vertex -2.69701 9.09045 0
      vertex -4.73625 9.03705 0
    endloop
  endfacet
  facet normal 0 0 1
    outer loop
      vertex 8.8729 23.3781 0
      vertex 8.66004 19.3164 0
      vertex 8.9263 21.3389 0
    endloop
  endfacet
  facet normal 0 0 1
    outer loop
      vertex 8.50115 25.3839 0
      vertex 8.66004 19.3164 0
      vertex 8.8729 23.3781 0
    endloop
  endfacet
  facet normal 0 0 1
    outer loop
      vertex 8.50115 25.3839 0
      vertex 8.08066 17.3604 0
      vertex 8.66004 19.3164 0
    endloop
  endfacet
  facet normal 0 0 1
    outer loop
      vertex 7.82021 27.3068 0
      vertex 8.08066 17.3604 0
      vertex 8.50115 25.3839 0
    endloop
  endfacet
  facet normal 0 0 1
    outer loop
      vertex 7.82021 27.3068 0
      vertex 7.20245 15.5192 0
      vertex 8.08066 17.3604 0
    endloop
  endfacet
  facet normal 0 0 1
    outer loop
      vertex 6.84684 29.0995 0
      vertex 7.20245 15.5192 0
      vertex 7.82021 27.3068 0
    endloop
  endfacet
  facet normal 0 0 1
    outer loop
      vertex 6.84684 29.0995 0
      vertex 6.04702 13.8381 0
      vertex 7.20245 15.5192 0
    endloop
  endfacet
  facet normal 0 0 1
    outer loop
      vertex 5.605 30.7179 0
      vertex 6.04702 13.8381 0
      vertex 6.84684 29.0995 0
    endloop
  endfacet
  facet normal 0 0 1
    outer loop
      vertex 5.605 30.7179 0
      vertex 4.64282 12.3583 0
      vertex 6.04702 13.8381 0
    endloop
  endfacet
  facet normal 0 0 1
    outer loop
      vertex 4.12528 32.1221 0
      vertex 4.64282 12.3583 0
      vertex 5.605 30.7179 0
    endloop
  endfacet
  facet normal 0 0 1
    outer loop
      vertex 4.12528 32.1221 0
      vertex 3.02443 11.1165 0
      vertex 4.64282 12.3583 0
    endloop
  endfacet
  facet normal 0 0 1
    outer loop
      vertex 2.44412 33.2776 0
      vertex 3.02443 11.1165 0
      vertex 4.12528 32.1221 0
    endloop
  endfacet
  facet normal 0 0 1
    outer loop
      vertex 2.44412 33.2776 0
      vertex 1.23169 10.1431 0
      vertex 3.02443 11.1165 0
    endloop
  endfacet
  facet normal 0 0 1
    outer loop
      vertex 0.602902 34.1558 0
      vertex 1.23169 10.1431 0
      vertex 2.44412 33.2776 0
    endloop
  endfacet
  facet normal 0 0 1
    outer loop
      vertex 0.602902 34.1558 0
      vertex -0.691234 9.4622 0
      vertex 1.23169 10.1431 0
    endloop
  endfacet
  facet normal 0 0 1
    outer loop
      vertex -1.35303 34.7351 0
      vertex -0.691234 9.4622 0
      vertex 0.602902 34.1558 0
    endloop
  endfacet
  facet normal 0 0 1
    outer loop
      vertex -1.35303 34.7351 0
      vertex -2.69701 9.09045 0
      vertex -0.691234 9.4622 0
    endloop
  endfacet
  facet normal 0 0 1
    outer loop
      vertex -3.37551 35.0014 0
      vertex -2.69701 9.09045 0
      vertex -1.35303 34.7351 0
    endloop
  endfacet
  facet normal 0 0 1
    outer loop
      vertex -3.37551 35.0014 0
      vertex -4.73625 9.03705 0
      vertex -2.69701 9.09045 0
    endloop
  endfacet
  facet normal -0 0 1
    outer loop
      vertex -5.41475 34.948 0
      vertex -4.73625 9.03705 0
      vertex -3.37551 35.0014 0
    endloop
  endfacet
  facet normal 0 0 1
    outer loop
      vertex -5.41475 34.948 0
      vertex -6.75873 9.30331 0
      vertex -4.73625 9.03705 0
    endloop
  endfacet
  facet normal -0 0 1
    outer loop
      vertex -7.42053 34.5763 0
      vertex -6.75873 9.30331 0
      vertex -5.41475 34.948 0
    endloop
  endfacet
  facet normal 0 0 1
    outer loop
      vertex -7.42053 34.5763 0
      vertex -8.71466 9.88269 0
      vertex -6.75873 9.30331 0
    endloop
  endfacet
  facet normal -0 0 1
    outer loop
      vertex -9.34346 33.8953 0
      vertex -8.71466 9.88269 0
      vertex -7.42053 34.5763 0
    endloop
  endfacet
  facet normal 0 0 1
    outer loop
      vertex -9.34346 33.8953 0
      vertex -10.5559 10.7609 0
      vertex -8.71466 9.88269 0
    endloop
  endfacet
  facet normal -0 0 1
    outer loop
      vertex -11.1362 32.9219 0
      vertex -10.5559 10.7609 0
      vertex -9.34346 33.8953 0
    endloop
  endfacet
  facet normal 0 0 1
    outer loop
      vertex -11.1362 32.9219 0
      vertex -12.237 11.9163 0
      vertex -10.5559 10.7609 0
    endloop
  endfacet
  facet normal -0 0 1
    outer loop
      vertex -12.7546 31.6801 0
      vertex -12.237 11.9163 0
      vertex -11.1362 32.9219 0
    endloop
  endfacet
  facet normal 0 0 1
    outer loop
      vertex -12.7546 31.6801 0
      vertex -13.7168 13.3205 0
      vertex -12.237 11.9163 0
    endloop
  endfacet
  facet normal -0 0 1
    outer loop
      vertex -14.1588 30.2004 0
      vertex -13.7168 13.3205 0
      vertex -12.7546 31.6801 0
    endloop
  endfacet
  facet normal 0 0 1
    outer loop
      vertex -14.1588 30.2004 0
      vertex -14.9586 14.9389 0
      vertex -13.7168 13.3205 0
    endloop
  endfacet
  facet normal -0 0 1
    outer loop
      vertex -15.3142 28.5192 0
      vertex -14.9586 14.9389 0
      vertex -14.1588 30.2004 0
    endloop
  endfacet
  facet normal 0 0 1
    outer loop
      vertex -15.3142 28.5192 0
      vertex -15.932 16.7317 0
      vertex -14.9586 14.9389 0
    endloop
  endfacet
  facet normal -0 0 1
    outer loop
      vertex -16.1924 26.678 0
      vertex -15.932 16.7317 0
      vertex -15.3142 28.5192 0
    endloop
  endfacet
  facet normal 0 0 1
    outer loop
      vertex -16.1924 26.678 0
      vertex -16.6129 18.6546 0
      vertex -15.932 16.7317 0
    endloop
  endfacet
  facet normal -0 0 1
    outer loop
      vertex -16.7718 24.7221 0
      vertex -16.6129 18.6546 0
      vertex -16.1924 26.678 0
    endloop
  endfacet
  facet normal 0 0 1
    outer loop
      vertex -16.7718 24.7221 0
      vertex -16.9847 20.6604 0
      vertex -16.6129 18.6546 0
    endloop
  endfacet
  facet normal 0 -0 1
    outer loop
      vertex -16.9847 20.6604 0
      vertex -16.7718 24.7221 0
      vertex -17.0381 22.6996 0
    endloop
  endfacet
  facet normal 0.958815 -0.284032 0
    outer loop
      vertex -16.7718 24.7221 5
      vertex -16.1924 26.678 0
      vertex -16.1924 26.678 5
    endloop
  endfacet
  facet normal 0.958815 -0.284032 0
    outer loop
      vertex -16.1924 26.678 0
      vertex -16.7718 24.7221 5
      vertex -16.7718 24.7221 0
    endloop
  endfacet
  facet normal -0.991445 0.130523 0
    outer loop
      vertex 8.66004 19.3164 0
      vertex 8.9263 21.3389 5
      vertex 8.9263 21.3389 0
    endloop
  endfacet
  facet normal -0.991445 0.130523 0
    outer loop
      vertex 8.9263 21.3389 5
      vertex 8.66004 19.3164 0
      vertex 8.66004 19.3164 5
    endloop
  endfacet
  facet normal -0.902585 0.430512 0
    outer loop
      vertex 7.20245 15.5192 0
      vertex 8.08066 17.3604 5
      vertex 8.08066 17.3604 0
    endloop
  endfacet
  facet normal -0.902585 0.430512 0
    outer loop
      vertex 8.08066 17.3604 5
      vertex 7.20245 15.5192 0
      vertex 7.20245 15.5192 5
    endloop
  endfacet
  facet normal -0.958822 0.284009 0
    outer loop
      vertex 8.08066 17.3604 0
      vertex 8.66004 19.3164 5
      vertex 8.66004 19.3164 0
    endloop
  endfacet
  facet normal -0.958822 0.284009 0
    outer loop
      vertex 8.66004 19.3164 5
      vertex 8.08066 17.3604 0
      vertex 8.08066 17.3604 5
    endloop
  endfacet
  facet normal -0.983255 -0.182234 0
    outer loop
      vertex 8.8729 23.3781 0
      vertex 8.50115 25.3839 5
      vertex 8.50115 25.3839 0
    endloop
  endfacet
  facet normal -0.983255 -0.182234 0
    outer loop
      vertex 8.50115 25.3839 5
      vertex 8.8729 23.3781 0
      vertex 8.8729 23.3781 5
    endloop
  endfacet
  facet normal -0.793354 -0.608761 0
    outer loop
      vertex 6.84684 29.0995 0
      vertex 5.605 30.7179 5
      vertex 5.605 30.7179 0
    endloop
  endfacet
  facet normal -0.793354 -0.608761 0
    outer loop
      vertex 5.605 30.7179 5
      vertex 6.84684 29.0995 0
      vertex 6.84684 29.0995 5
    endloop
  endfacet
  facet normal -0.688354 -0.725375 0
    outer loop
      vertex 4.12528 32.1221 0
      vertex 5.605 30.7179 5
      vertex 4.12528 32.1221 5
    endloop
  endfacet
  facet normal -0.688354 -0.725375 -0
    outer loop
      vertex 5.605 30.7179 5
      vertex 4.12528 32.1221 0
      vertex 5.605 30.7179 0
    endloop
  endfacet
  facet normal -0.725393 0.688335 0
    outer loop
      vertex 4.64282 12.3583 0
      vertex 6.04702 13.8381 5
      vertex 6.04702 13.8381 0
    endloop
  endfacet
  facet normal -0.725393 0.688335 0
    outer loop
      vertex 6.04702 13.8381 5
      vertex 4.64282 12.3583 0
      vertex 4.64282 12.3583 5
    endloop
  endfacet
  facet normal -0.477167 0.878813 0
    outer loop
      vertex 3.02443 11.1165 0
      vertex 1.23169 10.1431 5
      vertex 3.02443 11.1165 5
    endloop
  endfacet
  facet normal -0.477167 0.878813 0
    outer loop
      vertex 1.23169 10.1431 5
      vertex 3.02443 11.1165 0
      vertex 1.23169 10.1431 0
    endloop
  endfacet
  facet normal -0.824117 0.56642 0
    outer loop
      vertex 6.04702 13.8381 0
      vertex 7.20245 15.5192 5
      vertex 7.20245 15.5192 0
    endloop
  endfacet
  facet normal -0.824117 0.56642 0
    outer loop
      vertex 7.20245 15.5192 5
      vertex 6.04702 13.8381 0
      vertex 6.04702 13.8381 5
    endloop
  endfacet
  facet normal 0.130524 0.991445 -0
    outer loop
      vertex -4.73625 9.03705 0
      vertex -6.75873 9.30331 5
      vertex -4.73625 9.03705 5
    endloop
  endfacet
  facet normal 0.130524 0.991445 0
    outer loop
      vertex -6.75873 9.30331 5
      vertex -4.73625 9.03705 0
      vertex -6.75873 9.30331 0
    endloop
  endfacet
  facet normal 0.430505 0.902588 -0
    outer loop
      vertex -8.71466 9.88269 0
      vertex -10.5559 10.7609 5
      vertex -8.71466 9.88269 5
    endloop
  endfacet
  facet normal 0.430505 0.902588 0
    outer loop
      vertex -10.5559 10.7609 5
      vertex -8.71466 9.88269 0
      vertex -10.5559 10.7609 0
    endloop
  endfacet
  facet normal 0.72537 -0.688359 0
    outer loop
      vertex -14.1588 30.2004 5
      vertex -12.7546 31.6801 0
      vertex -12.7546 31.6801 5
    endloop
  endfacet
  facet normal 0.72537 -0.688359 0
    outer loop
      vertex -12.7546 31.6801 0
      vertex -14.1588 30.2004 5
      vertex -14.1588 30.2004 0
    endloop
  endfacet
  facet normal 0.688335 0.725393 -0
    outer loop
      vertex -12.237 11.9163 0
      vertex -13.7168 13.3205 5
      vertex -12.237 11.9163 5
    endloop
  endfacet
  facet normal 0.688335 0.725393 0
    outer loop
      vertex -13.7168 13.3205 5
      vertex -12.237 11.9163 0
      vertex -13.7168 13.3205 0
    endloop
  endfacet
  facet normal 0.454002 0.891001 -0
    outer loop
      vertex 4.09412 36.1354 -2
      vertex 2.57393 36.91 5
      vertex 4.09412 36.1354 5
    endloop
  endfacet
  facet normal 0.454002 0.891001 0
    outer loop
      vertex 2.57393 36.91 5
      vertex 4.09412 36.1354 -2
      vertex 2.57393 36.91 -2
    endloop
  endfacet
  facet normal -0.544636 -0.838673 0
    outer loop
      vertex -13.6368 8.83225 -2
      vertex -12.2059 7.90302 5
      vertex -13.6368 8.83225 5
    endloop
  endfacet
  facet normal -0.544636 -0.838673 -0
    outer loop
      vertex -12.2059 7.90302 5
      vertex -13.6368 8.83225 -2
      vertex -12.2059 7.90302 -2
    endloop
  endfacet
  facet normal -0.891002 0.454 0
    outer loop
      vertex -18.9467 28.649 -2
      vertex -18.1721 30.1692 5
      vertex -18.1721 30.1692 -2
    endloop
  endfacet
  facet normal -0.891002 0.454 0
    outer loop
      vertex -18.1721 30.1692 5
      vertex -18.9467 28.649 -2
      vertex -18.9467 28.649 5
    endloop
  endfacet
  facet normal -0.258772 0.965938 0
    outer loop
      vertex -7.44484 37.963 -2
      vertex -9.09286 37.5215 5
      vertex -7.44484 37.963 5
    endloop
  endfacet
  facet normal -0.258772 0.965938 0
    outer loop
      vertex -9.09286 37.5215 5
      vertex -7.44484 37.963 -2
      vertex -9.09286 37.5215 -2
    endloop
  endfacet
  facet normal -0.965923 -0.25883 0
    outer loop
      vertex -19.5581 16.9823 -2
      vertex -19.9997 18.6303 5
      vertex -19.9997 18.6303 -2
    endloop
  endfacet
  facet normal -0.965923 -0.25883 0
    outer loop
      vertex -19.9997 18.6303 5
      vertex -19.5581 16.9823 -2
      vertex -19.5581 16.9823 5
    endloop
  endfacet
  facet normal -0.987689 0.156429 0
    outer loop
      vertex -20.2666 23.723 -2
      vertex -19.9997 25.4082 5
      vertex -19.9997 25.4082 -2
    endloop
  endfacet
  facet normal -0.987689 0.156429 0
    outer loop
      vertex -19.9997 25.4082 5
      vertex -20.2666 23.723 -2
      vertex -20.2666 23.723 5
    endloop
  endfacet
  facet normal 0.156434 0.987688 -0
    outer loop
      vertex -0.666921 37.963 -2
      vertex -2.35207 38.2299 5
      vertex -0.666921 37.963 5
    endloop
  endfacet
  facet normal 0.156434 0.987688 0
    outer loop
      vertex -2.35207 38.2299 5
      vertex -0.666921 37.963 -2
      vertex -2.35207 38.2299 -2
    endloop
  endfacet
  facet normal -0.629323 0.777144 0
    outer loop
      vertex -13.6368 35.2062 -2
      vertex -14.9627 34.1325 5
      vertex -13.6368 35.2062 5
    endloop
  endfacet
  facet normal -0.629323 0.777144 0
    outer loop
      vertex -14.9627 34.1325 5
      vertex -13.6368 35.2062 -2
      vertex -14.9627 34.1325 -2
    endloop
  endfacet
  facet normal -0.838681 -0.544624 0
    outer loop
      vertex -17.2429 12.4383 -2
      vertex -18.1721 13.8692 5
      vertex -18.1721 13.8692 -2
    endloop
  endfacet
  facet normal -0.838681 -0.544624 0
    outer loop
      vertex -18.1721 13.8692 5
      vertex -17.2429 12.4383 -2
      vertex -17.2429 12.4383 5
    endloop
  endfacet
  facet normal -0.891002 -0.454 0
    outer loop
      vertex -18.1721 13.8692 -2
      vertex -18.9467 15.3894 5
      vertex -18.9467 15.3894 -2
    endloop
  endfacet
  facet normal -0.891002 -0.454 0
    outer loop
      vertex -18.9467 15.3894 5
      vertex -18.1721 13.8692 -2
      vertex -18.1721 13.8692 5
    endloop
  endfacet
  facet normal -0.62933 -0.777138 0
    outer loop
      vertex -14.9627 9.90597 -2
      vertex -13.6368 8.83225 5
      vertex -14.9627 9.90597 5
    endloop
  endfacet
  facet normal -0.62933 -0.777138 -0
    outer loop
      vertex -13.6368 8.83225 5
      vertex -14.9627 9.90597 -2
      vertex -13.6368 8.83225 -2
    endloop
  endfacet
  facet normal -0.933584 0.358358 0
    outer loop
      vertex -19.5581 27.0562 -2
      vertex -18.9467 28.649 5
      vertex -18.9467 28.649 -2
    endloop
  endfacet
  facet normal -0.933584 0.358358 0
    outer loop
      vertex -18.9467 28.649 5
      vertex -19.5581 27.0562 -2
      vertex -19.5581 27.0562 5
    endloop
  endfacet
  facet normal -0.156434 -0.987688 0
    outer loop
      vertex -7.44484 6.07543 -2
      vertex -5.7597 5.80853 5
      vertex -7.44484 6.07543 5
    endloop
  endfacet
  facet normal -0.156434 -0.987688 -0
    outer loop
      vertex -5.7597 5.80853 5
      vertex -7.44484 6.07543 -2
      vertex -5.7597 5.80853 -2
    endloop
  endfacet
  facet normal 0.933592 -0.358339 0
    outer loop
      vertex 10.8349 15.3894 5
      vertex 11.4463 16.9823 -2
      vertex 11.4463 16.9823 5
    endloop
  endfacet
  facet normal 0.933592 -0.358339 0
    outer loop
      vertex 11.4463 16.9823 -2
      vertex 10.8349 15.3894 5
      vertex 10.8349 15.3894 -2
    endloop
  endfacet
  facet normal 0.258773 0.965938 -0
    outer loop
      vertex 0.981096 37.5215 -2
      vertex -0.666921 37.963 5
      vertex 0.981096 37.5215 5
    endloop
  endfacet
  facet normal 0.258773 0.965938 0
    outer loop
      vertex -0.666921 37.963 5
      vertex 0.981096 37.5215 -2
      vertex -0.666921 37.963 -2
    endloop
  endfacet
  facet normal 0.358403 0.933567 -0
    outer loop
      vertex 2.57393 36.91 -2
      vertex 0.981096 37.5215 5
      vertex 2.57393 36.91 5
    endloop
  endfacet
  facet normal 0.358403 0.933567 0
    outer loop
      vertex 0.981096 37.5215 5
      vertex 2.57393 36.91 -2
      vertex 0.981096 37.5215 -2
    endloop
  endfacet
  facet normal -0.0523398 0.998629 0
    outer loop
      vertex -4.05588 38.3192 -2
      vertex -5.7597 38.2299 5
      vertex -4.05588 38.3192 5
    endloop
  endfacet
  facet normal -0.0523398 0.998629 0
    outer loop
      vertex -5.7597 38.2299 5
      vertex -4.05588 38.3192 -2
      vertex -5.7597 38.2299 -2
    endloop
  endfacet
  facet normal -0.156434 0.987688 0
    outer loop
      vertex -5.7597 38.2299 -2
      vertex -7.44484 37.963 5
      vertex -5.7597 38.2299 5
    endloop
  endfacet
  facet normal -0.156434 0.987688 0
    outer loop
      vertex -7.44484 37.963 5
      vertex -5.7597 38.2299 -2
      vertex -7.44484 37.963 -2
    endloop
  endfacet
  facet normal 0.0523401 0.998629 -0
    outer loop
      vertex -2.35207 38.2299 -2
      vertex -4.05588 38.3192 5
      vertex -2.35207 38.2299 5
    endloop
  endfacet
  facet normal 0.0523401 0.998629 0
    outer loop
      vertex -4.05588 38.3192 5
      vertex -2.35207 38.2299 -2
      vertex -4.05588 38.3192 -2
    endloop
  endfacet
  facet normal -0.707107 0.707107 0
    outer loop
      vertex -16.1691 32.9261 -2
      vertex -14.9627 34.1325 5
      vertex -14.9627 34.1325 -2
    endloop
  endfacet
  facet normal -0.707107 0.707107 0
    outer loop
      vertex -14.9627 34.1325 5
      vertex -16.1691 32.9261 -2
      vertex -16.1691 32.9261 5
    endloop
  endfacet
  facet normal -0.777138 0.62933 0
    outer loop
      vertex -17.2429 31.6001 -2
      vertex -16.1691 32.9261 5
      vertex -16.1691 32.9261 -2
    endloop
  endfacet
  facet normal -0.777138 0.62933 0
    outer loop
      vertex -16.1691 32.9261 5
      vertex -17.2429 31.6001 -2
      vertex -17.2429 31.6001 5
    endloop
  endfacet
  facet normal -0.838681 0.544624 0
    outer loop
      vertex -18.1721 30.1692 -2
      vertex -17.2429 31.6001 5
      vertex -17.2429 31.6001 -2
    endloop
  endfacet
  facet normal -0.838681 0.544624 0
    outer loop
      vertex -17.2429 31.6001 5
      vertex -18.1721 30.1692 -2
      vertex -18.1721 30.1692 5
    endloop
  endfacet
  facet normal -0.358402 0.933567 0
    outer loop
      vertex -9.09286 37.5215 -2
      vertex -10.6857 36.91 5
      vertex -9.09286 37.5215 5
    endloop
  endfacet
  facet normal -0.358402 0.933567 0
    outer loop
      vertex -10.6857 36.91 5
      vertex -9.09286 37.5215 -2
      vertex -10.6857 36.91 -2
    endloop
  endfacet
  facet normal -0.454 0.891002 0
    outer loop
      vertex -10.6857 36.91 -2
      vertex -12.2059 36.1354 5
      vertex -10.6857 36.91 5
    endloop
  endfacet
  facet normal -0.454 0.891002 0
    outer loop
      vertex -12.2059 36.1354 5
      vertex -10.6857 36.91 -2
      vertex -12.2059 36.1354 -2
    endloop
  endfacet
  facet normal -0.933592 -0.358339 0
    outer loop
      vertex -18.9467 15.3894 -2
      vertex -19.5581 16.9823 5
      vertex -19.5581 16.9823 -2
    endloop
  endfacet
  facet normal -0.933592 -0.358339 0
    outer loop
      vertex -19.5581 16.9823 5
      vertex -18.9467 15.3894 -2
      vertex -18.9467 15.3894 5
    endloop
  endfacet
  facet normal -0.777115 -0.629358 0
    outer loop
      vertex -16.1691 11.1124 -2
      vertex -17.2429 12.4383 5
      vertex -17.2429 12.4383 -2
    endloop
  endfacet
  facet normal -0.777115 -0.629358 0
    outer loop
      vertex -17.2429 12.4383 5
      vertex -16.1691 11.1124 -2
      vertex -16.1691 11.1124 5
    endloop
  endfacet
  facet normal -0.707116 -0.707098 0
    outer loop
      vertex -14.9627 9.90597 -2
      vertex -16.1691 11.1124 5
      vertex -16.1691 11.1124 -2
    endloop
  endfacet
  facet normal -0.707116 -0.707098 0
    outer loop
      vertex -16.1691 11.1124 5
      vertex -14.9627 9.90597 -2
      vertex -14.9627 9.90597 5
    endloop
  endfacet
  facet normal -0.998629 -0.0523404 0
    outer loop
      vertex -20.2666 20.3154 -2
      vertex -20.3559 22.0192 5
      vertex -20.3559 22.0192 -2
    endloop
  endfacet
  facet normal -0.998629 -0.0523404 0
    outer loop
      vertex -20.3559 22.0192 5
      vertex -20.2666 20.3154 -2
      vertex -20.2666 20.3154 5
    endloop
  endfacet
  facet normal -0.987688 -0.156438 0
    outer loop
      vertex -19.9997 18.6303 -2
      vertex -20.2666 20.3154 5
      vertex -20.2666 20.3154 -2
    endloop
  endfacet
  facet normal -0.987688 -0.156438 0
    outer loop
      vertex -20.2666 20.3154 5
      vertex -19.9997 18.6303 -2
      vertex -19.9997 18.6303 5
    endloop
  endfacet
  facet normal -0.965923 0.25883 0
    outer loop
      vertex -19.9997 25.4082 -2
      vertex -19.5581 27.0562 5
      vertex -19.5581 27.0562 -2
    endloop
  endfacet
  facet normal -0.965923 0.25883 0
    outer loop
      vertex -19.5581 27.0562 5
      vertex -19.9997 25.4082 -2
      vertex -19.9997 25.4082 5
    endloop
  endfacet
  facet normal 0.838681 -0.544624 0
    outer loop
      vertex 9.1311 12.4383 5
      vertex 10.0603 13.8692 -2
      vertex 10.0603 13.8692 5
    endloop
  endfacet
  facet normal 0.838681 -0.544624 0
    outer loop
      vertex 10.0603 13.8692 -2
      vertex 9.1311 12.4383 5
      vertex 9.1311 12.4383 -2
    endloop
  endfacet
  facet normal -0.45399 -0.891007 0
    outer loop
      vertex -12.2059 7.90302 -2
      vertex -10.6857 7.12844 5
      vertex -12.2059 7.90302 5
    endloop
  endfacet
  facet normal -0.45399 -0.891007 -0
    outer loop
      vertex -10.6857 7.12844 5
      vertex -12.2059 7.90302 -2
      vertex -10.6857 7.12844 -2
    endloop
  endfacet
  facet normal 0.987688 -0.156438 0
    outer loop
      vertex 11.8879 18.6303 5
      vertex 12.1548 20.3154 -2
      vertex 12.1548 20.3154 5
    endloop
  endfacet
  facet normal 0.987688 -0.156438 0
    outer loop
      vertex 12.1548 20.3154 -2
      vertex 11.8879 18.6303 5
      vertex 11.8879 18.6303 -2
    endloop
  endfacet
  facet normal 0.965923 -0.25883 0
    outer loop
      vertex 11.4463 16.9823 5
      vertex 11.8879 18.6303 -2
      vertex 11.8879 18.6303 5
    endloop
  endfacet
  facet normal 0.965923 -0.25883 0
    outer loop
      vertex 11.8879 18.6303 -2
      vertex 11.4463 16.9823 5
      vertex 11.4463 16.9823 -2
    endloop
  endfacet
  facet normal -0.544624 0.838681 0
    outer loop
      vertex -12.2059 36.1354 -2
      vertex -13.6368 35.2062 5
      vertex -12.2059 36.1354 5
    endloop
  endfacet
  facet normal -0.544624 0.838681 0
    outer loop
      vertex -13.6368 35.2062 5
      vertex -12.2059 36.1354 -2
      vertex -13.6368 35.2062 -2
    endloop
  endfacet
  facet normal -0.998629 0.0523404 0
    outer loop
      vertex -20.3559 22.0192 -2
      vertex -20.2666 23.723 5
      vertex -20.2666 23.723 -2
    endloop
  endfacet
  facet normal -0.998629 0.0523404 0
    outer loop
      vertex -20.2666 23.723 5
      vertex -20.3559 22.0192 -2
      vertex -20.3559 22.0192 5
    endloop
  endfacet
  facet normal 0.707098 0.707116 0
    outer loop
      vertex 8.05738 32.9261 5
      vertex 6.85095 34.1325 -2
      vertex 6.85095 34.1325 5
    endloop
  endfacet
  facet normal 0.707098 0.707116 0
    outer loop
      vertex 6.85095 34.1325 -2
      vertex 8.05738 32.9261 5
      vertex 8.05738 32.9261 -2
    endloop
  endfacet
  facet normal 0.629314 0.777151 -0
    outer loop
      vertex 6.85095 34.1325 -2
      vertex 5.52502 35.2062 5
      vertex 6.85095 34.1325 5
    endloop
  endfacet
  facet normal 0.629314 0.777151 0
    outer loop
      vertex 5.52502 35.2062 5
      vertex 6.85095 34.1325 -2
      vertex 5.52502 35.2062 -2
    endloop
  endfacet
  facet normal 0.544624 0.838681 -0
    outer loop
      vertex 5.52502 35.2062 -2
      vertex 4.09412 36.1354 5
      vertex 5.52502 35.2062 5
    endloop
  endfacet
  facet normal 0.544624 0.838681 0
    outer loop
      vertex 4.09412 36.1354 5
      vertex 5.52502 35.2062 -2
      vertex 4.09412 36.1354 -2
    endloop
  endfacet
  facet normal 0.998629 -0.0523404 0
    outer loop
      vertex 12.1548 20.3154 5
      vertex 12.2441 22.0192 -2
      vertex 12.2441 22.0192 5
    endloop
  endfacet
  facet normal 0.998629 -0.0523404 0
    outer loop
      vertex 12.2441 22.0192 -2
      vertex 12.1548 20.3154 5
      vertex 12.1548 20.3154 -2
    endloop
  endfacet
  facet normal 0.965923 0.25883 0
    outer loop
      vertex 11.8879 25.4082 5
      vertex 11.4463 27.0562 -2
      vertex 11.4463 27.0562 5
    endloop
  endfacet
  facet normal 0.965923 0.25883 0
    outer loop
      vertex 11.4463 27.0562 -2
      vertex 11.8879 25.4082 5
      vertex 11.8879 25.4082 -2
    endloop
  endfacet
  facet normal 0.838678 0.544628 0
    outer loop
      vertex 10.0603 30.1692 5
      vertex 9.13109 31.6001 -2
      vertex 9.13109 31.6001 5
    endloop
  endfacet
  facet normal 0.838678 0.544628 0
    outer loop
      vertex 9.13109 31.6001 -2
      vertex 10.0603 30.1692 5
      vertex 10.0603 30.1692 -2
    endloop
  endfacet
  facet normal 0.933584 0.358358 0
    outer loop
      vertex 11.4463 27.0562 5
      vertex 10.8349 28.649 -2
      vertex 10.8349 28.649 5
    endloop
  endfacet
  facet normal 0.933584 0.358358 0
    outer loop
      vertex 10.8349 28.649 -2
      vertex 11.4463 27.0562 5
      vertex 11.4463 27.0562 -2
    endloop
  endfacet
  facet normal 0.629318 -0.777148 0
    outer loop
      vertex 5.52502 8.83226 -2
      vertex 6.85095 9.90597 5
      vertex 5.52502 8.83226 5
    endloop
  endfacet
  facet normal 0.629318 -0.777148 0
    outer loop
      vertex 6.85095 9.90597 5
      vertex 5.52502 8.83226 -2
      vertex 6.85095 9.90597 -2
    endloop
  endfacet
  facet normal -0.0523398 -0.998629 0
    outer loop
      vertex -5.7597 5.80853 -2
      vertex -4.05588 5.71923 5
      vertex -5.7597 5.80853 5
    endloop
  endfacet
  facet normal -0.0523398 -0.998629 -0
    outer loop
      vertex -4.05588 5.71923 5
      vertex -5.7597 5.80853 -2
      vertex -4.05588 5.71923 -2
    endloop
  endfacet
  facet normal 0.987689 0.156429 0
    outer loop
      vertex 12.1548 23.723 5
      vertex 11.8879 25.4082 -2
      vertex 11.8879 25.4082 5
    endloop
  endfacet
  facet normal 0.987689 0.156429 0
    outer loop
      vertex 11.8879 25.4082 -2
      vertex 12.1548 23.723 5
      vertex 12.1548 23.723 -2
    endloop
  endfacet
  facet normal 0.998629 0.0523404 0
    outer loop
      vertex 12.2441 22.0192 5
      vertex 12.1548 23.723 -2
      vertex 12.1548 23.723 5
    endloop
  endfacet
  facet normal 0.998629 0.0523404 0
    outer loop
      vertex 12.1548 23.723 -2
      vertex 12.2441 22.0192 5
      vertex 12.2441 22.0192 -2
    endloop
  endfacet
  facet normal 0.777164 0.629298 0
    outer loop
      vertex 9.13109 31.6001 5
      vertex 8.05738 32.9261 -2
      vertex 8.05738 32.9261 5
    endloop
  endfacet
  facet normal 0.777164 0.629298 0
    outer loop
      vertex 8.05738 32.9261 -2
      vertex 9.13109 31.6001 5
      vertex 9.13109 31.6001 -2
    endloop
  endfacet
  facet normal 0.891002 0.454 0
    outer loop
      vertex 10.8349 28.649 5
      vertex 10.0603 30.1692 -2
      vertex 10.0603 30.1692 5
    endloop
  endfacet
  facet normal 0.891002 0.454 0
    outer loop
      vertex 10.0603 30.1692 -2
      vertex 10.8349 28.649 5
      vertex 10.8349 28.649 -2
    endloop
  endfacet
  facet normal 0.891002 -0.454 0
    outer loop
      vertex 10.0603 13.8692 5
      vertex 10.8349 15.3894 -2
      vertex 10.8349 15.3894 5
    endloop
  endfacet
  facet normal 0.891002 -0.454 0
    outer loop
      vertex 10.8349 15.3894 -2
      vertex 10.0603 13.8692 5
      vertex 10.0603 13.8692 -2
    endloop
  endfacet
  facet normal 0.707107 -0.707107 0
    outer loop
      vertex 6.85095 9.90597 5
      vertex 8.05738 11.1124 -2
      vertex 8.05738 11.1124 5
    endloop
  endfacet
  facet normal 0.707107 -0.707107 0
    outer loop
      vertex 8.05738 11.1124 -2
      vertex 6.85095 9.90597 5
      vertex 6.85095 9.90597 -2
    endloop
  endfacet
  facet normal 0.258822 -0.965925 0
    outer loop
      vertex 0.0904881 6.27837 -2
      vertex 0.981095 6.51701 5
      vertex 0.0904881 6.27837 5
    endloop
  endfacet
  facet normal 0.258822 -0.965925 0
    outer loop
      vertex 0.981095 6.51701 5
      vertex 0.0904881 6.27837 -2
      vertex 0.981095 6.51701 -2
    endloop
  endfacet
  facet normal 0.052335 -0.99863 0
    outer loop
      vertex -4.05588 5.71923 -2
      vertex -2.43548 5.80415 5
      vertex -4.05588 5.71923 5
    endloop
  endfacet
  facet normal 0.052335 -0.99863 0
    outer loop
      vertex -2.43548 5.80415 5
      vertex -4.05588 5.71923 -2
      vertex -2.43548 5.80415 -2
    endloop
  endfacet
  facet normal -0.258816 -0.965927 0
    outer loop
      vertex -9.09286 6.51701 -2
      vertex -7.44484 6.07543 5
      vertex -9.09286 6.51701 5
    endloop
  endfacet
  facet normal -0.258816 -0.965927 -0
    outer loop
      vertex -7.44484 6.07543 5
      vertex -9.09286 6.51701 -2
      vertex -7.44484 6.07543 -2
    endloop
  endfacet
  facet normal 0 0 -1
    outer loop
      vertex 12.1548 20.3154 -2
      vertex 12.1548 23.723 -2
      vertex 12.2441 22.0192 -2
    endloop
  endfacet
  facet normal 0 0 -1
    outer loop
      vertex 11.8879 18.6303 -2
      vertex 12.1548 23.723 -2
      vertex 12.1548 20.3154 -2
    endloop
  endfacet
  facet normal 0 0 -1
    outer loop
      vertex 11.8879 18.6303 -2
      vertex 11.8879 25.4082 -2
      vertex 12.1548 23.723 -2
    endloop
  endfacet
  facet normal 0 0 -1
    outer loop
      vertex 11.4463 16.9823 -2
      vertex 11.8879 25.4082 -2
      vertex 11.8879 18.6303 -2
    endloop
  endfacet
  facet normal 0 0 -1
    outer loop
      vertex 11.4463 16.9823 -2
      vertex 11.4463 27.0562 -2
      vertex 11.8879 25.4082 -2
    endloop
  endfacet
  facet normal 0 0 -1
    outer loop
      vertex 10.8349 15.3894 -2
      vertex 11.4463 27.0562 -2
      vertex 11.4463 16.9823 -2
    endloop
  endfacet
  facet normal 0 0 -1
    outer loop
      vertex 10.8349 15.3894 -2
      vertex 10.8349 28.649 -2
      vertex 11.4463 27.0562 -2
    endloop
  endfacet
  facet normal 0 0 -1
    outer loop
      vertex 10.0603 13.8692 -2
      vertex 10.8349 28.649 -2
      vertex 10.8349 15.3894 -2
    endloop
  endfacet
  facet normal 0 0 -1
    outer loop
      vertex 10.0603 13.8692 -2
      vertex 10.0603 30.1692 -2
      vertex 10.8349 28.649 -2
    endloop
  endfacet
  facet normal 0 0 -1
    outer loop
      vertex -1.37769 6.14752 -2
      vertex 10.0603 13.8692 -2
      vertex 9.1311 12.4383 -2
    endloop
  endfacet
  facet normal -0 0 -1
    outer loop
      vertex 10.0603 13.8692 -2
      vertex -1.37769 6.14752 -2
      vertex 10.0603 30.1692 -2
    endloop
  endfacet
  facet normal 0 0 -1
    outer loop
      vertex -1.37769 6.14752 -2
      vertex 9.1311 12.4383 -2
      vertex 8.05738 11.1124 -2
    endloop
  endfacet
  facet normal -0 0 -1
    outer loop
      vertex 10.0603 30.1692 -2
      vertex -1.37769 6.14752 -2
      vertex 9.13109 31.6001 -2
    endloop
  endfacet
  facet normal 0 0 -1
    outer loop
      vertex -1.37769 6.14752 -2
      vertex 8.05738 11.1124 -2
      vertex 6.85095 9.90597 -2
    endloop
  endfacet
  facet normal -0 0 -1
    outer loop
      vertex 9.13109 31.6001 -2
      vertex -1.37769 6.14752 -2
      vertex 8.05738 32.9261 -2
    endloop
  endfacet
  facet normal 0 0 -1
    outer loop
      vertex -1.37769 6.14752 -2
      vertex 6.85095 9.90597 -2
      vertex 5.52502 8.83226 -2
    endloop
  endfacet
  facet normal -0 0 -1
    outer loop
      vertex 8.05738 32.9261 -2
      vertex -1.37769 6.14752 -2
      vertex 6.85095 34.1325 -2
    endloop
  endfacet
  facet normal 0 0 -1
    outer loop
      vertex -1.37769 6.14752 -2
      vertex 5.52502 8.83226 -2
      vertex 4.09412 7.90302 -2
    endloop
  endfacet
  facet normal -0 0 -1
    outer loop
      vertex 6.85095 34.1325 -2
      vertex -1.37769 6.14752 -2
      vertex 5.52502 35.2062 -2
    endloop
  endfacet
  facet normal -0 0 -1
    outer loop
      vertex 5.52502 35.2062 -2
      vertex -1.37769 6.14752 -2
      vertex 4.09412 36.1354 -2
    endloop
  endfacet
  facet normal 0 0 -1
    outer loop
      vertex -0.347053 6.29043 -2
      vertex 4.09412 7.90302 -2
      vertex 2.57393 7.12844 -2
    endloop
  endfacet
  facet normal -0 0 -1
    outer loop
      vertex 4.09412 36.1354 -2
      vertex -1.37769 6.14752 -2
      vertex 2.57393 36.91 -2
    endloop
  endfacet
  facet normal 0 0 -1
    outer loop
      vertex -0.347053 6.29043 -2
      vertex 2.57393 7.12844 -2
      vertex 0.981095 6.51701 -2
    endloop
  endfacet
  facet normal 0 0 -1
    outer loop
      vertex -0.347053 6.29043 -2
      vertex 0.981095 6.51701 -2
      vertex 0.0904881 6.27837 -2
    endloop
  endfacet
  facet normal 0 0 -1
    outer loop
      vertex 4.09412 7.90302 -2
      vertex -0.347053 6.29043 -2
      vertex -1.37769 6.14752 -2
    endloop
  endfacet
  facet normal -0 0 -1
    outer loop
      vertex 2.57393 36.91 -2
      vertex -1.37769 6.14752 -2
      vertex 0.981096 37.5215 -2
    endloop
  endfacet
  facet normal -0 0 -1
    outer loop
      vertex 0.981096 37.5215 -2
      vertex -1.37769 6.14752 -2
      vertex -0.666921 37.963 -2
    endloop
  endfacet
  facet normal 0 0 -1
    outer loop
      vertex -1.37769 6.14752 -2
      vertex -2.35207 38.2299 -2
      vertex -0.666921 37.963 -2
    endloop
  endfacet
  facet normal 0 0 -1
    outer loop
      vertex -4.05588 5.71923 -2
      vertex -1.37769 6.14752 -2
      vertex -2.37075 5.83691 -2
    endloop
  endfacet
  facet normal 0 0 -1
    outer loop
      vertex -4.05588 5.71923 -2
      vertex -2.37075 5.83691 -2
      vertex -2.43548 5.80415 -2
    endloop
  endfacet
  facet normal 0 0 -1
    outer loop
      vertex -1.37769 6.14752 -2
      vertex -4.05588 38.3192 -2
      vertex -2.35207 38.2299 -2
    endloop
  endfacet
  facet normal 0 0 -1
    outer loop
      vertex -1.37769 6.14752 -2
      vertex -4.05588 5.71923 -2
      vertex -5.7597 5.80853 -2
    endloop
  endfacet
  facet normal 0 0 -1
    outer loop
      vertex -1.37769 6.14752 -2
      vertex -5.7597 38.2299 -2
      vertex -4.05588 38.3192 -2
    endloop
  endfacet
  facet normal 0 0 -1
    outer loop
      vertex -7.44484 6.07543 -2
      vertex -1.37769 6.14752 -2
      vertex -5.7597 5.80853 -2
    endloop
  endfacet
  facet normal 0 0 -1
    outer loop
      vertex -9.09286 6.51701 -2
      vertex -1.37769 6.14752 -2
      vertex -7.44484 6.07543 -2
    endloop
  endfacet
  facet normal 0 0 -1
    outer loop
      vertex -1.37769 6.14752 -2
      vertex -7.44484 37.963 -2
      vertex -5.7597 38.2299 -2
    endloop
  endfacet
  facet normal 0 0 -1
    outer loop
      vertex -1.37769 6.14752 -2
      vertex -9.09286 37.5215 -2
      vertex -7.44484 37.963 -2
    endloop
  endfacet
  facet normal 0 0 -1
    outer loop
      vertex -10.6857 7.12844 -2
      vertex -1.37769 6.14752 -2
      vertex -9.09286 6.51701 -2
    endloop
  endfacet
  facet normal 0 0 -1
    outer loop
      vertex -1.37769 6.14752 -2
      vertex -10.6857 36.91 -2
      vertex -9.09286 37.5215 -2
    endloop
  endfacet
  facet normal 0 0 -1
    outer loop
      vertex -12.2059 7.90302 -2
      vertex -1.37769 6.14752 -2
      vertex -10.6857 7.12844 -2
    endloop
  endfacet
  facet normal 0 0 -1
    outer loop
      vertex -13.6368 8.83225 -2
      vertex -1.37769 6.14752 -2
      vertex -12.2059 7.90302 -2
    endloop
  endfacet
  facet normal 0 0 -1
    outer loop
      vertex -1.37769 6.14752 -2
      vertex -12.2059 36.1354 -2
      vertex -10.6857 36.91 -2
    endloop
  endfacet
  facet normal 0 0 -1
    outer loop
      vertex -14.9627 9.90597 -2
      vertex -1.37769 6.14752 -2
      vertex -13.6368 8.83225 -2
    endloop
  endfacet
  facet normal 0 0 -1
    outer loop
      vertex -1.37769 6.14752 -2
      vertex -13.6368 35.2062 -2
      vertex -12.2059 36.1354 -2
    endloop
  endfacet
  facet normal 0 0 -1
    outer loop
      vertex -16.1691 11.1124 -2
      vertex -1.37769 6.14752 -2
      vertex -14.9627 9.90597 -2
    endloop
  endfacet
  facet normal 0 0 -1
    outer loop
      vertex -1.37769 6.14752 -2
      vertex -14.9627 34.1325 -2
      vertex -13.6368 35.2062 -2
    endloop
  endfacet
  facet normal 0 0 -1
    outer loop
      vertex -1.37769 6.14752 -2
      vertex -16.1691 11.1124 -2
      vertex -14.9627 34.1325 -2
    endloop
  endfacet
  facet normal 0 0 -1
    outer loop
      vertex -16.1691 11.1124 -2
      vertex -16.1691 32.9261 -2
      vertex -14.9627 34.1325 -2
    endloop
  endfacet
  facet normal 0 0 -1
    outer loop
      vertex -17.2429 12.4383 -2
      vertex -16.1691 32.9261 -2
      vertex -16.1691 11.1124 -2
    endloop
  endfacet
  facet normal 0 0 -1
    outer loop
      vertex -17.2429 12.4383 -2
      vertex -17.2429 31.6001 -2
      vertex -16.1691 32.9261 -2
    endloop
  endfacet
  facet normal 0 0 -1
    outer loop
      vertex -18.1721 13.8692 -2
      vertex -17.2429 31.6001 -2
      vertex -17.2429 12.4383 -2
    endloop
  endfacet
  facet normal 0 0 -1
    outer loop
      vertex -18.1721 13.8692 -2
      vertex -18.1721 30.1692 -2
      vertex -17.2429 31.6001 -2
    endloop
  endfacet
  facet normal 0 0 -1
    outer loop
      vertex -18.9467 15.3894 -2
      vertex -18.1721 30.1692 -2
      vertex -18.1721 13.8692 -2
    endloop
  endfacet
  facet normal 0 0 -1
    outer loop
      vertex -18.9467 15.3894 -2
      vertex -18.9467 28.649 -2
      vertex -18.1721 30.1692 -2
    endloop
  endfacet
  facet normal 0 0 -1
    outer loop
      vertex -19.5581 16.9823 -2
      vertex -18.9467 28.649 -2
      vertex -18.9467 15.3894 -2
    endloop
  endfacet
  facet normal 0 0 -1
    outer loop
      vertex -19.5581 16.9823 -2
      vertex -19.5581 27.0562 -2
      vertex -18.9467 28.649 -2
    endloop
  endfacet
  facet normal 0 0 -1
    outer loop
      vertex -19.9997 18.6303 -2
      vertex -19.5581 27.0562 -2
      vertex -19.5581 16.9823 -2
    endloop
  endfacet
  facet normal 0 0 -1
    outer loop
      vertex -19.9997 18.6303 -2
      vertex -19.9997 25.4082 -2
      vertex -19.5581 27.0562 -2
    endloop
  endfacet
  facet normal 0 0 -1
    outer loop
      vertex -20.2666 20.3154 -2
      vertex -19.9997 25.4082 -2
      vertex -19.9997 18.6303 -2
    endloop
  endfacet
  facet normal 0 0 -1
    outer loop
      vertex -20.2666 20.3154 -2
      vertex -20.2666 23.723 -2
      vertex -19.9997 25.4082 -2
    endloop
  endfacet
  facet normal 0 -0 -1
    outer loop
      vertex -20.2666 23.723 -2
      vertex -20.2666 20.3154 -2
      vertex -20.3559 22.0192 -2
    endloop
  endfacet
  facet normal -0.358366 -0.933581 0
    outer loop
      vertex -10.6857 7.12844 -2
      vertex -9.09286 6.51701 5
      vertex -10.6857 7.12844 5
    endloop
  endfacet
  facet normal -0.358366 -0.933581 -0
    outer loop
      vertex -9.09286 6.51701 5
      vertex -10.6857 7.12844 -2
      vertex -9.09286 6.51701 -2
    endloop
  endfacet
  facet normal 0.777138 -0.62933 0
    outer loop
      vertex 8.05738 11.1124 5
      vertex 9.1311 12.4383 -2
      vertex 9.1311 12.4383 5
    endloop
  endfacet
  facet normal 0.777138 -0.62933 0
    outer loop
      vertex 9.1311 12.4383 -2
      vertex 8.05738 11.1124 5
      vertex 8.05738 11.1124 -2
    endloop
  endfacet
  facet normal 0.358367 -0.933581 0
    outer loop
      vertex 0.981095 6.51701 -2
      vertex 2.57393 7.12844 5
      vertex 0.981095 6.51701 5
    endloop
  endfacet
  facet normal 0.358367 -0.933581 0
    outer loop
      vertex 2.57393 7.12844 5
      vertex 0.981095 6.51701 -2
      vertex 2.57393 7.12844 -2
    endloop
  endfacet
  facet normal 0.54464 -0.83867 0
    outer loop
      vertex 4.09412 7.90302 -2
      vertex 5.52502 8.83226 5
      vertex 4.09412 7.90302 5
    endloop
  endfacet
  facet normal 0.54464 -0.83867 0
    outer loop
      vertex 5.52502 8.83226 5
      vertex 4.09412 7.90302 -2
      vertex 5.52502 8.83226 -2
    endloop
  endfacet
  facet normal 0.453993 -0.891005 0
    outer loop
      vertex 2.57393 7.12844 -2
      vertex 4.09412 7.90302 5
      vertex 2.57393 7.12844 5
    endloop
  endfacet
  facet normal 0.453993 -0.891005 0
    outer loop
      vertex 4.09412 7.90302 5
      vertex 2.57393 7.12844 -2
      vertex 4.09412 7.90302 -2
    endloop
  endfacet
  facet normal 0.191706 0.981452 -0
    outer loop
      vertex 1.71425 6.06229 -2.05
      vertex 0.693051 6.26176 5
      vertex 1.71425 6.06229 5
    endloop
  endfacet
  facet normal 0.191706 0.981452 0
    outer loop
      vertex 0.693051 6.26176 5
      vertex 1.71425 6.06229 -2.05
      vertex 0.693051 6.26176 -2.05
    endloop
  endfacet
  facet normal -0.137348 0.990523 0
    outer loop
      vertex -0.347053 6.29043 -2.05
      vertex -1.37769 6.14752 -2
      vertex -0.347053 6.29043 -2
    endloop
  endfacet
  facet normal -0.137348 0.990523 0
    outer loop
      vertex -1.37769 6.14752 -2
      vertex -0.347053 6.29043 -2.05
      vertex -1.37769 6.14752 -2.05
    endloop
  endfacet
  facet normal 0.962269 -0.2721 0
    outer loop
      vertex 5.90002 -2.20902 5
      vertex 6.18314 -1.20778 -2.05
      vertex 6.18314 -1.20778 5
    endloop
  endfacet
  facet normal 0.962269 -0.2721 0
    outer loop
      vertex 6.18314 -1.20778 -2.05
      vertex 5.90002 -2.20902 5
      vertex 5.90002 -2.20902 -2.05
    endloop
  endfacet
  facet normal 0.350639 0.936511 -0
    outer loop
      vertex 2.68869 5.69745 -2.05
      vertex 1.71425 6.06229 5
      vertex 2.68869 5.69745 5
    endloop
  endfacet
  facet normal 0.350639 0.936511 0
    outer loop
      vertex 1.71425 6.06229 5
      vertex 2.68869 5.69745 -2.05
      vertex 1.71425 6.06229 -2.05
    endloop
  endfacet
  facet normal 0.451533 -0.892254 0
    outer loop
      vertex 2.37075 -5.83691 -2.05
      vertex 3.29914 -5.36709 5
      vertex 2.37075 -5.83691 5
    endloop
  endfacet
  facet normal 0.451533 -0.892254 0
    outer loop
      vertex 3.29914 -5.36709 5
      vertex 2.37075 -5.83691 -2.05
      vertex 3.29914 -5.36709 -2.05
    endloop
  endfacet
  facet normal 0.926494 0.376308 0
    outer loop
      vertex 6.01275 1.88064 5
      vertex 5.6212 2.84466 -2.05
      vertex 5.6212 2.84466 5
    endloop
  endfacet
  facet normal 0.926494 0.376308 0
    outer loop
      vertex 5.6212 2.84466 -2.05
      vertex 6.01275 1.88064 5
      vertex 6.01275 1.88064 -2.05
    endloop
  endfacet
  facet normal -0.191706 -0.981452 0
    outer loop
      vertex -1.71425 -6.06229 -2.05
      vertex -0.693052 -6.26176 5
      vertex -1.71425 -6.06229 5
    endloop
  endfacet
  facet normal -0.191706 -0.981452 -0
    outer loop
      vertex -0.693052 -6.26176 5
      vertex -1.71425 -6.06229 -2.05
      vertex -0.693052 -6.26176 -2.05
    endloop
  endfacet
  facet normal 0 0 -1
    outer loop
      vertex 6.18314 -1.20778 -2.05
      vertex 6.24029 0.865328 -2.05
      vertex 6.29761 -0.173592 -2.05
    endloop
  endfacet
  facet normal 0 0 -1
    outer loop
      vertex 6.18314 -1.20778 -2.05
      vertex 6.01275 1.88064 -2.05
      vertex 6.24029 0.865328 -2.05
    endloop
  endfacet
  facet normal 0 0 -1
    outer loop
      vertex 5.90002 -2.20902 -2.05
      vertex 6.01275 1.88064 -2.05
      vertex 6.18314 -1.20778 -2.05
    endloop
  endfacet
  facet normal 0 0 -1
    outer loop
      vertex 5.90002 -2.20902 -2.05
      vertex 5.6212 2.84466 -2.05
      vertex 6.01275 1.88064 -2.05
    endloop
  endfacet
  facet normal 0 0 -1
    outer loop
      vertex 5.45596 -3.15 -2.05
      vertex 5.6212 2.84466 -2.05
      vertex 5.90002 -2.20902 -2.05
    endloop
  endfacet
  facet normal 0 0 -1
    outer loop
      vertex 5.45596 -3.15 -2.05
      vertex 5.07632 3.73108 -2.05
      vertex 5.6212 2.84466 -2.05
    endloop
  endfacet
  facet normal 0 0 -1
    outer loop
      vertex 4.86307 -4.00506 -2.05
      vertex 5.07632 3.73108 -2.05
      vertex 5.45596 -3.15 -2.05
    endloop
  endfacet
  facet normal 0 0 -1
    outer loop
      vertex 4.86307 -4.00506 -2.05
      vertex 4.39297 4.51573 -2.05
      vertex 5.07632 3.73108 -2.05
    endloop
  endfacet
  facet normal 0 0 -1
    outer loop
      vertex 4.13754 -4.75087 -2.05
      vertex 4.39297 4.51573 -2.05
      vertex 4.86307 -4.00506 -2.05
    endloop
  endfacet
  facet normal 0 0 -1
    outer loop
      vertex 4.13754 -4.75087 -2.05
      vertex 3.58979 5.1772 -2.05
      vertex 4.39297 4.51573 -2.05
    endloop
  endfacet
  facet normal 0 0 -1
    outer loop
      vertex 3.29914 -5.36709 -2.05
      vertex 3.58979 5.1772 -2.05
      vertex 4.13754 -4.75087 -2.05
    endloop
  endfacet
  facet normal 0 0 -1
    outer loop
      vertex 3.29914 -5.36709 -2.05
      vertex 2.68869 5.69745 -2.05
      vertex 3.58979 5.1772 -2.05
    endloop
  endfacet
  facet normal 0 0 -1
    outer loop
      vertex 2.37075 -5.83691 -2.05
      vertex 2.68869 5.69745 -2.05
      vertex 3.29914 -5.36709 -2.05
    endloop
  endfacet
  facet normal 0 0 -1
    outer loop
      vertex 2.37075 -5.83691 -2.05
      vertex 1.71425 6.06229 -2.05
      vertex 2.68869 5.69745 -2.05
    endloop
  endfacet
  facet normal 0 0 -1
    outer loop
      vertex 1.37769 -6.14752 -2.05
      vertex 1.71425 6.06229 -2.05
      vertex 2.37075 -5.83691 -2.05
    endloop
  endfacet
  facet normal 0 0 -1
    outer loop
      vertex 1.37769 -6.14752 -2.05
      vertex 0.693051 6.26176 -2.05
      vertex 1.71425 6.06229 -2.05
    endloop
  endfacet
  facet normal 0 0 -1
    outer loop
      vertex 0.347052 -6.29043 -2.05
      vertex 0.693051 6.26176 -2.05
      vertex 1.37769 -6.14752 -2.05
    endloop
  endfacet
  facet normal 0 0 -1
    outer loop
      vertex 0.347052 -6.29043 -2.05
      vertex -0.347053 6.29043 -2.05
      vertex 0.693051 6.26176 -2.05
    endloop
  endfacet
  facet normal 0 0 -1
    outer loop
      vertex -0.693052 -6.26176 -2.05
      vertex -0.347053 6.29043 -2.05
      vertex 0.347052 -6.29043 -2.05
    endloop
  endfacet
  facet normal 0 0 -1
    outer loop
      vertex -0.693052 -6.26176 -2.05
      vertex -1.37769 6.14752 -2.05
      vertex -0.347053 6.29043 -2.05
    endloop
  endfacet
  facet normal 0 0 -1
    outer loop
      vertex -1.71425 -6.06229 -2.05
      vertex -1.37769 6.14752 -2.05
      vertex -0.693052 -6.26176 -2.05
    endloop
  endfacet
  facet normal 0 0 -1
    outer loop
      vertex -1.71425 -6.06229 -2.05
      vertex -2.37075 5.83691 -2.05
      vertex -1.37769 6.14752 -2.05
    endloop
  endfacet
  facet normal 0 0 -1
    outer loop
      vertex -2.68869 -5.69745 -2.05
      vertex -2.37075 5.83691 -2.05
      vertex -1.71425 -6.06229 -2.05
    endloop
  endfacet
  facet normal 0 0 -1
    outer loop
      vertex -2.68869 -5.69745 -2.05
      vertex -3.29914 5.36709 -2.05
      vertex -2.37075 5.83691 -2.05
    endloop
  endfacet
  facet normal 0 0 -1
    outer loop
      vertex -3.58979 -5.1772 -2.05
      vertex -3.29914 5.36709 -2.05
      vertex -2.68869 -5.69745 -2.05
    endloop
  endfacet
  facet normal 0 0 -1
    outer loop
      vertex -3.58979 -5.1772 -2.05
      vertex -4.13754 4.75087 -2.05
      vertex -3.29914 5.36709 -2.05
    endloop
  endfacet
  facet normal 0 0 -1
    outer loop
      vertex -4.39297 -4.51573 -2.05
      vertex -4.13754 4.75087 -2.05
      vertex -3.58979 -5.1772 -2.05
    endloop
  endfacet
  facet normal 0 0 -1
    outer loop
      vertex -4.39297 -4.51573 -2.05
      vertex -4.86307 4.00506 -2.05
      vertex -4.13754 4.75087 -2.05
    endloop
  endfacet
  facet normal 0 0 -1
    outer loop
      vertex -5.07632 -3.73108 -2.05
      vertex -4.86307 4.00506 -2.05
      vertex -4.39297 -4.51573 -2.05
    endloop
  endfacet
  facet normal 0 0 -1
    outer loop
      vertex -5.07632 -3.73108 -2.05
      vertex -5.45596 3.15 -2.05
      vertex -4.86307 4.00506 -2.05
    endloop
  endfacet
  facet normal 0 0 -1
    outer loop
      vertex -5.6212 -2.84466 -2.05
      vertex -5.45596 3.15 -2.05
      vertex -5.07632 -3.73108 -2.05
    endloop
  endfacet
  facet normal 0 0 -1
    outer loop
      vertex -5.6212 -2.84466 -2.05
      vertex -5.90002 2.20902 -2.05
      vertex -5.45596 3.15 -2.05
    endloop
  endfacet
  facet normal 0 0 -1
    outer loop
      vertex -6.01275 -1.88064 -2.05
      vertex -5.90002 2.20902 -2.05
      vertex -5.6212 -2.84466 -2.05
    endloop
  endfacet
  facet normal 0 0 -1
    outer loop
      vertex -6.01275 -1.88064 -2.05
      vertex -6.18314 1.20778 -2.05
      vertex -5.90002 2.20902 -2.05
    endloop
  endfacet
  facet normal 0 0 -1
    outer loop
      vertex -6.24029 -0.865327 -2.05
      vertex -6.18314 1.20778 -2.05
      vertex -6.01275 -1.88064 -2.05
    endloop
  endfacet
  facet normal 0 0 -1
    outer loop
      vertex -6.18314 1.20778 -2.05
      vertex -6.24029 -0.865327 -2.05
      vertex -6.29761 0.173593 -2.05
    endloop
  endfacet
  facet normal 0.592234 -0.805766 0
    outer loop
      vertex 3.29914 -5.36709 -2.05
      vertex 4.13754 -4.75087 5
      vertex 3.29914 -5.36709 5
    endloop
  endfacet
  facet normal 0.592234 -0.805766 0
    outer loop
      vertex 4.13754 -4.75087 5
      vertex 3.29914 -5.36709 -2.05
      vertex 4.13754 -4.75087 -2.05
    endloop
  endfacet
  facet normal 0.0275551 0.99962 0
    outer loop
      vertex 0.693051 6.26176 5
      vertex 0.0904881 6.27837 -2
      vertex 0.0904881 6.27837 5
    endloop
  endfacet
  facet normal 0.0275551 0.99962 -0
    outer loop
      vertex 0.693051 6.26176 -2.05
      vertex 0.0904881 6.27837 -2
      vertex 0.693051 6.26176 5
    endloop
  endfacet
  facet normal 0.0275541 0.99962 -1.24766e-05
    outer loop
      vertex -0.347053 6.29043 -2.05
      vertex 0.0904881 6.27837 -2
      vertex 0.693051 6.26176 -2.05
    endloop
  endfacet
  facet normal 0.0275527 0.99962 0
    outer loop
      vertex 0.0904881 6.27837 -2
      vertex -0.347053 6.29043 -2.05
      vertex -0.347053 6.29043 -2
    endloop
  endfacet
  facet normal -0.451564 0.892239 0
    outer loop
      vertex -2.37075 5.83691 -2
      vertex -2.37075 5.83691 -2.05
      vertex -2.43548 5.80415 -2
    endloop
  endfacet
  facet normal -0.451531 0.892255 0
    outer loop
      vertex -2.43548 5.80415 -2
      vertex -3.29914 5.36709 5
      vertex -2.43548 5.80415 5
    endloop
  endfacet
  facet normal -0.451531 0.892255 0
    outer loop
      vertex -2.43548 5.80415 -2
      vertex -3.29914 5.36709 -2.05
      vertex -3.29914 5.36709 5
    endloop
  endfacet
  facet normal -0.451533 0.892254 5.01259e-05
    outer loop
      vertex -3.29914 5.36709 -2.05
      vertex -2.43548 5.80415 -2
      vertex -2.37075 5.83691 -2.05
    endloop
  endfacet
  facet normal -0.904357 0.426777 0
    outer loop
      vertex -5.90002 2.20902 -2.05
      vertex -5.45596 3.15 5
      vertex -5.45596 3.15 -2.05
    endloop
  endfacet
  facet normal -0.904357 0.426777 0
    outer loop
      vertex -5.45596 3.15 5
      vertex -5.90002 2.20902 -2.05
      vertex -5.90002 2.20902 5
    endloop
  endfacet
  facet normal -0.592234 0.805766 0
    outer loop
      vertex -3.29914 5.36709 -2.05
      vertex -4.13754 4.75087 5
      vertex -3.29914 5.36709 5
    endloop
  endfacet
  facet normal -0.592234 0.805766 0
    outer loop
      vertex -4.13754 4.75087 5
      vertex -3.29914 5.36709 -2.05
      vertex -4.13754 4.75087 -2.05
    endloop
  endfacet
  facet normal -0.962269 0.2721 0
    outer loop
      vertex -6.18314 1.20778 -2.05
      vertex -5.90002 2.20902 5
      vertex -5.90002 2.20902 -2.05
    endloop
  endfacet
  facet normal -0.962269 0.2721 0
    outer loop
      vertex -5.90002 2.20902 5
      vertex -6.18314 1.20778 -2.05
      vertex -6.18314 1.20778 5
    endloop
  endfacet
  facet normal -0.5 -0.866026 0
    outer loop
      vertex -3.58979 -5.1772 -2.05
      vertex -2.68869 -5.69745 5
      vertex -3.58979 -5.1772 5
    endloop
  endfacet
  facet normal -0.5 -0.866026 -0
    outer loop
      vertex -2.68869 -5.69745 5
      vertex -3.58979 -5.1772 -2.05
      vertex -2.68869 -5.69745 -2.05
    endloop
  endfacet
  facet normal -0.350639 -0.936511 0
    outer loop
      vertex -2.68869 -5.69745 -2.05
      vertex -1.71425 -6.06229 5
      vertex -2.68869 -5.69745 5
    endloop
  endfacet
  facet normal -0.350639 -0.936511 -0
    outer loop
      vertex -1.71425 -6.06229 5
      vertex -2.68869 -5.69745 -2.05
      vertex -1.71425 -6.06229 -2.05
    endloop
  endfacet
  facet normal -0.85192 -0.523673 0
    outer loop
      vertex -5.07632 -3.73108 -2.05
      vertex -5.6212 -2.84466 5
      vertex -5.6212 -2.84466 -2.05
    endloop
  endfacet
  facet normal -0.85192 -0.523673 0
    outer loop
      vertex -5.6212 -2.84466 5
      vertex -5.07632 -3.73108 -2.05
      vertex -5.07632 -3.73108 5
    endloop
  endfacet
  facet normal -0.635723 -0.771917 0
    outer loop
      vertex -4.39297 -4.51573 -2.05
      vertex -3.58979 -5.1772 5
      vertex -4.39297 -4.51573 5
    endloop
  endfacet
  facet normal -0.635723 -0.771917 -0
    outer loop
      vertex -3.58979 -5.1772 5
      vertex -4.39297 -4.51573 -2.05
      vertex -3.58979 -5.1772 -2.05
    endloop
  endfacet
  facet normal -0.754108 -0.656751 0
    outer loop
      vertex -4.39297 -4.51573 -2.05
      vertex -5.07632 -3.73108 5
      vertex -5.07632 -3.73108 -2.05
    endloop
  endfacet
  facet normal -0.754108 -0.656751 0
    outer loop
      vertex -5.07632 -3.73108 5
      vertex -4.39297 -4.51573 -2.05
      vertex -4.39297 -4.51573 5
    endloop
  endfacet
  facet normal -0.0275541 -0.99962 0
    outer loop
      vertex -0.693052 -6.26176 -2.05
      vertex 0.347052 -6.29043 5
      vertex -0.693052 -6.26176 5
    endloop
  endfacet
  facet normal -0.0275541 -0.99962 -0
    outer loop
      vertex 0.347052 -6.29043 5
      vertex -0.693052 -6.26176 -2.05
      vertex 0.347052 -6.29043 -2.05
    endloop
  endfacet
  facet normal 0.137348 -0.990523 0
    outer loop
      vertex 0.347052 -6.29043 -2.05
      vertex 1.37769 -6.14752 5
      vertex 0.347052 -6.29043 5
    endloop
  endfacet
  facet normal 0.137348 -0.990523 0
    outer loop
      vertex 1.37769 -6.14752 5
      vertex 0.347052 -6.29043 -2.05
      vertex 1.37769 -6.14752 -2.05
    endloop
  endfacet
  facet normal 0.821776 -0.569811 0
    outer loop
      vertex 4.86307 -4.00506 5
      vertex 5.45596 -3.15 -2.05
      vertex 5.45596 -3.15 5
    endloop
  endfacet
  facet normal 0.821776 -0.569811 0
    outer loop
      vertex 5.45596 -3.15 -2.05
      vertex 4.86307 -4.00506 5
      vertex 4.86307 -4.00506 -2.05
    endloop
  endfacet
  facet normal 0.904357 -0.426777 0
    outer loop
      vertex 5.45596 -3.15 5
      vertex 5.90002 -2.20902 -2.05
      vertex 5.90002 -2.20902 5
    endloop
  endfacet
  facet normal 0.904357 -0.426777 0
    outer loop
      vertex 5.90002 -2.20902 -2.05
      vertex 5.45596 -3.15 5
      vertex 5.45596 -3.15 -2.05
    endloop
  endfacet
  facet normal 0.99393 -0.110014 0
    outer loop
      vertex 6.18314 -1.20778 5
      vertex 6.29761 -0.173592 -2.05
      vertex 6.29761 -0.173592 5
    endloop
  endfacet
  facet normal 0.99393 -0.110014 0
    outer loop
      vertex 6.29761 -0.173592 -2.05
      vertex 6.18314 -1.20778 5
      vertex 6.18314 -1.20778 -2.05
    endloop
  endfacet
  facet normal 0.754108 0.656751 0
    outer loop
      vertex 5.07632 3.73108 5
      vertex 4.39297 4.51573 -2.05
      vertex 4.39297 4.51573 5
    endloop
  endfacet
  facet normal 0.754108 0.656751 0
    outer loop
      vertex 4.39297 4.51573 -2.05
      vertex 5.07632 3.73108 5
      vertex 5.07632 3.73108 -2.05
    endloop
  endfacet
  facet normal 0.85192 0.523673 0
    outer loop
      vertex 5.6212 2.84466 5
      vertex 5.07632 3.73108 -2.05
      vertex 5.07632 3.73108 5
    endloop
  endfacet
  facet normal 0.85192 0.523673 0
    outer loop
      vertex 5.07632 3.73108 -2.05
      vertex 5.6212 2.84466 5
      vertex 5.6212 2.84466 -2.05
    endloop
  endfacet
  facet normal 0.635723 0.771917 -0
    outer loop
      vertex 4.39297 4.51573 -2.05
      vertex 3.58979 5.1772 5
      vertex 4.39297 4.51573 5
    endloop
  endfacet
  facet normal 0.635723 0.771917 0
    outer loop
      vertex 3.58979 5.1772 5
      vertex 4.39297 4.51573 -2.05
      vertex 3.58979 5.1772 -2.05
    endloop
  endfacet
  facet normal -0.298519 0.954404 0
    outer loop
      vertex -1.37769 6.14752 -2.05
      vertex -2.37075 5.83691 -2
      vertex -1.37769 6.14752 -2
    endloop
  endfacet
  facet normal -0.298519 0.954404 0
    outer loop
      vertex -2.37075 5.83691 -2
      vertex -1.37769 6.14752 -2.05
      vertex -2.37075 5.83691 -2.05
    endloop
  endfacet
  facet normal -0.821776 0.569811 0
    outer loop
      vertex -5.45596 3.15 -2.05
      vertex -4.86307 4.00506 5
      vertex -4.86307 4.00506 -2.05
    endloop
  endfacet
  facet normal -0.821776 0.569811 0
    outer loop
      vertex -4.86307 4.00506 5
      vertex -5.45596 3.15 -2.05
      vertex -5.45596 3.15 5
    endloop
  endfacet
  facet normal 0.298519 -0.954404 0
    outer loop
      vertex 1.37769 -6.14752 -2.05
      vertex 2.37075 -5.83691 5
      vertex 1.37769 -6.14752 5
    endloop
  endfacet
  facet normal 0.298519 -0.954404 0
    outer loop
      vertex 2.37075 -5.83691 5
      vertex 1.37769 -6.14752 -2.05
      vertex 2.37075 -5.83691 -2.05
    endloop
  endfacet
  facet normal 0.716785 -0.697294 0
    outer loop
      vertex 4.13754 -4.75087 5
      vertex 4.86307 -4.00506 -2.05
      vertex 4.86307 -4.00506 5
    endloop
  endfacet
  facet normal 0.716785 -0.697294 0
    outer loop
      vertex 4.86307 -4.00506 -2.05
      vertex 4.13754 -4.75087 5
      vertex 4.13754 -4.75087 -2.05
    endloop
  endfacet
  facet normal 0.998481 0.0550889 0
    outer loop
      vertex 6.29761 -0.173592 5
      vertex 6.24029 0.865328 -2.05
      vertex 6.24029 0.865328 5
    endloop
  endfacet
  facet normal 0.998481 0.0550889 0
    outer loop
      vertex 6.24029 0.865328 -2.05
      vertex 6.29761 -0.173592 5
      vertex 6.29761 -0.173592 -2.05
    endloop
  endfacet
  facet normal 0.975796 0.218684 0
    outer loop
      vertex 6.24029 0.865328 5
      vertex 6.01275 1.88064 -2.05
      vertex 6.01275 1.88064 5
    endloop
  endfacet
  facet normal 0.975796 0.218684 0
    outer loop
      vertex 6.01275 1.88064 -2.05
      vertex 6.24029 0.865328 5
      vertex 6.24029 0.865328 -2.05
    endloop
  endfacet
  facet normal 0.5 0.866026 -0
    outer loop
      vertex 3.58979 5.1772 -2.05
      vertex 2.68869 5.69745 5
      vertex 3.58979 5.1772 5
    endloop
  endfacet
  facet normal 0.5 0.866026 0
    outer loop
      vertex 2.68869 5.69745 5
      vertex 3.58979 5.1772 -2.05
      vertex 2.68869 5.69745 -2.05
    endloop
  endfacet
  facet normal -0.716785 0.697294 0
    outer loop
      vertex -4.86307 4.00506 -2.05
      vertex -4.13754 4.75087 5
      vertex -4.13754 4.75087 -2.05
    endloop
  endfacet
  facet normal -0.716785 0.697294 0
    outer loop
      vertex -4.13754 4.75087 5
      vertex -4.86307 4.00506 -2.05
      vertex -4.86307 4.00506 5
    endloop
  endfacet
  facet normal -0.998481 -0.0550889 0
    outer loop
      vertex -6.24029 -0.865327 -2.05
      vertex -6.29761 0.173593 5
      vertex -6.29761 0.173593 -2.05
    endloop
  endfacet
  facet normal -0.998481 -0.0550889 0
    outer loop
      vertex -6.29761 0.173593 5
      vertex -6.24029 -0.865327 -2.05
      vertex -6.24029 -0.865327 5
    endloop
  endfacet
  facet normal -0.99393 0.110014 0
    outer loop
      vertex -6.29761 0.173593 -2.05
      vertex -6.18314 1.20778 5
      vertex -6.18314 1.20778 -2.05
    endloop
  endfacet
  facet normal -0.99393 0.110014 0
    outer loop
      vertex -6.18314 1.20778 5
      vertex -6.29761 0.173593 -2.05
      vertex -6.29761 0.173593 5
    endloop
  endfacet
  facet normal -0.975796 -0.218684 0
    outer loop
      vertex -6.01275 -1.88064 -2.05
      vertex -6.24029 -0.865327 5
      vertex -6.24029 -0.865327 -2.05
    endloop
  endfacet
  facet normal -0.975796 -0.218684 0
    outer loop
      vertex -6.24029 -0.865327 5
      vertex -6.01275 -1.88064 -2.05
      vertex -6.01275 -1.88064 5
    endloop
  endfacet
  facet normal -0.926494 -0.376308 0
    outer loop
      vertex -5.6212 -2.84466 -2.05
      vertex -6.01275 -1.88064 5
      vertex -6.01275 -1.88064 -2.05
    endloop
  endfacet
  facet normal -0.926494 -0.376308 0
    outer loop
      vertex -6.01275 -1.88064 5
      vertex -5.6212 -2.84466 -2.05
      vertex -5.6212 -2.84466 5
    endloop
  endfacet
  facet normal 0 0 1
    outer loop
      vertex 12.2441 22.0192 5
      vertex 8.8729 23.3781 5
      vertex 8.9263 21.3389 5
    endloop
  endfacet
  facet normal 0 0 1
    outer loop
      vertex 10.0603 30.1692 5
      vertex 8.50115 25.3839 5
      vertex 8.8729 23.3781 5
    endloop
  endfacet
  facet normal 0 0 1
    outer loop
      vertex 5.605 30.7179 5
      vertex 9.13109 31.6001 5
      vertex 8.05738 32.9261 5
    endloop
  endfacet
  facet normal 0 0 1
    outer loop
      vertex 10.0603 30.1692 5
      vertex 7.82021 27.3068 5
      vertex 8.50115 25.3839 5
    endloop
  endfacet
  facet normal 0 0 1
    outer loop
      vertex 5.605 30.7179 5
      vertex 8.05738 32.9261 5
      vertex 6.85095 34.1325 5
    endloop
  endfacet
  facet normal 0 0 1
    outer loop
      vertex 10.0603 30.1692 5
      vertex 6.84684 29.0995 5
      vertex 7.82021 27.3068 5
    endloop
  endfacet
  facet normal 0 0 1
    outer loop
      vertex 9.13109 31.6001 5
      vertex 5.605 30.7179 5
      vertex 6.84684 29.0995 5
    endloop
  endfacet
  facet normal 0 0 1
    outer loop
      vertex 4.12528 32.1221 5
      vertex 6.85095 34.1325 5
      vertex 5.52502 35.2062 5
    endloop
  endfacet
  facet normal 0 0 1
    outer loop
      vertex 6.85095 34.1325 5
      vertex 4.12528 32.1221 5
      vertex 5.605 30.7179 5
    endloop
  endfacet
  facet normal 0 0 1
    outer loop
      vertex 2.44412 33.2776 5
      vertex 5.52502 35.2062 5
      vertex 4.09412 36.1354 5
    endloop
  endfacet
  facet normal 0 0 1
    outer loop
      vertex 2.44412 33.2776 5
      vertex 4.09412 36.1354 5
      vertex 2.57393 36.91 5
    endloop
  endfacet
  facet normal 0 0 1
    outer loop
      vertex 5.52502 35.2062 5
      vertex 2.44412 33.2776 5
      vertex 4.12528 32.1221 5
    endloop
  endfacet
  facet normal 0 0 1
    outer loop
      vertex 0.602902 34.1558 5
      vertex 2.57393 36.91 5
      vertex 0.981096 37.5215 5
    endloop
  endfacet
  facet normal 0 0 1
    outer loop
      vertex 2.57393 36.91 5
      vertex 0.602902 34.1558 5
      vertex 2.44412 33.2776 5
    endloop
  endfacet
  facet normal 0 0 1
    outer loop
      vertex -1.35303 34.7351 5
      vertex 0.981096 37.5215 5
      vertex -0.666921 37.963 5
    endloop
  endfacet
  facet normal 0 0 1
    outer loop
      vertex 0.981096 37.5215 5
      vertex -1.35303 34.7351 5
      vertex 0.602902 34.1558 5
    endloop
  endfacet
  facet normal 0 0 1
    outer loop
      vertex -2.35207 38.2299 5
      vertex -1.35303 34.7351 5
      vertex -0.666921 37.963 5
    endloop
  endfacet
  facet normal 0 0 1
    outer loop
      vertex -2.35207 38.2299 5
      vertex -3.37551 35.0014 5
      vertex -1.35303 34.7351 5
    endloop
  endfacet
  facet normal 0 0 1
    outer loop
      vertex -4.05588 38.3192 5
      vertex -3.37551 35.0014 5
      vertex -2.35207 38.2299 5
    endloop
  endfacet
  facet normal 0 0 1
    outer loop
      vertex -4.05588 38.3192 5
      vertex -5.41475 34.948 5
      vertex -3.37551 35.0014 5
    endloop
  endfacet
  facet normal -0 0 1
    outer loop
      vertex -5.7597 38.2299 5
      vertex -5.41475 34.948 5
      vertex -4.05588 38.3192 5
    endloop
  endfacet
  facet normal -0 0 1
    outer loop
      vertex -7.44484 37.963 5
      vertex -5.41475 34.948 5
      vertex -5.7597 38.2299 5
    endloop
  endfacet
  facet normal 0 0 1
    outer loop
      vertex -5.41475 34.948 5
      vertex -7.44484 37.963 5
      vertex -7.42053 34.5763 5
    endloop
  endfacet
  facet normal -0 0 1
    outer loop
      vertex -9.09286 37.5215 5
      vertex -7.42053 34.5763 5
      vertex -7.44484 37.963 5
    endloop
  endfacet
  facet normal 0 0 1
    outer loop
      vertex -9.09286 37.5215 5
      vertex -9.34346 33.8953 5
      vertex -7.42053 34.5763 5
    endloop
  endfacet
  facet normal -0 0 1
    outer loop
      vertex -10.6857 36.91 5
      vertex -9.34346 33.8953 5
      vertex -9.09286 37.5215 5
    endloop
  endfacet
  facet normal -0 0 1
    outer loop
      vertex -12.2059 36.1354 5
      vertex -9.34346 33.8953 5
      vertex -10.6857 36.91 5
    endloop
  endfacet
  facet normal 0 0 1
    outer loop
      vertex -9.34346 33.8953 5
      vertex -12.2059 36.1354 5
      vertex -11.1362 32.9219 5
    endloop
  endfacet
  facet normal -0 0 1
    outer loop
      vertex -13.6368 35.2062 5
      vertex -11.1362 32.9219 5
      vertex -12.2059 36.1354 5
    endloop
  endfacet
  facet normal 0 0 1
    outer loop
      vertex -11.1362 32.9219 5
      vertex -13.6368 35.2062 5
      vertex -12.7546 31.6801 5
    endloop
  endfacet
  facet normal -0 0 1
    outer loop
      vertex -14.9627 34.1325 5
      vertex -12.7546 31.6801 5
      vertex -13.6368 35.2062 5
    endloop
  endfacet
  facet normal -0 0 1
    outer loop
      vertex -16.1691 32.9261 5
      vertex -12.7546 31.6801 5
      vertex -14.9627 34.1325 5
    endloop
  endfacet
  facet normal 0 0 1
    outer loop
      vertex -12.7546 31.6801 5
      vertex -16.1691 32.9261 5
      vertex -14.1588 30.2004 5
    endloop
  endfacet
  facet normal -0 0 1
    outer loop
      vertex -17.2429 31.6001 5
      vertex -14.1588 30.2004 5
      vertex -16.1691 32.9261 5
    endloop
  endfacet
  facet normal 0 0 1
    outer loop
      vertex -14.1588 30.2004 5
      vertex -17.2429 31.6001 5
      vertex -15.3142 28.5192 5
    endloop
  endfacet
  facet normal -0 0 1
    outer loop
      vertex -18.1721 30.1692 5
      vertex -15.3142 28.5192 5
      vertex -17.2429 31.6001 5
    endloop
  endfacet
  facet normal -0 0 1
    outer loop
      vertex -18.9467 28.649 5
      vertex -15.3142 28.5192 5
      vertex -18.1721 30.1692 5
    endloop
  endfacet
  facet normal 0 0 1
    outer loop
      vertex -15.3142 28.5192 5
      vertex -18.9467 28.649 5
      vertex -16.1924 26.678 5
    endloop
  endfacet
  facet normal -0 0 1
    outer loop
      vertex -19.5581 27.0562 5
      vertex -16.1924 26.678 5
      vertex -18.9467 28.649 5
    endloop
  endfacet
  facet normal 0 0 1
    outer loop
      vertex -16.1924 26.678 5
      vertex -19.5581 27.0562 5
      vertex -16.7718 24.7221 5
    endloop
  endfacet
  facet normal 0 0 1
    outer loop
      vertex -17.0381 22.6996 5
      vertex -18.1721 13.8692 5
      vertex -17.2429 12.4383 5
    endloop
  endfacet
  facet normal -0 0 1
    outer loop
      vertex -19.9997 25.4082 5
      vertex -16.7718 24.7221 5
      vertex -19.5581 27.0562 5
    endloop
  endfacet
  facet normal 0 0 1
    outer loop
      vertex -17.0381 22.6996 5
      vertex -18.9467 15.3894 5
      vertex -18.1721 13.8692 5
    endloop
  endfacet
  facet normal 0 0 1
    outer loop
      vertex -20.2666 23.723 5
      vertex -16.7718 24.7221 5
      vertex -19.9997 25.4082 5
    endloop
  endfacet
  facet normal 0 0 1
    outer loop
      vertex -17.0381 22.6996 5
      vertex -19.5581 16.9823 5
      vertex -18.9467 15.3894 5
    endloop
  endfacet
  facet normal 0 0 1
    outer loop
      vertex -16.7718 24.7221 5
      vertex -20.2666 23.723 5
      vertex -17.0381 22.6996 5
    endloop
  endfacet
  facet normal 0 0 1
    outer loop
      vertex -17.0381 22.6996 5
      vertex -19.9997 18.6303 5
      vertex -19.5581 16.9823 5
    endloop
  endfacet
  facet normal 0 0 1
    outer loop
      vertex -20.3559 22.0192 5
      vertex -17.0381 22.6996 5
      vertex -20.2666 23.723 5
    endloop
  endfacet
  facet normal 0 0 1
    outer loop
      vertex -17.0381 22.6996 5
      vertex -20.2666 20.3154 5
      vertex -19.9997 18.6303 5
    endloop
  endfacet
  facet normal 0 0 1
    outer loop
      vertex -17.0381 22.6996 5
      vertex -20.3559 22.0192 5
      vertex -20.2666 20.3154 5
    endloop
  endfacet
  facet normal -0 0 1
    outer loop
      vertex 8.8729 23.3781 5
      vertex 12.2441 22.0192 5
      vertex 12.1548 23.723 5
    endloop
  endfacet
  facet normal 0 0 1
    outer loop
      vertex 8.8729 23.3781 5
      vertex 12.1548 23.723 5
      vertex 11.8879 25.4082 5
    endloop
  endfacet
  facet normal 0 0 1
    outer loop
      vertex 12.2441 22.0192 5
      vertex 8.9263 21.3389 5
      vertex 12.1548 20.3154 5
    endloop
  endfacet
  facet normal 0 0 1
    outer loop
      vertex 8.8729 23.3781 5
      vertex 11.8879 25.4082 5
      vertex 11.4463 27.0562 5
    endloop
  endfacet
  facet normal 0 0 1
    outer loop
      vertex 8.66004 19.3164 5
      vertex 12.1548 20.3154 5
      vertex 8.9263 21.3389 5
    endloop
  endfacet
  facet normal 0 0 1
    outer loop
      vertex 12.1548 20.3154 5
      vertex 8.66004 19.3164 5
      vertex 11.8879 18.6303 5
    endloop
  endfacet
  facet normal 0 0 1
    outer loop
      vertex 8.8729 23.3781 5
      vertex 11.4463 27.0562 5
      vertex 10.8349 28.649 5
    endloop
  endfacet
  facet normal 0 0 1
    outer loop
      vertex 8.8729 23.3781 5
      vertex 10.8349 28.649 5
      vertex 10.0603 30.1692 5
    endloop
  endfacet
  facet normal 0 0 1
    outer loop
      vertex 11.8879 18.6303 5
      vertex 8.66004 19.3164 5
      vertex 11.4463 16.9823 5
    endloop
  endfacet
  facet normal -0 0 1
    outer loop
      vertex 8.08066 17.3604 5
      vertex 11.4463 16.9823 5
      vertex 8.66004 19.3164 5
    endloop
  endfacet
  facet normal 0 0 1
    outer loop
      vertex 6.84684 29.0995 5
      vertex 10.0603 30.1692 5
      vertex 9.13109 31.6001 5
    endloop
  endfacet
  facet normal 0 0 1
    outer loop
      vertex 11.4463 16.9823 5
      vertex 8.08066 17.3604 5
      vertex 10.8349 15.3894 5
    endloop
  endfacet
  facet normal -0 0 1
    outer loop
      vertex 7.20245 15.5192 5
      vertex 10.8349 15.3894 5
      vertex 8.08066 17.3604 5
    endloop
  endfacet
  facet normal 0 0 1
    outer loop
      vertex 10.8349 15.3894 5
      vertex 7.20245 15.5192 5
      vertex 10.0603 13.8692 5
    endloop
  endfacet
  facet normal 0 0 1
    outer loop
      vertex 10.0603 13.8692 5
      vertex 7.20245 15.5192 5
      vertex 9.1311 12.4383 5
    endloop
  endfacet
  facet normal -0 0 1
    outer loop
      vertex 6.04702 13.8381 5
      vertex 9.1311 12.4383 5
      vertex 7.20245 15.5192 5
    endloop
  endfacet
  facet normal 0 0 1
    outer loop
      vertex 9.1311 12.4383 5
      vertex 6.04702 13.8381 5
      vertex 8.05738 11.1124 5
    endloop
  endfacet
  facet normal -0 0 1
    outer loop
      vertex 4.64282 12.3583 5
      vertex 8.05738 11.1124 5
      vertex 6.04702 13.8381 5
    endloop
  endfacet
  facet normal 0 0 1
    outer loop
      vertex 8.05738 11.1124 5
      vertex 4.64282 12.3583 5
      vertex 6.85095 9.90597 5
    endloop
  endfacet
  facet normal 0 0 1
    outer loop
      vertex 6.85095 9.90597 5
      vertex 4.64282 12.3583 5
      vertex 5.52502 8.83226 5
    endloop
  endfacet
  facet normal -0 0 1
    outer loop
      vertex 3.02443 11.1165 5
      vertex 5.52502 8.83226 5
      vertex 4.64282 12.3583 5
    endloop
  endfacet
  facet normal 0 0 1
    outer loop
      vertex 5.52502 8.83226 5
      vertex 3.02443 11.1165 5
      vertex 4.09412 7.90302 5
    endloop
  endfacet
  facet normal -0 0 1
    outer loop
      vertex 1.23169 10.1431 5
      vertex 4.09412 7.90302 5
      vertex 3.02443 11.1165 5
    endloop
  endfacet
  facet normal 0 0 1
    outer loop
      vertex 4.09412 7.90302 5
      vertex 1.23169 10.1431 5
      vertex 2.57393 7.12844 5
    endloop
  endfacet
  facet normal 0 0 1
    outer loop
      vertex 1.23169 10.1431 5
      vertex 0.981095 6.51701 5
      vertex 2.57393 7.12844 5
    endloop
  endfacet
  facet normal -0 0 1
    outer loop
      vertex -0.691234 9.4622 5
      vertex 0.981095 6.51701 5
      vertex 1.23169 10.1431 5
    endloop
  endfacet
  facet normal 0 0 1
    outer loop
      vertex 0.981095 6.51701 5
      vertex -0.691234 9.4622 5
      vertex 0.0904881 6.27837 5
    endloop
  endfacet
  facet normal 0 0 1
    outer loop
      vertex 6.24029 0.865328 5
      vertex 6.18314 -1.20778 5
      vertex 6.29761 -0.173592 5
    endloop
  endfacet
  facet normal 0 0 1
    outer loop
      vertex 6.01275 1.88064 5
      vertex 6.18314 -1.20778 5
      vertex 6.24029 0.865328 5
    endloop
  endfacet
  facet normal 0 0 1
    outer loop
      vertex 6.01275 1.88064 5
      vertex 5.90002 -2.20902 5
      vertex 6.18314 -1.20778 5
    endloop
  endfacet
  facet normal 0 0 1
    outer loop
      vertex 5.6212 2.84466 5
      vertex 5.90002 -2.20902 5
      vertex 6.01275 1.88064 5
    endloop
  endfacet
  facet normal 0 0 1
    outer loop
      vertex 5.6212 2.84466 5
      vertex 5.45596 -3.15 5
      vertex 5.90002 -2.20902 5
    endloop
  endfacet
  facet normal 0 0 1
    outer loop
      vertex 5.07632 3.73108 5
      vertex 5.45596 -3.15 5
      vertex 5.6212 2.84466 5
    endloop
  endfacet
  facet normal 0 0 1
    outer loop
      vertex 5.07632 3.73108 5
      vertex 4.86307 -4.00506 5
      vertex 5.45596 -3.15 5
    endloop
  endfacet
  facet normal 0 0 1
    outer loop
      vertex 4.39297 4.51573 5
      vertex 4.86307 -4.00506 5
      vertex 5.07632 3.73108 5
    endloop
  endfacet
  facet normal 0 0 1
    outer loop
      vertex 4.39297 4.51573 5
      vertex 4.13754 -4.75087 5
      vertex 4.86307 -4.00506 5
    endloop
  endfacet
  facet normal 0 0 1
    outer loop
      vertex 3.58979 5.1772 5
      vertex 4.13754 -4.75087 5
      vertex 4.39297 4.51573 5
    endloop
  endfacet
  facet normal 0 0 1
    outer loop
      vertex 3.58979 5.1772 5
      vertex 3.29914 -5.36709 5
      vertex 4.13754 -4.75087 5
    endloop
  endfacet
  facet normal 0 0 1
    outer loop
      vertex 2.68869 5.69745 5
      vertex 3.29914 -5.36709 5
      vertex 3.58979 5.1772 5
    endloop
  endfacet
  facet normal 0 0 1
    outer loop
      vertex 2.68869 5.69745 5
      vertex 2.37075 -5.83691 5
      vertex 3.29914 -5.36709 5
    endloop
  endfacet
  facet normal 0 0 1
    outer loop
      vertex 0.0904881 6.27837 5
      vertex 2.68869 5.69745 5
      vertex 1.71425 6.06229 5
    endloop
  endfacet
  facet normal 0 0 1
    outer loop
      vertex 2.68869 5.69745 5
      vertex 0.0904881 6.27837 5
      vertex 2.37075 -5.83691 5
    endloop
  endfacet
  facet normal 0 0 1
    outer loop
      vertex 0.0904881 6.27837 5
      vertex 1.71425 6.06229 5
      vertex 0.693051 6.26176 5
    endloop
  endfacet
  facet normal 0 0 1
    outer loop
      vertex 2.37075 -5.83691 5
      vertex 0.0904881 6.27837 5
      vertex 1.37769 -6.14752 5
    endloop
  endfacet
  facet normal 0 0 1
    outer loop
      vertex 1.37769 -6.14752 5
      vertex 0.0904881 6.27837 5
      vertex 0.347052 -6.29043 5
    endloop
  endfacet
  facet normal -0 0 1
    outer loop
      vertex -2.69701 9.09045 5
      vertex 0.0904881 6.27837 5
      vertex -0.691234 9.4622 5
    endloop
  endfacet
  facet normal 0 0 1
    outer loop
      vertex 0.0904881 6.27837 5
      vertex -2.43548 5.80415 5
      vertex 0.347052 -6.29043 5
    endloop
  endfacet
  facet normal 0 0 1
    outer loop
      vertex 0.347052 -6.29043 5
      vertex -2.43548 5.80415 5
      vertex -0.693052 -6.26176 5
    endloop
  endfacet
  facet normal 0 0 1
    outer loop
      vertex -0.693052 -6.26176 5
      vertex -2.43548 5.80415 5
      vertex -1.71425 -6.06229 5
    endloop
  endfacet
  facet normal 0 0 1
    outer loop
      vertex 0.0904881 6.27837 5
      vertex -2.69701 9.09045 5
      vertex -2.43548 5.80415 5
    endloop
  endfacet
  facet normal 0 0 1
    outer loop
      vertex -2.69701 9.09045 5
      vertex -4.05588 5.71923 5
      vertex -2.43548 5.80415 5
    endloop
  endfacet
  facet normal -0 0 1
    outer loop
      vertex -4.73625 9.03705 5
      vertex -4.05588 5.71923 5
      vertex -2.69701 9.09045 5
    endloop
  endfacet
  facet normal 0 0 1
    outer loop
      vertex -4.73625 9.03705 5
      vertex -5.7597 5.80853 5
      vertex -4.05588 5.71923 5
    endloop
  endfacet
  facet normal 0 0 1
    outer loop
      vertex -6.75873 9.30331 5
      vertex -5.7597 5.80853 5
      vertex -4.73625 9.03705 5
    endloop
  endfacet
  facet normal 0 0 1
    outer loop
      vertex -6.75873 9.30331 5
      vertex -7.44484 6.07543 5
      vertex -5.7597 5.80853 5
    endloop
  endfacet
  facet normal 0 0 1
    outer loop
      vertex -9.09286 6.51701 5
      vertex -6.75873 9.30331 5
      vertex -8.71466 9.88269 5
    endloop
  endfacet
  facet normal 0 0 1
    outer loop
      vertex -6.75873 9.30331 5
      vertex -9.09286 6.51701 5
      vertex -7.44484 6.07543 5
    endloop
  endfacet
  facet normal 0 0 1
    outer loop
      vertex -10.6857 7.12844 5
      vertex -8.71466 9.88269 5
      vertex -10.5559 10.7609 5
    endloop
  endfacet
  facet normal 0 0 1
    outer loop
      vertex -8.71466 9.88269 5
      vertex -10.6857 7.12844 5
      vertex -9.09286 6.51701 5
    endloop
  endfacet
  facet normal 0 0 1
    outer loop
      vertex -10.5559 10.7609 5
      vertex -12.2059 7.90302 5
      vertex -10.6857 7.12844 5
    endloop
  endfacet
  facet normal 0 0 1
    outer loop
      vertex -13.6368 8.83225 5
      vertex -10.5559 10.7609 5
      vertex -12.237 11.9163 5
    endloop
  endfacet
  facet normal 0 0 1
    outer loop
      vertex -10.5559 10.7609 5
      vertex -13.6368 8.83225 5
      vertex -12.2059 7.90302 5
    endloop
  endfacet
  facet normal 0 0 1
    outer loop
      vertex -14.9627 9.90597 5
      vertex -12.237 11.9163 5
      vertex -13.7168 13.3205 5
    endloop
  endfacet
  facet normal 0 0 1
    outer loop
      vertex -17.2429 12.4383 5
      vertex -13.7168 13.3205 5
      vertex -14.9586 14.9389 5
    endloop
  endfacet
  facet normal 0 0 1
    outer loop
      vertex -12.237 11.9163 5
      vertex -14.9627 9.90597 5
      vertex -13.6368 8.83225 5
    endloop
  endfacet
  facet normal 0 0 1
    outer loop
      vertex -17.2429 12.4383 5
      vertex -14.9586 14.9389 5
      vertex -15.932 16.7317 5
    endloop
  endfacet
  facet normal 0 0 1
    outer loop
      vertex -13.7168 13.3205 5
      vertex -16.1691 11.1124 5
      vertex -14.9627 9.90597 5
    endloop
  endfacet
  facet normal 0 0 1
    outer loop
      vertex -17.2429 12.4383 5
      vertex -15.932 16.7317 5
      vertex -16.6129 18.6546 5
    endloop
  endfacet
  facet normal 0 0 1
    outer loop
      vertex -17.2429 12.4383 5
      vertex -16.6129 18.6546 5
      vertex -16.9847 20.6604 5
    endloop
  endfacet
  facet normal 0 0 1
    outer loop
      vertex -13.7168 13.3205 5
      vertex -17.2429 12.4383 5
      vertex -16.1691 11.1124 5
    endloop
  endfacet
  facet normal 0 0 1
    outer loop
      vertex -17.2429 12.4383 5
      vertex -16.9847 20.6604 5
      vertex -17.0381 22.6996 5
    endloop
  endfacet
  facet normal 0 0 1
    outer loop
      vertex -2.43548 5.80415 5
      vertex -2.68869 -5.69745 5
      vertex -1.71425 -6.06229 5
    endloop
  endfacet
  facet normal -0 0 1
    outer loop
      vertex -3.29914 5.36709 5
      vertex -2.68869 -5.69745 5
      vertex -2.43548 5.80415 5
    endloop
  endfacet
  facet normal 0 0 1
    outer loop
      vertex -3.29914 5.36709 5
      vertex -3.58979 -5.1772 5
      vertex -2.68869 -5.69745 5
    endloop
  endfacet
  facet normal -0 0 1
    outer loop
      vertex -4.13754 4.75087 5
      vertex -3.58979 -5.1772 5
      vertex -3.29914 5.36709 5
    endloop
  endfacet
  facet normal 0 0 1
    outer loop
      vertex -4.13754 4.75087 5
      vertex -4.39297 -4.51573 5
      vertex -3.58979 -5.1772 5
    endloop
  endfacet
  facet normal -0 0 1
    outer loop
      vertex -4.86307 4.00506 5
      vertex -4.39297 -4.51573 5
      vertex -4.13754 4.75087 5
    endloop
  endfacet
  facet normal 0 0 1
    outer loop
      vertex -4.86307 4.00506 5
      vertex -5.07632 -3.73108 5
      vertex -4.39297 -4.51573 5
    endloop
  endfacet
  facet normal -0 0 1
    outer loop
      vertex -5.45596 3.15 5
      vertex -5.07632 -3.73108 5
      vertex -4.86307 4.00506 5
    endloop
  endfacet
  facet normal 0 0 1
    outer loop
      vertex -5.45596 3.15 5
      vertex -5.6212 -2.84466 5
      vertex -5.07632 -3.73108 5
    endloop
  endfacet
  facet normal -0 0 1
    outer loop
      vertex -5.90002 2.20902 5
      vertex -5.6212 -2.84466 5
      vertex -5.45596 3.15 5
    endloop
  endfacet
  facet normal 0 0 1
    outer loop
      vertex -5.90002 2.20902 5
      vertex -6.01275 -1.88064 5
      vertex -5.6212 -2.84466 5
    endloop
  endfacet
  facet normal -0 0 1
    outer loop
      vertex -6.18314 1.20778 5
      vertex -6.01275 -1.88064 5
      vertex -5.90002 2.20902 5
    endloop
  endfacet
  facet normal 0 0 1
    outer loop
      vertex -6.18314 1.20778 5
      vertex -6.24029 -0.865327 5
      vertex -6.01275 -1.88064 5
    endloop
  endfacet
  facet normal 0 -0 1
    outer loop
      vertex -6.24029 -0.865327 5
      vertex -6.18314 1.20778 5
      vertex -6.29761 0.173593 5
    endloop
  endfacet
endsolid OpenSCAD_Model
