solid OpenSCAD_Model
  facet normal 0.447309 -0.894379 0
    outer loop
      vertex -10.7582 24.2041 0
      vertex -9.07465 25.0461 5
      vertex -10.7582 24.2041 5
    endloop
  endfacet
  facet normal 0.447309 -0.894379 0
    outer loop
      vertex -9.07465 25.0461 5
      vertex -10.7582 24.2041 0
      vertex -9.07465 25.0461 0
    endloop
  endfacet
  facet normal -0.575633 -0.817708 0
    outer loop
      vertex 0.0114356 24.3652 0
      vertex 1.55073 23.2816 5
      vertex 0.0114356 24.3652 5
    endloop
  endfacet
  facet normal -0.575633 -0.817708 -0
    outer loop
      vertex 1.55073 23.2816 5
      vertex 0.0114356 24.3652 0
      vertex 1.55073 23.2816 0
    endloop
  endfacet
  facet normal -0.791071 0.611724 0
    outer loop
      vertex 2.45848 8.13012 0
      vertex 3.61001 9.61926 5
      vertex 3.61001 9.61926 0
    endloop
  endfacet
  facet normal -0.791071 0.611724 0
    outer loop
      vertex 3.61001 9.61926 5
      vertex 2.45848 8.13012 0
      vertex 2.45848 8.13012 5
    endloop
  endfacet
  facet normal 0.999553 -0.029908 0
    outer loop
      vertex -15.7198 14.644 5
      vertex -15.6635 16.5256 0
      vertex -15.6635 16.5256 5
    endloop
  endfacet
  facet normal 0.999553 -0.029908 0
    outer loop
      vertex -15.6635 16.5256 0
      vertex -15.7198 14.644 5
      vertex -15.7198 14.644 0
    endloop
  endfacet
  facet normal 0.772404 0.635131 0
    outer loop
      vertex -12.7185 7.90306 5
      vertex -13.9141 9.35707 0
      vertex -13.9141 9.35707 5
    endloop
  endfacet
  facet normal 0.772404 0.635131 0
    outer loop
      vertex -13.9141 9.35707 0
      vertex -12.7185 7.90306 5
      vertex -12.7185 7.90306 0
    endloop
  endfacet
  facet normal -0.0149595 0.999888 0
    outer loop
      vertex -4.14102 4.82946 0
      vertex -6.02323 4.8013 5
      vertex -4.14102 4.82946 5
    endloop
  endfacet
  facet normal -0.0149595 0.999888 0
    outer loop
      vertex -6.02323 4.8013 5
      vertex -4.14102 4.82946 0
      vertex -6.02323 4.8013 0
    endloop
  endfacet
  facet normal -0.074744 -0.997203 0
    outer loop
      vertex -5.39564 25.7708 0
      vertex -3.51848 25.6301 5
      vertex -5.39564 25.7708 5
    endloop
  endfacet
  facet normal -0.074744 -0.997203 -0
    outer loop
      vertex -3.51848 25.6301 5
      vertex -5.39564 25.7708 0
      vertex -3.51848 25.6301 0
    endloop
  endfacet
  facet normal 0.104546 -0.99452 0
    outer loop
      vertex -7.26775 25.574 0
      vertex -5.39564 25.7708 5
      vertex -7.26775 25.574 5
    endloop
  endfacet
  facet normal 0.104546 -0.99452 0
    outer loop
      vertex -5.39564 25.7708 5
      vertex -7.26775 25.574 0
      vertex -5.39564 25.7708 0
    endloop
  endfacet
  facet normal 0.280434 -0.959873 0
    outer loop
      vertex -9.07465 25.0461 0
      vertex -7.26775 25.574 5
      vertex -9.07465 25.0461 5
    endloop
  endfacet
  facet normal 0.280434 -0.959873 0
    outer loop
      vertex -7.26775 25.574 5
      vertex -9.07465 25.0461 0
      vertex -7.26775 25.574 0
    endloop
  endfacet
  facet normal 0.599813 -0.80014 0
    outer loop
      vertex -12.2644 23.075 0
      vertex -10.7582 24.2041 5
      vertex -12.2644 23.075 5
    endloop
  endfacet
  facet normal 0.599813 -0.80014 0
    outer loop
      vertex -10.7582 24.2041 5
      vertex -12.2644 23.075 0
      vertex -10.7582 24.2041 0
    endloop
  endfacet
  facet normal 0.925296 -0.379245 0
    outer loop
      vertex -15.2721 18.3669 5
      vertex -14.5582 20.1087 0
      vertex -14.5582 20.1087 5
    endloop
  endfacet
  facet normal 0.925296 -0.379245 0
    outer loop
      vertex -14.5582 20.1087 0
      vertex -15.2721 18.3669 5
      vertex -15.2721 18.3669 0
    endloop
  endfacet
  facet normal 0.842713 -0.538363 0
    outer loop
      vertex -14.5582 20.1087 5
      vertex -13.5448 21.695 0
      vertex -13.5448 21.695 5
    endloop
  endfacet
  facet normal 0.842713 -0.538363 0
    outer loop
      vertex -13.5448 21.695 0
      vertex -14.5582 20.1087 5
      vertex -14.5582 20.1087 0
    endloop
  endfacet
  facet normal 0.50001 0.86602 -0
    outer loop
      vertex -9.65232 5.74467 0
      vertex -11.2825 6.68588 5
      vertex -9.65232 5.74467 5
    endloop
  endfacet
  facet normal 0.50001 0.86602 0
    outer loop
      vertex -11.2825 6.68588 5
      vertex -9.65232 5.74467 0
      vertex -11.2825 6.68588 0
    endloop
  endfacet
  facet normal 0.873413 0.48698 0
    outer loop
      vertex -13.9141 9.35707 5
      vertex -14.8308 11.0012 0
      vertex -14.8308 11.0012 5
    endloop
  endfacet
  facet normal 0.873413 0.48698 0
    outer loop
      vertex -14.8308 11.0012 0
      vertex -13.9141 9.35707 5
      vertex -13.9141 9.35707 0
    endloop
  endfacet
  facet normal 0.988828 0.149063 0
    outer loop
      vertex -15.4392 12.7826 5
      vertex -15.7198 14.644 0
      vertex -15.7198 14.644 5
    endloop
  endfacet
  facet normal 0.988828 0.149063 0
    outer loop
      vertex -15.7198 14.644 0
      vertex -15.4392 12.7826 5
      vertex -15.4392 12.7826 0
    endloop
  endfacet
  facet normal 0.978145 -0.207922 0
    outer loop
      vertex -15.6635 16.5256 5
      vertex -15.2721 18.3669 0
      vertex -15.2721 18.3669 5
    endloop
  endfacet
  facet normal 0.978145 -0.207922 0
    outer loop
      vertex -15.2721 18.3669 0
      vertex -15.6635 16.5256 5
      vertex -15.6635 16.5256 0
    endloop
  endfacet
  facet normal 0.946331 0.3232 0
    outer loop
      vertex -14.8308 11.0012 5
      vertex -15.4392 12.7826 0
      vertex -15.4392 12.7826 5
    endloop
  endfacet
  facet normal 0.946331 0.3232 0
    outer loop
      vertex -15.4392 12.7826 0
      vertex -14.8308 11.0012 5
      vertex -14.8308 11.0012 0
    endloop
  endfacet
  facet normal -0.420361 -0.907357 0
    outer loop
      vertex -1.6966 25.1565 0
      vertex 0.0114356 24.3652 5
      vertex -1.6966 25.1565 5
    endloop
  endfacet
  facet normal -0.420361 -0.907357 -0
    outer loop
      vertex 0.0114356 24.3652 5
      vertex -1.6966 25.1565 0
      vertex 0.0114356 24.3652 0
    endloop
  endfacet
  facet normal -0.955574 0.294752 0
    outer loop
      vertex 4.47713 11.2901 0
      vertex 5.03198 13.0889 5
      vertex 5.03198 13.0889 0
    endloop
  endfacet
  facet normal -0.955574 0.294752 0
    outer loop
      vertex 5.03198 13.0889 5
      vertex 4.47713 11.2901 0
      vertex 4.47713 11.2901 5
    endloop
  endfacet
  facet normal -0.82625 -0.563304 0
    outer loop
      vertex 3.93222 20.3853 0
      vertex 2.87181 21.9407 5
      vertex 2.87181 21.9407 0
    endloop
  endfacet
  facet normal -0.82625 -0.563304 0
    outer loop
      vertex 2.87181 21.9407 5
      vertex 3.93222 20.3853 0
      vertex 3.93222 20.3853 5
    endloop
  endfacet
  facet normal -0.712352 -0.701823 0
    outer loop
      vertex 2.87181 21.9407 0
      vertex 1.55073 23.2816 5
      vertex 1.55073 23.2816 0
    endloop
  endfacet
  facet normal -0.712352 -0.701823 0
    outer loop
      vertex 1.55073 23.2816 5
      vertex 2.87181 21.9407 0
      vertex 2.87181 21.9407 5
    endloop
  endfacet
  facet normal -0.992846 0.119403 0
    outer loop
      vertex 5.03198 13.0889 0
      vertex 5.25674 14.9578 5
      vertex 5.25674 14.9578 0
    endloop
  endfacet
  facet normal -0.992846 0.119403 0
    outer loop
      vertex 5.25674 14.9578 5
      vertex 5.03198 13.0889 0
      vertex 5.03198 13.0889 5
    endloop
  endfacet
  facet normal -0.913547 -0.406732 0
    outer loop
      vertex 4.69787 18.6656 0
      vertex 3.93222 20.3853 5
      vertex 3.93222 20.3853 0
    endloop
  endfacet
  facet normal -0.913547 -0.406732 0
    outer loop
      vertex 3.93222 20.3853 5
      vertex 4.69787 18.6656 0
      vertex 4.69787 18.6656 5
    endloop
  endfacet
  facet normal -0.99821 -0.0598044 0
    outer loop
      vertex 5.25674 14.9578 0
      vertex 5.14416 16.8369 5
      vertex 5.14416 16.8369 0
    endloop
  endfacet
  facet normal -0.99821 -0.0598044 0
    outer loop
      vertex 5.14416 16.8369 5
      vertex 5.25674 14.9578 0
      vertex 5.25674 14.9578 5
    endloop
  endfacet
  facet normal -0.88759 0.460635 0
    outer loop
      vertex 3.61001 9.61926 0
      vertex 4.47713 11.2901 5
      vertex 4.47713 11.2901 0
    endloop
  endfacet
  facet normal -0.88759 0.460635 0
    outer loop
      vertex 4.47713 11.2901 5
      vertex 3.61001 9.61926 0
      vertex 3.61001 9.61926 5
    endloop
  endfacet
  facet normal -0.66913 0.743146 0
    outer loop
      vertex 2.45848 8.13012 0
      vertex 1.05956 6.87053 5
      vertex 2.45848 8.13012 5
    endloop
  endfacet
  facet normal -0.66913 0.743146 0
    outer loop
      vertex 1.05956 6.87053 5
      vertex 2.45848 8.13012 0
      vertex 1.05956 6.87053 0
    endloop
  endfacet
  facet normal -0.525682 0.850681 0
    outer loop
      vertex 1.05956 6.87053 0
      vertex 0.109539 6.28346 5
      vertex 1.05956 6.87053 5
    endloop
  endfacet
  facet normal -0.525682 0.850681 0
    outer loop
      vertex 0.109539 6.28346 5
      vertex 1.05956 6.87053 0
      vertex 0.109539 6.28346 0
    endloop
  endfacet
  facet normal 0.337331 0.941386 -0
    outer loop
      vertex -7.88023 5.10967 0
      vertex -9.65232 5.74467 5
      vertex -7.88023 5.10967 5
    endloop
  endfacet
  facet normal 0.337331 0.941386 0
    outer loop
      vertex -9.65232 5.74467 5
      vertex -7.88023 5.10967 0
      vertex -9.65232 5.74467 0
    endloop
  endfacet
  facet normal 0 0 1
    outer loop
      vertex -2.10298 5.93864 0
      vertex 5.25674 14.9578 0
      vertex 5.14416 16.8369 0
    endloop
  endfacet
  facet normal 0 0 1
    outer loop
      vertex -2.10298 5.93864 0
      vertex 5.14416 16.8369 0
      vertex 4.69787 18.6656 0
    endloop
  endfacet
  facet normal 0 0 1
    outer loop
      vertex 5.25674 14.9578 0
      vertex -2.10298 5.93864 0
      vertex 5.03198 13.0889 0
    endloop
  endfacet
  facet normal 0 0 1
    outer loop
      vertex -2.10298 5.93864 0
      vertex 4.69787 18.6656 0
      vertex 3.93222 20.3853 0
    endloop
  endfacet
  facet normal 0 -0 1
    outer loop
      vertex -1.14808 6.19451 0
      vertex 5.03198 13.0889 0
      vertex -2.10298 5.93864 0
    endloop
  endfacet
  facet normal 0 0 1
    outer loop
      vertex -2.10298 5.93864 0
      vertex 3.93222 20.3853 0
      vertex 2.87181 21.9407 0
    endloop
  endfacet
  facet normal 0 0 1
    outer loop
      vertex 4.47713 11.2901 0
      vertex -1.14808 6.19451 0
      vertex 3.61001 9.61926 0
    endloop
  endfacet
  facet normal 0 0 1
    outer loop
      vertex -2.10298 5.93864 0
      vertex 2.87181 21.9407 0
      vertex 1.55073 23.2816 0
    endloop
  endfacet
  facet normal 0 0 1
    outer loop
      vertex 3.61001 9.61926 0
      vertex -1.14808 6.19451 0
      vertex 2.45848 8.13012 0
    endloop
  endfacet
  facet normal 0 0 1
    outer loop
      vertex 2.45848 8.13012 0
      vertex -1.14808 6.19451 0
      vertex 1.05956 6.87053 0
    endloop
  endfacet
  facet normal 0 0 1
    outer loop
      vertex -2.10298 5.93864 0
      vertex 1.55073 23.2816 0
      vertex 0.0114356 24.3652 0
    endloop
  endfacet
  facet normal 0 0 1
    outer loop
      vertex 1.05956 6.87053 0
      vertex -0.164915 6.29784 0
      vertex 0.109539 6.28346 0
    endloop
  endfacet
  facet normal 0 0 1
    outer loop
      vertex 1.05956 6.87053 0
      vertex -1.14808 6.19451 0
      vertex -0.164915 6.29784 0
    endloop
  endfacet
  facet normal 0 0 1
    outer loop
      vertex -2.10298 5.93864 0
      vertex 0.0114356 24.3652 0
      vertex -1.6966 25.1565 0
    endloop
  endfacet
  facet normal 0 0 1
    outer loop
      vertex 5.03198 13.0889 0
      vertex -1.14808 6.19451 0
      vertex 4.47713 11.2901 0
    endloop
  endfacet
  facet normal 0 0 1
    outer loop
      vertex -3.51848 25.6301 0
      vertex -2.10298 5.93864 0
      vertex -1.6966 25.1565 0
    endloop
  endfacet
  facet normal 0 0 1
    outer loop
      vertex -5.39564 25.7708 0
      vertex -2.10298 5.93864 0
      vertex -3.51848 25.6301 0
    endloop
  endfacet
  facet normal -0 0 1
    outer loop
      vertex -7.26775 25.574 0
      vertex -2.10298 5.93864 0
      vertex -5.39564 25.7708 0
    endloop
  endfacet
  facet normal -0 0 1
    outer loop
      vertex -9.07465 25.0461 0
      vertex -2.10298 5.93864 0
      vertex -7.26775 25.574 0
    endloop
  endfacet
  facet normal -0 0 1
    outer loop
      vertex -10.7582 24.2041 0
      vertex -2.10298 5.93864 0
      vertex -9.07465 25.0461 0
    endloop
  endfacet
  facet normal 0 -0 1
    outer loop
      vertex -4.14102 4.82946 0
      vertex -3.8352 4.99813 0
      vertex -6.02323 4.8013 0
    endloop
  endfacet
  facet normal 0 0 1
    outer loop
      vertex -3.8352 4.99813 0
      vertex -4.14102 4.82946 0
      vertex -3.98935 4.85933 0
    endloop
  endfacet
  facet normal -0 0 1
    outer loop
      vertex -12.2644 23.075 0
      vertex -2.10298 5.93864 0
      vertex -10.7582 24.2041 0
    endloop
  endfacet
  facet normal 0 0 1
    outer loop
      vertex -3.0061 5.53655 0
      vertex -6.02323 4.8013 0
      vertex -3.8352 4.99813 0
    endloop
  endfacet
  facet normal -0 0 1
    outer loop
      vertex -13.5448 21.695 0
      vertex -2.10298 5.93864 0
      vertex -12.2644 23.075 0
    endloop
  endfacet
  facet normal 0 -0 1
    outer loop
      vertex -6.02323 4.8013 0
      vertex -3.0061 5.53655 0
      vertex -7.88023 5.10967 0
    endloop
  endfacet
  facet normal -0 0 1
    outer loop
      vertex -14.5582 20.1087 0
      vertex -2.10298 5.93864 0
      vertex -13.5448 21.695 0
    endloop
  endfacet
  facet normal 0 -0 1
    outer loop
      vertex -7.88023 5.10967 0
      vertex -3.0061 5.53655 0
      vertex -9.65232 5.74467 0
    endloop
  endfacet
  facet normal -0 0 1
    outer loop
      vertex -15.2721 18.3669 0
      vertex -2.10298 5.93864 0
      vertex -14.5582 20.1087 0
    endloop
  endfacet
  facet normal -0 -0 1
    outer loop
      vertex -9.65232 5.74467 0
      vertex -3.0061 5.53655 0
      vertex -11.2825 6.68588 0
    endloop
  endfacet
  facet normal 0 0 1
    outer loop
      vertex -2.10298 5.93864 0
      vertex -11.2825 6.68588 0
      vertex -3.0061 5.53655 0
    endloop
  endfacet
  facet normal -0 -0 1
    outer loop
      vertex -11.2825 6.68588 0
      vertex -2.10298 5.93864 0
      vertex -12.7185 7.90306 0
    endloop
  endfacet
  facet normal -0 0 1
    outer loop
      vertex -15.6635 16.5256 0
      vertex -2.10298 5.93864 0
      vertex -15.2721 18.3669 0
    endloop
  endfacet
  facet normal -0 -0 1
    outer loop
      vertex -12.7185 7.90306 0
      vertex -2.10298 5.93864 0
      vertex -13.9141 9.35707 0
    endloop
  endfacet
  facet normal -0 -0 1
    outer loop
      vertex -15.4392 12.7826 0
      vertex -2.10298 5.93864 0
      vertex -15.6635 16.5256 0
    endloop
  endfacet
  facet normal -0 -0 1
    outer loop
      vertex -13.9141 9.35707 0
      vertex -2.10298 5.93864 0
      vertex -14.8308 11.0012 0
    endloop
  endfacet
  facet normal -0 -0 1
    outer loop
      vertex -14.8308 11.0012 0
      vertex -2.10298 5.93864 0
      vertex -15.4392 12.7826 0
    endloop
  endfacet
  facet normal 0 0 1
    outer loop
      vertex -15.4392 12.7826 0
      vertex -15.6635 16.5256 0
      vertex -15.7198 14.644 0
    endloop
  endfacet
  facet normal -0.25159 -0.967834 0
    outer loop
      vertex -3.51848 25.6301 0
      vertex -1.6966 25.1565 5
      vertex -3.51848 25.6301 5
    endloop
  endfacet
  facet normal -0.25159 -0.967834 -0
    outer loop
      vertex -1.6966 25.1565 5
      vertex -3.51848 25.6301 0
      vertex -1.6966 25.1565 0
    endloop
  endfacet
  facet normal 0.733066 -0.680158 0
    outer loop
      vertex -13.5448 21.695 5
      vertex -12.2644 23.075 0
      vertex -12.2644 23.075 5
    endloop
  endfacet
  facet normal 0.733066 -0.680158 0
    outer loop
      vertex -12.2644 23.075 0
      vertex -13.5448 21.695 5
      vertex -13.5448 21.695 0
    endloop
  endfacet
  facet normal 0.646593 0.762835 -0
    outer loop
      vertex -11.2825 6.68588 0
      vertex -12.7185 7.90306 5
      vertex -11.2825 6.68588 5
    endloop
  endfacet
  facet normal 0.646593 0.762835 0
    outer loop
      vertex -12.7185 7.90306 5
      vertex -11.2825 6.68588 0
      vertex -12.7185 7.90306 0
    endloop
  endfacet
  facet normal -0.971488 -0.237089 0
    outer loop
      vertex 5.14416 16.8369 0
      vertex 4.69787 18.6656 5
      vertex 4.69787 18.6656 0
    endloop
  endfacet
  facet normal -0.971488 -0.237089 0
    outer loop
      vertex 4.69787 18.6656 5
      vertex 5.14416 16.8369 0
      vertex 5.14416 16.8369 5
    endloop
  endfacet
  facet normal 0.163815 0.986491 -0
    outer loop
      vertex -6.02323 4.8013 0
      vertex -7.88023 5.10967 5
      vertex -6.02323 4.8013 5
    endloop
  endfacet
  facet normal 0.163815 0.986491 0
    outer loop
      vertex -7.88023 5.10967 5
      vertex -6.02323 4.8013 0
      vertex -7.88023 5.10967 0
    endloop
  endfacet
  facet normal -0.193229 0.981154 0
    outer loop
      vertex -3.98935 4.85933 0
      vertex -4.14102 4.82946 5
      vertex -3.98935 4.85933 5
    endloop
  endfacet
  facet normal -0.193229 0.981154 0
    outer loop
      vertex -4.14102 4.82946 5
      vertex -3.98935 4.85933 0
      vertex -4.14102 4.82946 0
    endloop
  endfacet
  facet normal 0.449723 0.893168 -0
    outer loop
      vertex 1.66144 27.2231 -2
      vertex 0.254131 27.9317 5
      vertex 1.66144 27.2231 5
    endloop
  endfacet
  facet normal 0.449723 0.893168 0
    outer loop
      vertex 0.254131 27.9317 5
      vertex 1.66144 27.2231 -2
      vertex 0.254131 27.9317 -2
    endloop
  endfacet
  facet normal -0.499989 -0.866031 0
    outer loop
      vertex -12.8096 3.73419 -2
      vertex -11.445 2.94636 5
      vertex -12.8096 3.73419 5
    endloop
  endfacet
  facet normal -0.499989 -0.866031 -0
    outer loop
      vertex -11.445 2.94636 5
      vertex -12.8096 3.73419 -2
      vertex -11.445 2.94636 -2
    endloop
  endfacet
  facet normal -0.905644 0.424039 0
    outer loop
      vertex -18.05 20.4009 -2
      vertex -17.3819 21.8278 5
      vertex -17.3819 21.8278 -2
    endloop
  endfacet
  facet normal -0.905644 0.424039 0
    outer loop
      vertex -17.3819 21.8278 5
      vertex -18.05 20.4009 -2
      vertex -18.05 20.4009 5
    endloop
  endfacet
  facet normal -0.327107 0.944987 0
    outer loop
      vertex -9.00025 28.5494 -2
      vertex -10.4892 28.034 5
      vertex -9.00025 28.5494 5
    endloop
  endfacet
  facet normal -0.327107 0.944987 0
    outer loop
      vertex -10.4892 28.034 5
      vertex -9.00025 28.5494 -2
      vertex -10.4892 28.034 -2
    endloop
  endfacet
  facet normal -0.935284 -0.353898 0
    outer loop
      vertex -17.8455 9.65897 -2
      vertex -18.4031 11.1326 5
      vertex -18.4031 11.1326 -2
    endloop
  endfacet
  facet normal -0.935284 -0.353898 0
    outer loop
      vertex -18.4031 11.1326 5
      vertex -17.8455 9.65897 -2
      vertex -17.8455 9.65897 5
    endloop
  endfacet
  facet normal -0.999819 -0.0190393 0
    outer loop
      vertex -18.9986 14.2219 -2
      vertex -19.0286 15.7973 5
      vertex -19.0286 15.7973 -2
    endloop
  endfacet
  facet normal -0.999819 -0.0190393 0
    outer loop
      vertex -19.0286 15.7973 5
      vertex -18.9986 14.2219 -2
      vertex -18.9986 14.2219 5
    endloop
  endfacet
  facet normal 0 0 -1
    outer loop
      vertex -0.164915 6.29784 -2
      vertex 8.55893 15.5347 -2
      vertex 8.49895 13.9602 -2
    endloop
  endfacet
  facet normal 0 0 -1
    outer loop
      vertex -0.164915 6.29784 -2
      vertex 8.49895 13.9602 -2
      vertex 8.25987 12.4028 -2
    endloop
  endfacet
  facet normal -0 0 -1
    outer loop
      vertex 8.55893 15.5347 -2
      vertex -0.164915 6.29784 -2
      vertex 8.43905 17.1058 -2
    endloop
  endfacet
  facet normal 0 0 -1
    outer loop
      vertex 0.822315 6.2461 -2
      vertex 8.25987 12.4028 -2
      vertex 7.84482 10.8828 -2
    endloop
  endfacet
  facet normal -0 0 -1
    outer loop
      vertex 8.43905 17.1058 -2
      vertex -0.164915 6.29784 -2
      vertex 8.14085 18.6529 -2
    endloop
  endfacet
  facet normal 0 0 -1
    outer loop
      vertex 0.822315 6.2461 -2
      vertex 7.84482 10.8828 -2
      vertex 7.25921 9.41997 -2
    endloop
  endfacet
  facet normal -0 0 -1
    outer loop
      vertex 8.14085 18.6529 -2
      vertex -0.164915 6.29784 -2
      vertex 7.66824 20.156 -2
    endloop
  endfacet
  facet normal 0 0 -1
    outer loop
      vertex 0.822315 6.2461 -2
      vertex 7.25921 9.41997 -2
      vertex 6.51067 8.03347 -2
    endloop
  endfacet
  facet normal 0 0 -1
    outer loop
      vertex 8.25987 12.4028 -2
      vertex 0.822315 6.2461 -2
      vertex -0.164915 6.29784 -2
    endloop
  endfacet
  facet normal 0 0 -1
    outer loop
      vertex 1.7893 6.04057 -2
      vertex 6.51067 8.03347 -2
      vertex 5.60897 6.74134 -2
    endloop
  endfacet
  facet normal 0 0 -1
    outer loop
      vertex -1.14808 6.19451 -2
      vertex 7.66824 20.156 -2
      vertex -0.164915 6.29784 -2
    endloop
  endfacet
  facet normal 0 0 -1
    outer loop
      vertex 2.71222 5.68629 -2
      vertex 5.60897 6.74134 -2
      vertex 4.56585 5.56042 -2
    endloop
  endfacet
  facet normal 0 0 -1
    outer loop
      vertex 6.51067 8.03347 -2
      vertex 1.7893 6.04057 -2
      vertex 0.822315 6.2461 -2
    endloop
  endfacet
  facet normal 0 0 -1
    outer loop
      vertex 3.56836 5.192 -2
      vertex 4.56585 5.56042 -2
      vertex 3.8781 4.94117 -2
    endloop
  endfacet
  facet normal 0 0 -1
    outer loop
      vertex 2.71222 5.68629 -2
      vertex 4.56585 5.56042 -2
      vertex 3.56836 5.192 -2
    endloop
  endfacet
  facet normal 0 0 -1
    outer loop
      vertex 5.60897 6.74134 -2
      vertex 2.71222 5.68629 -2
      vertex 1.7893 6.04057 -2
    endloop
  endfacet
  facet normal -0 0 -1
    outer loop
      vertex 7.66824 20.156 -2
      vertex -1.14808 6.19451 -2
      vertex 7.02736 21.5955 -2
    endloop
  endfacet
  facet normal -0 0 -1
    outer loop
      vertex 7.02736 21.5955 -2
      vertex -1.14808 6.19451 -2
      vertex 6.22658 22.9525 -2
    endloop
  endfacet
  facet normal -0 0 -1
    outer loop
      vertex 6.22658 22.9525 -2
      vertex -1.14808 6.19451 -2
      vertex 5.27634 24.2093 -2
    endloop
  endfacet
  facet normal -0 0 -1
    outer loop
      vertex 5.27634 24.2093 -2
      vertex -1.14808 6.19451 -2
      vertex 4.18901 25.3497 -2
    endloop
  endfacet
  facet normal -0 0 -1
    outer loop
      vertex 4.18901 25.3497 -2
      vertex -1.14808 6.19451 -2
      vertex 2.97879 26.3586 -2
    endloop
  endfacet
  facet normal -0 0 -1
    outer loop
      vertex 2.97879 26.3586 -2
      vertex -1.14808 6.19451 -2
      vertex 1.66144 27.2231 -2
    endloop
  endfacet
  facet normal -0 0 -1
    outer loop
      vertex 1.66144 27.2231 -2
      vertex -1.14808 6.19451 -2
      vertex 0.254131 27.9317 -2
    endloop
  endfacet
  facet normal 0 0 -1
    outer loop
      vertex -1.14808 6.19451 -2
      vertex -1.22478 28.4753 -2
      vertex 0.254131 27.9317 -2
    endloop
  endfacet
  facet normal 0 0 -1
    outer loop
      vertex -2.10298 5.93864 -2
      vertex -1.22478 28.4753 -2
      vertex -1.14808 6.19451 -2
    endloop
  endfacet
  facet normal 0 0 -1
    outer loop
      vertex -2.10298 5.93864 -2
      vertex -2.75601 28.8468 -2
      vertex -1.22478 28.4753 -2
    endloop
  endfacet
  facet normal 0 0 -1
    outer loop
      vertex -17.3819 21.8278 -2
      vertex -2.10298 5.93864 -2
      vertex -3.0061 5.53655 -2
    endloop
  endfacet
  facet normal 0 0 -1
    outer loop
      vertex -17.8455 9.65897 -2
      vertex -3.0061 5.53655 -2
      vertex -3.8352 4.99813 -2
    endloop
  endfacet
  facet normal 0 0 -1
    outer loop
      vertex -2.10298 5.93864 -2
      vertex -4.31961 29.0413 -2
      vertex -2.75601 28.8468 -2
    endloop
  endfacet
  facet normal 0 0 -1
    outer loop
      vertex -14.0754 4.67243 -2
      vertex -3.8352 4.99813 -2
      vertex -4.56986 4.33663 -2
    endloop
  endfacet
  facet normal 0 0 -1
    outer loop
      vertex -9.99957 2.31922 -2
      vertex -4.56986 4.33663 -2
      vertex -5.192 3.56836 -2
    endloop
  endfacet
  facet normal 0 0 -1
    outer loop
      vertex -8.49204 1.86094 -2
      vertex -5.192 3.56836 -2
      vertex -5.68629 2.71222 -2
    endloop
  endfacet
  facet normal 0 0 -1
    outer loop
      vertex -2.10298 5.93864 -2
      vertex -5.89519 29.0563 -2
      vertex -4.31961 29.0413 -2
    endloop
  endfacet
  facet normal 0 0 -1
    outer loop
      vertex -6.94209 1.57748 -2
      vertex -5.68629 2.71222 -2
      vertex -6.04056 1.7893 -2
    endloop
  endfacet
  facet normal 0 0 -1
    outer loop
      vertex -6.94209 1.57748 -2
      vertex -6.04056 1.7893 -2
      vertex -6.09757 1.52112 -2
    endloop
  endfacet
  facet normal 0 0 -1
    outer loop
      vertex -5.68629 2.71222 -2
      vertex -6.94209 1.57748 -2
      vertex -8.49204 1.86094 -2
    endloop
  endfacet
  facet normal 0 0 -1
    outer loop
      vertex -2.10298 5.93864 -2
      vertex -7.46221 28.8916 -2
      vertex -5.89519 29.0563 -2
    endloop
  endfacet
  facet normal 0 0 -1
    outer loop
      vertex -5.192 3.56836 -2
      vertex -8.49204 1.86094 -2
      vertex -9.99957 2.31922 -2
    endloop
  endfacet
  facet normal 0 0 -1
    outer loop
      vertex -2.10298 5.93864 -2
      vertex -9.00025 28.5494 -2
      vertex -7.46221 28.8916 -2
    endloop
  endfacet
  facet normal 0 0 -1
    outer loop
      vertex -4.56986 4.33663 -2
      vertex -9.99957 2.31922 -2
      vertex -11.445 2.94636 -2
    endloop
  endfacet
  facet normal 0 0 -1
    outer loop
      vertex -2.10298 5.93864 -2
      vertex -10.4892 28.034 -2
      vertex -9.00025 28.5494 -2
    endloop
  endfacet
  facet normal 0 0 -1
    outer loop
      vertex -4.56986 4.33663 -2
      vertex -11.445 2.94636 -2
      vertex -12.8096 3.73419 -2
    endloop
  endfacet
  facet normal 0 0 -1
    outer loop
      vertex -2.10298 5.93864 -2
      vertex -11.9098 27.3523 -2
      vertex -10.4892 28.034 -2
    endloop
  endfacet
  facet normal -0 0 -1
    outer loop
      vertex -4.56986 4.33663 -2
      vertex -12.8096 3.73419 -2
      vertex -14.0754 4.67243 -2
    endloop
  endfacet
  facet normal 0 0 -1
    outer loop
      vertex -2.10298 5.93864 -2
      vertex -13.2434 26.5131 -2
      vertex -11.9098 27.3523 -2
    endloop
  endfacet
  facet normal -0 0 -1
    outer loop
      vertex -3.8352 4.99813 -2
      vertex -14.0754 4.67243 -2
      vertex -15.2261 5.74885 -2
    endloop
  endfacet
  facet normal 0 0 -1
    outer loop
      vertex -2.10298 5.93864 -2
      vertex -14.4726 25.5273 -2
      vertex -13.2434 26.5131 -2
    endloop
  endfacet
  facet normal 0 0 -1
    outer loop
      vertex -3.8352 4.99813 -2
      vertex -15.2261 5.74885 -2
      vertex -16.2465 6.94941 -2
    endloop
  endfacet
  facet normal 0 0 -1
    outer loop
      vertex -2.10298 5.93864 -2
      vertex -15.5814 24.4079 -2
      vertex -14.4726 25.5273 -2
    endloop
  endfacet
  facet normal 0 0 -1
    outer loop
      vertex -3.8352 4.99813 -2
      vertex -16.2465 6.94941 -2
      vertex -17.1235 8.25848 -2
    endloop
  endfacet
  facet normal 0 0 -1
    outer loop
      vertex -2.10298 5.93864 -2
      vertex -16.5554 23.1693 -2
      vertex -15.5814 24.4079 -2
    endloop
  endfacet
  facet normal 0 0 -1
    outer loop
      vertex -3.8352 4.99813 -2
      vertex -17.1235 8.25848 -2
      vertex -17.8455 9.65897 -2
    endloop
  endfacet
  facet normal 0 0 -1
    outer loop
      vertex -2.10298 5.93864 -2
      vertex -17.3819 21.8278 -2
      vertex -16.5554 23.1693 -2
    endloop
  endfacet
  facet normal 0 0 -1
    outer loop
      vertex -3.0061 5.53655 -2
      vertex -17.8455 9.65897 -2
      vertex -18.4031 11.1326 -2
    endloop
  endfacet
  facet normal 0 0 -1
    outer loop
      vertex -3.0061 5.53655 -2
      vertex -18.05 20.4009 -2
      vertex -17.3819 21.8278 -2
    endloop
  endfacet
  facet normal 0 0 -1
    outer loop
      vertex -3.0061 5.53655 -2
      vertex -18.4031 11.1326 -2
      vertex -18.7892 12.6603 -2
    endloop
  endfacet
  facet normal 0 0 -1
    outer loop
      vertex -3.0061 5.53655 -2
      vertex -18.5512 18.907 -2
      vertex -18.05 20.4009 -2
    endloop
  endfacet
  facet normal 0 0 -1
    outer loop
      vertex -3.0061 5.53655 -2
      vertex -18.7892 12.6603 -2
      vertex -18.9986 14.2219 -2
    endloop
  endfacet
  facet normal 0 0 -1
    outer loop
      vertex -3.0061 5.53655 -2
      vertex -18.8788 17.3658 -2
      vertex -18.5512 18.907 -2
    endloop
  endfacet
  facet normal 0 0 -1
    outer loop
      vertex -3.0061 5.53655 -2
      vertex -18.9986 14.2219 -2
      vertex -19.0286 15.7973 -2
    endloop
  endfacet
  facet normal 0 0 -1
    outer loop
      vertex -3.0061 5.53655 -2
      vertex -19.0286 15.7973 -2
      vertex -18.8788 17.3658 -2
    endloop
  endfacet
  facet normal 0.00951987 0.999955 -0
    outer loop
      vertex -4.31961 29.0413 -2
      vertex -5.89519 29.0563 5
      vertex -4.31961 29.0413 5
    endloop
  endfacet
  facet normal 0.00951987 0.999955 0
    outer loop
      vertex -5.89519 29.0563 5
      vertex -4.31961 29.0413 -2
      vertex -5.89519 29.0563 -2
    endloop
  endfacet
  facet normal -0.104528 0.994522 0
    outer loop
      vertex -5.89519 29.0563 -2
      vertex -7.46221 28.8916 5
      vertex -5.89519 29.0563 5
    endloop
  endfacet
  facet normal -0.104528 0.994522 0
    outer loop
      vertex -7.46221 28.8916 5
      vertex -5.89519 29.0563 -2
      vertex -7.46221 28.8916 -2
    endloop
  endfacet
  facet normal -0.710463 0.703735 0
    outer loop
      vertex -15.5814 24.4079 -2
      vertex -14.4726 25.5273 5
      vertex -14.4726 25.5273 -2
    endloop
  endfacet
  facet normal -0.710463 0.703735 0
    outer loop
      vertex -14.4726 25.5273 5
      vertex -15.5814 24.4079 -2
      vertex -15.5814 24.4079 5
    endloop
  endfacet
  facet normal -0.786067 0.618141 0
    outer loop
      vertex -16.5554 23.1693 -2
      vertex -15.5814 24.4079 5
      vertex -15.5814 24.4079 -2
    endloop
  endfacet
  facet normal -0.786067 0.618141 0
    outer loop
      vertex -15.5814 24.4079 5
      vertex -16.5554 23.1693 -2
      vertex -16.5554 23.1693 5
    endloop
  endfacet
  facet normal -0.532598 0.846368 0
    outer loop
      vertex -11.9098 27.3523 -2
      vertex -13.2434 26.5131 5
      vertex -11.9098 27.3523 5
    endloop
  endfacet
  facet normal -0.532598 0.846368 0
    outer loop
      vertex -13.2434 26.5131 5
      vertex -11.9098 27.3523 -2
      vertex -13.2434 26.5131 -2
    endloop
  endfacet
  facet normal -0.761963 -0.64762 0
    outer loop
      vertex -15.2261 5.74885 -2
      vertex -16.2465 6.94941 5
      vertex -16.2465 6.94941 -2
    endloop
  endfacet
  facet normal -0.761963 -0.64762 0
    outer loop
      vertex -16.2465 6.94941 5
      vertex -15.2261 5.74885 -2
      vertex -15.2261 5.74885 5
    endloop
  endfacet
  facet normal -0.978147 0.207916 0
    outer loop
      vertex -18.8788 17.3658 -2
      vertex -18.5512 18.907 5
      vertex -18.5512 18.907 -2
    endloop
  endfacet
  facet normal -0.978147 0.207916 0
    outer loop
      vertex -18.5512 18.907 5
      vertex -18.8788 17.3658 -2
      vertex -18.8788 17.3658 5
    endloop
  endfacet
  facet normal 0.928372 -0.371652 0
    outer loop
      vertex 7.25921 9.41997 5
      vertex 7.84482 10.8828 -2
      vertex 7.84482 10.8828 5
    endloop
  endfacet
  facet normal 0.928372 -0.371652 0
    outer loop
      vertex 7.84482 10.8828 -2
      vertex 7.25921 9.41997 5
      vertex 7.25921 9.41997 -2
    endloop
  endfacet
  facet normal 0.640328 0.768102 -0
    outer loop
      vertex 4.18901 25.3497 -2
      vertex 2.97879 26.3586 5
      vertex 4.18901 25.3497 5
    endloop
  endfacet
  facet normal 0.640328 0.768102 0
    outer loop
      vertex 2.97879 26.3586 5
      vertex 4.18901 25.3497 -2
      vertex 2.97879 26.3586 -2
    endloop
  endfacet
  facet normal -0.398028 -0.917373 0
    outer loop
      vertex -11.445 2.94636 -2
      vertex -9.99957 2.31922 5
      vertex -11.445 2.94636 5
    endloop
  endfacet
  facet normal -0.398028 -0.917373 -0
    outer loop
      vertex -9.99957 2.31922 5
      vertex -11.445 2.94636 -2
      vertex -9.99957 2.31922 -2
    endloop
  endfacet
  facet normal 0.235775 0.971808 -0
    outer loop
      vertex -1.22478 28.4753 -2
      vertex -2.75601 28.8468 5
      vertex -1.22478 28.4753 5
    endloop
  endfacet
  facet normal 0.235775 0.971808 0
    outer loop
      vertex -2.75601 28.8468 5
      vertex -1.22478 28.4753 -2
      vertex -2.75601 28.8468 -2
    endloop
  endfacet
  facet normal 0.345 0.938603 -0
    outer loop
      vertex 0.254131 27.9317 -2
      vertex -1.22478 28.4753 5
      vertex 0.254131 27.9317 5
    endloop
  endfacet
  facet normal 0.345 0.938603 0
    outer loop
      vertex -1.22478 28.4753 5
      vertex 0.254131 27.9317 -2
      vertex -1.22478 28.4753 -2
    endloop
  endfacet
  facet normal 0.123441 0.992352 -0
    outer loop
      vertex -2.75601 28.8468 -2
      vertex -4.31961 29.0413 5
      vertex -2.75601 28.8468 5
    endloop
  endfacet
  facet normal 0.123441 0.992352 0
    outer loop
      vertex -4.31961 29.0413 5
      vertex -2.75601 28.8468 -2
      vertex -4.31961 29.0413 -2
    endloop
  endfacet
  facet normal -0.21718 0.976131 0
    outer loop
      vertex -7.46221 28.8916 -2
      vertex -9.00025 28.5494 5
      vertex -7.46221 28.8916 5
    endloop
  endfacet
  facet normal -0.21718 0.976131 0
    outer loop
      vertex -9.00025 28.5494 5
      vertex -7.46221 28.8916 -2
      vertex -9.00025 28.5494 -2
    endloop
  endfacet
  facet normal -0.851386 0.52454 0
    outer loop
      vertex -17.3819 21.8278 -2
      vertex -16.5554 23.1693 5
      vertex -16.5554 23.1693 -2
    endloop
  endfacet
  facet normal -0.851386 0.52454 0
    outer loop
      vertex -16.5554 23.1693 5
      vertex -17.3819 21.8278 -2
      vertex -17.3819 21.8278 5
    endloop
  endfacet
  facet normal -0.625639 0.780113 0
    outer loop
      vertex -13.2434 26.5131 -2
      vertex -14.4726 25.5273 5
      vertex -13.2434 26.5131 5
    endloop
  endfacet
  facet normal -0.625639 0.780113 0
    outer loop
      vertex -14.4726 25.5273 5
      vertex -13.2434 26.5131 -2
      vertex -14.4726 25.5273 -2
    endloop
  endfacet
  facet normal -0.432634 0.90157 0
    outer loop
      vertex -10.4892 28.034 -2
      vertex -11.9098 27.3523 5
      vertex -10.4892 28.034 5
    endloop
  endfacet
  facet normal -0.432634 0.90157 0
    outer loop
      vertex -11.9098 27.3523 5
      vertex -10.4892 28.034 -2
      vertex -11.9098 27.3523 -2
    endloop
  endfacet
  facet normal -0.830793 -0.556582 0
    outer loop
      vertex -16.2465 6.94941 -2
      vertex -17.1235 8.25848 5
      vertex -17.1235 8.25848 -2
    endloop
  endfacet
  facet normal -0.830793 -0.556582 0
    outer loop
      vertex -17.1235 8.25848 5
      vertex -16.2465 6.94941 -2
      vertex -16.2465 6.94941 5
    endloop
  endfacet
  facet normal -0.888836 -0.458225 0
    outer loop
      vertex -17.1235 8.25848 -2
      vertex -17.8455 9.65897 5
      vertex -17.8455 9.65897 -2
    endloop
  endfacet
  facet normal -0.888836 -0.458225 0
    outer loop
      vertex -17.8455 9.65897 5
      vertex -17.1235 8.25848 -2
      vertex -17.1235 8.25848 5
    endloop
  endfacet
  facet normal -0.683143 -0.730284 0
    outer loop
      vertex -15.2261 5.74885 -2
      vertex -14.0754 4.67243 5
      vertex -15.2261 5.74885 5
    endloop
  endfacet
  facet normal -0.683143 -0.730284 -0
    outer loop
      vertex -14.0754 4.67243 5
      vertex -15.2261 5.74885 -2
      vertex -14.0754 4.67243 -2
    endloop
  endfacet
  facet normal -0.595478 -0.803372 0
    outer loop
      vertex -14.0754 4.67243 -2
      vertex -12.8096 3.73419 5
      vertex -14.0754 4.67243 5
    endloop
  endfacet
  facet normal -0.595478 -0.803372 -0
    outer loop
      vertex -12.8096 3.73419 5
      vertex -14.0754 4.67243 -2
      vertex -12.8096 3.73419 -2
    endloop
  endfacet
  facet normal -0.991129 -0.132904 0
    outer loop
      vertex -18.7892 12.6603 -2
      vertex -18.9986 14.2219 5
      vertex -18.9986 14.2219 -2
    endloop
  endfacet
  facet normal -0.991129 -0.132904 0
    outer loop
      vertex -18.9986 14.2219 5
      vertex -18.7892 12.6603 -2
      vertex -18.7892 12.6603 5
    endloop
  endfacet
  facet normal -0.969516 -0.245029 0
    outer loop
      vertex -18.4031 11.1326 -2
      vertex -18.7892 12.6603 5
      vertex -18.7892 12.6603 -2
    endloop
  endfacet
  facet normal -0.969516 -0.245029 0
    outer loop
      vertex -18.7892 12.6603 5
      vertex -18.4031 11.1326 -2
      vertex -18.4031 11.1326 5
    endloop
  endfacet
  facet normal -0.99547 0.0950727 0
    outer loop
      vertex -19.0286 15.7973 -2
      vertex -18.8788 17.3658 5
      vertex -18.8788 17.3658 -2
    endloop
  endfacet
  facet normal -0.99547 0.0950727 0
    outer loop
      vertex -18.8788 17.3658 5
      vertex -19.0286 15.7973 -2
      vertex -19.0286 15.7973 5
    endloop
  endfacet
  facet normal -0.948066 0.318074 0
    outer loop
      vertex -18.5512 18.907 -2
      vertex -18.05 20.4009 5
      vertex -18.05 20.4009 -2
    endloop
  endfacet
  facet normal -0.948066 0.318074 0
    outer loop
      vertex -18.05 20.4009 5
      vertex -18.5512 18.907 -2
      vertex -18.5512 18.907 5
    endloop
  endfacet
  facet normal 0.548652 0.836051 -0
    outer loop
      vertex 2.97879 26.3586 -2
      vertex 1.66144 27.2231 5
      vertex 2.97879 26.3586 5
    endloop
  endfacet
  facet normal 0.548652 0.836051 0
    outer loop
      vertex 1.66144 27.2231 5
      vertex 2.97879 26.3586 -2
      vertex 1.66144 27.2231 -2
    endloop
  endfacet
  facet normal 0.964682 -0.263415 0
    outer loop
      vertex 7.84482 10.8828 5
      vertex 8.25987 12.4028 -2
      vertex 8.25987 12.4028 5
    endloop
  endfacet
  facet normal 0.964682 -0.263415 0
    outer loop
      vertex 8.25987 12.4028 -2
      vertex 7.84482 10.8828 5
      vertex 7.84482 10.8828 -2
    endloop
  endfacet
  facet normal 0.981926 0.189264 0
    outer loop
      vertex 8.43905 17.1058 5
      vertex 8.14085 18.6529 -2
      vertex 8.14085 18.6529 5
    endloop
  endfacet
  facet normal 0.981926 0.189264 0
    outer loop
      vertex 8.14085 18.6529 -2
      vertex 8.43905 17.1058 5
      vertex 8.43905 17.1058 -2
    endloop
  endfacet
  facet normal 0.999275 -0.038067 0
    outer loop
      vertex 8.49895 13.9602 5
      vertex 8.55893 15.5347 -2
      vertex 8.55893 15.5347 5
    endloop
  endfacet
  facet normal 0.999275 -0.038067 0
    outer loop
      vertex 8.55893 15.5347 -2
      vertex 8.49895 13.9602 5
      vertex 8.49895 13.9602 -2
    endloop
  endfacet
  facet normal 0.913552 0.406723 0
    outer loop
      vertex 7.66824 20.156 5
      vertex 7.02736 21.5955 -2
      vertex 7.02736 21.5955 5
    endloop
  endfacet
  facet normal 0.913552 0.406723 0
    outer loop
      vertex 7.02736 21.5955 -2
      vertex 7.66824 20.156 5
      vertex 7.66824 20.156 -2
    endloop
  endfacet
  facet normal 0.797666 0.603099 0
    outer loop
      vertex 6.22658 22.9525 5
      vertex 5.27634 24.2093 -2
      vertex 5.27634 24.2093 5
    endloop
  endfacet
  facet normal 0.797666 0.603099 0
    outer loop
      vertex 5.27634 24.2093 -2
      vertex 6.22658 22.9525 5
      vertex 6.22658 22.9525 -2
    endloop
  endfacet
  facet normal 0.669129 -0.743146 0
    outer loop
      vertex 3.8781 4.94117 -2
      vertex 4.56585 5.56042 5
      vertex 3.8781 4.94117 5
    endloop
  endfacet
  facet normal 0.669129 -0.743146 0
    outer loop
      vertex 4.56585 5.56042 5
      vertex 3.8781 4.94117 -2
      vertex 4.56585 5.56042 -2
    endloop
  endfacet
  facet normal 0.820063 -0.572273 0
    outer loop
      vertex 5.60897 6.74134 5
      vertex 6.51067 8.03347 -2
      vertex 6.51067 8.03347 5
    endloop
  endfacet
  facet normal 0.820063 -0.572273 0
    outer loop
      vertex 6.51067 8.03347 -2
      vertex 5.60897 6.74134 5
      vertex 5.60897 6.74134 -2
    endloop
  endfacet
  facet normal -0.066588 -0.997781 0
    outer loop
      vertex -6.94209 1.57748 -2
      vertex -6.09757 1.52112 5
      vertex -6.94209 1.57748 5
    endloop
  endfacet
  facet normal -0.066588 -0.997781 -0
    outer loop
      vertex -6.09757 1.52112 5
      vertex -6.94209 1.57748 -2
      vertex -6.09757 1.52112 -2
    endloop
  endfacet
  facet normal -0.290852 -0.956768 0
    outer loop
      vertex -9.99957 2.31922 -2
      vertex -8.49204 1.86094 5
      vertex -9.99957 2.31922 5
    endloop
  endfacet
  facet normal -0.290852 -0.956768 -0
    outer loop
      vertex -8.49204 1.86094 5
      vertex -9.99957 2.31922 -2
      vertex -8.49204 1.86094 -2
    endloop
  endfacet
  facet normal 0.988421 -0.151735 0
    outer loop
      vertex 8.25987 12.4028 5
      vertex 8.49895 13.9602 -2
      vertex 8.49895 13.9602 5
    endloop
  endfacet
  facet normal 0.988421 -0.151735 0
    outer loop
      vertex 8.49895 13.9602 -2
      vertex 8.25987 12.4028 5
      vertex 8.25987 12.4028 -2
    endloop
  endfacet
  facet normal 0.953956 0.299946 0
    outer loop
      vertex 8.14085 18.6529 5
      vertex 7.66824 20.156 -2
      vertex 7.66824 20.156 5
    endloop
  endfacet
  facet normal 0.953956 0.299946 0
    outer loop
      vertex 7.66824 20.156 -2
      vertex 8.14085 18.6529 5
      vertex 8.14085 18.6529 -2
    endloop
  endfacet
  facet normal 0.997102 0.0760821 0
    outer loop
      vertex 8.55893 15.5347 5
      vertex 8.43905 17.1058 -2
      vertex 8.43905 17.1058 5
    endloop
  endfacet
  facet normal 0.997102 0.0760821 0
    outer loop
      vertex 8.43905 17.1058 -2
      vertex 8.55893 15.5347 5
      vertex 8.55893 15.5347 -2
    endloop
  endfacet
  facet normal 0.861228 0.508219 0
    outer loop
      vertex 7.02736 21.5955 5
      vertex 6.22658 22.9525 -2
      vertex 6.22658 22.9525 5
    endloop
  endfacet
  facet normal 0.861228 0.508219 0
    outer loop
      vertex 6.22658 22.9525 -2
      vertex 7.02736 21.5955 5
      vertex 7.02736 21.5955 -2
    endloop
  endfacet
  facet normal 0.723746 0.690066 0
    outer loop
      vertex 5.27634 24.2093 5
      vertex 4.18901 25.3497 -2
      vertex 4.18901 25.3497 5
    endloop
  endfacet
  facet normal 0.723746 0.690066 0
    outer loop
      vertex 4.18901 25.3497 -2
      vertex 5.27634 24.2093 5
      vertex 5.27634 24.2093 -2
    endloop
  endfacet
  facet normal 0.749481 -0.662025 0
    outer loop
      vertex 4.56585 5.56042 5
      vertex 5.60897 6.74134 -2
      vertex 5.60897 6.74134 5
    endloop
  endfacet
  facet normal 0.749481 -0.662025 0
    outer loop
      vertex 5.60897 6.74134 -2
      vertex 4.56585 5.56042 5
      vertex 4.56585 5.56042 -2
    endloop
  endfacet
  facet normal 0.879951 -0.475065 0
    outer loop
      vertex 6.51067 8.03347 5
      vertex 7.25921 9.41997 -2
      vertex 7.25921 9.41997 5
    endloop
  endfacet
  facet normal 0.879951 -0.475065 0
    outer loop
      vertex 7.25921 9.41997 -2
      vertex 6.51067 8.03347 5
      vertex 6.51067 8.03347 -2
    endloop
  endfacet
  facet normal -0.1799 -0.983685 0
    outer loop
      vertex -8.49204 1.86094 -2
      vertex -6.94209 1.57748 5
      vertex -8.49204 1.86094 5
    endloop
  endfacet
  facet normal -0.1799 -0.983685 -0
    outer loop
      vertex -6.94209 1.57748 5
      vertex -8.49204 1.86094 -2
      vertex -6.94209 1.57748 -2
    endloop
  endfacet
  facet normal 0.406732 -0.913547 0
    outer loop
      vertex 2.10298 -5.93864 -2.05
      vertex 3.0061 -5.53655 5
      vertex 2.10298 -5.93864 5
    endloop
  endfacet
  facet normal 0.406732 -0.913547 0
    outer loop
      vertex 3.0061 -5.53655 5
      vertex 2.10298 -5.93864 -2.05
      vertex 3.0061 -5.53655 -2.05
    endloop
  endfacet
  facet normal 0.358372 0.933579 -0
    outer loop
      vertex 2.71222 5.68629 -2.05
      vertex 1.7893 6.04057 -2
      vertex 2.71222 5.68629 -2
    endloop
  endfacet
  facet normal 0.358372 0.933579 0
    outer loop
      vertex 1.7893 6.04057 -2
      vertex 2.71222 5.68629 -2.05
      vertex 1.7893 6.04057 -2.05
    endloop
  endfacet
  facet normal 0.62932 0.777146 0
    outer loop
      vertex 4.33663 4.56986 5
      vertex 3.8781 4.94117 -2
      vertex 3.8781 4.94117 5
    endloop
  endfacet
  facet normal 0.62932 0.777146 -0
    outer loop
      vertex 4.33663 4.56986 -2.05
      vertex 3.8781 4.94117 -2
      vertex 4.33663 4.56986 5
    endloop
  endfacet
  facet normal 0.629325 0.777142 7.12231e-05
    outer loop
      vertex 3.56836 5.192 -2.05
      vertex 3.8781 4.94117 -2
      vertex 4.33663 4.56986 -2.05
    endloop
  endfacet
  facet normal 0.629332 0.777137 0
    outer loop
      vertex 3.8781 4.94117 -2
      vertex 3.56836 5.192 -2.05
      vertex 3.56836 5.192 -2
    endloop
  endfacet
  facet normal 0.104524 -0.994522 0
    outer loop
      vertex 0.164915 -6.29784 -2.05
      vertex 1.14808 -6.19451 5
      vertex 0.164915 -6.29784 5
    endloop
  endfacet
  facet normal 0.104524 -0.994522 0
    outer loop
      vertex 1.14808 -6.19451 5
      vertex 0.164915 -6.29784 -2.05
      vertex 1.14808 -6.19451 -2.05
    endloop
  endfacet
  facet normal 0.74314 0.669136 0
    outer loop
      vertex 4.99813 3.8352 5
      vertex 4.33663 4.56986 -2.05
      vertex 4.33663 4.56986 5
    endloop
  endfacet
  facet normal 0.74314 0.669136 0
    outer loop
      vertex 4.33663 4.56986 -2.05
      vertex 4.99813 3.8352 5
      vertex 4.99813 3.8352 -2.05
    endloop
  endfacet
  facet normal -0.358363 -0.933582 0
    outer loop
      vertex -2.71222 -5.68629 -2.05
      vertex -1.7893 -6.04056 5
      vertex -2.71222 -5.68629 5
    endloop
  endfacet
  facet normal -0.358363 -0.933582 -0
    outer loop
      vertex -1.7893 -6.04056 5
      vertex -2.71222 -5.68629 -2.05
      vertex -1.7893 -6.04056 -2.05
    endloop
  endfacet
  facet normal 0 0 -1
    outer loop
      vertex 6.2461 -0.822315 -2.05
      vertex 6.19451 1.14808 -2.05
      vertex 6.29784 0.164916 -2.05
    endloop
  endfacet
  facet normal 0 0 -1
    outer loop
      vertex 6.04056 -1.7893 -2.05
      vertex 6.19451 1.14808 -2.05
      vertex 6.2461 -0.822315 -2.05
    endloop
  endfacet
  facet normal 0 0 -1
    outer loop
      vertex 6.04056 -1.7893 -2.05
      vertex 5.93864 2.10298 -2.05
      vertex 6.19451 1.14808 -2.05
    endloop
  endfacet
  facet normal 0 0 -1
    outer loop
      vertex 5.68629 -2.71222 -2.05
      vertex 5.93864 2.10298 -2.05
      vertex 6.04056 -1.7893 -2.05
    endloop
  endfacet
  facet normal 0 0 -1
    outer loop
      vertex 5.68629 -2.71222 -2.05
      vertex 5.53655 3.0061 -2.05
      vertex 5.93864 2.10298 -2.05
    endloop
  endfacet
  facet normal 0 0 -1
    outer loop
      vertex 5.192 -3.56836 -2.05
      vertex 5.53655 3.0061 -2.05
      vertex 5.68629 -2.71222 -2.05
    endloop
  endfacet
  facet normal 0 0 -1
    outer loop
      vertex 5.192 -3.56836 -2.05
      vertex 4.99813 3.8352 -2.05
      vertex 5.53655 3.0061 -2.05
    endloop
  endfacet
  facet normal 0 0 -1
    outer loop
      vertex 4.56986 -4.33663 -2.05
      vertex 4.99813 3.8352 -2.05
      vertex 5.192 -3.56836 -2.05
    endloop
  endfacet
  facet normal 0 0 -1
    outer loop
      vertex 4.56986 -4.33663 -2.05
      vertex 4.33663 4.56986 -2.05
      vertex 4.99813 3.8352 -2.05
    endloop
  endfacet
  facet normal 0 0 -1
    outer loop
      vertex 3.8352 -4.99813 -2.05
      vertex 4.33663 4.56986 -2.05
      vertex 4.56986 -4.33663 -2.05
    endloop
  endfacet
  facet normal 0 0 -1
    outer loop
      vertex 3.8352 -4.99813 -2.05
      vertex 3.56836 5.192 -2.05
      vertex 4.33663 4.56986 -2.05
    endloop
  endfacet
  facet normal 0 0 -1
    outer loop
      vertex 3.0061 -5.53655 -2.05
      vertex 3.56836 5.192 -2.05
      vertex 3.8352 -4.99813 -2.05
    endloop
  endfacet
  facet normal 0 0 -1
    outer loop
      vertex 3.0061 -5.53655 -2.05
      vertex 2.71222 5.68629 -2.05
      vertex 3.56836 5.192 -2.05
    endloop
  endfacet
  facet normal 0 0 -1
    outer loop
      vertex 2.10298 -5.93864 -2.05
      vertex 2.71222 5.68629 -2.05
      vertex 3.0061 -5.53655 -2.05
    endloop
  endfacet
  facet normal 0 0 -1
    outer loop
      vertex 2.10298 -5.93864 -2.05
      vertex 1.7893 6.04057 -2.05
      vertex 2.71222 5.68629 -2.05
    endloop
  endfacet
  facet normal 0 0 -1
    outer loop
      vertex 1.14808 -6.19451 -2.05
      vertex 1.7893 6.04057 -2.05
      vertex 2.10298 -5.93864 -2.05
    endloop
  endfacet
  facet normal 0 0 -1
    outer loop
      vertex 1.14808 -6.19451 -2.05
      vertex 0.822315 6.2461 -2.05
      vertex 1.7893 6.04057 -2.05
    endloop
  endfacet
  facet normal 0 0 -1
    outer loop
      vertex 0.164915 -6.29784 -2.05
      vertex 0.822315 6.2461 -2.05
      vertex 1.14808 -6.19451 -2.05
    endloop
  endfacet
  facet normal 0 0 -1
    outer loop
      vertex 0.164915 -6.29784 -2.05
      vertex -0.164915 6.29784 -2.05
      vertex 0.822315 6.2461 -2.05
    endloop
  endfacet
  facet normal 0 0 -1
    outer loop
      vertex -0.822315 -6.2461 -2.05
      vertex -0.164915 6.29784 -2.05
      vertex 0.164915 -6.29784 -2.05
    endloop
  endfacet
  facet normal 0 0 -1
    outer loop
      vertex -0.822315 -6.2461 -2.05
      vertex -1.14808 6.19451 -2.05
      vertex -0.164915 6.29784 -2.05
    endloop
  endfacet
  facet normal 0 0 -1
    outer loop
      vertex -1.7893 -6.04056 -2.05
      vertex -1.14808 6.19451 -2.05
      vertex -0.822315 -6.2461 -2.05
    endloop
  endfacet
  facet normal 0 0 -1
    outer loop
      vertex -1.7893 -6.04056 -2.05
      vertex -2.10298 5.93864 -2.05
      vertex -1.14808 6.19451 -2.05
    endloop
  endfacet
  facet normal 0 0 -1
    outer loop
      vertex -2.71222 -5.68629 -2.05
      vertex -2.10298 5.93864 -2.05
      vertex -1.7893 -6.04056 -2.05
    endloop
  endfacet
  facet normal 0 0 -1
    outer loop
      vertex -2.71222 -5.68629 -2.05
      vertex -3.0061 5.53655 -2.05
      vertex -2.10298 5.93864 -2.05
    endloop
  endfacet
  facet normal 0 0 -1
    outer loop
      vertex -3.56836 -5.19199 -2.05
      vertex -3.0061 5.53655 -2.05
      vertex -2.71222 -5.68629 -2.05
    endloop
  endfacet
  facet normal 0 0 -1
    outer loop
      vertex -3.56836 -5.19199 -2.05
      vertex -3.8352 4.99813 -2.05
      vertex -3.0061 5.53655 -2.05
    endloop
  endfacet
  facet normal 0 0 -1
    outer loop
      vertex -4.33663 -4.56986 -2.05
      vertex -3.8352 4.99813 -2.05
      vertex -3.56836 -5.19199 -2.05
    endloop
  endfacet
  facet normal 0 0 -1
    outer loop
      vertex -4.33663 -4.56986 -2.05
      vertex -4.56986 4.33663 -2.05
      vertex -3.8352 4.99813 -2.05
    endloop
  endfacet
  facet normal 0 0 -1
    outer loop
      vertex -4.99813 -3.8352 -2.05
      vertex -4.56986 4.33663 -2.05
      vertex -4.33663 -4.56986 -2.05
    endloop
  endfacet
  facet normal 0 0 -1
    outer loop
      vertex -4.99813 -3.8352 -2.05
      vertex -5.192 3.56836 -2.05
      vertex -4.56986 4.33663 -2.05
    endloop
  endfacet
  facet normal 0 0 -1
    outer loop
      vertex -5.53655 -3.0061 -2.05
      vertex -5.192 3.56836 -2.05
      vertex -4.99813 -3.8352 -2.05
    endloop
  endfacet
  facet normal 0 0 -1
    outer loop
      vertex -5.53655 -3.0061 -2.05
      vertex -5.68629 2.71222 -2.05
      vertex -5.192 3.56836 -2.05
    endloop
  endfacet
  facet normal 0 0 -1
    outer loop
      vertex -5.93864 -2.10298 -2.05
      vertex -5.68629 2.71222 -2.05
      vertex -5.53655 -3.0061 -2.05
    endloop
  endfacet
  facet normal 0 0 -1
    outer loop
      vertex -5.93864 -2.10298 -2.05
      vertex -6.04056 1.7893 -2.05
      vertex -5.68629 2.71222 -2.05
    endloop
  endfacet
  facet normal 0 0 -1
    outer loop
      vertex -6.19451 -1.14808 -2.05
      vertex -6.04056 1.7893 -2.05
      vertex -5.93864 -2.10298 -2.05
    endloop
  endfacet
  facet normal 0 0 -1
    outer loop
      vertex -6.19451 -1.14808 -2.05
      vertex -6.2461 0.822316 -2.05
      vertex -6.04056 1.7893 -2.05
    endloop
  endfacet
  facet normal 0 -0 -1
    outer loop
      vertex -6.2461 0.822316 -2.05
      vertex -6.19451 -1.14808 -2.05
      vertex -6.29784 -0.164914 -2.05
    endloop
  endfacet
  facet normal 0.207903 0.978149 -0
    outer loop
      vertex 1.7893 6.04057 -2.05
      vertex 0.822315 6.2461 -2
      vertex 1.7893 6.04057 -2
    endloop
  endfacet
  facet normal 0.207903 0.978149 0
    outer loop
      vertex 0.822315 6.2461 -2
      vertex 1.7893 6.04057 -2.05
      vertex 0.822315 6.2461 -2.05
    endloop
  endfacet
  facet normal -0.777142 0.629325 0
    outer loop
      vertex -5.192 3.56836 -2.05
      vertex -4.56986 4.33663 -2
      vertex -4.56986 4.33663 -2.05
    endloop
  endfacet
  facet normal -0.777142 0.629325 0
    outer loop
      vertex -4.56986 4.33663 -2
      vertex -5.192 3.56836 -2.05
      vertex -5.192 3.56836 -2
    endloop
  endfacet
  facet normal -0.500006 -0.866022 0
    outer loop
      vertex -3.56836 -5.19199 -2.05
      vertex -2.71222 -5.68629 5
      vertex -3.56836 -5.19199 5
    endloop
  endfacet
  facet normal -0.500006 -0.866022 -0
    outer loop
      vertex -2.71222 -5.68629 5
      vertex -3.56836 -5.19199 -2.05
      vertex -2.71222 -5.68629 -2.05
    endloop
  endfacet
  facet normal -0.629319 -0.777147 0
    outer loop
      vertex -4.33663 -4.56986 -2.05
      vertex -3.56836 -5.19199 5
      vertex -4.33663 -4.56986 5
    endloop
  endfacet
  facet normal -0.629319 -0.777147 -0
    outer loop
      vertex -3.56836 -5.19199 5
      vertex -4.33663 -4.56986 -2.05
      vertex -3.56836 -5.19199 -2.05
    endloop
  endfacet
  facet normal -0.74314 -0.669136 0
    outer loop
      vertex -4.33663 -4.56986 -2.05
      vertex -4.99813 -3.8352 5
      vertex -4.99813 -3.8352 -2.05
    endloop
  endfacet
  facet normal -0.74314 -0.669136 0
    outer loop
      vertex -4.99813 -3.8352 5
      vertex -4.33663 -4.56986 -2.05
      vertex -4.33663 -4.56986 5
    endloop
  endfacet
  facet normal 0.777142 -0.629325 0
    outer loop
      vertex 4.56986 -4.33663 5
      vertex 5.192 -3.56836 -2.05
      vertex 5.192 -3.56836 5
    endloop
  endfacet
  facet normal 0.777142 -0.629325 0
    outer loop
      vertex 5.192 -3.56836 -2.05
      vertex 4.56986 -4.33663 5
      vertex 4.56986 -4.33663 -2.05
    endloop
  endfacet
  facet normal 0.866027 -0.499998 0
    outer loop
      vertex 5.192 -3.56836 5
      vertex 5.68629 -2.71222 -2.05
      vertex 5.68629 -2.71222 5
    endloop
  endfacet
  facet normal 0.866027 -0.499998 0
    outer loop
      vertex 5.68629 -2.71222 -2.05
      vertex 5.192 -3.56836 5
      vertex 5.192 -3.56836 -2.05
    endloop
  endfacet
  facet normal 0.499998 0.866027 -0
    outer loop
      vertex 3.56836 5.192 -2.05
      vertex 2.71222 5.68629 -2
      vertex 3.56836 5.192 -2
    endloop
  endfacet
  facet normal 0.499998 0.866027 0
    outer loop
      vertex 2.71222 5.68629 -2
      vertex 3.56836 5.192 -2.05
      vertex 2.71222 5.68629 -2.05
    endloop
  endfacet
  facet normal 0.913547 0.406732 0
    outer loop
      vertex 5.93864 2.10298 5
      vertex 5.53655 3.0061 -2.05
      vertex 5.53655 3.0061 5
    endloop
  endfacet
  facet normal 0.913547 0.406732 0
    outer loop
      vertex 5.53655 3.0061 -2.05
      vertex 5.93864 2.10298 5
      vertex 5.93864 2.10298 -2.05
    endloop
  endfacet
  facet normal 0.933582 -0.358363 0
    outer loop
      vertex 5.68629 -2.71222 5
      vertex 6.04056 -1.7893 -2.05
      vertex 6.04056 -1.7893 5
    endloop
  endfacet
  facet normal 0.933582 -0.358363 0
    outer loop
      vertex 6.04056 -1.7893 -2.05
      vertex 5.68629 -2.71222 5
      vertex 5.68629 -2.71222 -2.05
    endloop
  endfacet
  facet normal -0.207913 -0.978147 0
    outer loop
      vertex -1.7893 -6.04056 -2.05
      vertex -0.822315 -6.2461 5
      vertex -1.7893 -6.04056 5
    endloop
  endfacet
  facet normal -0.207913 -0.978147 -0
    outer loop
      vertex -0.822315 -6.2461 5
      vertex -1.7893 -6.04056 -2.05
      vertex -0.822315 -6.2461 -2.05
    endloop
  endfacet
  facet normal -0.0523374 -0.998629 0
    outer loop
      vertex -0.822315 -6.2461 -2.05
      vertex 0.164915 -6.29784 5
      vertex -0.822315 -6.2461 5
    endloop
  endfacet
  facet normal -0.0523374 -0.998629 -0
    outer loop
      vertex 0.164915 -6.29784 5
      vertex -0.822315 -6.2461 -2.05
      vertex 0.164915 -6.29784 -2.05
    endloop
  endfacet
  facet normal -0.258824 0.965924 0
    outer loop
      vertex -1.14808 6.19451 0
      vertex -2.10298 5.93864 5
      vertex -1.14808 6.19451 5
    endloop
  endfacet
  facet normal -0.258824 0.965924 0
    outer loop
      vertex -2.10298 5.93864 5
      vertex -1.14808 6.19451 0
      vertex -2.10298 5.93864 0
    endloop
  endfacet
  facet normal -0.258824 0.965924 0
    outer loop
      vertex -1.14808 6.19451 -2.05
      vertex -2.10298 5.93864 -2
      vertex -1.14808 6.19451 -2
    endloop
  endfacet
  facet normal -0.258824 0.965924 0
    outer loop
      vertex -2.10298 5.93864 -2
      vertex -1.14808 6.19451 -2.05
      vertex -2.10298 5.93864 -2.05
    endloop
  endfacet
  facet normal -0.104524 0.994522 0
    outer loop
      vertex -0.164915 6.29784 0
      vertex -1.14808 6.19451 5
      vertex -0.164915 6.29784 5
    endloop
  endfacet
  facet normal -0.104524 0.994522 0
    outer loop
      vertex -1.14808 6.19451 5
      vertex -0.164915 6.29784 0
      vertex -1.14808 6.19451 0
    endloop
  endfacet
  facet normal -0.104524 0.994522 0
    outer loop
      vertex -0.164915 6.29784 -2.05
      vertex -1.14808 6.19451 -2
      vertex -0.164915 6.29784 -2
    endloop
  endfacet
  facet normal -0.104524 0.994522 0
    outer loop
      vertex -1.14808 6.19451 -2
      vertex -0.164915 6.29784 -2.05
      vertex -1.14808 6.19451 -2.05
    endloop
  endfacet
  facet normal -0.406732 0.913547 0
    outer loop
      vertex -2.10298 5.93864 0
      vertex -3.0061 5.53655 5
      vertex -2.10298 5.93864 5
    endloop
  endfacet
  facet normal -0.406732 0.913547 0
    outer loop
      vertex -3.0061 5.53655 5
      vertex -2.10298 5.93864 0
      vertex -3.0061 5.53655 0
    endloop
  endfacet
  facet normal -0.406732 0.913547 0
    outer loop
      vertex -2.10298 5.93864 -2.05
      vertex -3.0061 5.53655 -2
      vertex -2.10298 5.93864 -2
    endloop
  endfacet
  facet normal -0.406732 0.913547 0
    outer loop
      vertex -3.0061 5.53655 -2
      vertex -2.10298 5.93864 -2.05
      vertex -3.0061 5.53655 -2.05
    endloop
  endfacet
  facet normal -0.866027 0.499998 0
    outer loop
      vertex -5.68629 2.71222 -2.05
      vertex -5.192 3.56836 -2
      vertex -5.192 3.56836 -2.05
    endloop
  endfacet
  facet normal -0.866027 0.499998 0
    outer loop
      vertex -5.192 3.56836 -2
      vertex -5.68629 2.71222 -2.05
      vertex -5.68629 2.71222 -2
    endloop
  endfacet
  facet normal -0.913547 -0.406732 0
    outer loop
      vertex -5.53655 -3.0061 -2.05
      vertex -5.93864 -2.10298 5
      vertex -5.93864 -2.10298 -2.05
    endloop
  endfacet
  facet normal -0.913547 -0.406732 0
    outer loop
      vertex -5.93864 -2.10298 5
      vertex -5.53655 -3.0061 -2.05
      vertex -5.53655 -3.0061 5
    endloop
  endfacet
  facet normal 0.258824 -0.965924 0
    outer loop
      vertex 1.14808 -6.19451 -2.05
      vertex 2.10298 -5.93864 5
      vertex 1.14808 -6.19451 5
    endloop
  endfacet
  facet normal 0.258824 -0.965924 0
    outer loop
      vertex 2.10298 -5.93864 5
      vertex 1.14808 -6.19451 -2.05
      vertex 2.10298 -5.93864 -2.05
    endloop
  endfacet
  facet normal 0.669136 -0.74314 0
    outer loop
      vertex 3.8352 -4.99813 -2.05
      vertex 4.56986 -4.33663 5
      vertex 3.8352 -4.99813 5
    endloop
  endfacet
  facet normal 0.669136 -0.74314 0
    outer loop
      vertex 4.56986 -4.33663 5
      vertex 3.8352 -4.99813 -2.05
      vertex 4.56986 -4.33663 -2.05
    endloop
  endfacet
  facet normal 0.838672 0.544636 0
    outer loop
      vertex 5.53655 3.0061 5
      vertex 4.99813 3.8352 -2.05
      vertex 4.99813 3.8352 5
    endloop
  endfacet
  facet normal 0.838672 0.544636 0
    outer loop
      vertex 4.99813 3.8352 -2.05
      vertex 5.53655 3.0061 5
      vertex 5.53655 3.0061 -2.05
    endloop
  endfacet
  facet normal 0.978147 -0.207913 0
    outer loop
      vertex 6.04056 -1.7893 5
      vertex 6.2461 -0.822315 -2.05
      vertex 6.2461 -0.822315 5
    endloop
  endfacet
  facet normal 0.978147 -0.207913 0
    outer loop
      vertex 6.2461 -0.822315 -2.05
      vertex 6.04056 -1.7893 5
      vertex 6.04056 -1.7893 -2.05
    endloop
  endfacet
  facet normal 0.965924 0.258824 0
    outer loop
      vertex 6.19451 1.14808 5
      vertex 5.93864 2.10298 -2.05
      vertex 5.93864 2.10298 5
    endloop
  endfacet
  facet normal 0.965924 0.258824 0
    outer loop
      vertex 5.93864 2.10298 -2.05
      vertex 6.19451 1.14808 5
      vertex 6.19451 1.14808 -2.05
    endloop
  endfacet
  facet normal 0.998629 -0.0523374 0
    outer loop
      vertex 6.2461 -0.822315 5
      vertex 6.29784 0.164916 -2.05
      vertex 6.29784 0.164916 5
    endloop
  endfacet
  facet normal 0.998629 -0.0523374 0
    outer loop
      vertex 6.29784 0.164916 -2.05
      vertex 6.2461 -0.822315 5
      vertex 6.2461 -0.822315 -2.05
    endloop
  endfacet
  facet normal -0.669136 0.74314 0
    outer loop
      vertex -3.8352 4.99813 -2.05
      vertex -4.56986 4.33663 -2
      vertex -3.8352 4.99813 -2
    endloop
  endfacet
  facet normal -0.669136 0.74314 0
    outer loop
      vertex -4.56986 4.33663 -2
      vertex -3.8352 4.99813 -2.05
      vertex -4.56986 4.33663 -2.05
    endloop
  endfacet
  facet normal -0.669138 0.743138 0
    outer loop
      vertex -3.8352 4.99813 0
      vertex -3.98935 4.85933 5
      vertex -3.8352 4.99813 5
    endloop
  endfacet
  facet normal -0.669138 0.743138 0
    outer loop
      vertex -3.98935 4.85933 5
      vertex -3.8352 4.99813 0
      vertex -3.98935 4.85933 0
    endloop
  endfacet
  facet normal 0.0523232 0.99863 -0
    outer loop
      vertex 0.109539 6.28346 0
      vertex -0.164915 6.29784 5
      vertex 0.109539 6.28346 5
    endloop
  endfacet
  facet normal 0.0523232 0.99863 0
    outer loop
      vertex -0.164915 6.29784 5
      vertex 0.109539 6.28346 0
      vertex -0.164915 6.29784 0
    endloop
  endfacet
  facet normal 0.0523374 0.998629 -0
    outer loop
      vertex 0.822315 6.2461 -2.05
      vertex -0.164915 6.29784 -2
      vertex 0.822315 6.2461 -2
    endloop
  endfacet
  facet normal 0.0523374 0.998629 0
    outer loop
      vertex -0.164915 6.29784 -2
      vertex 0.822315 6.2461 -2.05
      vertex -0.164915 6.29784 -2.05
    endloop
  endfacet
  facet normal -0.978143 0.207935 0
    outer loop
      vertex -6.04056 1.7893 -2.05
      vertex -6.09757 1.52112 -2
      vertex -6.04056 1.7893 -2
    endloop
  endfacet
  facet normal -0.978147 0.207913 -0.000122208
    outer loop
      vertex -6.2461 0.822316 -2.05
      vertex -6.09757 1.52112 -2
      vertex -6.04056 1.7893 -2.05
    endloop
  endfacet
  facet normal -0.978149 0.207904 0
    outer loop
      vertex -6.2461 0.822316 5
      vertex -6.09757 1.52112 -2
      vertex -6.2461 0.822316 -2.05
    endloop
  endfacet
  facet normal -0.978149 0.207904 0
    outer loop
      vertex -6.09757 1.52112 -2
      vertex -6.2461 0.822316 5
      vertex -6.09757 1.52112 5
    endloop
  endfacet
  facet normal -0.965924 -0.258824 0
    outer loop
      vertex -5.93864 -2.10298 -2.05
      vertex -6.19451 -1.14808 5
      vertex -6.19451 -1.14808 -2.05
    endloop
  endfacet
  facet normal -0.965924 -0.258824 0
    outer loop
      vertex -6.19451 -1.14808 5
      vertex -5.93864 -2.10298 -2.05
      vertex -5.93864 -2.10298 5
    endloop
  endfacet
  facet normal -0.838672 -0.544636 0
    outer loop
      vertex -4.99813 -3.8352 -2.05
      vertex -5.53655 -3.0061 5
      vertex -5.53655 -3.0061 -2.05
    endloop
  endfacet
  facet normal -0.838672 -0.544636 0
    outer loop
      vertex -5.53655 -3.0061 5
      vertex -4.99813 -3.8352 -2.05
      vertex -4.99813 -3.8352 5
    endloop
  endfacet
  facet normal 0.544636 -0.838672 0
    outer loop
      vertex 3.0061 -5.53655 -2.05
      vertex 3.8352 -4.99813 5
      vertex 3.0061 -5.53655 5
    endloop
  endfacet
  facet normal 0.544636 -0.838672 0
    outer loop
      vertex 3.8352 -4.99813 5
      vertex 3.0061 -5.53655 -2.05
      vertex 3.8352 -4.99813 -2.05
    endloop
  endfacet
  facet normal 0.994522 0.104524 0
    outer loop
      vertex 6.29784 0.164916 5
      vertex 6.19451 1.14808 -2.05
      vertex 6.19451 1.14808 5
    endloop
  endfacet
  facet normal 0.994522 0.104524 0
    outer loop
      vertex 6.19451 1.14808 -2.05
      vertex 6.29784 0.164916 5
      vertex 6.29784 0.164916 -2.05
    endloop
  endfacet
  facet normal -0.544636 0.838672 0
    outer loop
      vertex -3.0061 5.53655 0
      vertex -3.8352 4.99813 5
      vertex -3.0061 5.53655 5
    endloop
  endfacet
  facet normal -0.544636 0.838672 0
    outer loop
      vertex -3.8352 4.99813 5
      vertex -3.0061 5.53655 0
      vertex -3.8352 4.99813 0
    endloop
  endfacet
  facet normal -0.544636 0.838672 0
    outer loop
      vertex -3.0061 5.53655 -2.05
      vertex -3.8352 4.99813 -2
      vertex -3.0061 5.53655 -2
    endloop
  endfacet
  facet normal -0.544636 0.838672 0
    outer loop
      vertex -3.8352 4.99813 -2
      vertex -3.0061 5.53655 -2.05
      vertex -3.8352 4.99813 -2.05
    endloop
  endfacet
  facet normal -0.933582 0.358363 0
    outer loop
      vertex -6.04056 1.7893 -2.05
      vertex -5.68629 2.71222 -2
      vertex -5.68629 2.71222 -2.05
    endloop
  endfacet
  facet normal -0.933582 0.358363 0
    outer loop
      vertex -5.68629 2.71222 -2
      vertex -6.04056 1.7893 -2.05
      vertex -6.04056 1.7893 -2
    endloop
  endfacet
  facet normal -0.994522 -0.104524 0
    outer loop
      vertex -6.19451 -1.14808 -2.05
      vertex -6.29784 -0.164914 5
      vertex -6.29784 -0.164914 -2.05
    endloop
  endfacet
  facet normal -0.994522 -0.104524 0
    outer loop
      vertex -6.29784 -0.164914 5
      vertex -6.19451 -1.14808 -2.05
      vertex -6.19451 -1.14808 5
    endloop
  endfacet
  facet normal -0.998629 0.0523374 0
    outer loop
      vertex -6.29784 -0.164914 -2.05
      vertex -6.2461 0.822316 5
      vertex -6.2461 0.822316 -2.05
    endloop
  endfacet
  facet normal -0.998629 0.0523374 0
    outer loop
      vertex -6.2461 0.822316 5
      vertex -6.29784 -0.164914 -2.05
      vertex -6.29784 -0.164914 5
    endloop
  endfacet
  facet normal 0 0 1
    outer loop
      vertex -6.02323 4.8013 5
      vertex -6.94209 1.57748 5
      vertex -6.09757 1.52112 5
    endloop
  endfacet
  facet normal 0 0 1
    outer loop
      vertex -7.88023 5.10967 5
      vertex -6.94209 1.57748 5
      vertex -6.02323 4.8013 5
    endloop
  endfacet
  facet normal 0 0 1
    outer loop
      vertex -7.88023 5.10967 5
      vertex -8.49204 1.86094 5
      vertex -6.94209 1.57748 5
    endloop
  endfacet
  facet normal 0 0 1
    outer loop
      vertex -9.99957 2.31922 5
      vertex -7.88023 5.10967 5
      vertex -9.65232 5.74467 5
    endloop
  endfacet
  facet normal 0 0 1
    outer loop
      vertex -7.88023 5.10967 5
      vertex -9.99957 2.31922 5
      vertex -8.49204 1.86094 5
    endloop
  endfacet
  facet normal 0 0 1
    outer loop
      vertex -11.445 2.94636 5
      vertex -9.65232 5.74467 5
      vertex -11.2825 6.68588 5
    endloop
  endfacet
  facet normal 0 0 1
    outer loop
      vertex -9.65232 5.74467 5
      vertex -11.445 2.94636 5
      vertex -9.99957 2.31922 5
    endloop
  endfacet
  facet normal 0 0 1
    outer loop
      vertex -14.0754 4.67243 5
      vertex -11.2825 6.68588 5
      vertex -12.7185 7.90306 5
    endloop
  endfacet
  facet normal 0 0 1
    outer loop
      vertex -11.2825 6.68588 5
      vertex -12.8096 3.73419 5
      vertex -11.445 2.94636 5
    endloop
  endfacet
  facet normal 0 0 1
    outer loop
      vertex -16.2465 6.94941 5
      vertex -12.7185 7.90306 5
      vertex -13.9141 9.35707 5
    endloop
  endfacet
  facet normal 0 0 1
    outer loop
      vertex -11.2825 6.68588 5
      vertex -14.0754 4.67243 5
      vertex -12.8096 3.73419 5
    endloop
  endfacet
  facet normal 0 0 1
    outer loop
      vertex -17.1235 8.25848 5
      vertex -13.9141 9.35707 5
      vertex -14.8308 11.0012 5
    endloop
  endfacet
  facet normal 0 0 1
    outer loop
      vertex -12.7185 7.90306 5
      vertex -15.2261 5.74885 5
      vertex -14.0754 4.67243 5
    endloop
  endfacet
  facet normal -0 0 1
    outer loop
      vertex -18.4031 11.1326 5
      vertex -14.8308 11.0012 5
      vertex -15.4392 12.7826 5
    endloop
  endfacet
  facet normal 0 0 1
    outer loop
      vertex -18.7892 12.6603 5
      vertex -15.4392 12.7826 5
      vertex -15.7198 14.644 5
    endloop
  endfacet
  facet normal 0 0 1
    outer loop
      vertex -12.7185 7.90306 5
      vertex -16.2465 6.94941 5
      vertex -15.2261 5.74885 5
    endloop
  endfacet
  facet normal 0 0 1
    outer loop
      vertex 8.55893 15.5347 5
      vertex 5.14416 16.8369 5
      vertex 5.25674 14.9578 5
    endloop
  endfacet
  facet normal 0 0 1
    outer loop
      vertex 6.22658 22.9525 5
      vertex 4.69787 18.6656 5
      vertex 5.14416 16.8369 5
    endloop
  endfacet
  facet normal 0 0 1
    outer loop
      vertex 2.87181 21.9407 5
      vertex 5.27634 24.2093 5
      vertex 4.18901 25.3497 5
    endloop
  endfacet
  facet normal 0 0 1
    outer loop
      vertex 6.22658 22.9525 5
      vertex 3.93222 20.3853 5
      vertex 4.69787 18.6656 5
    endloop
  endfacet
  facet normal 0 0 1
    outer loop
      vertex 1.55073 23.2816 5
      vertex 4.18901 25.3497 5
      vertex 2.97879 26.3586 5
    endloop
  endfacet
  facet normal 0 0 1
    outer loop
      vertex 6.22658 22.9525 5
      vertex 2.87181 21.9407 5
      vertex 3.93222 20.3853 5
    endloop
  endfacet
  facet normal 0 0 1
    outer loop
      vertex 0.0114356 24.3652 5
      vertex 2.97879 26.3586 5
      vertex 1.66144 27.2231 5
    endloop
  endfacet
  facet normal 0 0 1
    outer loop
      vertex 4.18901 25.3497 5
      vertex 1.55073 23.2816 5
      vertex 2.87181 21.9407 5
    endloop
  endfacet
  facet normal 0 0 1
    outer loop
      vertex 0.0114356 24.3652 5
      vertex 1.66144 27.2231 5
      vertex 0.254131 27.9317 5
    endloop
  endfacet
  facet normal 0 0 1
    outer loop
      vertex 2.97879 26.3586 5
      vertex 0.0114356 24.3652 5
      vertex 1.55073 23.2816 5
    endloop
  endfacet
  facet normal 0 0 1
    outer loop
      vertex -1.6966 25.1565 5
      vertex 0.254131 27.9317 5
      vertex -1.22478 28.4753 5
    endloop
  endfacet
  facet normal 0 0 1
    outer loop
      vertex 0.254131 27.9317 5
      vertex -1.6966 25.1565 5
      vertex 0.0114356 24.3652 5
    endloop
  endfacet
  facet normal 0 0 1
    outer loop
      vertex -3.51848 25.6301 5
      vertex -1.22478 28.4753 5
      vertex -2.75601 28.8468 5
    endloop
  endfacet
  facet normal 0 0 1
    outer loop
      vertex -1.22478 28.4753 5
      vertex -3.51848 25.6301 5
      vertex -1.6966 25.1565 5
    endloop
  endfacet
  facet normal 0 0 1
    outer loop
      vertex -4.31961 29.0413 5
      vertex -3.51848 25.6301 5
      vertex -2.75601 28.8468 5
    endloop
  endfacet
  facet normal 0 0 1
    outer loop
      vertex -4.31961 29.0413 5
      vertex -5.39564 25.7708 5
      vertex -3.51848 25.6301 5
    endloop
  endfacet
  facet normal 0 0 1
    outer loop
      vertex -5.89519 29.0563 5
      vertex -5.39564 25.7708 5
      vertex -4.31961 29.0413 5
    endloop
  endfacet
  facet normal 0 0 1
    outer loop
      vertex -5.89519 29.0563 5
      vertex -7.26775 25.574 5
      vertex -5.39564 25.7708 5
    endloop
  endfacet
  facet normal -0 0 1
    outer loop
      vertex -7.46221 28.8916 5
      vertex -7.26775 25.574 5
      vertex -5.89519 29.0563 5
    endloop
  endfacet
  facet normal -0 0 1
    outer loop
      vertex -9.00025 28.5494 5
      vertex -7.26775 25.574 5
      vertex -7.46221 28.8916 5
    endloop
  endfacet
  facet normal 0 0 1
    outer loop
      vertex -9.00025 28.5494 5
      vertex -9.07465 25.0461 5
      vertex -7.26775 25.574 5
    endloop
  endfacet
  facet normal -0 0 1
    outer loop
      vertex -10.4892 28.034 5
      vertex -9.07465 25.0461 5
      vertex -9.00025 28.5494 5
    endloop
  endfacet
  facet normal -0 0 1
    outer loop
      vertex -11.9098 27.3523 5
      vertex -9.07465 25.0461 5
      vertex -10.4892 28.034 5
    endloop
  endfacet
  facet normal 0 0 1
    outer loop
      vertex -9.07465 25.0461 5
      vertex -11.9098 27.3523 5
      vertex -10.7582 24.2041 5
    endloop
  endfacet
  facet normal -0 0 1
    outer loop
      vertex -13.2434 26.5131 5
      vertex -10.7582 24.2041 5
      vertex -11.9098 27.3523 5
    endloop
  endfacet
  facet normal 0 0 1
    outer loop
      vertex -10.7582 24.2041 5
      vertex -13.2434 26.5131 5
      vertex -12.2644 23.075 5
    endloop
  endfacet
  facet normal -0 0 1
    outer loop
      vertex -14.4726 25.5273 5
      vertex -12.2644 23.075 5
      vertex -13.2434 26.5131 5
    endloop
  endfacet
  facet normal -0 0 1
    outer loop
      vertex -15.5814 24.4079 5
      vertex -12.2644 23.075 5
      vertex -14.4726 25.5273 5
    endloop
  endfacet
  facet normal 0 0 1
    outer loop
      vertex -12.2644 23.075 5
      vertex -15.5814 24.4079 5
      vertex -13.5448 21.695 5
    endloop
  endfacet
  facet normal -0 0 1
    outer loop
      vertex -16.5554 23.1693 5
      vertex -13.5448 21.695 5
      vertex -15.5814 24.4079 5
    endloop
  endfacet
  facet normal 0 0 1
    outer loop
      vertex -13.5448 21.695 5
      vertex -16.5554 23.1693 5
      vertex -14.5582 20.1087 5
    endloop
  endfacet
  facet normal -0 0 1
    outer loop
      vertex -17.3819 21.8278 5
      vertex -14.5582 20.1087 5
      vertex -16.5554 23.1693 5
    endloop
  endfacet
  facet normal -0 0 1
    outer loop
      vertex -18.05 20.4009 5
      vertex -14.5582 20.1087 5
      vertex -17.3819 21.8278 5
    endloop
  endfacet
  facet normal 0 0 1
    outer loop
      vertex -14.5582 20.1087 5
      vertex -18.05 20.4009 5
      vertex -15.2721 18.3669 5
    endloop
  endfacet
  facet normal -0 0 1
    outer loop
      vertex -18.5512 18.907 5
      vertex -15.2721 18.3669 5
      vertex -18.05 20.4009 5
    endloop
  endfacet
  facet normal 0 0 1
    outer loop
      vertex -13.9141 9.35707 5
      vertex -17.1235 8.25848 5
      vertex -16.2465 6.94941 5
    endloop
  endfacet
  facet normal 0 0 1
    outer loop
      vertex -15.2721 18.3669 5
      vertex -18.5512 18.907 5
      vertex -15.6635 16.5256 5
    endloop
  endfacet
  facet normal 0 0 1
    outer loop
      vertex -14.8308 11.0012 5
      vertex -17.8455 9.65897 5
      vertex -17.1235 8.25848 5
    endloop
  endfacet
  facet normal -0 0 1
    outer loop
      vertex -18.8788 17.3658 5
      vertex -15.6635 16.5256 5
      vertex -18.5512 18.907 5
    endloop
  endfacet
  facet normal 0 0 1
    outer loop
      vertex -14.8308 11.0012 5
      vertex -18.4031 11.1326 5
      vertex -17.8455 9.65897 5
    endloop
  endfacet
  facet normal 0 0 1
    outer loop
      vertex -19.0286 15.7973 5
      vertex -15.6635 16.5256 5
      vertex -18.8788 17.3658 5
    endloop
  endfacet
  facet normal 0 0 1
    outer loop
      vertex -15.4392 12.7826 5
      vertex -18.7892 12.6603 5
      vertex -18.4031 11.1326 5
    endloop
  endfacet
  facet normal 0 0 1
    outer loop
      vertex -15.6635 16.5256 5
      vertex -19.0286 15.7973 5
      vertex -15.7198 14.644 5
    endloop
  endfacet
  facet normal 0 0 1
    outer loop
      vertex -15.7198 14.644 5
      vertex -18.9986 14.2219 5
      vertex -18.7892 12.6603 5
    endloop
  endfacet
  facet normal 0 0 1
    outer loop
      vertex -15.7198 14.644 5
      vertex -19.0286 15.7973 5
      vertex -18.9986 14.2219 5
    endloop
  endfacet
  facet normal -0 0 1
    outer loop
      vertex 5.14416 16.8369 5
      vertex 8.55893 15.5347 5
      vertex 8.43905 17.1058 5
    endloop
  endfacet
  facet normal 0 0 1
    outer loop
      vertex 8.55893 15.5347 5
      vertex 5.25674 14.9578 5
      vertex 8.49895 13.9602 5
    endloop
  endfacet
  facet normal 0 0 1
    outer loop
      vertex 5.14416 16.8369 5
      vertex 8.43905 17.1058 5
      vertex 8.14085 18.6529 5
    endloop
  endfacet
  facet normal 0 0 1
    outer loop
      vertex 5.03198 13.0889 5
      vertex 8.49895 13.9602 5
      vertex 5.25674 14.9578 5
    endloop
  endfacet
  facet normal 0 0 1
    outer loop
      vertex 5.14416 16.8369 5
      vertex 8.14085 18.6529 5
      vertex 7.66824 20.156 5
    endloop
  endfacet
  facet normal 0 0 1
    outer loop
      vertex 8.49895 13.9602 5
      vertex 5.03198 13.0889 5
      vertex 8.25987 12.4028 5
    endloop
  endfacet
  facet normal 0 0 1
    outer loop
      vertex 5.14416 16.8369 5
      vertex 7.66824 20.156 5
      vertex 7.02736 21.5955 5
    endloop
  endfacet
  facet normal 0 0 1
    outer loop
      vertex 8.25987 12.4028 5
      vertex 5.03198 13.0889 5
      vertex 7.84482 10.8828 5
    endloop
  endfacet
  facet normal 0 0 1
    outer loop
      vertex 5.14416 16.8369 5
      vertex 7.02736 21.5955 5
      vertex 6.22658 22.9525 5
    endloop
  endfacet
  facet normal -0 0 1
    outer loop
      vertex 4.47713 11.2901 5
      vertex 7.84482 10.8828 5
      vertex 5.03198 13.0889 5
    endloop
  endfacet
  facet normal 0 0 1
    outer loop
      vertex 2.87181 21.9407 5
      vertex 6.22658 22.9525 5
      vertex 5.27634 24.2093 5
    endloop
  endfacet
  facet normal 0 0 1
    outer loop
      vertex 7.84482 10.8828 5
      vertex 4.47713 11.2901 5
      vertex 7.25921 9.41997 5
    endloop
  endfacet
  facet normal -0 0 1
    outer loop
      vertex 3.61001 9.61926 5
      vertex 7.25921 9.41997 5
      vertex 4.47713 11.2901 5
    endloop
  endfacet
  facet normal 0 0 1
    outer loop
      vertex 7.25921 9.41997 5
      vertex 3.61001 9.61926 5
      vertex 6.51067 8.03347 5
    endloop
  endfacet
  facet normal 0 0 1
    outer loop
      vertex 6.51067 8.03347 5
      vertex 3.61001 9.61926 5
      vertex 5.60897 6.74134 5
    endloop
  endfacet
  facet normal -0 0 1
    outer loop
      vertex 2.45848 8.13012 5
      vertex 5.60897 6.74134 5
      vertex 3.61001 9.61926 5
    endloop
  endfacet
  facet normal 0 0 1
    outer loop
      vertex 5.60897 6.74134 5
      vertex 2.45848 8.13012 5
      vertex 4.56585 5.56042 5
    endloop
  endfacet
  facet normal 0 0 1
    outer loop
      vertex 4.56585 5.56042 5
      vertex 2.45848 8.13012 5
      vertex 3.8781 4.94117 5
    endloop
  endfacet
  facet normal -0 0 1
    outer loop
      vertex 1.05956 6.87053 5
      vertex 3.8781 4.94117 5
      vertex 2.45848 8.13012 5
    endloop
  endfacet
  facet normal -0 0 1
    outer loop
      vertex 0.109539 6.28346 5
      vertex 3.8781 4.94117 5
      vertex 1.05956 6.87053 5
    endloop
  endfacet
  facet normal 0 0 1
    outer loop
      vertex 3.8781 4.94117 5
      vertex 0.109539 6.28346 5
      vertex 3.8352 -4.99813 5
    endloop
  endfacet
  facet normal 0 0 1
    outer loop
      vertex 3.8352 -4.99813 5
      vertex 0.109539 6.28346 5
      vertex 3.0061 -5.53655 5
    endloop
  endfacet
  facet normal 0 0 1
    outer loop
      vertex 3.0061 -5.53655 5
      vertex 0.109539 6.28346 5
      vertex 2.10298 -5.93864 5
    endloop
  endfacet
  facet normal 0 0 1
    outer loop
      vertex 2.10298 -5.93864 5
      vertex 0.109539 6.28346 5
      vertex 1.14808 -6.19451 5
    endloop
  endfacet
  facet normal 0 0 1
    outer loop
      vertex 1.14808 -6.19451 5
      vertex 0.109539 6.28346 5
      vertex 0.164915 -6.29784 5
    endloop
  endfacet
  facet normal 0 0 1
    outer loop
      vertex -1.14808 6.19451 5
      vertex 0.109539 6.28346 5
      vertex -0.164915 6.29784 5
    endloop
  endfacet
  facet normal 0 0 1
    outer loop
      vertex 0.109539 6.28346 5
      vertex -0.822315 -6.2461 5
      vertex 0.164915 -6.29784 5
    endloop
  endfacet
  facet normal 0 0 1
    outer loop
      vertex -2.10298 5.93864 5
      vertex 0.109539 6.28346 5
      vertex -1.14808 6.19451 5
    endloop
  endfacet
  facet normal 0 0 1
    outer loop
      vertex 0.109539 6.28346 5
      vertex -1.7893 -6.04056 5
      vertex -0.822315 -6.2461 5
    endloop
  endfacet
  facet normal 0 0 1
    outer loop
      vertex 0.109539 6.28346 5
      vertex -2.10298 5.93864 5
      vertex -1.7893 -6.04056 5
    endloop
  endfacet
  facet normal 0 0 1
    outer loop
      vertex -2.10298 5.93864 5
      vertex -2.71222 -5.68629 5
      vertex -1.7893 -6.04056 5
    endloop
  endfacet
  facet normal 0 0 1
    outer loop
      vertex -3.98935 4.85933 5
      vertex -2.10298 5.93864 5
      vertex -3.0061 5.53655 5
    endloop
  endfacet
  facet normal 0 0 1
    outer loop
      vertex -2.10298 5.93864 5
      vertex -3.98935 4.85933 5
      vertex -2.71222 -5.68629 5
    endloop
  endfacet
  facet normal 0 0 1
    outer loop
      vertex -3.98935 4.85933 5
      vertex -3.0061 5.53655 5
      vertex -3.8352 4.99813 5
    endloop
  endfacet
  facet normal 0 0 1
    outer loop
      vertex -2.71222 -5.68629 5
      vertex -3.98935 4.85933 5
      vertex -3.56836 -5.19199 5
    endloop
  endfacet
  facet normal 0 0 1
    outer loop
      vertex -6.09757 1.52112 5
      vertex -3.98935 4.85933 5
      vertex -4.14102 4.82946 5
    endloop
  endfacet
  facet normal 0 0 1
    outer loop
      vertex -3.98935 4.85933 5
      vertex -6.09757 1.52112 5
      vertex -3.56836 -5.19199 5
    endloop
  endfacet
  facet normal 0 0 1
    outer loop
      vertex -3.56836 -5.19199 5
      vertex -6.09757 1.52112 5
      vertex -4.33663 -4.56986 5
    endloop
  endfacet
  facet normal 0 0 1
    outer loop
      vertex -4.33663 -4.56986 5
      vertex -6.09757 1.52112 5
      vertex -4.99813 -3.8352 5
    endloop
  endfacet
  facet normal 0 0 1
    outer loop
      vertex -4.99813 -3.8352 5
      vertex -6.09757 1.52112 5
      vertex -5.53655 -3.0061 5
    endloop
  endfacet
  facet normal 0 0 1
    outer loop
      vertex -6.09757 1.52112 5
      vertex -4.14102 4.82946 5
      vertex -6.02323 4.8013 5
    endloop
  endfacet
  facet normal 0 0 1
    outer loop
      vertex -5.53655 -3.0061 5
      vertex -6.09757 1.52112 5
      vertex -5.93864 -2.10298 5
    endloop
  endfacet
  facet normal 0 0 1
    outer loop
      vertex -6.09757 1.52112 5
      vertex -6.19451 -1.14808 5
      vertex -5.93864 -2.10298 5
    endloop
  endfacet
  facet normal 0 0 1
    outer loop
      vertex -6.29784 -0.164914 5
      vertex -6.09757 1.52112 5
      vertex -6.2461 0.822316 5
    endloop
  endfacet
  facet normal 0 0 1
    outer loop
      vertex -6.09757 1.52112 5
      vertex -6.29784 -0.164914 5
      vertex -6.19451 -1.14808 5
    endloop
  endfacet
  facet normal 0 0 1
    outer loop
      vertex 6.19451 1.14808 5
      vertex 6.2461 -0.822315 5
      vertex 6.29784 0.164916 5
    endloop
  endfacet
  facet normal 0 0 1
    outer loop
      vertex 6.19451 1.14808 5
      vertex 6.04056 -1.7893 5
      vertex 6.2461 -0.822315 5
    endloop
  endfacet
  facet normal 0 0 1
    outer loop
      vertex 5.93864 2.10298 5
      vertex 6.04056 -1.7893 5
      vertex 6.19451 1.14808 5
    endloop
  endfacet
  facet normal 0 0 1
    outer loop
      vertex 5.93864 2.10298 5
      vertex 5.68629 -2.71222 5
      vertex 6.04056 -1.7893 5
    endloop
  endfacet
  facet normal 0 0 1
    outer loop
      vertex 5.53655 3.0061 5
      vertex 5.68629 -2.71222 5
      vertex 5.93864 2.10298 5
    endloop
  endfacet
  facet normal 0 0 1
    outer loop
      vertex 5.53655 3.0061 5
      vertex 5.192 -3.56836 5
      vertex 5.68629 -2.71222 5
    endloop
  endfacet
  facet normal 0 0 1
    outer loop
      vertex 3.8781 4.94117 5
      vertex 5.53655 3.0061 5
      vertex 4.99813 3.8352 5
    endloop
  endfacet
  facet normal 0 0 1
    outer loop
      vertex 5.53655 3.0061 5
      vertex 3.8781 4.94117 5
      vertex 5.192 -3.56836 5
    endloop
  endfacet
  facet normal 0 0 1
    outer loop
      vertex 3.8781 4.94117 5
      vertex 4.99813 3.8352 5
      vertex 4.33663 4.56986 5
    endloop
  endfacet
  facet normal 0 0 1
    outer loop
      vertex 5.192 -3.56836 5
      vertex 3.8781 4.94117 5
      vertex 4.56986 -4.33663 5
    endloop
  endfacet
  facet normal 0 0 1
    outer loop
      vertex 4.56986 -4.33663 5
      vertex 3.8781 4.94117 5
      vertex 3.8352 -4.99813 5
    endloop
  endfacet
endsolid OpenSCAD_Model
