solid OpenSCAD_Model
  facet normal -0.420361 -0.907357 0
    outer loop
      vertex -2.30247 24.1999 0
      vertex -0.594436 23.4086 5
      vertex -2.30247 24.1999 5
    endloop
  endfacet
  facet normal -0.420361 -0.907357 -0
    outer loop
      vertex -0.594436 23.4086 5
      vertex -2.30247 24.1999 0
      vertex -0.594436 23.4086 0
    endloop
  endfacet
  facet normal 0.500005 0.866022 -0
    outer loop
      vertex -10.2582 4.78808 0
      vertex -11.8884 5.72929 5
      vertex -10.2582 4.78808 5
    endloop
  endfacet
  facet normal 0.500005 0.866022 0
    outer loop
      vertex -11.8884 5.72929 5
      vertex -10.2582 4.78808 0
      vertex -11.8884 5.72929 0
    endloop
  endfacet
  facet normal 0.925296 -0.379245 0
    outer loop
      vertex -15.878 17.4103 5
      vertex -15.1641 19.1521 0
      vertex -15.1641 19.1521 5
    endloop
  endfacet
  facet normal 0.925296 -0.379245 0
    outer loop
      vertex -15.1641 19.1521 0
      vertex -15.878 17.4103 5
      vertex -15.878 17.4103 0
    endloop
  endfacet
  facet normal 0.280434 -0.959873 0
    outer loop
      vertex -9.68052 24.0895 0
      vertex -7.87362 24.6174 5
      vertex -9.68052 24.0895 5
    endloop
  endfacet
  facet normal 0.280434 -0.959873 0
    outer loop
      vertex -7.87362 24.6174 5
      vertex -9.68052 24.0895 0
      vertex -7.87362 24.6174 0
    endloop
  endfacet
  facet normal 0.946331 0.3232 0
    outer loop
      vertex -15.4367 10.0446 5
      vertex -16.0451 11.826 0
      vertex -16.0451 11.826 5
    endloop
  endfacet
  facet normal 0.946331 0.3232 0
    outer loop
      vertex -16.0451 11.826 0
      vertex -15.4367 10.0446 5
      vertex -15.4367 10.0446 0
    endloop
  endfacet
  facet normal 0.999553 -0.029908 0
    outer loop
      vertex -16.3256 13.6874 5
      vertex -16.2693 15.569 0
      vertex -16.2693 15.569 5
    endloop
  endfacet
  facet normal 0.999553 -0.029908 0
    outer loop
      vertex -16.2693 15.569 0
      vertex -16.3256 13.6874 5
      vertex -16.3256 13.6874 0
    endloop
  endfacet
  facet normal -0.82625 -0.563304 0
    outer loop
      vertex 3.32635 19.4287 0
      vertex 2.26594 20.9841 5
      vertex 2.26594 20.9841 0
    endloop
  endfacet
  facet normal -0.82625 -0.563304 0
    outer loop
      vertex 2.26594 20.9841 5
      vertex 3.32635 19.4287 0
      vertex 3.32635 19.4287 5
    endloop
  endfacet
  facet normal 0 0 1
    outer loop
      vertex -1.90986 6.00354 0
      vertex 4.65086 14.0012 0
      vertex 4.53829 15.8803 0
    endloop
  endfacet
  facet normal 0 0 1
    outer loop
      vertex -1.90986 6.00354 0
      vertex 4.53829 15.8803 0
      vertex 4.092 17.709 0
    endloop
  endfacet
  facet normal 0 0 1
    outer loop
      vertex 4.65086 14.0012 0
      vertex -1.90986 6.00354 0
      vertex 4.42611 12.1323 0
    endloop
  endfacet
  facet normal 0 0 1
    outer loop
      vertex -1.90986 6.00354 0
      vertex 4.092 17.709 0
      vertex 3.32635 19.4287 0
    endloop
  endfacet
  facet normal 0 0 1
    outer loop
      vertex 4.42611 12.1323 0
      vertex -1.90986 6.00354 0
      vertex 3.87126 10.3335 0
    endloop
  endfacet
  facet normal 0 0 1
    outer loop
      vertex -1.90986 6.00354 0
      vertex 3.32635 19.4287 0
      vertex 2.26594 20.9841 0
    endloop
  endfacet
  facet normal 0 -0 1
    outer loop
      vertex -0.774196 6.25225 0
      vertex 3.87126 10.3335 0
      vertex -1.90986 6.00354 0
    endloop
  endfacet
  facet normal 0 0 1
    outer loop
      vertex -1.90986 6.00354 0
      vertex 2.26594 20.9841 0
      vertex 0.944858 22.3251 0
    endloop
  endfacet
  facet normal 0 0 1
    outer loop
      vertex 3.00413 8.66266 0
      vertex -0.774196 6.25225 0
      vertex 1.85261 7.17353 0
    endloop
  endfacet
  facet normal 0 0 1
    outer loop
      vertex 1.85261 7.17353 0
      vertex 0.387833 6.28805 0
      vertex 0.798405 6.22432 0
    endloop
  endfacet
  facet normal 0 0 1
    outer loop
      vertex -1.90986 6.00354 0
      vertex 0.944858 22.3251 0
      vertex -0.594436 23.4086 0
    endloop
  endfacet
  facet normal 0 0 1
    outer loop
      vertex 1.85261 7.17353 0
      vertex -0.774196 6.25225 0
      vertex 0.387833 6.28805 0
    endloop
  endfacet
  facet normal 0 0 1
    outer loop
      vertex 3.87126 10.3335 0
      vertex -0.774196 6.25225 0
      vertex 3.00413 8.66266 0
    endloop
  endfacet
  facet normal 0 0 1
    outer loop
      vertex -2.30247 24.1999 0
      vertex -1.90986 6.00354 0
      vertex -0.594436 23.4086 0
    endloop
  endfacet
  facet normal 0 0 1
    outer loop
      vertex -4.12435 24.6735 0
      vertex -1.90986 6.00354 0
      vertex -2.30247 24.1999 0
    endloop
  endfacet
  facet normal 0 0 1
    outer loop
      vertex -6.00151 24.8142 0
      vertex -1.90986 6.00354 0
      vertex -4.12435 24.6735 0
    endloop
  endfacet
  facet normal -0 0 1
    outer loop
      vertex -7.87362 24.6174 0
      vertex -1.90986 6.00354 0
      vertex -6.00151 24.8142 0
    endloop
  endfacet
  facet normal -0 0 1
    outer loop
      vertex -9.68052 24.0895 0
      vertex -1.90986 6.00354 0
      vertex -7.87362 24.6174 0
    endloop
  endfacet
  facet normal -0 0 1
    outer loop
      vertex -11.3641 23.2475 0
      vertex -1.90986 6.00354 0
      vertex -9.68052 24.0895 0
    endloop
  endfacet
  facet normal 0 0 1
    outer loop
      vertex -1.90986 6.00354 0
      vertex -11.3641 23.2475 0
      vertex -2.98049 5.55038 0
    endloop
  endfacet
  facet normal 0 0 1
    outer loop
      vertex -4.78425 4.0989 0
      vertex -6.6291 3.8447 0
      vertex -4.94637 3.86988 0
    endloop
  endfacet
  facet normal -0 0 1
    outer loop
      vertex -12.8703 22.1184 0
      vertex -2.98049 5.55038 0
      vertex -11.3641 23.2475 0
    endloop
  endfacet
  facet normal 0 0 1
    outer loop
      vertex -3.94962 4.90821 0
      vertex -6.6291 3.8447 0
      vertex -4.78425 4.0989 0
    endloop
  endfacet
  facet normal -0 0 1
    outer loop
      vertex -14.1507 20.7384 0
      vertex -2.98049 5.55038 0
      vertex -12.8703 22.1184 0
    endloop
  endfacet
  facet normal 0 -0 1
    outer loop
      vertex -6.6291 3.8447 0
      vertex -3.94962 4.90821 0
      vertex -8.4861 4.15308 0
    endloop
  endfacet
  facet normal -0 0 1
    outer loop
      vertex -15.1641 19.1521 0
      vertex -2.98049 5.55038 0
      vertex -14.1507 20.7384 0
    endloop
  endfacet
  facet normal 0 -0 1
    outer loop
      vertex -8.4861 4.15308 0
      vertex -3.94962 4.90821 0
      vertex -10.2582 4.78808 0
    endloop
  endfacet
  facet normal -0 0 1
    outer loop
      vertex -15.878 17.4103 0
      vertex -2.98049 5.55038 0
      vertex -15.1641 19.1521 0
    endloop
  endfacet
  facet normal 0 0 1
    outer loop
      vertex -2.98049 5.55038 0
      vertex -10.2582 4.78808 0
      vertex -3.94962 4.90821 0
    endloop
  endfacet
  facet normal -0 0 1
    outer loop
      vertex -16.2693 15.569 0
      vertex -2.98049 5.55038 0
      vertex -15.878 17.4103 0
    endloop
  endfacet
  facet normal 0 -0 1
    outer loop
      vertex -10.2582 4.78808 0
      vertex -2.98049 5.55038 0
      vertex -11.8884 5.72929 0
    endloop
  endfacet
  facet normal -0 -0 1
    outer loop
      vertex -13.3244 6.94646 0
      vertex -2.98049 5.55038 0
      vertex -14.5199 8.40048 0
    endloop
  endfacet
  facet normal -0 -0 1
    outer loop
      vertex -11.8884 5.72929 0
      vertex -2.98049 5.55038 0
      vertex -13.3244 6.94646 0
    endloop
  endfacet
  facet normal -0 0 1
    outer loop
      vertex -16.3256 13.6874 0
      vertex -2.98049 5.55038 0
      vertex -16.2693 15.569 0
    endloop
  endfacet
  facet normal -0 -0 1
    outer loop
      vertex -14.5199 8.40048 0
      vertex -2.98049 5.55038 0
      vertex -15.4367 10.0446 0
    endloop
  endfacet
  facet normal -0 -0 1
    outer loop
      vertex -16.0451 11.826 0
      vertex -2.98049 5.55038 0
      vertex -16.3256 13.6874 0
    endloop
  endfacet
  facet normal -0 -0 1
    outer loop
      vertex -15.4367 10.0446 0
      vertex -2.98049 5.55038 0
      vertex -16.0451 11.826 0
    endloop
  endfacet
  facet normal -0.074744 -0.997203 0
    outer loop
      vertex -6.00151 24.8142 0
      vertex -4.12435 24.6735 5
      vertex -6.00151 24.8142 5
    endloop
  endfacet
  facet normal -0.074744 -0.997203 -0
    outer loop
      vertex -4.12435 24.6735 5
      vertex -6.00151 24.8142 0
      vertex -4.12435 24.6735 0
    endloop
  endfacet
  facet normal -0.25159 -0.967834 0
    outer loop
      vertex -4.12435 24.6735 0
      vertex -2.30247 24.1999 5
      vertex -4.12435 24.6735 5
    endloop
  endfacet
  facet normal -0.25159 -0.967834 -0
    outer loop
      vertex -2.30247 24.1999 5
      vertex -4.12435 24.6735 0
      vertex -2.30247 24.1999 0
    endloop
  endfacet
  facet normal 0.104546 -0.99452 0
    outer loop
      vertex -7.87362 24.6174 0
      vertex -6.00151 24.8142 5
      vertex -7.87362 24.6174 5
    endloop
  endfacet
  facet normal 0.104546 -0.99452 0
    outer loop
      vertex -6.00151 24.8142 5
      vertex -7.87362 24.6174 0
      vertex -6.00151 24.8142 0
    endloop
  endfacet
  facet normal 0.733066 -0.680158 0
    outer loop
      vertex -14.1507 20.7384 5
      vertex -12.8703 22.1184 0
      vertex -12.8703 22.1184 5
    endloop
  endfacet
  facet normal 0.733066 -0.680158 0
    outer loop
      vertex -12.8703 22.1184 0
      vertex -14.1507 20.7384 5
      vertex -14.1507 20.7384 0
    endloop
  endfacet
  facet normal 0.842713 -0.538363 0
    outer loop
      vertex -15.1641 19.1521 5
      vertex -14.1507 20.7384 0
      vertex -14.1507 20.7384 5
    endloop
  endfacet
  facet normal 0.842713 -0.538363 0
    outer loop
      vertex -14.1507 20.7384 0
      vertex -15.1641 19.1521 5
      vertex -15.1641 19.1521 0
    endloop
  endfacet
  facet normal 0.447303 -0.894383 0
    outer loop
      vertex -11.3641 23.2475 0
      vertex -9.68052 24.0895 5
      vertex -11.3641 23.2475 5
    endloop
  endfacet
  facet normal 0.447303 -0.894383 0
    outer loop
      vertex -9.68052 24.0895 5
      vertex -11.3641 23.2475 0
      vertex -9.68052 24.0895 0
    endloop
  endfacet
  facet normal 0.772433 0.635097 0
    outer loop
      vertex -13.3244 6.94646 5
      vertex -14.5199 8.40048 0
      vertex -14.5199 8.40048 5
    endloop
  endfacet
  facet normal 0.772433 0.635097 0
    outer loop
      vertex -14.5199 8.40048 0
      vertex -13.3244 6.94646 5
      vertex -13.3244 6.94646 0
    endloop
  endfacet
  facet normal 0.873389 0.487022 0
    outer loop
      vertex -14.5199 8.40048 5
      vertex -15.4367 10.0446 0
      vertex -15.4367 10.0446 5
    endloop
  endfacet
  facet normal 0.873389 0.487022 0
    outer loop
      vertex -15.4367 10.0446 0
      vertex -14.5199 8.40048 5
      vertex -14.5199 8.40048 0
    endloop
  endfacet
  facet normal 0.64659 0.762838 -0
    outer loop
      vertex -11.8884 5.72929 0
      vertex -13.3244 6.94646 5
      vertex -11.8884 5.72929 5
    endloop
  endfacet
  facet normal 0.64659 0.762838 0
    outer loop
      vertex -13.3244 6.94646 5
      vertex -11.8884 5.72929 0
      vertex -13.3244 6.94646 0
    endloop
  endfacet
  facet normal 0.988836 0.149011 0
    outer loop
      vertex -16.0451 11.826 5
      vertex -16.3256 13.6874 0
      vertex -16.3256 13.6874 5
    endloop
  endfacet
  facet normal 0.988836 0.149011 0
    outer loop
      vertex -16.3256 13.6874 0
      vertex -16.0451 11.826 5
      vertex -16.0451 11.826 0
    endloop
  endfacet
  facet normal 0.978156 -0.207871 0
    outer loop
      vertex -16.2693 15.569 5
      vertex -15.878 17.4103 0
      vertex -15.878 17.4103 5
    endloop
  endfacet
  facet normal 0.978156 -0.207871 0
    outer loop
      vertex -15.878 17.4103 0
      vertex -16.2693 15.569 5
      vertex -16.2693 15.569 0
    endloop
  endfacet
  facet normal -0.955574 0.294752 0
    outer loop
      vertex 3.87126 10.3335 0
      vertex 4.42611 12.1323 5
      vertex 4.42611 12.1323 0
    endloop
  endfacet
  facet normal -0.955574 0.294752 0
    outer loop
      vertex 4.42611 12.1323 5
      vertex 3.87126 10.3335 0
      vertex 3.87126 10.3335 5
    endloop
  endfacet
  facet normal -0.913547 -0.406732 0
    outer loop
      vertex 4.092 17.709 0
      vertex 3.32635 19.4287 5
      vertex 3.32635 19.4287 0
    endloop
  endfacet
  facet normal -0.913547 -0.406732 0
    outer loop
      vertex 3.32635 19.4287 5
      vertex 4.092 17.709 0
      vertex 4.092 17.709 5
    endloop
  endfacet
  facet normal -0.99821 -0.0597991 0
    outer loop
      vertex 4.65086 14.0012 0
      vertex 4.53829 15.8803 5
      vertex 4.53829 15.8803 0
    endloop
  endfacet
  facet normal -0.99821 -0.0597991 0
    outer loop
      vertex 4.53829 15.8803 5
      vertex 4.65086 14.0012 0
      vertex 4.65086 14.0012 5
    endloop
  endfacet
  facet normal -0.791072 0.611723 0
    outer loop
      vertex 1.85261 7.17353 0
      vertex 3.00413 8.66266 5
      vertex 3.00413 8.66266 0
    endloop
  endfacet
  facet normal -0.791072 0.611723 0
    outer loop
      vertex 3.00413 8.66266 5
      vertex 1.85261 7.17353 0
      vertex 1.85261 7.17353 5
    endloop
  endfacet
  facet normal 0.337329 0.941387 -0
    outer loop
      vertex -8.4861 4.15308 0
      vertex -10.2582 4.78808 5
      vertex -8.4861 4.15308 5
    endloop
  endfacet
  facet normal 0.337329 0.941387 0
    outer loop
      vertex -10.2582 4.78808 5
      vertex -8.4861 4.15308 0
      vertex -10.2582 4.78808 0
    endloop
  endfacet
  facet normal -0.992847 0.119398 0
    outer loop
      vertex 4.42611 12.1323 0
      vertex 4.65086 14.0012 5
      vertex 4.65086 14.0012 0
    endloop
  endfacet
  facet normal -0.992847 0.119398 0
    outer loop
      vertex 4.65086 14.0012 5
      vertex 4.42611 12.1323 0
      vertex 4.42611 12.1323 5
    endloop
  endfacet
  facet normal -0.971488 -0.237089 0
    outer loop
      vertex 4.53829 15.8803 0
      vertex 4.092 17.709 5
      vertex 4.092 17.709 0
    endloop
  endfacet
  facet normal -0.971488 -0.237089 0
    outer loop
      vertex 4.092 17.709 5
      vertex 4.53829 15.8803 0
      vertex 4.53829 15.8803 5
    endloop
  endfacet
  facet normal -0.712377 -0.701796 0
    outer loop
      vertex 2.26594 20.9841 0
      vertex 0.944858 22.3251 5
      vertex 0.944858 22.3251 0
    endloop
  endfacet
  facet normal -0.712377 -0.701796 0
    outer loop
      vertex 0.944858 22.3251 5
      vertex 2.26594 20.9841 0
      vertex 2.26594 20.9841 5
    endloop
  endfacet
  facet normal -0.575598 -0.817733 0
    outer loop
      vertex -0.594436 23.4086 0
      vertex 0.944858 22.3251 5
      vertex -0.594436 23.4086 5
    endloop
  endfacet
  facet normal -0.575598 -0.817733 -0
    outer loop
      vertex 0.944858 22.3251 5
      vertex -0.594436 23.4086 0
      vertex 0.944858 22.3251 0
    endloop
  endfacet
  facet normal -0.66913 0.743145 0
    outer loop
      vertex 1.85261 7.17353 0
      vertex 0.798405 6.22432 5
      vertex 1.85261 7.17353 5
    endloop
  endfacet
  facet normal -0.66913 0.743145 0
    outer loop
      vertex 0.798405 6.22432 5
      vertex 1.85261 7.17353 0
      vertex 0.798405 6.22432 0
    endloop
  endfacet
  facet normal -0.887588 0.460639 0
    outer loop
      vertex 3.00413 8.66266 0
      vertex 3.87126 10.3335 5
      vertex 3.87126 10.3335 0
    endloop
  endfacet
  facet normal -0.887588 0.460639 0
    outer loop
      vertex 3.87126 10.3335 5
      vertex 3.00413 8.66266 0
      vertex 3.00413 8.66266 5
    endloop
  endfacet
  facet normal -0.0149621 0.999888 0
    outer loop
      vertex -4.94637 3.86988 0
      vertex -6.6291 3.8447 5
      vertex -4.94637 3.86988 5
    endloop
  endfacet
  facet normal -0.0149621 0.999888 0
    outer loop
      vertex -6.6291 3.8447 5
      vertex -4.94637 3.86988 0
      vertex -6.6291 3.8447 0
    endloop
  endfacet
  facet normal 0.16382 0.98649 -0
    outer loop
      vertex -6.6291 3.8447 0
      vertex -8.4861 4.15308 5
      vertex -6.6291 3.8447 5
    endloop
  endfacet
  facet normal 0.16382 0.98649 0
    outer loop
      vertex -8.4861 4.15308 5
      vertex -6.6291 3.8447 0
      vertex -8.4861 4.15308 0
    endloop
  endfacet
  facet normal 0.599813 -0.80014 0
    outer loop
      vertex -12.8703 22.1184 0
      vertex -11.3641 23.2475 5
      vertex -12.8703 22.1184 5
    endloop
  endfacet
  facet normal 0.599813 -0.80014 0
    outer loop
      vertex -11.3641 23.2475 5
      vertex -12.8703 22.1184 0
      vertex -11.3641 23.2475 0
    endloop
  endfacet
  facet normal -0.432659 0.901558 0
    outer loop
      vertex -11.0951 27.0774 -2
      vertex -12.5156 26.3957 5
      vertex -11.0951 27.0774 5
    endloop
  endfacet
  facet normal -0.432659 0.901558 0
    outer loop
      vertex -12.5156 26.3957 5
      vertex -11.0951 27.0774 -2
      vertex -12.5156 26.3957 -2
    endloop
  endfacet
  facet normal 0.548604 0.836082 -0
    outer loop
      vertex 2.37292 25.4021 -2
      vertex 1.05556 26.2665 5
      vertex 2.37292 25.4021 5
    endloop
  endfacet
  facet normal 0.548604 0.836082 0
    outer loop
      vertex 1.05556 26.2665 5
      vertex 2.37292 25.4021 -2
      vertex 1.05556 26.2665 -2
    endloop
  endfacet
  facet normal -0.999819 -0.0190405 0
    outer loop
      vertex -19.6044 13.2654 -2
      vertex -19.6344 14.8407 5
      vertex -19.6344 14.8407 -2
    endloop
  endfacet
  facet normal -0.999819 -0.0190405 0
    outer loop
      vertex -19.6344 14.8407 5
      vertex -19.6044 13.2654 -2
      vertex -19.6044 13.2654 5
    endloop
  endfacet
  facet normal -0.761966 -0.647617 0
    outer loop
      vertex -15.832 4.79225 -2
      vertex -16.8524 5.99282 5
      vertex -16.8524 5.99282 -2
    endloop
  endfacet
  facet normal -0.761966 -0.647617 0
    outer loop
      vertex -16.8524 5.99282 5
      vertex -15.832 4.79225 -2
      vertex -15.832 4.79225 5
    endloop
  endfacet
  facet normal 0.00951987 0.999955 -0
    outer loop
      vertex -4.92549 28.0847 -2
      vertex -6.50107 28.0997 5
      vertex -4.92549 28.0847 5
    endloop
  endfacet
  facet normal 0.00951987 0.999955 0
    outer loop
      vertex -6.50107 28.0997 5
      vertex -4.92549 28.0847 -2
      vertex -6.50107 28.0997 -2
    endloop
  endfacet
  facet normal -0.104528 0.994522 0
    outer loop
      vertex -6.50107 28.0997 -2
      vertex -8.06809 27.935 5
      vertex -6.50107 28.0997 5
    endloop
  endfacet
  facet normal -0.104528 0.994522 0
    outer loop
      vertex -8.06809 27.935 5
      vertex -6.50107 28.0997 -2
      vertex -8.06809 27.935 -2
    endloop
  endfacet
  facet normal -0.710431 0.703767 0
    outer loop
      vertex -16.1873 23.4513 -2
      vertex -15.0784 24.5707 5
      vertex -15.0784 24.5707 -2
    endloop
  endfacet
  facet normal -0.710431 0.703767 0
    outer loop
      vertex -15.0784 24.5707 5
      vertex -16.1873 23.4513 -2
      vertex -16.1873 23.4513 5
    endloop
  endfacet
  facet normal -0.786067 0.618141 0
    outer loop
      vertex -17.1613 22.2127 -2
      vertex -16.1873 23.4513 5
      vertex -16.1873 23.4513 -2
    endloop
  endfacet
  facet normal -0.786067 0.618141 0
    outer loop
      vertex -16.1873 23.4513 5
      vertex -17.1613 22.2127 -2
      vertex -17.1613 22.2127 5
    endloop
  endfacet
  facet normal -0.499985 -0.866034 0
    outer loop
      vertex -13.4155 2.77759 -2
      vertex -12.0509 1.98977 5
      vertex -13.4155 2.77759 5
    endloop
  endfacet
  facet normal -0.499985 -0.866034 -0
    outer loop
      vertex -12.0509 1.98977 5
      vertex -13.4155 2.77759 -2
      vertex -12.0509 1.98977 -2
    endloop
  endfacet
  facet normal -0.888837 -0.458223 0
    outer loop
      vertex -17.7294 7.30188 -2
      vertex -18.4514 8.70238 5
      vertex -18.4514 8.70238 -2
    endloop
  endfacet
  facet normal -0.888837 -0.458223 0
    outer loop
      vertex -18.4514 8.70238 5
      vertex -17.7294 7.30188 -2
      vertex -17.7294 7.30188 5
    endloop
  endfacet
  facet normal -0.978149 0.207904 0
    outer loop
      vertex -19.4847 16.4092 -2
      vertex -19.1571 17.9505 5
      vertex -19.1571 17.9505 -2
    endloop
  endfacet
  facet normal -0.978149 0.207904 0
    outer loop
      vertex -19.1571 17.9505 5
      vertex -19.4847 16.4092 -2
      vertex -19.4847 16.4092 5
    endloop
  endfacet
  facet normal -0.935283 -0.3539 0
    outer loop
      vertex -18.4514 8.70238 -2
      vertex -19.009 10.176 5
      vertex -19.009 10.176 -2
    endloop
  endfacet
  facet normal -0.935283 -0.3539 0
    outer loop
      vertex -19.009 10.176 5
      vertex -18.4514 8.70238 -2
      vertex -18.4514 8.70238 5
    endloop
  endfacet
  facet normal 0.928369 -0.371661 0
    outer loop
      vertex 6.65334 8.46337 5
      vertex 7.23895 9.92616 -2
      vertex 7.23895 9.92616 5
    endloop
  endfacet
  facet normal 0.928369 -0.371661 0
    outer loop
      vertex 7.23895 9.92616 -2
      vertex 6.65334 8.46337 5
      vertex 6.65334 8.46337 -2
    endloop
  endfacet
  facet normal 0.723746 0.690066 0
    outer loop
      vertex 4.67047 23.2527 5
      vertex 3.58314 24.3931 -2
      vertex 3.58314 24.3931 5
    endloop
  endfacet
  facet normal 0.723746 0.690066 0
    outer loop
      vertex 3.58314 24.3931 -2
      vertex 4.67047 23.2527 5
      vertex 4.67047 23.2527 -2
    endloop
  endfacet
  facet normal 0.820063 -0.572273 0
    outer loop
      vertex 5.0031 5.78475 5
      vertex 5.9048 7.07688 -2
      vertex 5.9048 7.07688 5
    endloop
  endfacet
  facet normal 0.820063 -0.572273 0
    outer loop
      vertex 5.9048 7.07688 -2
      vertex 5.0031 5.78475 5
      vertex 5.0031 5.78475 -2
    endloop
  endfacet
  facet normal -0.398012 -0.91738 0
    outer loop
      vertex -12.0509 1.98977 -2
      vertex -10.6054 1.36263 5
      vertex -12.0509 1.98977 5
    endloop
  endfacet
  facet normal -0.398012 -0.91738 -0
    outer loop
      vertex -10.6054 1.36263 5
      vertex -12.0509 1.98977 -2
      vertex -10.6054 1.36263 -2
    endloop
  endfacet
  facet normal 0 0 -1
    outer loop
      vertex 0.387833 6.28805 -2
      vertex 7.95306 14.5781 -2
      vertex 7.89308 13.0036 -2
    endloop
  endfacet
  facet normal 0 0 -1
    outer loop
      vertex 0.387833 6.28805 -2
      vertex 7.89308 13.0036 -2
      vertex 7.654 11.4462 -2
    endloop
  endfacet
  facet normal -0 0 -1
    outer loop
      vertex 7.95306 14.5781 -2
      vertex 0.387833 6.28805 -2
      vertex 7.83318 16.1492 -2
    endloop
  endfacet
  facet normal 0 0 -1
    outer loop
      vertex 0.387833 6.28805 -2
      vertex 7.654 11.4462 -2
      vertex 7.23895 9.92616 -2
    endloop
  endfacet
  facet normal 0 0 -1
    outer loop
      vertex -0.774196 6.25225 -2
      vertex 7.83318 16.1492 -2
      vertex 0.387833 6.28805 -2
    endloop
  endfacet
  facet normal 0 0 -1
    outer loop
      vertex 1.53666 6.10972 -2
      vertex 7.23895 9.92616 -2
      vertex 6.65334 8.46337 -2
    endloop
  endfacet
  facet normal -0 0 -1
    outer loop
      vertex 7.83318 16.1492 -2
      vertex -0.774196 6.25225 -2
      vertex 7.53498 17.6963 -2
    endloop
  endfacet
  facet normal 0 0 -1
    outer loop
      vertex 1.53666 6.10972 -2
      vertex 6.65334 8.46337 -2
      vertex 5.9048 7.07688 -2
    endloop
  endfacet
  facet normal -0 0 -1
    outer loop
      vertex 7.53498 17.6963 -2
      vertex -0.774196 6.25225 -2
      vertex 7.06237 19.1994 -2
    endloop
  endfacet
  facet normal 0 0 -1
    outer loop
      vertex 2.63315 5.72333 -2
      vertex 5.9048 7.07688 -2
      vertex 5.0031 5.78475 -2
    endloop
  endfacet
  facet normal 0 0 -1
    outer loop
      vertex 7.23895 9.92616 -2
      vertex 1.53666 6.10972 -2
      vertex 0.387833 6.28805 -2
    endloop
  endfacet
  facet normal 0 0 -1
    outer loop
      vertex 3.63997 5.14204 -2
      vertex 5.0031 5.78475 -2
      vertex 4.09274 4.75413 -2
    endloop
  endfacet
  facet normal 0 0 -1
    outer loop
      vertex 2.63315 5.72333 -2
      vertex 5.0031 5.78475 -2
      vertex 3.63997 5.14204 -2
    endloop
  endfacet
  facet normal 0 0 -1
    outer loop
      vertex 5.9048 7.07688 -2
      vertex 2.63315 5.72333 -2
      vertex 1.53666 6.10972 -2
    endloop
  endfacet
  facet normal -0 0 -1
    outer loop
      vertex 7.06237 19.1994 -2
      vertex -0.774196 6.25225 -2
      vertex 6.42149 20.6389 -2
    endloop
  endfacet
  facet normal -0 0 -1
    outer loop
      vertex 6.42149 20.6389 -2
      vertex -0.774196 6.25225 -2
      vertex 5.62071 21.9959 -2
    endloop
  endfacet
  facet normal -0 0 -1
    outer loop
      vertex 5.62071 21.9959 -2
      vertex -0.774196 6.25225 -2
      vertex 4.67047 23.2527 -2
    endloop
  endfacet
  facet normal -0 0 -1
    outer loop
      vertex 4.67047 23.2527 -2
      vertex -0.774196 6.25225 -2
      vertex 3.58314 24.3931 -2
    endloop
  endfacet
  facet normal 0 0 -1
    outer loop
      vertex -1.90986 6.00354 -2
      vertex 3.58314 24.3931 -2
      vertex -0.774196 6.25225 -2
    endloop
  endfacet
  facet normal -0 0 -1
    outer loop
      vertex 3.58314 24.3931 -2
      vertex -1.90986 6.00354 -2
      vertex 2.37292 25.4021 -2
    endloop
  endfacet
  facet normal -0 0 -1
    outer loop
      vertex 2.37292 25.4021 -2
      vertex -1.90986 6.00354 -2
      vertex 1.05556 26.2665 -2
    endloop
  endfacet
  facet normal -0 0 -1
    outer loop
      vertex 1.05556 26.2665 -2
      vertex -1.90986 6.00354 -2
      vertex -0.351741 26.9751 -2
    endloop
  endfacet
  facet normal -0 0 -1
    outer loop
      vertex -0.351741 26.9751 -2
      vertex -1.90986 6.00354 -2
      vertex -1.83065 27.5187 -2
    endloop
  endfacet
  facet normal 0 0 -1
    outer loop
      vertex -11.0951 27.0774 -2
      vertex -1.90986 6.00354 -2
      vertex -2.98049 5.55038 -2
    endloop
  endfacet
  facet normal 0 0 -1
    outer loop
      vertex -1.90986 6.00354 -2
      vertex -3.36189 27.8902 -2
      vertex -1.83065 27.5187 -2
    endloop
  endfacet
  facet normal 0 0 -1
    outer loop
      vertex -19.6044 13.2654 -2
      vertex -2.98049 5.55038 -2
      vertex -3.94962 4.90821 -2
    endloop
  endfacet
  facet normal 0 0 -1
    outer loop
      vertex -15.832 4.79225 -2
      vertex -3.94962 4.90821 -2
      vertex -4.78425 4.0989 -2
    endloop
  endfacet
  facet normal 0 0 -1
    outer loop
      vertex -1.90986 6.00354 -2
      vertex -4.92549 28.0847 -2
      vertex -3.36189 27.8902 -2
    endloop
  endfacet
  facet normal 0 0 -1
    outer loop
      vertex -12.0509 1.98977 -2
      vertex -4.78425 4.0989 -2
      vertex -5.45596 3.15 -2
    endloop
  endfacet
  facet normal 0 0 -1
    outer loop
      vertex -9.09791 0.904342 -2
      vertex -5.45596 3.15 -2
      vertex -5.94187 2.09384 -2
    endloop
  endfacet
  facet normal 0 0 -1
    outer loop
      vertex -7.54796 0.62089 -2
      vertex -5.94187 2.09384 -2
      vertex -6.22544 0.966368 -2
    endloop
  endfacet
  facet normal 0 0 -1
    outer loop
      vertex -7.54796 0.62089 -2
      vertex -6.22544 0.966368 -2
      vertex -6.25209 0.534405 -2
    endloop
  endfacet
  facet normal 0 0 -1
    outer loop
      vertex -1.90986 6.00354 -2
      vertex -6.50107 28.0997 -2
      vertex -4.92549 28.0847 -2
    endloop
  endfacet
  facet normal 0 0 -1
    outer loop
      vertex -5.94187 2.09384 -2
      vertex -7.54796 0.62089 -2
      vertex -9.09791 0.904342 -2
    endloop
  endfacet
  facet normal 0 0 -1
    outer loop
      vertex -1.90986 6.00354 -2
      vertex -8.06809 27.935 -2
      vertex -6.50107 28.0997 -2
    endloop
  endfacet
  facet normal 0 0 -1
    outer loop
      vertex -5.45596 3.15 -2
      vertex -9.09791 0.904342 -2
      vertex -10.6054 1.36263 -2
    endloop
  endfacet
  facet normal 0 0 -1
    outer loop
      vertex -1.90986 6.00354 -2
      vertex -9.60612 27.5928 -2
      vertex -8.06809 27.935 -2
    endloop
  endfacet
  facet normal 0 0 -1
    outer loop
      vertex -5.45596 3.15 -2
      vertex -10.6054 1.36263 -2
      vertex -12.0509 1.98977 -2
    endloop
  endfacet
  facet normal 0 0 -1
    outer loop
      vertex -1.90986 6.00354 -2
      vertex -11.0951 27.0774 -2
      vertex -9.60612 27.5928 -2
    endloop
  endfacet
  facet normal 0 0 -1
    outer loop
      vertex -4.78425 4.0989 -2
      vertex -12.0509 1.98977 -2
      vertex -13.4155 2.77759 -2
    endloop
  endfacet
  facet normal 0 0 -1
    outer loop
      vertex -2.98049 5.55038 -2
      vertex -12.5156 26.3957 -2
      vertex -11.0951 27.0774 -2
    endloop
  endfacet
  facet normal 0 0 -1
    outer loop
      vertex -4.78425 4.0989 -2
      vertex -13.4155 2.77759 -2
      vertex -14.6813 3.71583 -2
    endloop
  endfacet
  facet normal 0 0 -1
    outer loop
      vertex -2.98049 5.55038 -2
      vertex -13.8492 25.5565 -2
      vertex -12.5156 26.3957 -2
    endloop
  endfacet
  facet normal -0 0 -1
    outer loop
      vertex -4.78425 4.0989 -2
      vertex -14.6813 3.71583 -2
      vertex -15.832 4.79225 -2
    endloop
  endfacet
  facet normal 0 0 -1
    outer loop
      vertex -2.98049 5.55038 -2
      vertex -15.0784 24.5707 -2
      vertex -13.8492 25.5565 -2
    endloop
  endfacet
  facet normal -0 0 -1
    outer loop
      vertex -3.94962 4.90821 -2
      vertex -15.832 4.79225 -2
      vertex -16.8524 5.99282 -2
    endloop
  endfacet
  facet normal 0 0 -1
    outer loop
      vertex -2.98049 5.55038 -2
      vertex -16.1873 23.4513 -2
      vertex -15.0784 24.5707 -2
    endloop
  endfacet
  facet normal 0 0 -1
    outer loop
      vertex -3.94962 4.90821 -2
      vertex -16.8524 5.99282 -2
      vertex -17.7294 7.30188 -2
    endloop
  endfacet
  facet normal 0 0 -1
    outer loop
      vertex -2.98049 5.55038 -2
      vertex -17.1613 22.2127 -2
      vertex -16.1873 23.4513 -2
    endloop
  endfacet
  facet normal 0 0 -1
    outer loop
      vertex -3.94962 4.90821 -2
      vertex -17.7294 7.30188 -2
      vertex -18.4514 8.70238 -2
    endloop
  endfacet
  facet normal 0 0 -1
    outer loop
      vertex -2.98049 5.55038 -2
      vertex -17.9877 20.8712 -2
      vertex -17.1613 22.2127 -2
    endloop
  endfacet
  facet normal 0 0 -1
    outer loop
      vertex -3.94962 4.90821 -2
      vertex -18.4514 8.70238 -2
      vertex -19.009 10.176 -2
    endloop
  endfacet
  facet normal 0 0 -1
    outer loop
      vertex -2.98049 5.55038 -2
      vertex -18.6559 19.4443 -2
      vertex -17.9877 20.8712 -2
    endloop
  endfacet
  facet normal 0 0 -1
    outer loop
      vertex -3.94962 4.90821 -2
      vertex -19.009 10.176 -2
      vertex -19.3951 11.7037 -2
    endloop
  endfacet
  facet normal 0 0 -1
    outer loop
      vertex -2.98049 5.55038 -2
      vertex -19.1571 17.9505 -2
      vertex -18.6559 19.4443 -2
    endloop
  endfacet
  facet normal 0 0 -1
    outer loop
      vertex -3.94962 4.90821 -2
      vertex -19.3951 11.7037 -2
      vertex -19.6044 13.2654 -2
    endloop
  endfacet
  facet normal 0 0 -1
    outer loop
      vertex -2.98049 5.55038 -2
      vertex -19.4847 16.4092 -2
      vertex -19.1571 17.9505 -2
    endloop
  endfacet
  facet normal 0 0 -1
    outer loop
      vertex -2.98049 5.55038 -2
      vertex -19.6044 13.2654 -2
      vertex -19.6344 14.8407 -2
    endloop
  endfacet
  facet normal 0 0 -1
    outer loop
      vertex -2.98049 5.55038 -2
      vertex -19.6344 14.8407 -2
      vertex -19.4847 16.4092 -2
    endloop
  endfacet
  facet normal 0.235774 0.971808 -0
    outer loop
      vertex -1.83065 27.5187 -2
      vertex -3.36189 27.8902 5
      vertex -1.83065 27.5187 5
    endloop
  endfacet
  facet normal 0.235774 0.971808 0
    outer loop
      vertex -3.36189 27.8902 5
      vertex -1.83065 27.5187 -2
      vertex -3.36189 27.8902 -2
    endloop
  endfacet
  facet normal 0.123441 0.992352 -0
    outer loop
      vertex -3.36189 27.8902 -2
      vertex -4.92549 28.0847 5
      vertex -3.36189 27.8902 5
    endloop
  endfacet
  facet normal 0.123441 0.992352 0
    outer loop
      vertex -4.92549 28.0847 5
      vertex -3.36189 27.8902 -2
      vertex -4.92549 28.0847 -2
    endloop
  endfacet
  facet normal -0.217182 0.976131 0
    outer loop
      vertex -8.06809 27.935 -2
      vertex -9.60612 27.5928 5
      vertex -8.06809 27.935 5
    endloop
  endfacet
  facet normal -0.217182 0.976131 0
    outer loop
      vertex -9.60612 27.5928 5
      vertex -8.06809 27.935 -2
      vertex -9.60612 27.5928 -2
    endloop
  endfacet
  facet normal -0.327101 0.944989 0
    outer loop
      vertex -9.60612 27.5928 -2
      vertex -11.0951 27.0774 5
      vertex -9.60612 27.5928 5
    endloop
  endfacet
  facet normal -0.327101 0.944989 0
    outer loop
      vertex -11.0951 27.0774 5
      vertex -9.60612 27.5928 -2
      vertex -11.0951 27.0774 -2
    endloop
  endfacet
  facet normal -0.532598 0.846368 0
    outer loop
      vertex -12.5156 26.3957 -2
      vertex -13.8492 25.5565 5
      vertex -12.5156 26.3957 5
    endloop
  endfacet
  facet normal -0.532598 0.846368 0
    outer loop
      vertex -13.8492 25.5565 5
      vertex -12.5156 26.3957 -2
      vertex -13.8492 25.5565 -2
    endloop
  endfacet
  facet normal -0.90562 0.424091 0
    outer loop
      vertex -18.6559 19.4443 -2
      vertex -17.9877 20.8712 5
      vertex -17.9877 20.8712 -2
    endloop
  endfacet
  facet normal -0.90562 0.424091 0
    outer loop
      vertex -17.9877 20.8712 5
      vertex -18.6559 19.4443 -2
      vertex -18.6559 19.4443 5
    endloop
  endfacet
  facet normal -0.625639 0.780113 0
    outer loop
      vertex -13.8492 25.5565 -2
      vertex -15.0784 24.5707 5
      vertex -13.8492 25.5565 5
    endloop
  endfacet
  facet normal -0.625639 0.780113 0
    outer loop
      vertex -15.0784 24.5707 5
      vertex -13.8492 25.5565 -2
      vertex -15.0784 24.5707 -2
    endloop
  endfacet
  facet normal -0.683143 -0.730284 0
    outer loop
      vertex -15.832 4.79225 -2
      vertex -14.6813 3.71583 5
      vertex -15.832 4.79225 5
    endloop
  endfacet
  facet normal -0.683143 -0.730284 -0
    outer loop
      vertex -14.6813 3.71583 5
      vertex -15.832 4.79225 -2
      vertex -14.6813 3.71583 -2
    endloop
  endfacet
  facet normal -0.595478 -0.803372 0
    outer loop
      vertex -14.6813 3.71583 -2
      vertex -13.4155 2.77759 5
      vertex -14.6813 3.71583 5
    endloop
  endfacet
  facet normal -0.595478 -0.803372 -0
    outer loop
      vertex -13.4155 2.77759 5
      vertex -14.6813 3.71583 -2
      vertex -13.4155 2.77759 -2
    endloop
  endfacet
  facet normal -0.830791 -0.556585 0
    outer loop
      vertex -16.8524 5.99282 -2
      vertex -17.7294 7.30188 5
      vertex -17.7294 7.30188 -2
    endloop
  endfacet
  facet normal -0.830791 -0.556585 0
    outer loop
      vertex -17.7294 7.30188 5
      vertex -16.8524 5.99282 -2
      vertex -16.8524 5.99282 5
    endloop
  endfacet
  facet normal -0.995476 0.0950098 0
    outer loop
      vertex -19.6344 14.8407 -2
      vertex -19.4847 16.4092 5
      vertex -19.4847 16.4092 -2
    endloop
  endfacet
  facet normal -0.995476 0.0950098 0
    outer loop
      vertex -19.4847 16.4092 5
      vertex -19.6344 14.8407 -2
      vertex -19.6344 14.8407 5
    endloop
  endfacet
  facet normal -0.948059 0.318093 0
    outer loop
      vertex -19.1571 17.9505 -2
      vertex -18.6559 19.4443 5
      vertex -18.6559 19.4443 -2
    endloop
  endfacet
  facet normal -0.948059 0.318093 0
    outer loop
      vertex -18.6559 19.4443 5
      vertex -19.1571 17.9505 -2
      vertex -19.1571 17.9505 5
    endloop
  endfacet
  facet normal -0.969516 -0.245029 0
    outer loop
      vertex -19.009 10.176 -2
      vertex -19.3951 11.7037 5
      vertex -19.3951 11.7037 -2
    endloop
  endfacet
  facet normal -0.969516 -0.245029 0
    outer loop
      vertex -19.3951 11.7037 5
      vertex -19.009 10.176 -2
      vertex -19.009 10.176 5
    endloop
  endfacet
  facet normal -0.991138 -0.132833 0
    outer loop
      vertex -19.3951 11.7037 -2
      vertex -19.6044 13.2654 5
      vertex -19.6044 13.2654 -2
    endloop
  endfacet
  facet normal -0.991138 -0.132833 0
    outer loop
      vertex -19.6044 13.2654 5
      vertex -19.3951 11.7037 -2
      vertex -19.3951 11.7037 5
    endloop
  endfacet
  facet normal 0.449725 0.893167 -0
    outer loop
      vertex 1.05556 26.2665 -2
      vertex -0.351741 26.9751 5
      vertex 1.05556 26.2665 5
    endloop
  endfacet
  facet normal 0.449725 0.893167 0
    outer loop
      vertex -0.351741 26.9751 5
      vertex 1.05556 26.2665 -2
      vertex -0.351741 26.9751 -2
    endloop
  endfacet
  facet normal 0.640365 0.76807 -0
    outer loop
      vertex 3.58314 24.3931 -2
      vertex 2.37292 25.4021 5
      vertex 3.58314 24.3931 5
    endloop
  endfacet
  facet normal 0.640365 0.76807 0
    outer loop
      vertex 2.37292 25.4021 5
      vertex 3.58314 24.3931 -2
      vertex 2.37292 25.4021 -2
    endloop
  endfacet
  facet normal 0.797666 0.603099 0
    outer loop
      vertex 5.62071 21.9959 5
      vertex 4.67047 23.2527 -2
      vertex 4.67047 23.2527 5
    endloop
  endfacet
  facet normal 0.797666 0.603099 0
    outer loop
      vertex 4.67047 23.2527 -2
      vertex 5.62071 21.9959 5
      vertex 5.62071 21.9959 -2
    endloop
  endfacet
  facet normal 0.964684 -0.263409 0
    outer loop
      vertex 7.23895 9.92616 5
      vertex 7.654 11.4462 -2
      vertex 7.654 11.4462 5
    endloop
  endfacet
  facet normal 0.964684 -0.263409 0
    outer loop
      vertex 7.654 11.4462 -2
      vertex 7.23895 9.92616 5
      vertex 7.23895 9.92616 -2
    endloop
  endfacet
  facet normal 0.981926 0.189264 0
    outer loop
      vertex 7.83318 16.1492 5
      vertex 7.53498 17.6963 -2
      vertex 7.53498 17.6963 5
    endloop
  endfacet
  facet normal 0.981926 0.189264 0
    outer loop
      vertex 7.53498 17.6963 -2
      vertex 7.83318 16.1492 5
      vertex 7.83318 16.1492 -2
    endloop
  endfacet
  facet normal 0.999275 -0.038067 0
    outer loop
      vertex 7.89308 13.0036 5
      vertex 7.95306 14.5781 -2
      vertex 7.95306 14.5781 5
    endloop
  endfacet
  facet normal 0.999275 -0.038067 0
    outer loop
      vertex 7.95306 14.5781 -2
      vertex 7.89308 13.0036 5
      vertex 7.89308 13.0036 -2
    endloop
  endfacet
  facet normal 0.879949 -0.475068 0
    outer loop
      vertex 5.9048 7.07688 5
      vertex 6.65334 8.46337 -2
      vertex 6.65334 8.46337 5
    endloop
  endfacet
  facet normal 0.879949 -0.475068 0
    outer loop
      vertex 6.65334 8.46337 -2
      vertex 5.9048 7.07688 5
      vertex 5.9048 7.07688 -2
    endloop
  endfacet
  facet normal -0.290863 -0.956765 0
    outer loop
      vertex -10.6054 1.36263 -2
      vertex -9.09791 0.904342 5
      vertex -10.6054 1.36263 5
    endloop
  endfacet
  facet normal -0.290863 -0.956765 -0
    outer loop
      vertex -9.09791 0.904342 5
      vertex -10.6054 1.36263 -2
      vertex -9.09791 0.904342 -2
    endloop
  endfacet
  facet normal -0.0665908 -0.99778 0
    outer loop
      vertex -7.54796 0.62089 -2
      vertex -6.25209 0.534405 5
      vertex -7.54796 0.62089 5
    endloop
  endfacet
  facet normal -0.0665908 -0.99778 -0
    outer loop
      vertex -6.25209 0.534405 5
      vertex -7.54796 0.62089 -2
      vertex -6.25209 0.534405 -2
    endloop
  endfacet
  facet normal 0.345 0.938603 -0
    outer loop
      vertex -0.351741 26.9751 -2
      vertex -1.83065 27.5187 5
      vertex -0.351741 26.9751 5
    endloop
  endfacet
  facet normal 0.345 0.938603 0
    outer loop
      vertex -1.83065 27.5187 5
      vertex -0.351741 26.9751 -2
      vertex -1.83065 27.5187 -2
    endloop
  endfacet
  facet normal -0.851414 0.524494 0
    outer loop
      vertex -17.9877 20.8712 -2
      vertex -17.1613 22.2127 5
      vertex -17.1613 22.2127 -2
    endloop
  endfacet
  facet normal -0.851414 0.524494 0
    outer loop
      vertex -17.1613 22.2127 5
      vertex -17.9877 20.8712 -2
      vertex -17.9877 20.8712 5
    endloop
  endfacet
  facet normal 0.988421 -0.151735 0
    outer loop
      vertex 7.654 11.4462 5
      vertex 7.89308 13.0036 -2
      vertex 7.89308 13.0036 5
    endloop
  endfacet
  facet normal 0.988421 -0.151735 0
    outer loop
      vertex 7.89308 13.0036 -2
      vertex 7.654 11.4462 5
      vertex 7.654 11.4462 -2
    endloop
  endfacet
  facet normal 0.953956 0.299946 0
    outer loop
      vertex 7.53498 17.6963 5
      vertex 7.06237 19.1994 -2
      vertex 7.06237 19.1994 5
    endloop
  endfacet
  facet normal 0.953956 0.299946 0
    outer loop
      vertex 7.06237 19.1994 -2
      vertex 7.53498 17.6963 5
      vertex 7.53498 17.6963 -2
    endloop
  endfacet
  facet normal 0.997102 0.0760821 0
    outer loop
      vertex 7.95306 14.5781 5
      vertex 7.83318 16.1492 -2
      vertex 7.83318 16.1492 5
    endloop
  endfacet
  facet normal 0.997102 0.0760821 0
    outer loop
      vertex 7.83318 16.1492 -2
      vertex 7.95306 14.5781 5
      vertex 7.95306 14.5781 -2
    endloop
  endfacet
  facet normal 0.749481 -0.662026 0
    outer loop
      vertex 4.09274 4.75413 5
      vertex 5.0031 5.78475 -2
      vertex 5.0031 5.78475 5
    endloop
  endfacet
  facet normal 0.749481 -0.662026 0
    outer loop
      vertex 5.0031 5.78475 -2
      vertex 4.09274 4.75413 5
      vertex 4.09274 4.75413 -2
    endloop
  endfacet
  facet normal -0.179895 -0.983686 0
    outer loop
      vertex -9.09791 0.904342 -2
      vertex -7.54796 0.62089 5
      vertex -9.09791 0.904342 5
    endloop
  endfacet
  facet normal -0.179895 -0.983686 -0
    outer loop
      vertex -7.54796 0.62089 5
      vertex -9.09791 0.904342 -2
      vertex -7.54796 0.62089 -2
    endloop
  endfacet
  facet normal 0.861228 0.508219 0
    outer loop
      vertex 6.42149 20.6389 5
      vertex 5.62071 21.9959 -2
      vertex 5.62071 21.9959 5
    endloop
  endfacet
  facet normal 0.861228 0.508219 0
    outer loop
      vertex 5.62071 21.9959 -2
      vertex 6.42149 20.6389 5
      vertex 6.42149 20.6389 -2
    endloop
  endfacet
  facet normal 0.913552 0.406723 0
    outer loop
      vertex 7.06237 19.1994 5
      vertex 6.42149 20.6389 -2
      vertex 6.42149 20.6389 5
    endloop
  endfacet
  facet normal 0.913552 0.406723 0
    outer loop
      vertex 6.42149 20.6389 -2
      vertex 7.06237 19.1994 5
      vertex 7.06237 19.1994 -2
    endloop
  endfacet
  facet normal 0.153386 0.988166 -0
    outer loop
      vertex 0.798405 6.22432 0
      vertex 0.387833 6.28805 5
      vertex 0.798405 6.22432 5
    endloop
  endfacet
  facet normal 0.153386 0.988166 0
    outer loop
      vertex 0.387833 6.28805 5
      vertex 0.798405 6.22432 0
      vertex 0.387833 6.28805 0
    endloop
  endfacet
  facet normal 0.153391 0.988166 -0
    outer loop
      vertex 1.53666 6.10972 -2.05
      vertex 0.387833 6.28805 -2
      vertex 1.53666 6.10972 -2
    endloop
  endfacet
  facet normal 0.153391 0.988166 0
    outer loop
      vertex 0.387833 6.28805 -2
      vertex 1.53666 6.10972 -2.05
      vertex 0.387833 6.28805 -2.05
    endloop
  endfacet
  facet normal -0.499998 -0.866027 0
    outer loop
      vertex -3.63998 -5.14204 -2.05
      vertex -2.63315 -5.72333 5
      vertex -3.63998 -5.14204 5
    endloop
  endfacet
  facet normal -0.499998 -0.866027 -0
    outer loop
      vertex -2.63315 -5.72333 5
      vertex -3.63998 -5.14204 -2.05
      vertex -2.63315 -5.72333 -2.05
    endloop
  endfacet
  facet normal 0.332356 0.943154 -0
    outer loop
      vertex 2.63315 5.72333 -2.05
      vertex 1.53666 6.10972 -2
      vertex 2.63315 5.72333 -2
    endloop
  endfacet
  facet normal 0.332356 0.943154 0
    outer loop
      vertex 1.53666 6.10972 -2
      vertex 2.63315 5.72333 -2.05
      vertex 1.53666 6.10972 -2.05
    endloop
  endfacet
  facet normal -0.908466 0.41796 0
    outer loop
      vertex -5.94187 2.09384 -2.05
      vertex -5.45596 3.15 -2
      vertex -5.45596 3.15 -2.05
    endloop
  endfacet
  facet normal -0.908466 0.41796 0
    outer loop
      vertex -5.45596 3.15 -2
      vertex -5.94187 2.09384 -2.05
      vertex -5.94187 2.09384 -2
    endloop
  endfacet
  facet normal 0 0 -1
    outer loop
      vertex 6.22544 -0.966367 -2.05
      vertex 6.15414 1.34778 -2.05
      vertex 6.29701 0.19401 -2.05
    endloop
  endfacet
  facet normal 0 0 -1
    outer loop
      vertex 5.94187 -2.09383 -2.05
      vertex 6.15414 1.34778 -2.05
      vertex 6.22544 -0.966367 -2.05
    endloop
  endfacet
  facet normal 0 0 -1
    outer loop
      vertex 5.94187 -2.09383 -2.05
      vertex 5.8017 2.45565 -2.05
      vertex 6.15414 1.34778 -2.05
    endloop
  endfacet
  facet normal 0 0 -1
    outer loop
      vertex 5.45596 -3.15 -2.05
      vertex 5.8017 2.45565 -2.05
      vertex 5.94187 -2.09383 -2.05
    endloop
  endfacet
  facet normal 0 0 -1
    outer loop
      vertex 5.45596 -3.15 -2.05
      vertex 5.25169 3.4799 -2.05
      vertex 5.8017 2.45565 -2.05
    endloop
  endfacet
  facet normal 0 0 -1
    outer loop
      vertex 4.78425 -4.0989 -2.05
      vertex 5.25169 3.4799 -2.05
      vertex 5.45596 -3.15 -2.05
    endloop
  endfacet
  facet normal 0 0 -1
    outer loop
      vertex 4.78425 -4.0989 -2.05
      vertex 4.52285 4.38564 -2.05
      vertex 5.25169 3.4799 -2.05
    endloop
  endfacet
  facet normal 0 0 -1
    outer loop
      vertex 3.94962 -4.90821 -2.05
      vertex 4.52285 4.38564 -2.05
      vertex 4.78425 -4.0989 -2.05
    endloop
  endfacet
  facet normal 0 0 -1
    outer loop
      vertex 3.94962 -4.90821 -2.05
      vertex 3.63997 5.14204 -2.05
      vertex 4.52285 4.38564 -2.05
    endloop
  endfacet
  facet normal 0 0 -1
    outer loop
      vertex 2.98049 -5.55038 -2.05
      vertex 3.63997 5.14204 -2.05
      vertex 3.94962 -4.90821 -2.05
    endloop
  endfacet
  facet normal 0 0 -1
    outer loop
      vertex 2.98049 -5.55038 -2.05
      vertex 2.63315 5.72333 -2.05
      vertex 3.63997 5.14204 -2.05
    endloop
  endfacet
  facet normal 0 0 -1
    outer loop
      vertex 1.90986 -6.00353 -2.05
      vertex 2.63315 5.72333 -2.05
      vertex 2.98049 -5.55038 -2.05
    endloop
  endfacet
  facet normal 0 0 -1
    outer loop
      vertex 1.90986 -6.00353 -2.05
      vertex 1.53666 6.10972 -2.05
      vertex 2.63315 5.72333 -2.05
    endloop
  endfacet
  facet normal 0 0 -1
    outer loop
      vertex 0.774196 -6.25225 -2.05
      vertex 1.53666 6.10972 -2.05
      vertex 1.90986 -6.00353 -2.05
    endloop
  endfacet
  facet normal 0 0 -1
    outer loop
      vertex 0.774196 -6.25225 -2.05
      vertex 0.387833 6.28805 -2.05
      vertex 1.53666 6.10972 -2.05
    endloop
  endfacet
  facet normal 0 0 -1
    outer loop
      vertex -0.387834 -6.28805 -2.05
      vertex 0.387833 6.28805 -2.05
      vertex 0.774196 -6.25225 -2.05
    endloop
  endfacet
  facet normal 0 0 -1
    outer loop
      vertex -0.387834 -6.28805 -2.05
      vertex -0.774196 6.25225 -2.05
      vertex 0.387833 6.28805 -2.05
    endloop
  endfacet
  facet normal 0 0 -1
    outer loop
      vertex -1.53666 -6.10972 -2.05
      vertex -0.774196 6.25225 -2.05
      vertex -0.387834 -6.28805 -2.05
    endloop
  endfacet
  facet normal 0 0 -1
    outer loop
      vertex -1.53666 -6.10972 -2.05
      vertex -1.90986 6.00354 -2.05
      vertex -0.774196 6.25225 -2.05
    endloop
  endfacet
  facet normal 0 0 -1
    outer loop
      vertex -2.63315 -5.72333 -2.05
      vertex -1.90986 6.00354 -2.05
      vertex -1.53666 -6.10972 -2.05
    endloop
  endfacet
  facet normal 0 0 -1
    outer loop
      vertex -2.63315 -5.72333 -2.05
      vertex -2.98049 5.55038 -2.05
      vertex -1.90986 6.00354 -2.05
    endloop
  endfacet
  facet normal 0 0 -1
    outer loop
      vertex -3.63998 -5.14204 -2.05
      vertex -2.98049 5.55038 -2.05
      vertex -2.63315 -5.72333 -2.05
    endloop
  endfacet
  facet normal 0 0 -1
    outer loop
      vertex -3.63998 -5.14204 -2.05
      vertex -3.94962 4.90821 -2.05
      vertex -2.98049 5.55038 -2.05
    endloop
  endfacet
  facet normal 0 0 -1
    outer loop
      vertex -4.52285 -4.38564 -2.05
      vertex -3.94962 4.90821 -2.05
      vertex -3.63998 -5.14204 -2.05
    endloop
  endfacet
  facet normal 0 0 -1
    outer loop
      vertex -4.52285 -4.38564 -2.05
      vertex -4.78425 4.0989 -2.05
      vertex -3.94962 4.90821 -2.05
    endloop
  endfacet
  facet normal 0 0 -1
    outer loop
      vertex -5.2517 -3.4799 -2.05
      vertex -4.78425 4.0989 -2.05
      vertex -4.52285 -4.38564 -2.05
    endloop
  endfacet
  facet normal 0 0 -1
    outer loop
      vertex -5.2517 -3.4799 -2.05
      vertex -5.45596 3.15 -2.05
      vertex -4.78425 4.0989 -2.05
    endloop
  endfacet
  facet normal 0 0 -1
    outer loop
      vertex -5.8017 -2.45565 -2.05
      vertex -5.45596 3.15 -2.05
      vertex -5.2517 -3.4799 -2.05
    endloop
  endfacet
  facet normal 0 0 -1
    outer loop
      vertex -5.8017 -2.45565 -2.05
      vertex -5.94187 2.09384 -2.05
      vertex -5.45596 3.15 -2.05
    endloop
  endfacet
  facet normal 0 0 -1
    outer loop
      vertex -6.15414 -1.34778 -2.05
      vertex -5.94187 2.09384 -2.05
      vertex -5.8017 -2.45565 -2.05
    endloop
  endfacet
  facet normal 0 0 -1
    outer loop
      vertex -6.15414 -1.34778 -2.05
      vertex -6.22544 0.966368 -2.05
      vertex -5.94187 2.09384 -2.05
    endloop
  endfacet
  facet normal 0 -0 -1
    outer loop
      vertex -6.22544 0.966368 -2.05
      vertex -6.15414 -1.34778 -2.05
      vertex -6.29701 -0.194008 -2.05
    endloop
  endfacet
  facet normal -0.389787 0.920905 0
    outer loop
      vertex -1.90986 6.00354 0
      vertex -2.98049 5.55038 5
      vertex -1.90986 6.00354 5
    endloop
  endfacet
  facet normal -0.389787 0.920905 0
    outer loop
      vertex -2.98049 5.55038 5
      vertex -1.90986 6.00354 0
      vertex -2.98049 5.55038 0
    endloop
  endfacet
  facet normal -0.389787 0.920905 0
    outer loop
      vertex -1.90986 6.00354 -2.05
      vertex -2.98049 5.55038 -2
      vertex -1.90986 6.00354 -2
    endloop
  endfacet
  facet normal -0.389787 0.920905 0
    outer loop
      vertex -2.98049 5.55038 -2
      vertex -1.90986 6.00354 -2.05
      vertex -2.98049 5.55038 -2.05
    endloop
  endfacet
  facet normal -0.952942 -0.303154 0
    outer loop
      vertex -5.8017 -2.45565 -2.05
      vertex -6.15414 -1.34778 5
      vertex -6.15414 -1.34778 -2.05
    endloop
  endfacet
  facet normal -0.952942 -0.303154 0
    outer loop
      vertex -6.15414 -1.34778 5
      vertex -5.8017 -2.45565 -2.05
      vertex -5.8017 -2.45565 5
    endloop
  endfacet
  facet normal -0.332356 -0.943154 0
    outer loop
      vertex -2.63315 -5.72333 -2.05
      vertex -1.53666 -6.10972 5
      vertex -2.63315 -5.72333 5
    endloop
  endfacet
  facet normal -0.332356 -0.943154 -0
    outer loop
      vertex -1.53666 -6.10972 5
      vertex -2.63315 -5.72333 -2.05
      vertex -1.53666 -6.10972 -2.05
    endloop
  endfacet
  facet normal -0.0307936 0.999526 0
    outer loop
      vertex 0.387833 6.28805 0
      vertex -0.774196 6.25225 5
      vertex 0.387833 6.28805 5
    endloop
  endfacet
  facet normal -0.0307936 0.999526 0
    outer loop
      vertex -0.774196 6.25225 5
      vertex 0.387833 6.28805 0
      vertex -0.774196 6.25225 0
    endloop
  endfacet
  facet normal -0.0307936 0.999526 0
    outer loop
      vertex 0.387833 6.28805 -2.05
      vertex -0.774196 6.25225 -2
      vertex 0.387833 6.28805 -2
    endloop
  endfacet
  facet normal -0.0307936 0.999526 0
    outer loop
      vertex -0.774196 6.25225 -2
      vertex 0.387833 6.28805 -2.05
      vertex -0.774196 6.25225 -2.05
    endloop
  endfacet
  facet normal -0.779079 -0.626926 0
    outer loop
      vertex -4.52285 -4.38564 -2.05
      vertex -5.2517 -3.4799 5
      vertex -5.2517 -3.4799 -2.05
    endloop
  endfacet
  facet normal -0.779079 -0.626926 0
    outer loop
      vertex -5.2517 -3.4799 5
      vertex -4.52285 -4.38564 -2.05
      vertex -4.52285 -4.38564 5
    endloop
  endfacet
  facet normal -0.21393 0.976849 0
    outer loop
      vertex -0.774196 6.25225 0
      vertex -1.90986 6.00354 5
      vertex -0.774196 6.25225 5
    endloop
  endfacet
  facet normal -0.21393 0.976849 0
    outer loop
      vertex -1.90986 6.00354 5
      vertex -0.774196 6.25225 0
      vertex -1.90986 6.00354 0
    endloop
  endfacet
  facet normal -0.21393 0.976849 0
    outer loop
      vertex -0.774196 6.25225 -2.05
      vertex -1.90986 6.00354 -2
      vertex -0.774196 6.25225 -2
    endloop
  endfacet
  facet normal -0.21393 0.976849 0
    outer loop
      vertex -1.90986 6.00354 -2
      vertex -0.774196 6.25225 -2.05
      vertex -1.90986 6.00354 -2.05
    endloop
  endfacet
  facet normal -0.696133 0.717913 0
    outer loop
      vertex -3.94962 4.90821 -2.05
      vertex -4.78425 4.0989 -2
      vertex -3.94962 4.90821 -2
    endloop
  endfacet
  facet normal -0.696133 0.717913 0
    outer loop
      vertex -4.78425 4.0989 -2
      vertex -3.94962 4.90821 -2.05
      vertex -4.78425 4.0989 -2.05
    endloop
  endfacet
  facet normal -0.696133 0.717913 0
    outer loop
      vertex -3.94962 4.90821 0
      vertex -4.78425 4.0989 5
      vertex -3.94962 4.90821 5
    endloop
  endfacet
  facet normal -0.696133 0.717913 0
    outer loop
      vertex -4.78425 4.0989 5
      vertex -3.94962 4.90821 0
      vertex -4.78425 4.0989 0
    endloop
  endfacet
  facet normal -0.816198 0.577772 0
    outer loop
      vertex -5.45596 3.15 -2.05
      vertex -4.78425 4.0989 -2
      vertex -4.78425 4.0989 -2.05
    endloop
  endfacet
  facet normal -0.816198 0.577772 0
    outer loop
      vertex -4.78425 4.0989 -2
      vertex -5.45596 3.15 -2.05
      vertex -5.45596 3.15 -2
    endloop
  endfacet
  facet normal -0.816197 0.577774 0
    outer loop
      vertex -4.94637 3.86988 0
      vertex -4.78425 4.0989 5
      vertex -4.78425 4.0989 0
    endloop
  endfacet
  facet normal -0.816197 0.577774 0
    outer loop
      vertex -4.78425 4.0989 5
      vertex -4.94637 3.86988 0
      vertex -4.94637 3.86988 5
    endloop
  endfacet
  facet normal -0.552366 0.833602 0
    outer loop
      vertex -2.98049 5.55038 0
      vertex -3.94962 4.90821 5
      vertex -2.98049 5.55038 5
    endloop
  endfacet
  facet normal -0.552366 0.833602 0
    outer loop
      vertex -3.94962 4.90821 5
      vertex -2.98049 5.55038 0
      vertex -3.94962 4.90821 0
    endloop
  endfacet
  facet normal -0.552366 0.833602 0
    outer loop
      vertex -2.98049 5.55038 -2.05
      vertex -3.94962 4.90821 -2
      vertex -2.98049 5.55038 -2
    endloop
  endfacet
  facet normal -0.552366 0.833602 0
    outer loop
      vertex -3.94962 4.90821 -2
      vertex -2.98049 5.55038 -2.05
      vertex -3.94962 4.90821 -2.05
    endloop
  endfacet
  facet normal -0.998102 0.061578 0
    outer loop
      vertex -6.22544 0.966368 -2.05
      vertex -6.25209 0.534405 -2
      vertex -6.22544 0.966368 -2
    endloop
  endfacet
  facet normal -0.998103 0.0615613 -0.000144996
    outer loop
      vertex -6.29701 -0.194008 -2.05
      vertex -6.25209 0.534405 -2
      vertex -6.22544 0.966368 -2.05
    endloop
  endfacet
  facet normal -0.998104 0.0615514 0
    outer loop
      vertex -6.29701 -0.194008 5
      vertex -6.25209 0.534405 -2
      vertex -6.29701 -0.194008 -2.05
    endloop
  endfacet
  facet normal -0.998104 0.0615514 0
    outer loop
      vertex -6.25209 0.534405 -2
      vertex -6.29701 -0.194008 5
      vertex -6.25209 0.534405 5
    endloop
  endfacet
  facet normal -0.969797 0.243913 0
    outer loop
      vertex -6.22544 0.966368 -2.05
      vertex -5.94187 2.09384 -2
      vertex -5.94187 2.09384 -2.05
    endloop
  endfacet
  facet normal -0.969797 0.243913 0
    outer loop
      vertex -5.94187 2.09384 -2
      vertex -6.22544 0.966368 -2.05
      vertex -6.22544 0.966368 -2
    endloop
  endfacet
  facet normal -0.99242 -0.12289 0
    outer loop
      vertex -6.15414 -1.34778 -2.05
      vertex -6.29701 -0.194008 5
      vertex -6.29701 -0.194008 -2.05
    endloop
  endfacet
  facet normal -0.99242 -0.12289 0
    outer loop
      vertex -6.29701 -0.194008 5
      vertex -6.15414 -1.34778 -2.05
      vertex -6.15414 -1.34778 5
    endloop
  endfacet
  facet normal -0.881016 -0.473086 0
    outer loop
      vertex -5.2517 -3.4799 -2.05
      vertex -5.8017 -2.45565 5
      vertex -5.8017 -2.45565 -2.05
    endloop
  endfacet
  facet normal -0.881016 -0.473086 0
    outer loop
      vertex -5.8017 -2.45565 5
      vertex -5.2517 -3.4799 -2.05
      vertex -5.2517 -3.4799 5
    endloop
  endfacet
  facet normal -0.65062 -0.759404 0
    outer loop
      vertex -4.52285 -4.38564 -2.05
      vertex -3.63998 -5.14204 5
      vertex -4.52285 -4.38564 5
    endloop
  endfacet
  facet normal -0.65062 -0.759404 -0
    outer loop
      vertex -3.63998 -5.14204 5
      vertex -4.52285 -4.38564 -2.05
      vertex -3.63998 -5.14204 -2.05
    endloop
  endfacet
  facet normal 0.650613 0.75941 0
    outer loop
      vertex 4.52285 4.38564 5
      vertex 4.09274 4.75413 -2
      vertex 4.09274 4.75413 5
    endloop
  endfacet
  facet normal 0.650613 0.75941 -0
    outer loop
      vertex 4.52285 4.38564 -2.05
      vertex 4.09274 4.75413 -2
      vertex 4.52285 4.38564 5
    endloop
  endfacet
  facet normal 0.650616 0.759407 4.73563e-05
    outer loop
      vertex 3.63997 5.14204 -2.05
      vertex 4.09274 4.75413 -2
      vertex 4.52285 4.38564 -2.05
    endloop
  endfacet
  facet normal 0.650619 0.759405 0
    outer loop
      vertex 4.09274 4.75413 -2
      vertex 3.63997 5.14204 -2.05
      vertex 3.63997 5.14204 -2
    endloop
  endfacet
  facet normal 0.0307935 -0.999526 0
    outer loop
      vertex -0.387834 -6.28805 -2.05
      vertex 0.774196 -6.25225 5
      vertex -0.387834 -6.28805 5
    endloop
  endfacet
  facet normal 0.0307935 -0.999526 0
    outer loop
      vertex 0.774196 -6.25225 5
      vertex -0.387834 -6.28805 -2.05
      vertex 0.774196 -6.25225 -2.05
    endloop
  endfacet
  facet normal 0.696133 -0.717913 0
    outer loop
      vertex 3.94962 -4.90821 -2.05
      vertex 4.78425 -4.0989 5
      vertex 3.94962 -4.90821 5
    endloop
  endfacet
  facet normal 0.696133 -0.717913 0
    outer loop
      vertex 4.78425 -4.0989 5
      vertex 3.94962 -4.90821 -2.05
      vertex 4.78425 -4.0989 -2.05
    endloop
  endfacet
  facet normal 0.908467 -0.417957 0
    outer loop
      vertex 5.45596 -3.15 5
      vertex 5.94187 -2.09383 -2.05
      vertex 5.94187 -2.09383 5
    endloop
  endfacet
  facet normal 0.908467 -0.417957 0
    outer loop
      vertex 5.94187 -2.09383 -2.05
      vertex 5.45596 -3.15 5
      vertex 5.45596 -3.15 -2.05
    endloop
  endfacet
  facet normal 0.552366 -0.833602 0
    outer loop
      vertex 2.98049 -5.55038 -2.05
      vertex 3.94962 -4.90821 5
      vertex 2.98049 -5.55038 5
    endloop
  endfacet
  facet normal 0.552366 -0.833602 0
    outer loop
      vertex 3.94962 -4.90821 5
      vertex 2.98049 -5.55038 -2.05
      vertex 3.94962 -4.90821 -2.05
    endloop
  endfacet
  facet normal 0.389779 -0.920908 0
    outer loop
      vertex 1.90986 -6.00353 -2.05
      vertex 2.98049 -5.55038 5
      vertex 1.90986 -6.00353 5
    endloop
  endfacet
  facet normal 0.389779 -0.920908 0
    outer loop
      vertex 2.98049 -5.55038 5
      vertex 1.90986 -6.00353 -2.05
      vertex 2.98049 -5.55038 -2.05
    endloop
  endfacet
  facet normal 0.969797 -0.243915 0
    outer loop
      vertex 5.94187 -2.09383 5
      vertex 6.22544 -0.966367 -2.05
      vertex 6.22544 -0.966367 5
    endloop
  endfacet
  facet normal 0.969797 -0.243915 0
    outer loop
      vertex 6.22544 -0.966367 -2.05
      vertex 5.94187 -2.09383 5
      vertex 5.94187 -2.09383 -2.05
    endloop
  endfacet
  facet normal 0.881012 0.473093 0
    outer loop
      vertex 5.8017 2.45565 5
      vertex 5.25169 3.4799 -2.05
      vertex 5.25169 3.4799 5
    endloop
  endfacet
  facet normal 0.881012 0.473093 0
    outer loop
      vertex 5.25169 3.4799 -2.05
      vertex 5.8017 2.45565 5
      vertex 5.8017 2.45565 -2.05
    endloop
  endfacet
  facet normal 0.779083 0.626921 0
    outer loop
      vertex 5.25169 3.4799 5
      vertex 4.52285 4.38564 -2.05
      vertex 4.52285 4.38564 5
    endloop
  endfacet
  facet normal 0.779083 0.626921 0
    outer loop
      vertex 4.52285 4.38564 -2.05
      vertex 5.25169 3.4799 5
      vertex 5.25169 3.4799 -2.05
    endloop
  endfacet
  facet normal 0.99242 0.12289 0
    outer loop
      vertex 6.29701 0.19401 5
      vertex 6.15414 1.34778 -2.05
      vertex 6.15414 1.34778 5
    endloop
  endfacet
  facet normal 0.99242 0.12289 0
    outer loop
      vertex 6.15414 1.34778 -2.05
      vertex 6.29701 0.19401 5
      vertex 6.29701 0.19401 -2.05
    endloop
  endfacet
  facet normal -0.153391 -0.988166 0
    outer loop
      vertex -1.53666 -6.10972 -2.05
      vertex -0.387834 -6.28805 5
      vertex -1.53666 -6.10972 5
    endloop
  endfacet
  facet normal -0.153391 -0.988166 -0
    outer loop
      vertex -0.387834 -6.28805 5
      vertex -1.53666 -6.10972 -2.05
      vertex -0.387834 -6.28805 -2.05
    endloop
  endfacet
  facet normal 0.213938 -0.976847 0
    outer loop
      vertex 0.774196 -6.25225 -2.05
      vertex 1.90986 -6.00353 5
      vertex 0.774196 -6.25225 5
    endloop
  endfacet
  facet normal 0.213938 -0.976847 0
    outer loop
      vertex 1.90986 -6.00353 5
      vertex 0.774196 -6.25225 -2.05
      vertex 1.90986 -6.00353 -2.05
    endloop
  endfacet
  facet normal 0.816198 -0.577772 0
    outer loop
      vertex 4.78425 -4.0989 5
      vertex 5.45596 -3.15 -2.05
      vertex 5.45596 -3.15 5
    endloop
  endfacet
  facet normal 0.816198 -0.577772 0
    outer loop
      vertex 5.45596 -3.15 -2.05
      vertex 4.78425 -4.0989 5
      vertex 4.78425 -4.0989 -2.05
    endloop
  endfacet
  facet normal 0.998103 -0.0615612 0
    outer loop
      vertex 6.22544 -0.966367 5
      vertex 6.29701 0.19401 -2.05
      vertex 6.29701 0.19401 5
    endloop
  endfacet
  facet normal 0.998103 -0.0615612 0
    outer loop
      vertex 6.29701 0.19401 -2.05
      vertex 6.22544 -0.966367 5
      vertex 6.22544 -0.966367 -2.05
    endloop
  endfacet
  facet normal 0.952942 0.303154 0
    outer loop
      vertex 6.15414 1.34778 5
      vertex 5.8017 2.45565 -2.05
      vertex 5.8017 2.45565 5
    endloop
  endfacet
  facet normal 0.952942 0.303154 0
    outer loop
      vertex 5.8017 2.45565 -2.05
      vertex 6.15414 1.34778 5
      vertex 6.15414 1.34778 -2.05
    endloop
  endfacet
  facet normal 0.500001 0.866025 -0
    outer loop
      vertex 3.63997 5.14204 -2.05
      vertex 2.63315 5.72333 -2
      vertex 3.63997 5.14204 -2
    endloop
  endfacet
  facet normal 0.500001 0.866025 0
    outer loop
      vertex 2.63315 5.72333 -2
      vertex 3.63997 5.14204 -2.05
      vertex 2.63315 5.72333 -2.05
    endloop
  endfacet
  facet normal 0 0 1
    outer loop
      vertex 7.95306 14.5781 5
      vertex 4.53829 15.8803 5
      vertex 4.65086 14.0012 5
    endloop
  endfacet
  facet normal 0 0 1
    outer loop
      vertex 5.62071 21.9959 5
      vertex 4.092 17.709 5
      vertex 4.53829 15.8803 5
    endloop
  endfacet
  facet normal 0 0 1
    outer loop
      vertex 2.26594 20.9841 5
      vertex 4.67047 23.2527 5
      vertex 3.58314 24.3931 5
    endloop
  endfacet
  facet normal 0 0 1
    outer loop
      vertex 5.62071 21.9959 5
      vertex 3.32635 19.4287 5
      vertex 4.092 17.709 5
    endloop
  endfacet
  facet normal 0 0 1
    outer loop
      vertex 0.944858 22.3251 5
      vertex 3.58314 24.3931 5
      vertex 2.37292 25.4021 5
    endloop
  endfacet
  facet normal 0 0 1
    outer loop
      vertex 5.62071 21.9959 5
      vertex 2.26594 20.9841 5
      vertex 3.32635 19.4287 5
    endloop
  endfacet
  facet normal 0 0 1
    outer loop
      vertex -0.594436 23.4086 5
      vertex 2.37292 25.4021 5
      vertex 1.05556 26.2665 5
    endloop
  endfacet
  facet normal 0 0 1
    outer loop
      vertex 3.58314 24.3931 5
      vertex 0.944858 22.3251 5
      vertex 2.26594 20.9841 5
    endloop
  endfacet
  facet normal 0 0 1
    outer loop
      vertex -0.594436 23.4086 5
      vertex 1.05556 26.2665 5
      vertex -0.351741 26.9751 5
    endloop
  endfacet
  facet normal 0 0 1
    outer loop
      vertex 2.37292 25.4021 5
      vertex -0.594436 23.4086 5
      vertex 0.944858 22.3251 5
    endloop
  endfacet
  facet normal 0 0 1
    outer loop
      vertex -2.30247 24.1999 5
      vertex -0.351741 26.9751 5
      vertex -1.83065 27.5187 5
    endloop
  endfacet
  facet normal 0 0 1
    outer loop
      vertex -0.351741 26.9751 5
      vertex -2.30247 24.1999 5
      vertex -0.594436 23.4086 5
    endloop
  endfacet
  facet normal 0 0 1
    outer loop
      vertex -4.12435 24.6735 5
      vertex -1.83065 27.5187 5
      vertex -3.36189 27.8902 5
    endloop
  endfacet
  facet normal 0 0 1
    outer loop
      vertex -1.83065 27.5187 5
      vertex -4.12435 24.6735 5
      vertex -2.30247 24.1999 5
    endloop
  endfacet
  facet normal 0 0 1
    outer loop
      vertex -4.92549 28.0847 5
      vertex -4.12435 24.6735 5
      vertex -3.36189 27.8902 5
    endloop
  endfacet
  facet normal 0 0 1
    outer loop
      vertex -4.92549 28.0847 5
      vertex -6.00151 24.8142 5
      vertex -4.12435 24.6735 5
    endloop
  endfacet
  facet normal 0 0 1
    outer loop
      vertex -6.50107 28.0997 5
      vertex -6.00151 24.8142 5
      vertex -4.92549 28.0847 5
    endloop
  endfacet
  facet normal 0 0 1
    outer loop
      vertex -6.50107 28.0997 5
      vertex -7.87362 24.6174 5
      vertex -6.00151 24.8142 5
    endloop
  endfacet
  facet normal -0 0 1
    outer loop
      vertex -8.06809 27.935 5
      vertex -7.87362 24.6174 5
      vertex -6.50107 28.0997 5
    endloop
  endfacet
  facet normal -0 0 1
    outer loop
      vertex -9.60612 27.5928 5
      vertex -7.87362 24.6174 5
      vertex -8.06809 27.935 5
    endloop
  endfacet
  facet normal 0 0 1
    outer loop
      vertex -9.60612 27.5928 5
      vertex -9.68052 24.0895 5
      vertex -7.87362 24.6174 5
    endloop
  endfacet
  facet normal -0 0 1
    outer loop
      vertex -11.0951 27.0774 5
      vertex -9.68052 24.0895 5
      vertex -9.60612 27.5928 5
    endloop
  endfacet
  facet normal -0 0 1
    outer loop
      vertex -12.5156 26.3957 5
      vertex -9.68052 24.0895 5
      vertex -11.0951 27.0774 5
    endloop
  endfacet
  facet normal 0 0 1
    outer loop
      vertex -9.68052 24.0895 5
      vertex -12.5156 26.3957 5
      vertex -11.3641 23.2475 5
    endloop
  endfacet
  facet normal -0 0 1
    outer loop
      vertex -13.8492 25.5565 5
      vertex -11.3641 23.2475 5
      vertex -12.5156 26.3957 5
    endloop
  endfacet
  facet normal 0 0 1
    outer loop
      vertex -11.3641 23.2475 5
      vertex -13.8492 25.5565 5
      vertex -12.8703 22.1184 5
    endloop
  endfacet
  facet normal -0 0 1
    outer loop
      vertex -15.0784 24.5707 5
      vertex -12.8703 22.1184 5
      vertex -13.8492 25.5565 5
    endloop
  endfacet
  facet normal -0 0 1
    outer loop
      vertex -16.1873 23.4513 5
      vertex -12.8703 22.1184 5
      vertex -15.0784 24.5707 5
    endloop
  endfacet
  facet normal 0 0 1
    outer loop
      vertex -12.8703 22.1184 5
      vertex -16.1873 23.4513 5
      vertex -14.1507 20.7384 5
    endloop
  endfacet
  facet normal -0 0 1
    outer loop
      vertex -17.1613 22.2127 5
      vertex -14.1507 20.7384 5
      vertex -16.1873 23.4513 5
    endloop
  endfacet
  facet normal 0 0 1
    outer loop
      vertex -14.1507 20.7384 5
      vertex -17.1613 22.2127 5
      vertex -15.1641 19.1521 5
    endloop
  endfacet
  facet normal -0 0 1
    outer loop
      vertex -17.9877 20.8712 5
      vertex -15.1641 19.1521 5
      vertex -17.1613 22.2127 5
    endloop
  endfacet
  facet normal -0 0 1
    outer loop
      vertex -18.6559 19.4443 5
      vertex -15.1641 19.1521 5
      vertex -17.9877 20.8712 5
    endloop
  endfacet
  facet normal 0 0 1
    outer loop
      vertex -15.1641 19.1521 5
      vertex -18.6559 19.4443 5
      vertex -15.878 17.4103 5
    endloop
  endfacet
  facet normal -0 0 1
    outer loop
      vertex -19.1571 17.9505 5
      vertex -15.878 17.4103 5
      vertex -18.6559 19.4443 5
    endloop
  endfacet
  facet normal 0 0 1
    outer loop
      vertex -16.3256 13.6874 5
      vertex -17.7294 7.30188 5
      vertex -16.8524 5.99282 5
    endloop
  endfacet
  facet normal 0 0 1
    outer loop
      vertex -15.878 17.4103 5
      vertex -19.1571 17.9505 5
      vertex -16.2693 15.569 5
    endloop
  endfacet
  facet normal 0 0 1
    outer loop
      vertex -16.3256 13.6874 5
      vertex -18.4514 8.70238 5
      vertex -17.7294 7.30188 5
    endloop
  endfacet
  facet normal -0 0 1
    outer loop
      vertex -19.4847 16.4092 5
      vertex -16.2693 15.569 5
      vertex -19.1571 17.9505 5
    endloop
  endfacet
  facet normal 0 0 1
    outer loop
      vertex -16.3256 13.6874 5
      vertex -19.009 10.176 5
      vertex -18.4514 8.70238 5
    endloop
  endfacet
  facet normal 0 0 1
    outer loop
      vertex -19.6344 14.8407 5
      vertex -16.2693 15.569 5
      vertex -19.4847 16.4092 5
    endloop
  endfacet
  facet normal 0 0 1
    outer loop
      vertex -16.3256 13.6874 5
      vertex -19.3951 11.7037 5
      vertex -19.009 10.176 5
    endloop
  endfacet
  facet normal 0 0 1
    outer loop
      vertex -16.2693 15.569 5
      vertex -19.6344 14.8407 5
      vertex -16.3256 13.6874 5
    endloop
  endfacet
  facet normal 0 0 1
    outer loop
      vertex -16.3256 13.6874 5
      vertex -19.6044 13.2654 5
      vertex -19.3951 11.7037 5
    endloop
  endfacet
  facet normal 0 0 1
    outer loop
      vertex -16.3256 13.6874 5
      vertex -19.6344 14.8407 5
      vertex -19.6044 13.2654 5
    endloop
  endfacet
  facet normal -0 0 1
    outer loop
      vertex 4.53829 15.8803 5
      vertex 7.95306 14.5781 5
      vertex 7.83318 16.1492 5
    endloop
  endfacet
  facet normal 0 0 1
    outer loop
      vertex 7.95306 14.5781 5
      vertex 4.65086 14.0012 5
      vertex 7.89308 13.0036 5
    endloop
  endfacet
  facet normal 0 0 1
    outer loop
      vertex 4.53829 15.8803 5
      vertex 7.83318 16.1492 5
      vertex 7.53498 17.6963 5
    endloop
  endfacet
  facet normal 0 0 1
    outer loop
      vertex 4.42611 12.1323 5
      vertex 7.89308 13.0036 5
      vertex 4.65086 14.0012 5
    endloop
  endfacet
  facet normal 0 0 1
    outer loop
      vertex 4.53829 15.8803 5
      vertex 7.53498 17.6963 5
      vertex 7.06237 19.1994 5
    endloop
  endfacet
  facet normal 0 0 1
    outer loop
      vertex 7.89308 13.0036 5
      vertex 4.42611 12.1323 5
      vertex 7.654 11.4462 5
    endloop
  endfacet
  facet normal 0 0 1
    outer loop
      vertex 4.53829 15.8803 5
      vertex 7.06237 19.1994 5
      vertex 6.42149 20.6389 5
    endloop
  endfacet
  facet normal 0 0 1
    outer loop
      vertex 7.654 11.4462 5
      vertex 4.42611 12.1323 5
      vertex 7.23895 9.92616 5
    endloop
  endfacet
  facet normal 0 0 1
    outer loop
      vertex 4.53829 15.8803 5
      vertex 6.42149 20.6389 5
      vertex 5.62071 21.9959 5
    endloop
  endfacet
  facet normal -0 0 1
    outer loop
      vertex 3.87126 10.3335 5
      vertex 7.23895 9.92616 5
      vertex 4.42611 12.1323 5
    endloop
  endfacet
  facet normal 0 0 1
    outer loop
      vertex 2.26594 20.9841 5
      vertex 5.62071 21.9959 5
      vertex 4.67047 23.2527 5
    endloop
  endfacet
  facet normal 0 0 1
    outer loop
      vertex 7.23895 9.92616 5
      vertex 3.87126 10.3335 5
      vertex 6.65334 8.46337 5
    endloop
  endfacet
  facet normal -0 0 1
    outer loop
      vertex 3.00413 8.66266 5
      vertex 6.65334 8.46337 5
      vertex 3.87126 10.3335 5
    endloop
  endfacet
  facet normal 0 0 1
    outer loop
      vertex 6.65334 8.46337 5
      vertex 3.00413 8.66266 5
      vertex 5.9048 7.07688 5
    endloop
  endfacet
  facet normal 0 0 1
    outer loop
      vertex 5.9048 7.07688 5
      vertex 3.00413 8.66266 5
      vertex 5.0031 5.78475 5
    endloop
  endfacet
  facet normal -0 0 1
    outer loop
      vertex 1.85261 7.17353 5
      vertex 5.0031 5.78475 5
      vertex 3.00413 8.66266 5
    endloop
  endfacet
  facet normal 0 0 1
    outer loop
      vertex 5.0031 5.78475 5
      vertex 1.85261 7.17353 5
      vertex 4.09274 4.75413 5
    endloop
  endfacet
  facet normal -0 0 1
    outer loop
      vertex 0.798405 6.22432 5
      vertex 4.09274 4.75413 5
      vertex 1.85261 7.17353 5
    endloop
  endfacet
  facet normal 0 0 1
    outer loop
      vertex 4.09274 4.75413 5
      vertex 0.798405 6.22432 5
      vertex 3.94962 -4.90821 5
    endloop
  endfacet
  facet normal 0 0 1
    outer loop
      vertex 3.94962 -4.90821 5
      vertex 0.798405 6.22432 5
      vertex 2.98049 -5.55038 5
    endloop
  endfacet
  facet normal 0 0 1
    outer loop
      vertex 2.98049 -5.55038 5
      vertex 0.798405 6.22432 5
      vertex 1.90986 -6.00353 5
    endloop
  endfacet
  facet normal 0 0 1
    outer loop
      vertex 0.798405 6.22432 5
      vertex 0.774196 -6.25225 5
      vertex 1.90986 -6.00353 5
    endloop
  endfacet
  facet normal -0 0 1
    outer loop
      vertex -0.774196 6.25225 5
      vertex 0.798405 6.22432 5
      vertex 0.387833 6.28805 5
    endloop
  endfacet
  facet normal 0 0 1
    outer loop
      vertex 0.798405 6.22432 5
      vertex -0.387834 -6.28805 5
      vertex 0.774196 -6.25225 5
    endloop
  endfacet
  facet normal 0 0 1
    outer loop
      vertex -1.90986 6.00354 5
      vertex 0.798405 6.22432 5
      vertex -0.774196 6.25225 5
    endloop
  endfacet
  facet normal 0 0 1
    outer loop
      vertex 0.798405 6.22432 5
      vertex -1.53666 -6.10972 5
      vertex -0.387834 -6.28805 5
    endloop
  endfacet
  facet normal 0 0 1
    outer loop
      vertex 0.798405 6.22432 5
      vertex -1.90986 6.00354 5
      vertex -1.53666 -6.10972 5
    endloop
  endfacet
  facet normal 0 0 1
    outer loop
      vertex -1.90986 6.00354 5
      vertex -2.63315 -5.72333 5
      vertex -1.53666 -6.10972 5
    endloop
  endfacet
  facet normal -0 0 1
    outer loop
      vertex -2.98049 5.55038 5
      vertex -2.63315 -5.72333 5
      vertex -1.90986 6.00354 5
    endloop
  endfacet
  facet normal 0 0 1
    outer loop
      vertex -2.98049 5.55038 5
      vertex -3.63998 -5.14204 5
      vertex -2.63315 -5.72333 5
    endloop
  endfacet
  facet normal 0 0 1
    outer loop
      vertex -4.94637 3.86988 5
      vertex -2.98049 5.55038 5
      vertex -3.94962 4.90821 5
    endloop
  endfacet
  facet normal 0 0 1
    outer loop
      vertex -2.98049 5.55038 5
      vertex -4.94637 3.86988 5
      vertex -3.63998 -5.14204 5
    endloop
  endfacet
  facet normal 0 0 1
    outer loop
      vertex -4.94637 3.86988 5
      vertex -3.94962 4.90821 5
      vertex -4.78425 4.0989 5
    endloop
  endfacet
  facet normal 0 0 1
    outer loop
      vertex -3.63998 -5.14204 5
      vertex -4.94637 3.86988 5
      vertex -4.52285 -4.38564 5
    endloop
  endfacet
  facet normal 0 0 1
    outer loop
      vertex -4.94637 3.86988 5
      vertex -5.2517 -3.4799 5
      vertex -4.52285 -4.38564 5
    endloop
  endfacet
  facet normal -0 0 1
    outer loop
      vertex -6.25209 0.534405 5
      vertex -5.2517 -3.4799 5
      vertex -4.94637 3.86988 5
    endloop
  endfacet
  facet normal 0 0 1
    outer loop
      vertex -5.2517 -3.4799 5
      vertex -6.25209 0.534405 5
      vertex -5.8017 -2.45565 5
    endloop
  endfacet
  facet normal 0 0 1
    outer loop
      vertex -5.8017 -2.45565 5
      vertex -6.25209 0.534405 5
      vertex -6.15414 -1.34778 5
    endloop
  endfacet
  facet normal -0 0 1
    outer loop
      vertex -6.6291 3.8447 5
      vertex -6.25209 0.534405 5
      vertex -4.94637 3.86988 5
    endloop
  endfacet
  facet normal 0 0 1
    outer loop
      vertex -6.6291 3.8447 5
      vertex -7.54796 0.62089 5
      vertex -6.25209 0.534405 5
    endloop
  endfacet
  facet normal 0 0 1
    outer loop
      vertex -8.4861 4.15308 5
      vertex -7.54796 0.62089 5
      vertex -6.6291 3.8447 5
    endloop
  endfacet
  facet normal 0 0 1
    outer loop
      vertex -8.4861 4.15308 5
      vertex -9.09791 0.904342 5
      vertex -7.54796 0.62089 5
    endloop
  endfacet
  facet normal 0 0 1
    outer loop
      vertex -10.6054 1.36263 5
      vertex -8.4861 4.15308 5
      vertex -10.2582 4.78808 5
    endloop
  endfacet
  facet normal 0 0 1
    outer loop
      vertex -8.4861 4.15308 5
      vertex -10.6054 1.36263 5
      vertex -9.09791 0.904342 5
    endloop
  endfacet
  facet normal 0 0 1
    outer loop
      vertex -12.0509 1.98977 5
      vertex -10.2582 4.78808 5
      vertex -11.8884 5.72929 5
    endloop
  endfacet
  facet normal 0 0 1
    outer loop
      vertex -10.2582 4.78808 5
      vertex -12.0509 1.98977 5
      vertex -10.6054 1.36263 5
    endloop
  endfacet
  facet normal 0 0 1
    outer loop
      vertex -14.6813 3.71583 5
      vertex -11.8884 5.72929 5
      vertex -13.3244 6.94646 5
    endloop
  endfacet
  facet normal 0 0 1
    outer loop
      vertex -11.8884 5.72929 5
      vertex -13.4155 2.77759 5
      vertex -12.0509 1.98977 5
    endloop
  endfacet
  facet normal 0 0 1
    outer loop
      vertex -16.8524 5.99282 5
      vertex -13.3244 6.94646 5
      vertex -14.5199 8.40048 5
    endloop
  endfacet
  facet normal 0 0 1
    outer loop
      vertex -11.8884 5.72929 5
      vertex -14.6813 3.71583 5
      vertex -13.4155 2.77759 5
    endloop
  endfacet
  facet normal 0 0 1
    outer loop
      vertex -16.8524 5.99282 5
      vertex -14.5199 8.40048 5
      vertex -15.4367 10.0446 5
    endloop
  endfacet
  facet normal 0 0 1
    outer loop
      vertex -13.3244 6.94646 5
      vertex -15.832 4.79225 5
      vertex -14.6813 3.71583 5
    endloop
  endfacet
  facet normal 0 0 1
    outer loop
      vertex -16.8524 5.99282 5
      vertex -15.4367 10.0446 5
      vertex -16.0451 11.826 5
    endloop
  endfacet
  facet normal 0 0 1
    outer loop
      vertex -16.8524 5.99282 5
      vertex -16.0451 11.826 5
      vertex -16.3256 13.6874 5
    endloop
  endfacet
  facet normal 0 0 1
    outer loop
      vertex -13.3244 6.94646 5
      vertex -16.8524 5.99282 5
      vertex -15.832 4.79225 5
    endloop
  endfacet
  facet normal 0 0 1
    outer loop
      vertex 6.15414 1.34778 5
      vertex 6.22544 -0.966367 5
      vertex 6.29701 0.19401 5
    endloop
  endfacet
  facet normal 0 0 1
    outer loop
      vertex 6.15414 1.34778 5
      vertex 5.94187 -2.09383 5
      vertex 6.22544 -0.966367 5
    endloop
  endfacet
  facet normal 0 0 1
    outer loop
      vertex 5.8017 2.45565 5
      vertex 5.94187 -2.09383 5
      vertex 6.15414 1.34778 5
    endloop
  endfacet
  facet normal 0 0 1
    outer loop
      vertex 5.8017 2.45565 5
      vertex 5.45596 -3.15 5
      vertex 5.94187 -2.09383 5
    endloop
  endfacet
  facet normal 0 0 1
    outer loop
      vertex 4.09274 4.75413 5
      vertex 5.8017 2.45565 5
      vertex 5.25169 3.4799 5
    endloop
  endfacet
  facet normal 0 0 1
    outer loop
      vertex 5.8017 2.45565 5
      vertex 4.09274 4.75413 5
      vertex 5.45596 -3.15 5
    endloop
  endfacet
  facet normal 0 0 1
    outer loop
      vertex 4.09274 4.75413 5
      vertex 5.25169 3.4799 5
      vertex 4.52285 4.38564 5
    endloop
  endfacet
  facet normal 0 0 1
    outer loop
      vertex 5.45596 -3.15 5
      vertex 4.09274 4.75413 5
      vertex 4.78425 -4.0989 5
    endloop
  endfacet
  facet normal 0 0 1
    outer loop
      vertex 4.78425 -4.0989 5
      vertex 4.09274 4.75413 5
      vertex 3.94962 -4.90821 5
    endloop
  endfacet
  facet normal 0 0 1
    outer loop
      vertex -6.15414 -1.34778 5
      vertex -6.25209 0.534405 5
      vertex -6.29701 -0.194008 5
    endloop
  endfacet
endsolid OpenSCAD_Model
