solid OpenSCAD_Model
  facet normal -0.42036 -0.907357 0
    outer loop
      vertex -2.7959 23.4233 0
      vertex -1.08786 22.632 5
      vertex -2.7959 23.4233 5
    endloop
  endfacet
  facet normal -0.42036 -0.907357 -0
    outer loop
      vertex -1.08786 22.632 5
      vertex -2.7959 23.4233 0
      vertex -1.08786 22.632 0
    endloop
  endfacet
  facet normal 0.500005 0.866022 -0
    outer loop
      vertex -10.7516 4.01151 0
      vertex -12.3818 4.95272 5
      vertex -10.7516 4.01151 5
    endloop
  endfacet
  facet normal 0.500005 0.866022 0
    outer loop
      vertex -12.3818 4.95272 5
      vertex -10.7516 4.01151 0
      vertex -12.3818 4.95272 0
    endloop
  endfacet
  facet normal 0.925296 -0.379245 0
    outer loop
      vertex -16.3714 16.6337 5
      vertex -15.6575 18.3755 0
      vertex -15.6575 18.3755 5
    endloop
  endfacet
  facet normal 0.925296 -0.379245 0
    outer loop
      vertex -15.6575 18.3755 0
      vertex -16.3714 16.6337 5
      vertex -16.3714 16.6337 0
    endloop
  endfacet
  facet normal 0.280393 -0.959885 0
    outer loop
      vertex -10.1739 23.313 0
      vertex -8.36705 23.8408 5
      vertex -10.1739 23.313 5
    endloop
  endfacet
  facet normal 0.280393 -0.959885 0
    outer loop
      vertex -8.36705 23.8408 5
      vertex -10.1739 23.313 0
      vertex -8.36705 23.8408 0
    endloop
  endfacet
  facet normal 0.946329 0.323206 0
    outer loop
      vertex -15.9301 9.26804 5
      vertex -16.5385 11.0494 0
      vertex -16.5385 11.0494 5
    endloop
  endfacet
  facet normal 0.946329 0.323206 0
    outer loop
      vertex -16.5385 11.0494 0
      vertex -15.9301 9.26804 5
      vertex -15.9301 9.26804 0
    endloop
  endfacet
  facet normal 0.999553 -0.029908 0
    outer loop
      vertex -16.8191 12.9108 5
      vertex -16.7628 14.7924 0
      vertex -16.7628 14.7924 5
    endloop
  endfacet
  facet normal 0.999553 -0.029908 0
    outer loop
      vertex -16.7628 14.7924 0
      vertex -16.8191 12.9108 5
      vertex -16.8191 12.9108 0
    endloop
  endfacet
  facet normal 0 0 1
    outer loop
      vertex -2.21918 5.89621 0
      vertex 4.15744 13.2247 0
      vertex 4.04486 15.1037 0
    endloop
  endfacet
  facet normal 0 0 1
    outer loop
      vertex -2.21918 5.89621 0
      vertex 4.04486 15.1037 0
      vertex 3.59857 16.9325 0
    endloop
  endfacet
  facet normal 0 0 1
    outer loop
      vertex 4.15744 13.2247 0
      vertex -1.02624 6.21585 0
      vertex 3.93269 11.3557 0
    endloop
  endfacet
  facet normal 0 0 1
    outer loop
      vertex -2.21918 5.89621 0
      vertex 3.59857 16.9325 0
      vertex 2.83292 18.6522 0
    endloop
  endfacet
  facet normal 0 0 1
    outer loop
      vertex 3.93269 11.3557 0
      vertex -1.02624 6.21585 0
      vertex 3.37783 9.55691 0
    endloop
  endfacet
  facet normal 0 0 1
    outer loop
      vertex -2.21918 5.89621 0
      vertex 2.83292 18.6522 0
      vertex 1.77251 20.2075 0
    endloop
  endfacet
  facet normal 0 0 1
    outer loop
      vertex 3.37783 9.55691 0
      vertex -1.02624 6.21585 0
      vertex 2.51071 7.8861 0
    endloop
  endfacet
  facet normal 0 0 1
    outer loop
      vertex 2.51071 7.8861 0
      vertex 0.20613 6.29663 0
      vertex 1.35918 6.39696 0
    endloop
  endfacet
  facet normal 0 0 1
    outer loop
      vertex -2.21918 5.89621 0
      vertex 1.77251 20.2075 0
      vertex 0.451431 21.5485 0
    endloop
  endfacet
  facet normal 0 0 1
    outer loop
      vertex 1.35918 6.39696 0
      vertex 0.20613 6.29663 0
      vertex 1.11488 6.17699 0
    endloop
  endfacet
  facet normal 0 0 1
    outer loop
      vertex 2.51071 7.8861 0
      vertex -1.02624 6.21585 0
      vertex 0.20613 6.29663 0
    endloop
  endfacet
  facet normal 0 0 1
    outer loop
      vertex -2.21918 5.89621 0
      vertex 0.451431 21.5485 0
      vertex -1.08786 22.632 0
    endloop
  endfacet
  facet normal 0 0 1
    outer loop
      vertex 4.15744 13.2247 0
      vertex -2.21918 5.89621 0
      vertex -1.02624 6.21585 0
    endloop
  endfacet
  facet normal 0 0 1
    outer loop
      vertex -2.7959 23.4233 0
      vertex -2.21918 5.89621 0
      vertex -1.08786 22.632 0
    endloop
  endfacet
  facet normal 0 0 1
    outer loop
      vertex -4.61777 23.8969 0
      vertex -2.21918 5.89621 0
      vertex -2.7959 23.4233 0
    endloop
  endfacet
  facet normal 0 0 1
    outer loop
      vertex -6.49494 24.0376 0
      vertex -2.21918 5.89621 0
      vertex -4.61777 23.8969 0
    endloop
  endfacet
  facet normal -0 0 1
    outer loop
      vertex -8.36705 23.8408 0
      vertex -2.21918 5.89621 0
      vertex -6.49494 24.0376 0
    endloop
  endfacet
  facet normal -0 0 1
    outer loop
      vertex -10.1739 23.313 0
      vertex -2.21918 5.89621 0
      vertex -8.36705 23.8408 0
    endloop
  endfacet
  facet normal -0 0 1
    outer loop
      vertex -11.8575 22.4709 0
      vertex -2.21918 5.89621 0
      vertex -10.1739 23.313 0
    endloop
  endfacet
  facet normal -0 0 1
    outer loop
      vertex -13.3637 21.3418 0
      vertex -2.21918 5.89621 0
      vertex -11.8575 22.4709 0
    endloop
  endfacet
  facet normal 0 0 1
    outer loop
      vertex -2.21918 5.89621 0
      vertex -13.3637 21.3418 0
      vertex -3.32683 5.34997 0
    endloop
  endfacet
  facet normal 0 0 1
    outer loop
      vertex -4.30663 4.59814 0
      vertex -7.12253 3.06814 0
      vertex -5.12093 3.66961 0
    endloop
  endfacet
  facet normal 0 0 1
    outer loop
      vertex -5.12093 3.66961 0
      vertex -7.12253 3.06814 0
      vertex -5.45378 3.0931 0
    endloop
  endfacet
  facet normal -0 0 1
    outer loop
      vertex -14.6441 19.9619 0
      vertex -3.32683 5.34997 0
      vertex -13.3637 21.3418 0
    endloop
  endfacet
  facet normal 0 -0 1
    outer loop
      vertex -7.12253 3.06814 0
      vertex -4.30663 4.59814 0
      vertex -8.97952 3.37651 0
    endloop
  endfacet
  facet normal -0 0 1
    outer loop
      vertex -15.6575 18.3755 0
      vertex -3.32683 5.34997 0
      vertex -14.6441 19.9619 0
    endloop
  endfacet
  facet normal 0 -0 1
    outer loop
      vertex -8.97952 3.37651 0
      vertex -4.30663 4.59814 0
      vertex -10.7516 4.01151 0
    endloop
  endfacet
  facet normal -0 0 1
    outer loop
      vertex -16.3714 16.6337 0
      vertex -3.32683 5.34997 0
      vertex -15.6575 18.3755 0
    endloop
  endfacet
  facet normal 0 -0 1
    outer loop
      vertex -10.7516 4.01151 0
      vertex -4.30663 4.59814 0
      vertex -12.3818 4.95272 0
    endloop
  endfacet
  facet normal -0 0 1
    outer loop
      vertex -16.7628 14.7924 0
      vertex -3.32683 5.34997 0
      vertex -16.3714 16.6337 0
    endloop
  endfacet
  facet normal 0 0 1
    outer loop
      vertex -3.32683 5.34997 0
      vertex -12.3818 4.95272 0
      vertex -4.30663 4.59814 0
    endloop
  endfacet
  facet normal -0 0 1
    outer loop
      vertex -16.8191 12.9108 0
      vertex -3.32683 5.34997 0
      vertex -16.7628 14.7924 0
    endloop
  endfacet
  facet normal 0 -0 1
    outer loop
      vertex -12.3818 4.95272 0
      vertex -3.32683 5.34997 0
      vertex -13.8178 6.1699 0
    endloop
  endfacet
  facet normal -0 -0 1
    outer loop
      vertex -16.5385 11.0494 0
      vertex -3.32683 5.34997 0
      vertex -16.8191 12.9108 0
    endloop
  endfacet
  facet normal -0 -0 1
    outer loop
      vertex -13.8178 6.1699 0
      vertex -3.32683 5.34997 0
      vertex -15.0134 7.62392 0
    endloop
  endfacet
  facet normal -0 -0 1
    outer loop
      vertex -15.0134 7.62392 0
      vertex -3.32683 5.34997 0
      vertex -15.9301 9.26804 0
    endloop
  endfacet
  facet normal -0 -0 1
    outer loop
      vertex -15.9301 9.26804 0
      vertex -3.32683 5.34997 0
      vertex -16.5385 11.0494 0
    endloop
  endfacet
  facet normal -0.0747436 -0.997203 0
    outer loop
      vertex -6.49494 24.0376 0
      vertex -4.61777 23.8969 5
      vertex -6.49494 24.0376 5
    endloop
  endfacet
  facet normal -0.0747436 -0.997203 -0
    outer loop
      vertex -4.61777 23.8969 5
      vertex -6.49494 24.0376 0
      vertex -4.61777 23.8969 0
    endloop
  endfacet
  facet normal -0.251591 -0.967834 0
    outer loop
      vertex -4.61777 23.8969 0
      vertex -2.7959 23.4233 5
      vertex -4.61777 23.8969 5
    endloop
  endfacet
  facet normal -0.251591 -0.967834 -0
    outer loop
      vertex -2.7959 23.4233 5
      vertex -4.61777 23.8969 0
      vertex -2.7959 23.4233 0
    endloop
  endfacet
  facet normal 0.104546 -0.99452 0
    outer loop
      vertex -8.36705 23.8408 0
      vertex -6.49494 24.0376 5
      vertex -8.36705 23.8408 5
    endloop
  endfacet
  facet normal 0.104546 -0.99452 0
    outer loop
      vertex -6.49494 24.0376 5
      vertex -8.36705 23.8408 0
      vertex -6.49494 24.0376 0
    endloop
  endfacet
  facet normal 0.733041 -0.680184 0
    outer loop
      vertex -14.6441 19.9619 5
      vertex -13.3637 21.3418 0
      vertex -13.3637 21.3418 5
    endloop
  endfacet
  facet normal 0.733041 -0.680184 0
    outer loop
      vertex -13.3637 21.3418 0
      vertex -14.6441 19.9619 5
      vertex -14.6441 19.9619 0
    endloop
  endfacet
  facet normal 0.842728 -0.538339 0
    outer loop
      vertex -15.6575 18.3755 5
      vertex -14.6441 19.9619 0
      vertex -14.6441 19.9619 5
    endloop
  endfacet
  facet normal 0.842728 -0.538339 0
    outer loop
      vertex -14.6441 19.9619 0
      vertex -15.6575 18.3755 5
      vertex -15.6575 18.3755 0
    endloop
  endfacet
  facet normal 0.447341 -0.894363 0
    outer loop
      vertex -11.8575 22.4709 0
      vertex -10.1739 23.313 5
      vertex -11.8575 22.4709 5
    endloop
  endfacet
  facet normal 0.447341 -0.894363 0
    outer loop
      vertex -10.1739 23.313 5
      vertex -11.8575 22.4709 0
      vertex -10.1739 23.313 0
    endloop
  endfacet
  facet normal 0.772407 0.635128 0
    outer loop
      vertex -13.8178 6.1699 5
      vertex -15.0134 7.62392 0
      vertex -15.0134 7.62392 5
    endloop
  endfacet
  facet normal 0.772407 0.635128 0
    outer loop
      vertex -15.0134 7.62392 0
      vertex -13.8178 6.1699 5
      vertex -13.8178 6.1699 0
    endloop
  endfacet
  facet normal 0.873412 0.486982 0
    outer loop
      vertex -15.0134 7.62392 5
      vertex -15.9301 9.26804 0
      vertex -15.9301 9.26804 5
    endloop
  endfacet
  facet normal 0.873412 0.486982 0
    outer loop
      vertex -15.9301 9.26804 0
      vertex -15.0134 7.62392 5
      vertex -15.0134 7.62392 0
    endloop
  endfacet
  facet normal 0.646593 0.762835 -0
    outer loop
      vertex -12.3818 4.95272 0
      vertex -13.8178 6.1699 5
      vertex -12.3818 4.95272 5
    endloop
  endfacet
  facet normal 0.646593 0.762835 0
    outer loop
      vertex -13.8178 6.1699 5
      vertex -12.3818 4.95272 0
      vertex -13.8178 6.1699 0
    endloop
  endfacet
  facet normal 0.988828 0.149063 0
    outer loop
      vertex -16.5385 11.0494 5
      vertex -16.8191 12.9108 0
      vertex -16.8191 12.9108 5
    endloop
  endfacet
  facet normal 0.988828 0.149063 0
    outer loop
      vertex -16.8191 12.9108 0
      vertex -16.5385 11.0494 5
      vertex -16.5385 11.0494 0
    endloop
  endfacet
  facet normal 0.978145 -0.207922 0
    outer loop
      vertex -16.7628 14.7924 5
      vertex -16.3714 16.6337 0
      vertex -16.3714 16.6337 5
    endloop
  endfacet
  facet normal 0.978145 -0.207922 0
    outer loop
      vertex -16.3714 16.6337 0
      vertex -16.7628 14.7924 5
      vertex -16.7628 14.7924 0
    endloop
  endfacet
  facet normal -0.955572 0.294758 0
    outer loop
      vertex 3.37783 9.55691 0
      vertex 3.93269 11.3557 5
      vertex 3.93269 11.3557 0
    endloop
  endfacet
  facet normal -0.955572 0.294758 0
    outer loop
      vertex 3.93269 11.3557 5
      vertex 3.37783 9.55691 0
      vertex 3.37783 9.55691 5
    endloop
  endfacet
  facet normal -0.99821 -0.0598076 0
    outer loop
      vertex 4.15744 13.2247 0
      vertex 4.04486 15.1037 5
      vertex 4.04486 15.1037 0
    endloop
  endfacet
  facet normal -0.99821 -0.0598076 0
    outer loop
      vertex 4.04486 15.1037 5
      vertex 4.15744 13.2247 0
      vertex 4.15744 13.2247 5
    endloop
  endfacet
  facet normal -0.791071 0.611724 0
    outer loop
      vertex 1.35918 6.39696 0
      vertex 2.51071 7.8861 5
      vertex 2.51071 7.8861 0
    endloop
  endfacet
  facet normal -0.791071 0.611724 0
    outer loop
      vertex 2.51071 7.8861 5
      vertex 1.35918 6.39696 0
      vertex 1.35918 6.39696 5
    endloop
  endfacet
  facet normal 0.337332 0.941386 -0
    outer loop
      vertex -8.97952 3.37651 0
      vertex -10.7516 4.01151 5
      vertex -8.97952 3.37651 5
    endloop
  endfacet
  facet normal 0.337332 0.941386 0
    outer loop
      vertex -10.7516 4.01151 5
      vertex -8.97952 3.37651 0
      vertex -10.7516 4.01151 0
    endloop
  endfacet
  facet normal 0.599813 -0.80014 0
    outer loop
      vertex -13.3637 21.3418 0
      vertex -11.8575 22.4709 5
      vertex -13.3637 21.3418 5
    endloop
  endfacet
  facet normal 0.599813 -0.80014 0
    outer loop
      vertex -11.8575 22.4709 5
      vertex -13.3637 21.3418 0
      vertex -11.8575 22.4709 0
    endloop
  endfacet
  facet normal -0.992847 0.119391 0
    outer loop
      vertex 3.93269 11.3557 0
      vertex 4.15744 13.2247 5
      vertex 4.15744 13.2247 0
    endloop
  endfacet
  facet normal -0.992847 0.119391 0
    outer loop
      vertex 4.15744 13.2247 5
      vertex 3.93269 11.3557 0
      vertex 3.93269 11.3557 5
    endloop
  endfacet
  facet normal -0.971491 -0.237077 0
    outer loop
      vertex 4.04486 15.1037 0
      vertex 3.59857 16.9325 5
      vertex 3.59857 16.9325 0
    endloop
  endfacet
  facet normal -0.971491 -0.237077 0
    outer loop
      vertex 3.59857 16.9325 5
      vertex 4.04486 15.1037 0
      vertex 4.04486 15.1037 5
    endloop
  endfacet
  facet normal -0.712378 -0.701796 0
    outer loop
      vertex 1.77251 20.2075 0
      vertex 0.451431 21.5485 5
      vertex 0.451431 21.5485 0
    endloop
  endfacet
  facet normal -0.712378 -0.701796 0
    outer loop
      vertex 0.451431 21.5485 5
      vertex 1.77251 20.2075 0
      vertex 1.77251 20.2075 5
    endloop
  endfacet
  facet normal -0.826233 -0.563329 0
    outer loop
      vertex 2.83292 18.6522 0
      vertex 1.77251 20.2075 5
      vertex 1.77251 20.2075 0
    endloop
  endfacet
  facet normal -0.826233 -0.563329 0
    outer loop
      vertex 1.77251 20.2075 5
      vertex 2.83292 18.6522 0
      vertex 2.83292 18.6522 5
    endloop
  endfacet
  facet normal -0.575598 -0.817733 0
    outer loop
      vertex -1.08786 22.632 0
      vertex 0.451431 21.5485 5
      vertex -1.08786 22.632 5
    endloop
  endfacet
  facet normal -0.575598 -0.817733 -0
    outer loop
      vertex 0.451431 21.5485 5
      vertex -1.08786 22.632 0
      vertex 0.451431 21.5485 0
    endloop
  endfacet
  facet normal -0.669133 0.743143 0
    outer loop
      vertex 1.35918 6.39696 0
      vertex 1.11488 6.17699 5
      vertex 1.35918 6.39696 5
    endloop
  endfacet
  facet normal -0.669133 0.743143 0
    outer loop
      vertex 1.11488 6.17699 5
      vertex 1.35918 6.39696 0
      vertex 1.11488 6.17699 0
    endloop
  endfacet
  facet normal -0.887586 0.460641 0
    outer loop
      vertex 2.51071 7.8861 0
      vertex 3.37783 9.55691 5
      vertex 3.37783 9.55691 0
    endloop
  endfacet
  facet normal -0.887586 0.460641 0
    outer loop
      vertex 3.37783 9.55691 5
      vertex 2.51071 7.8861 0
      vertex 2.51071 7.8861 5
    endloop
  endfacet
  facet normal -0.0149556 0.999888 0
    outer loop
      vertex -5.45378 3.0931 0
      vertex -7.12253 3.06814 5
      vertex -5.45378 3.0931 5
    endloop
  endfacet
  facet normal -0.0149556 0.999888 0
    outer loop
      vertex -7.12253 3.06814 5
      vertex -5.45378 3.0931 0
      vertex -7.12253 3.06814 0
    endloop
  endfacet
  facet normal 0.163816 0.986491 -0
    outer loop
      vertex -7.12253 3.06814 0
      vertex -8.97952 3.37651 5
      vertex -7.12253 3.06814 5
    endloop
  endfacet
  facet normal 0.163816 0.986491 0
    outer loop
      vertex -8.97952 3.37651 5
      vertex -7.12253 3.06814 0
      vertex -8.97952 3.37651 0
    endloop
  endfacet
  facet normal -0.913547 -0.406732 0
    outer loop
      vertex 3.59857 16.9325 0
      vertex 2.83292 18.6522 5
      vertex 2.83292 18.6522 0
    endloop
  endfacet
  facet normal -0.913547 -0.406732 0
    outer loop
      vertex 2.83292 18.6522 5
      vertex 3.59857 16.9325 0
      vertex 3.59857 16.9325 5
    endloop
  endfacet
  facet normal 0.449775 0.893142 -0
    outer loop
      vertex 0.562136 25.4899 -2
      vertex -0.845167 26.1986 5
      vertex 0.562136 25.4899 5
    endloop
  endfacet
  facet normal 0.449775 0.893142 0
    outer loop
      vertex -0.845167 26.1986 5
      vertex 0.562136 25.4899 -2
      vertex -0.845167 26.1986 -2
    endloop
  endfacet
  facet normal -0.499989 -0.866031 0
    outer loop
      vertex -13.9089 2.00103 -2
      vertex -12.5443 1.2132 5
      vertex -13.9089 2.00103 5
    endloop
  endfacet
  facet normal -0.499989 -0.866031 -0
    outer loop
      vertex -12.5443 1.2132 5
      vertex -13.9089 2.00103 -2
      vertex -12.5443 1.2132 -2
    endloop
  endfacet
  facet normal -0.905655 0.424014 0
    outer loop
      vertex -19.1493 18.6677 -2
      vertex -18.4812 20.0947 5
      vertex -18.4812 20.0947 -2
    endloop
  endfacet
  facet normal -0.905655 0.424014 0
    outer loop
      vertex -18.4812 20.0947 5
      vertex -19.1493 18.6677 -2
      vertex -19.1493 18.6677 5
    endloop
  endfacet
  facet normal 0.879953 -0.47506 0
    outer loop
      vertex 5.41138 6.30031 5
      vertex 6.15991 7.68681 -2
      vertex 6.15991 7.68681 5
    endloop
  endfacet
  facet normal 0.879953 -0.47506 0
    outer loop
      vertex 6.15991 7.68681 -2
      vertex 5.41138 6.30031 5
      vertex 5.41138 6.30031 -2
    endloop
  endfacet
  facet normal -0.327097 0.944991 0
    outer loop
      vertex -10.0995 26.8162 -2
      vertex -11.5885 26.3008 5
      vertex -10.0995 26.8162 5
    endloop
  endfacet
  facet normal -0.327097 0.944991 0
    outer loop
      vertex -11.5885 26.3008 5
      vertex -10.0995 26.8162 -2
      vertex -11.5885 26.3008 -2
    endloop
  endfacet
  facet normal -0.935287 -0.353889 0
    outer loop
      vertex -18.9448 7.92581 -2
      vertex -19.5024 9.39948 5
      vertex -19.5024 9.39948 -2
    endloop
  endfacet
  facet normal -0.935287 -0.353889 0
    outer loop
      vertex -19.5024 9.39948 5
      vertex -18.9448 7.92581 -2
      vertex -18.9448 7.92581 5
    endloop
  endfacet
  facet normal -0.999819 -0.0190393 0
    outer loop
      vertex -20.0979 12.4888 -2
      vertex -20.1279 14.0642 5
      vertex -20.1279 14.0642 -2
    endloop
  endfacet
  facet normal -0.999819 -0.0190393 0
    outer loop
      vertex -20.1279 14.0642 5
      vertex -20.0979 12.4888 -2
      vertex -20.0979 12.4888 5
    endloop
  endfacet
  facet normal -0 0 -1
    outer loop
      vertex -6.26667 -0.250949 -2
      vertex -6.46924 -0.260598 -2
      vertex -6.29663 0.206131 -2
    endloop
  endfacet
  facet normal 0 0 -1
    outer loop
      vertex 0.20613 6.29663 -2
      vertex 7.45964 13.8015 -2
      vertex 7.39965 12.227 -2
    endloop
  endfacet
  facet normal 0 0 -1
    outer loop
      vertex 0.20613 6.29663 -2
      vertex 7.39965 12.227 -2
      vertex 7.16057 10.6696 -2
    endloop
  endfacet
  facet normal -0 0 -1
    outer loop
      vertex 7.45964 13.8015 -2
      vertex 0.20613 6.29663 -2
      vertex 7.33975 15.3726 -2
    endloop
  endfacet
  facet normal 0 0 -1
    outer loop
      vertex 1.43058 6.13543 -2
      vertex 7.16057 10.6696 -2
      vertex 6.74552 9.14959 -2
    endloop
  endfacet
  facet normal -0 0 -1
    outer loop
      vertex 7.33975 15.3726 -2
      vertex 0.20613 6.29663 -2
      vertex 7.04156 16.9198 -2
    endloop
  endfacet
  facet normal 0 0 -1
    outer loop
      vertex 1.43058 6.13543 -2
      vertex 6.74552 9.14959 -2
      vertex 6.15991 7.68681 -2
    endloop
  endfacet
  facet normal 0 0 -1
    outer loop
      vertex -1.02624 6.21585 -2
      vertex 7.04156 16.9198 -2
      vertex 0.20613 6.29663 -2
    endloop
  endfacet
  facet normal 0 0 -1
    outer loop
      vertex 2.60005 5.73844 -2
      vertex 6.15991 7.68681 -2
      vertex 5.41138 6.30031 -2
    endloop
  endfacet
  facet normal 0 0 -1
    outer loop
      vertex 7.16057 10.6696 -2
      vertex 1.43058 6.13543 -2
      vertex 0.20613 6.29663 -2
    endloop
  endfacet
  facet normal 0 0 -1
    outer loop
      vertex 3.66961 5.12094 -2
      vertex 5.41138 6.30031 -2
      vertex 4.50967 5.00818 -2
    endloop
  endfacet
  facet normal 0 0 -1
    outer loop
      vertex 3.66961 5.12094 -2
      vertex 4.50967 5.00818 -2
      vertex 4.1991 4.65658 -2
    endloop
  endfacet
  facet normal 0 0 -1
    outer loop
      vertex 5.41138 6.30031 -2
      vertex 3.66961 5.12094 -2
      vertex 2.60005 5.73844 -2
    endloop
  endfacet
  facet normal 0 0 -1
    outer loop
      vertex 6.15991 7.68681 -2
      vertex 2.60005 5.73844 -2
      vertex 1.43058 6.13543 -2
    endloop
  endfacet
  facet normal -0 0 -1
    outer loop
      vertex 7.04156 16.9198 -2
      vertex -1.02624 6.21585 -2
      vertex 6.56894 18.4229 -2
    endloop
  endfacet
  facet normal -0 0 -1
    outer loop
      vertex 6.56894 18.4229 -2
      vertex -1.02624 6.21585 -2
      vertex 5.92807 19.8623 -2
    endloop
  endfacet
  facet normal -0 0 -1
    outer loop
      vertex 5.92807 19.8623 -2
      vertex -1.02624 6.21585 -2
      vertex 5.12729 21.2193 -2
    endloop
  endfacet
  facet normal -0 0 -1
    outer loop
      vertex 5.12729 21.2193 -2
      vertex -1.02624 6.21585 -2
      vertex 4.17704 22.4762 -2
    endloop
  endfacet
  facet normal -0 0 -1
    outer loop
      vertex 4.17704 22.4762 -2
      vertex -1.02624 6.21585 -2
      vertex 3.08972 23.6165 -2
    endloop
  endfacet
  facet normal -0 0 -1
    outer loop
      vertex 3.08972 23.6165 -2
      vertex -1.02624 6.21585 -2
      vertex 1.87949 24.6255 -2
    endloop
  endfacet
  facet normal 0 0 -1
    outer loop
      vertex -2.21918 5.89621 -2
      vertex 1.87949 24.6255 -2
      vertex -1.02624 6.21585 -2
    endloop
  endfacet
  facet normal -0 0 -1
    outer loop
      vertex 1.87949 24.6255 -2
      vertex -2.21918 5.89621 -2
      vertex 0.562136 25.4899 -2
    endloop
  endfacet
  facet normal -0 0 -1
    outer loop
      vertex 0.562136 25.4899 -2
      vertex -2.21918 5.89621 -2
      vertex -0.845167 26.1986 -2
    endloop
  endfacet
  facet normal 0 0 -1
    outer loop
      vertex -2.21918 5.89621 -2
      vertex -2.32408 26.7422 -2
      vertex -0.845167 26.1986 -2
    endloop
  endfacet
  facet normal 0 0 -1
    outer loop
      vertex -13.0091 25.6191 -2
      vertex -2.21918 5.89621 -2
      vertex -3.32683 5.34997 -2
    endloop
  endfacet
  facet normal 0 0 -1
    outer loop
      vertex -2.21918 5.89621 -2
      vertex -3.85531 27.1136 -2
      vertex -2.32408 26.7422 -2
    endloop
  endfacet
  facet normal 0 0 -1
    outer loop
      vertex -20.0979 12.4888 -2
      vertex -3.32683 5.34997 -2
      vertex -4.30663 4.59814 -2
    endloop
  endfacet
  facet normal 0 0 -1
    outer loop
      vertex -16.3254 4.01569 -2
      vertex -4.30663 4.59814 -2
      vertex -5.12093 3.66961 -2
    endloop
  endfacet
  facet normal 0 0 -1
    outer loop
      vertex -2.21918 5.89621 -2
      vertex -5.41891 27.3081 -2
      vertex -3.85531 27.1136 -2
    endloop
  endfacet
  facet normal 0 0 -1
    outer loop
      vertex -12.5443 1.2132 -2
      vertex -5.12093 3.66961 -2
      vertex -5.73844 2.60006 -2
    endloop
  endfacet
  facet normal 0 0 -1
    outer loop
      vertex -9.59134 0.127777 -2
      vertex -5.73844 2.60006 -2
      vertex -6.13542 1.43058 -2
    endloop
  endfacet
  facet normal 0 0 -1
    outer loop
      vertex -8.04139 -0.155675 -2
      vertex -6.13542 1.43058 -2
      vertex -6.29663 0.206131 -2
    endloop
  endfacet
  facet normal 0 0 -1
    outer loop
      vertex -8.04139 -0.155675 -2
      vertex -6.29663 0.206131 -2
      vertex -6.46924 -0.260598 -2
    endloop
  endfacet
  facet normal 0 0 -1
    outer loop
      vertex -2.21918 5.89621 -2
      vertex -6.99449 27.3231 -2
      vertex -5.41891 27.3081 -2
    endloop
  endfacet
  facet normal 0 0 -1
    outer loop
      vertex -6.13542 1.43058 -2
      vertex -8.04139 -0.155675 -2
      vertex -9.59134 0.127777 -2
    endloop
  endfacet
  facet normal 0 0 -1
    outer loop
      vertex -2.21918 5.89621 -2
      vertex -8.56151 27.1584 -2
      vertex -6.99449 27.3231 -2
    endloop
  endfacet
  facet normal 0 0 -1
    outer loop
      vertex -5.73844 2.60006 -2
      vertex -9.59134 0.127777 -2
      vertex -11.0989 0.586061 -2
    endloop
  endfacet
  facet normal 0 0 -1
    outer loop
      vertex -2.21918 5.89621 -2
      vertex -10.0995 26.8162 -2
      vertex -8.56151 27.1584 -2
    endloop
  endfacet
  facet normal 0 0 -1
    outer loop
      vertex -5.73844 2.60006 -2
      vertex -11.0989 0.586061 -2
      vertex -12.5443 1.2132 -2
    endloop
  endfacet
  facet normal 0 0 -1
    outer loop
      vertex -2.21918 5.89621 -2
      vertex -11.5885 26.3008 -2
      vertex -10.0995 26.8162 -2
    endloop
  endfacet
  facet normal 0 0 -1
    outer loop
      vertex -5.12093 3.66961 -2
      vertex -12.5443 1.2132 -2
      vertex -13.9089 2.00103 -2
    endloop
  endfacet
  facet normal 0 0 -1
    outer loop
      vertex -2.21918 5.89621 -2
      vertex -13.0091 25.6191 -2
      vertex -11.5885 26.3008 -2
    endloop
  endfacet
  facet normal 0 0 -1
    outer loop
      vertex -5.12093 3.66961 -2
      vertex -13.9089 2.00103 -2
      vertex -15.1747 2.93927 -2
    endloop
  endfacet
  facet normal 0 0 -1
    outer loop
      vertex -3.32683 5.34997 -2
      vertex -14.3426 24.7799 -2
      vertex -13.0091 25.6191 -2
    endloop
  endfacet
  facet normal -0 0 -1
    outer loop
      vertex -5.12093 3.66961 -2
      vertex -15.1747 2.93927 -2
      vertex -16.3254 4.01569 -2
    endloop
  endfacet
  facet normal 0 0 -1
    outer loop
      vertex -3.32683 5.34997 -2
      vertex -15.5719 23.7942 -2
      vertex -14.3426 24.7799 -2
    endloop
  endfacet
  facet normal -0 0 -1
    outer loop
      vertex -4.30663 4.59814 -2
      vertex -16.3254 4.01569 -2
      vertex -17.3458 5.21625 -2
    endloop
  endfacet
  facet normal 0 0 -1
    outer loop
      vertex -3.32683 5.34997 -2
      vertex -16.6807 22.6747 -2
      vertex -15.5719 23.7942 -2
    endloop
  endfacet
  facet normal 0 0 -1
    outer loop
      vertex -4.30663 4.59814 -2
      vertex -17.3458 5.21625 -2
      vertex -18.2228 6.52532 -2
    endloop
  endfacet
  facet normal 0 0 -1
    outer loop
      vertex -3.32683 5.34997 -2
      vertex -17.6547 21.4362 -2
      vertex -16.6807 22.6747 -2
    endloop
  endfacet
  facet normal 0 0 -1
    outer loop
      vertex -4.30663 4.59814 -2
      vertex -18.2228 6.52532 -2
      vertex -18.9448 7.92581 -2
    endloop
  endfacet
  facet normal 0 0 -1
    outer loop
      vertex -3.32683 5.34997 -2
      vertex -18.4812 20.0947 -2
      vertex -17.6547 21.4362 -2
    endloop
  endfacet
  facet normal 0 0 -1
    outer loop
      vertex -4.30663 4.59814 -2
      vertex -18.9448 7.92581 -2
      vertex -19.5024 9.39948 -2
    endloop
  endfacet
  facet normal 0 0 -1
    outer loop
      vertex -3.32683 5.34997 -2
      vertex -19.1493 18.6677 -2
      vertex -18.4812 20.0947 -2
    endloop
  endfacet
  facet normal 0 0 -1
    outer loop
      vertex -4.30663 4.59814 -2
      vertex -19.5024 9.39948 -2
      vertex -19.8885 10.9271 -2
    endloop
  endfacet
  facet normal 0 0 -1
    outer loop
      vertex -3.32683 5.34997 -2
      vertex -19.6505 17.1739 -2
      vertex -19.1493 18.6677 -2
    endloop
  endfacet
  facet normal 0 0 -1
    outer loop
      vertex -4.30663 4.59814 -2
      vertex -19.8885 10.9271 -2
      vertex -20.0979 12.4888 -2
    endloop
  endfacet
  facet normal 0 0 -1
    outer loop
      vertex -3.32683 5.34997 -2
      vertex -19.9781 15.6327 -2
      vertex -19.6505 17.1739 -2
    endloop
  endfacet
  facet normal 0 0 -1
    outer loop
      vertex -3.32683 5.34997 -2
      vertex -20.0979 12.4888 -2
      vertex -20.1279 14.0642 -2
    endloop
  endfacet
  facet normal 0 0 -1
    outer loop
      vertex -3.32683 5.34997 -2
      vertex -20.1279 14.0642 -2
      vertex -19.9781 15.6327 -2
    endloop
  endfacet
  facet normal 0.00951987 0.999955 -0
    outer loop
      vertex -5.41891 27.3081 -2
      vertex -6.99449 27.3231 5
      vertex -5.41891 27.3081 5
    endloop
  endfacet
  facet normal 0.00951987 0.999955 0
    outer loop
      vertex -6.99449 27.3231 5
      vertex -5.41891 27.3081 -2
      vertex -6.99449 27.3231 -2
    endloop
  endfacet
  facet normal -0.104528 0.994522 0
    outer loop
      vertex -6.99449 27.3231 -2
      vertex -8.56151 27.1584 5
      vertex -6.99449 27.3231 5
    endloop
  endfacet
  facet normal -0.104528 0.994522 0
    outer loop
      vertex -8.56151 27.1584 5
      vertex -6.99449 27.3231 -2
      vertex -8.56151 27.1584 -2
    endloop
  endfacet
  facet normal -0.710494 0.703703 0
    outer loop
      vertex -16.6807 22.6747 -2
      vertex -15.5719 23.7942 5
      vertex -15.5719 23.7942 -2
    endloop
  endfacet
  facet normal -0.710494 0.703703 0
    outer loop
      vertex -15.5719 23.7942 5
      vertex -16.6807 22.6747 -2
      vertex -16.6807 22.6747 5
    endloop
  endfacet
  facet normal -0.786043 0.618172 0
    outer loop
      vertex -17.6547 21.4362 -2
      vertex -16.6807 22.6747 5
      vertex -16.6807 22.6747 -2
    endloop
  endfacet
  facet normal -0.786043 0.618172 0
    outer loop
      vertex -16.6807 22.6747 5
      vertex -17.6547 21.4362 -2
      vertex -17.6547 21.4362 5
    endloop
  endfacet
  facet normal -0.532626 0.84635 0
    outer loop
      vertex -13.0091 25.6191 -2
      vertex -14.3426 24.7799 5
      vertex -13.0091 25.6191 5
    endloop
  endfacet
  facet normal -0.532626 0.84635 0
    outer loop
      vertex -14.3426 24.7799 5
      vertex -13.0091 25.6191 -2
      vertex -14.3426 24.7799 -2
    endloop
  endfacet
  facet normal -0.761963 -0.64762 0
    outer loop
      vertex -16.3254 4.01569 -2
      vertex -17.3458 5.21625 5
      vertex -17.3458 5.21625 -2
    endloop
  endfacet
  facet normal -0.761963 -0.64762 0
    outer loop
      vertex -17.3458 5.21625 5
      vertex -16.3254 4.01569 -2
      vertex -16.3254 4.01569 5
    endloop
  endfacet
  facet normal -0.978147 0.207916 0
    outer loop
      vertex -19.9781 15.6327 -2
      vertex -19.6505 17.1739 5
      vertex -19.6505 17.1739 -2
    endloop
  endfacet
  facet normal -0.978147 0.207916 0
    outer loop
      vertex -19.6505 17.1739 5
      vertex -19.9781 15.6327 -2
      vertex -19.9781 15.6327 5
    endloop
  endfacet
  facet normal 0.723719 0.690094 0
    outer loop
      vertex 4.17704 22.4762 5
      vertex 3.08972 23.6165 -2
      vertex 3.08972 23.6165 5
    endloop
  endfacet
  facet normal 0.723719 0.690094 0
    outer loop
      vertex 3.08972 23.6165 -2
      vertex 4.17704 22.4762 5
      vertex 4.17704 22.4762 -2
    endloop
  endfacet
  facet normal 0.928368 -0.371663 0
    outer loop
      vertex 6.15991 7.68681 5
      vertex 6.74552 9.14959 -2
      vertex 6.74552 9.14959 5
    endloop
  endfacet
  facet normal 0.928368 -0.371663 0
    outer loop
      vertex 6.74552 9.14959 -2
      vertex 6.15991 7.68681 5
      vertex 6.15991 7.68681 -2
    endloop
  endfacet
  facet normal 0.640362 0.768073 -0
    outer loop
      vertex 3.08972 23.6165 -2
      vertex 1.87949 24.6255 5
      vertex 3.08972 23.6165 5
    endloop
  endfacet
  facet normal 0.640362 0.768073 0
    outer loop
      vertex 1.87949 24.6255 5
      vertex 3.08972 23.6165 -2
      vertex 1.87949 24.6255 -2
    endloop
  endfacet
  facet normal -0.398034 -0.917371 0
    outer loop
      vertex -12.5443 1.2132 -2
      vertex -11.0989 0.586061 5
      vertex -12.5443 1.2132 5
    endloop
  endfacet
  facet normal -0.398034 -0.917371 -0
    outer loop
      vertex -11.0989 0.586061 5
      vertex -12.5443 1.2132 -2
      vertex -11.0989 0.586061 -2
    endloop
  endfacet
  facet normal 0.235716 0.971822 -0
    outer loop
      vertex -2.32408 26.7422 -2
      vertex -3.85531 27.1136 5
      vertex -2.32408 26.7422 5
    endloop
  endfacet
  facet normal 0.235716 0.971822 0
    outer loop
      vertex -3.85531 27.1136 5
      vertex -2.32408 26.7422 -2
      vertex -3.85531 27.1136 -2
    endloop
  endfacet
  facet normal 0.345 0.938603 -0
    outer loop
      vertex -0.845167 26.1986 -2
      vertex -2.32408 26.7422 5
      vertex -0.845167 26.1986 5
    endloop
  endfacet
  facet normal 0.345 0.938603 0
    outer loop
      vertex -2.32408 26.7422 5
      vertex -0.845167 26.1986 -2
      vertex -2.32408 26.7422 -2
    endloop
  endfacet
  facet normal 0.123441 0.992352 -0
    outer loop
      vertex -3.85531 27.1136 -2
      vertex -5.41891 27.3081 5
      vertex -3.85531 27.1136 5
    endloop
  endfacet
  facet normal 0.123441 0.992352 0
    outer loop
      vertex -5.41891 27.3081 5
      vertex -3.85531 27.1136 -2
      vertex -5.41891 27.3081 -2
    endloop
  endfacet
  facet normal -0.217187 0.97613 0
    outer loop
      vertex -8.56151 27.1584 -2
      vertex -10.0995 26.8162 5
      vertex -8.56151 27.1584 5
    endloop
  endfacet
  facet normal -0.217187 0.97613 0
    outer loop
      vertex -10.0995 26.8162 5
      vertex -8.56151 27.1584 -2
      vertex -10.0995 26.8162 -2
    endloop
  endfacet
  facet normal -0.851386 0.52454 0
    outer loop
      vertex -18.4812 20.0947 -2
      vertex -17.6547 21.4362 5
      vertex -17.6547 21.4362 -2
    endloop
  endfacet
  facet normal -0.851386 0.52454 0
    outer loop
      vertex -17.6547 21.4362 5
      vertex -18.4812 20.0947 -2
      vertex -18.4812 20.0947 5
    endloop
  endfacet
  facet normal -0.625569 0.780169 0
    outer loop
      vertex -14.3426 24.7799 -2
      vertex -15.5719 23.7942 5
      vertex -14.3426 24.7799 5
    endloop
  endfacet
  facet normal -0.625569 0.780169 0
    outer loop
      vertex -15.5719 23.7942 5
      vertex -14.3426 24.7799 -2
      vertex -15.5719 23.7942 -2
    endloop
  endfacet
  facet normal -0.432634 0.90157 0
    outer loop
      vertex -11.5885 26.3008 -2
      vertex -13.0091 25.6191 5
      vertex -11.5885 26.3008 5
    endloop
  endfacet
  facet normal -0.432634 0.90157 0
    outer loop
      vertex -13.0091 25.6191 5
      vertex -11.5885 26.3008 -2
      vertex -13.0091 25.6191 -2
    endloop
  endfacet
  facet normal -0.830793 -0.556582 0
    outer loop
      vertex -17.3458 5.21625 -2
      vertex -18.2228 6.52532 5
      vertex -18.2228 6.52532 -2
    endloop
  endfacet
  facet normal -0.830793 -0.556582 0
    outer loop
      vertex -18.2228 6.52532 5
      vertex -17.3458 5.21625 -2
      vertex -17.3458 5.21625 5
    endloop
  endfacet
  facet normal -0.888836 -0.458225 0
    outer loop
      vertex -18.2228 6.52532 -2
      vertex -18.9448 7.92581 5
      vertex -18.9448 7.92581 -2
    endloop
  endfacet
  facet normal -0.888836 -0.458225 0
    outer loop
      vertex -18.9448 7.92581 5
      vertex -18.2228 6.52532 -2
      vertex -18.2228 6.52532 5
    endloop
  endfacet
  facet normal -0.683143 -0.730284 0
    outer loop
      vertex -16.3254 4.01569 -2
      vertex -15.1747 2.93927 5
      vertex -16.3254 4.01569 5
    endloop
  endfacet
  facet normal -0.683143 -0.730284 -0
    outer loop
      vertex -15.1747 2.93927 5
      vertex -16.3254 4.01569 -2
      vertex -15.1747 2.93927 -2
    endloop
  endfacet
  facet normal -0.595478 -0.803372 0
    outer loop
      vertex -15.1747 2.93927 -2
      vertex -13.9089 2.00103 5
      vertex -15.1747 2.93927 5
    endloop
  endfacet
  facet normal -0.595478 -0.803372 -0
    outer loop
      vertex -13.9089 2.00103 5
      vertex -15.1747 2.93927 -2
      vertex -13.9089 2.00103 -2
    endloop
  endfacet
  facet normal -0.99113 -0.132895 0
    outer loop
      vertex -19.8885 10.9271 -2
      vertex -20.0979 12.4888 5
      vertex -20.0979 12.4888 -2
    endloop
  endfacet
  facet normal -0.99113 -0.132895 0
    outer loop
      vertex -20.0979 12.4888 5
      vertex -19.8885 10.9271 -2
      vertex -19.8885 10.9271 5
    endloop
  endfacet
  facet normal -0.969513 -0.245041 0
    outer loop
      vertex -19.5024 9.39948 -2
      vertex -19.8885 10.9271 5
      vertex -19.8885 10.9271 -2
    endloop
  endfacet
  facet normal -0.969513 -0.245041 0
    outer loop
      vertex -19.8885 10.9271 5
      vertex -19.5024 9.39948 -2
      vertex -19.5024 9.39948 5
    endloop
  endfacet
  facet normal -0.99547 0.0950727 0
    outer loop
      vertex -20.1279 14.0642 -2
      vertex -19.9781 15.6327 5
      vertex -19.9781 15.6327 -2
    endloop
  endfacet
  facet normal -0.99547 0.0950727 0
    outer loop
      vertex -19.9781 15.6327 5
      vertex -20.1279 14.0642 -2
      vertex -20.1279 14.0642 5
    endloop
  endfacet
  facet normal -0.948059 0.318093 0
    outer loop
      vertex -19.6505 17.1739 -2
      vertex -19.1493 18.6677 5
      vertex -19.1493 18.6677 -2
    endloop
  endfacet
  facet normal -0.948059 0.318093 0
    outer loop
      vertex -19.1493 18.6677 5
      vertex -19.6505 17.1739 -2
      vertex -19.6505 17.1739 5
    endloop
  endfacet
  facet normal 0.964683 -0.263414 0
    outer loop
      vertex 6.74552 9.14959 5
      vertex 7.16057 10.6696 -2
      vertex 7.16057 10.6696 5
    endloop
  endfacet
  facet normal 0.964683 -0.263414 0
    outer loop
      vertex 7.16057 10.6696 -2
      vertex 6.74552 9.14959 5
      vertex 6.74552 9.14959 -2
    endloop
  endfacet
  facet normal 0.98193 0.189246 0
    outer loop
      vertex 7.33975 15.3726 5
      vertex 7.04156 16.9198 -2
      vertex 7.04156 16.9198 5
    endloop
  endfacet
  facet normal 0.98193 0.189246 0
    outer loop
      vertex 7.04156 16.9198 -2
      vertex 7.33975 15.3726 5
      vertex 7.33975 15.3726 -2
    endloop
  endfacet
  facet normal 0.999275 -0.0380734 0
    outer loop
      vertex 7.39965 12.227 5
      vertex 7.45964 13.8015 -2
      vertex 7.45964 13.8015 5
    endloop
  endfacet
  facet normal 0.999275 -0.0380734 0
    outer loop
      vertex 7.45964 13.8015 -2
      vertex 7.39965 12.227 5
      vertex 7.39965 12.227 -2
    endloop
  endfacet
  facet normal 0.913544 0.406741 0
    outer loop
      vertex 6.56894 18.4229 5
      vertex 5.92807 19.8623 -2
      vertex 5.92807 19.8623 5
    endloop
  endfacet
  facet normal 0.913544 0.406741 0
    outer loop
      vertex 5.92807 19.8623 -2
      vertex 6.56894 18.4229 5
      vertex 6.56894 18.4229 -2
    endloop
  endfacet
  facet normal 0.797687 0.603072 0
    outer loop
      vertex 5.12729 21.2193 5
      vertex 4.17704 22.4762 -2
      vertex 4.17704 22.4762 5
    endloop
  endfacet
  facet normal 0.797687 0.603072 0
    outer loop
      vertex 4.17704 22.4762 -2
      vertex 5.12729 21.2193 5
      vertex 5.12729 21.2193 -2
    endloop
  endfacet
  facet normal 0.548606 0.836081 -0
    outer loop
      vertex 1.87949 24.6255 -2
      vertex 0.562136 25.4899 5
      vertex 1.87949 24.6255 5
    endloop
  endfacet
  facet normal 0.548606 0.836081 0
    outer loop
      vertex 0.562136 25.4899 5
      vertex 1.87949 24.6255 -2
      vertex 0.562136 25.4899 -2
    endloop
  endfacet
  facet normal 0.82006 -0.572277 0
    outer loop
      vertex 4.50967 5.00818 5
      vertex 5.41138 6.30031 -2
      vertex 5.41138 6.30031 5
    endloop
  endfacet
  facet normal 0.82006 -0.572277 0
    outer loop
      vertex 5.41138 6.30031 -2
      vertex 4.50967 5.00818 5
      vertex 4.50967 5.00818 -2
    endloop
  endfacet
  facet normal -0.0665904 -0.99778 0
    outer loop
      vertex -8.04139 -0.155675 -2
      vertex -6.46924 -0.260598 5
      vertex -8.04139 -0.155675 5
    endloop
  endfacet
  facet normal -0.0665904 -0.99778 -0
    outer loop
      vertex -6.46924 -0.260598 5
      vertex -8.04139 -0.155675 -2
      vertex -6.46924 -0.260598 -2
    endloop
  endfacet
  facet normal -0.290849 -0.956769 0
    outer loop
      vertex -11.0989 0.586061 -2
      vertex -9.59134 0.127777 5
      vertex -11.0989 0.586061 5
    endloop
  endfacet
  facet normal -0.290849 -0.956769 -0
    outer loop
      vertex -9.59134 0.127777 5
      vertex -11.0989 0.586061 -2
      vertex -9.59134 0.127777 -2
    endloop
  endfacet
  facet normal 0.988421 -0.151735 0
    outer loop
      vertex 7.16057 10.6696 5
      vertex 7.39965 12.227 -2
      vertex 7.39965 12.227 5
    endloop
  endfacet
  facet normal 0.988421 -0.151735 0
    outer loop
      vertex 7.39965 12.227 -2
      vertex 7.16057 10.6696 5
      vertex 7.16057 10.6696 -2
    endloop
  endfacet
  facet normal 0.953954 0.299952 0
    outer loop
      vertex 7.04156 16.9198 5
      vertex 6.56894 18.4229 -2
      vertex 6.56894 18.4229 5
    endloop
  endfacet
  facet normal 0.953954 0.299952 0
    outer loop
      vertex 6.56894 18.4229 -2
      vertex 7.04156 16.9198 5
      vertex 7.04156 16.9198 -2
    endloop
  endfacet
  facet normal 0.997101 0.0760884 0
    outer loop
      vertex 7.45964 13.8015 5
      vertex 7.33975 15.3726 -2
      vertex 7.33975 15.3726 5
    endloop
  endfacet
  facet normal 0.997101 0.0760884 0
    outer loop
      vertex 7.33975 15.3726 -2
      vertex 7.45964 13.8015 5
      vertex 7.45964 13.8015 -2
    endloop
  endfacet
  facet normal 0.861228 0.508219 0
    outer loop
      vertex 5.92807 19.8623 5
      vertex 5.12729 21.2193 -2
      vertex 5.12729 21.2193 5
    endloop
  endfacet
  facet normal 0.861228 0.508219 0
    outer loop
      vertex 5.12729 21.2193 -2
      vertex 5.92807 19.8623 5
      vertex 5.92807 19.8623 -2
    endloop
  endfacet
  facet normal 0.749484 -0.662023 0
    outer loop
      vertex 4.1991 4.65658 5
      vertex 4.50967 5.00818 -2
      vertex 4.50967 5.00818 5
    endloop
  endfacet
  facet normal 0.749484 -0.662023 0
    outer loop
      vertex 4.50967 5.00818 -2
      vertex 4.1991 4.65658 5
      vertex 4.1991 4.65658 -2
    endloop
  endfacet
  facet normal 0.047579 -0.998867 0
    outer loop
      vertex -6.46924 -0.260598 -2
      vertex -6.26667 -0.250949 5
      vertex -6.46924 -0.260598 5
    endloop
  endfacet
  facet normal 0.047579 -0.998867 0
    outer loop
      vertex -6.26667 -0.250949 5
      vertex -6.46924 -0.260598 -2
      vertex -6.26667 -0.250949 -2
    endloop
  endfacet
  facet normal -0.179895 -0.983686 0
    outer loop
      vertex -9.59134 0.127777 -2
      vertex -8.04139 -0.155675 5
      vertex -9.59134 0.127777 5
    endloop
  endfacet
  facet normal -0.179895 -0.983686 -0
    outer loop
      vertex -8.04139 -0.155675 5
      vertex -9.59134 0.127777 -2
      vertex -8.04139 -0.155675 -2
    endloop
  endfacet
  facet normal 0.130527 0.991445 -0
    outer loop
      vertex 1.11488 6.17699 0
      vertex 0.20613 6.29663 5
      vertex 1.11488 6.17699 5
    endloop
  endfacet
  facet normal 0.130527 0.991445 0
    outer loop
      vertex 0.20613 6.29663 5
      vertex 1.11488 6.17699 0
      vertex 0.20613 6.29663 0
    endloop
  endfacet
  facet normal 0.130525 0.991445 -0
    outer loop
      vertex 1.43058 6.13543 -2.05
      vertex 0.20613 6.29663 -2
      vertex 1.43058 6.13543 -2
    endloop
  endfacet
  facet normal 0.130525 0.991445 0
    outer loop
      vertex 0.20613 6.29663 -2
      vertex 1.43058 6.13543 -2.05
      vertex 0.20613 6.29663 -2.05
    endloop
  endfacet
  facet normal 0.793352 0.608763 0
    outer loop
      vertex 5.34997 3.32683 5
      vertex 4.59814 4.30663 -2.05
      vertex 4.59814 4.30663 5
    endloop
  endfacet
  facet normal 0.793352 0.608763 0
    outer loop
      vertex 4.59814 4.30663 -2.05
      vertex 5.34997 3.32683 5
      vertex 5.34997 3.32683 -2.05
    endloop
  endfacet
  facet normal 0.321446 0.946928 -0
    outer loop
      vertex 2.60005 5.73844 -2.05
      vertex 1.43058 6.13543 -2
      vertex 2.60005 5.73844 -2
    endloop
  endfacet
  facet normal 0.321446 0.946928 0
    outer loop
      vertex 1.43058 6.13543 -2
      vertex 2.60005 5.73844 -2.05
      vertex 1.43058 6.13543 -2.05
    endloop
  endfacet
  facet normal -0.946931 0.321436 0
    outer loop
      vertex -6.13542 1.43058 -2.05
      vertex -5.73844 2.60006 -2
      vertex -5.73844 2.60006 -2.05
    endloop
  endfacet
  facet normal -0.946931 0.321436 0
    outer loop
      vertex -5.73844 2.60006 -2
      vertex -6.13542 1.43058 -2.05
      vertex -6.13542 1.43058 -2
    endloop
  endfacet
  facet normal 0.946928 -0.321446 0
    outer loop
      vertex 5.73844 -2.60005 5
      vertex 6.13543 -1.43058 -2.05
      vertex 6.13543 -1.43058 5
    endloop
  endfacet
  facet normal 0.946928 -0.321446 0
    outer loop
      vertex 6.13543 -1.43058 -2.05
      vertex 5.73844 -2.60005 5
      vertex 5.73844 -2.60005 -2.05
    endloop
  endfacet
  facet normal -0.442294 0.89687 0
    outer loop
      vertex -2.21918 5.89621 0
      vertex -3.32683 5.34997 5
      vertex -2.21918 5.89621 5
    endloop
  endfacet
  facet normal -0.442294 0.89687 0
    outer loop
      vertex -3.32683 5.34997 5
      vertex -2.21918 5.89621 0
      vertex -3.32683 5.34997 0
    endloop
  endfacet
  facet normal -0.442294 0.89687 0
    outer loop
      vertex -2.21918 5.89621 -2.05
      vertex -3.32683 5.34997 -2
      vertex -2.21918 5.89621 -2
    endloop
  endfacet
  facet normal -0.442294 0.89687 0
    outer loop
      vertex -3.32683 5.34997 -2
      vertex -2.21918 5.89621 -2.05
      vertex -3.32683 5.34997 -2.05
    endloop
  endfacet
  facet normal -0.896872 -0.44229 0
    outer loop
      vertex -5.34997 -3.32683 -2.05
      vertex -5.89621 -2.21917 5
      vertex -5.89621 -2.21917 -2.05
    endloop
  endfacet
  facet normal -0.896872 -0.44229 0
    outer loop
      vertex -5.89621 -2.21917 5
      vertex -5.34997 -3.32683 -2.05
      vertex -5.34997 -3.32683 5
    endloop
  endfacet
  facet normal -0.130533 -0.991444 0
    outer loop
      vertex -1.43058 -6.13542 -2.05
      vertex -0.20613 -6.29663 5
      vertex -1.43058 -6.13542 5
    endloop
  endfacet
  facet normal -0.130533 -0.991444 -0
    outer loop
      vertex -0.20613 -6.29663 5
      vertex -1.43058 -6.13542 -2.05
      vertex -0.20613 -6.29663 -2.05
    endloop
  endfacet
  facet normal -0.0654081 0.997859 0
    outer loop
      vertex 0.20613 6.29663 0
      vertex -1.02624 6.21585 5
      vertex 0.20613 6.29663 5
    endloop
  endfacet
  facet normal -0.0654081 0.997859 0
    outer loop
      vertex -1.02624 6.21585 5
      vertex 0.20613 6.29663 0
      vertex -1.02624 6.21585 0
    endloop
  endfacet
  facet normal -0.0654081 0.997859 0
    outer loop
      vertex 0.20613 6.29663 -2.05
      vertex -1.02624 6.21585 -2
      vertex 0.20613 6.29663 -2
    endloop
  endfacet
  facet normal -0.0654081 0.997859 0
    outer loop
      vertex -1.02624 6.21585 -2
      vertex 0.20613 6.29663 -2.05
      vertex -1.02624 6.21585 -2.05
    endloop
  endfacet
  facet normal -0.659346 -0.751839 0
    outer loop
      vertex -4.59814 -4.30663 -2.05
      vertex -3.66961 -5.12093 5
      vertex -4.59814 -4.30663 5
    endloop
  endfacet
  facet normal -0.659346 -0.751839 -0
    outer loop
      vertex -3.66961 -5.12093 5
      vertex -4.59814 -4.30663 -2.05
      vertex -3.66961 -5.12093 -2.05
    endloop
  endfacet
  facet normal 0 0 -1
    outer loop
      vertex 6.13543 -1.43058 -2.05
      vertex 6.21585 1.02624 -2.05
      vertex 6.29663 -0.206129 -2.05
    endloop
  endfacet
  facet normal 0 0 -1
    outer loop
      vertex 6.13543 -1.43058 -2.05
      vertex 5.89621 2.21918 -2.05
      vertex 6.21585 1.02624 -2.05
    endloop
  endfacet
  facet normal 0 0 -1
    outer loop
      vertex 5.73844 -2.60005 -2.05
      vertex 5.89621 2.21918 -2.05
      vertex 6.13543 -1.43058 -2.05
    endloop
  endfacet
  facet normal 0 0 -1
    outer loop
      vertex 5.73844 -2.60005 -2.05
      vertex 5.34997 3.32683 -2.05
      vertex 5.89621 2.21918 -2.05
    endloop
  endfacet
  facet normal 0 0 -1
    outer loop
      vertex 5.12093 -3.66961 -2.05
      vertex 5.34997 3.32683 -2.05
      vertex 5.73844 -2.60005 -2.05
    endloop
  endfacet
  facet normal 0 0 -1
    outer loop
      vertex 5.12093 -3.66961 -2.05
      vertex 4.59814 4.30663 -2.05
      vertex 5.34997 3.32683 -2.05
    endloop
  endfacet
  facet normal 0 0 -1
    outer loop
      vertex 4.30663 -4.59814 -2.05
      vertex 4.59814 4.30663 -2.05
      vertex 5.12093 -3.66961 -2.05
    endloop
  endfacet
  facet normal 0 0 -1
    outer loop
      vertex 4.30663 -4.59814 -2.05
      vertex 3.66961 5.12094 -2.05
      vertex 4.59814 4.30663 -2.05
    endloop
  endfacet
  facet normal 0 0 -1
    outer loop
      vertex 3.32683 -5.34997 -2.05
      vertex 3.66961 5.12094 -2.05
      vertex 4.30663 -4.59814 -2.05
    endloop
  endfacet
  facet normal 0 0 -1
    outer loop
      vertex 3.32683 -5.34997 -2.05
      vertex 2.60005 5.73844 -2.05
      vertex 3.66961 5.12094 -2.05
    endloop
  endfacet
  facet normal 0 0 -1
    outer loop
      vertex 2.21917 -5.89621 -2.05
      vertex 2.60005 5.73844 -2.05
      vertex 3.32683 -5.34997 -2.05
    endloop
  endfacet
  facet normal 0 0 -1
    outer loop
      vertex 2.21917 -5.89621 -2.05
      vertex 1.43058 6.13543 -2.05
      vertex 2.60005 5.73844 -2.05
    endloop
  endfacet
  facet normal 0 0 -1
    outer loop
      vertex 1.02624 -6.21585 -2.05
      vertex 1.43058 6.13543 -2.05
      vertex 2.21917 -5.89621 -2.05
    endloop
  endfacet
  facet normal 0 0 -1
    outer loop
      vertex 1.02624 -6.21585 -2.05
      vertex 0.20613 6.29663 -2.05
      vertex 1.43058 6.13543 -2.05
    endloop
  endfacet
  facet normal 0 0 -1
    outer loop
      vertex -0.20613 -6.29663 -2.05
      vertex 0.20613 6.29663 -2.05
      vertex 1.02624 -6.21585 -2.05
    endloop
  endfacet
  facet normal 0 0 -1
    outer loop
      vertex -0.20613 -6.29663 -2.05
      vertex -1.02624 6.21585 -2.05
      vertex 0.20613 6.29663 -2.05
    endloop
  endfacet
  facet normal 0 0 -1
    outer loop
      vertex -1.43058 -6.13542 -2.05
      vertex -1.02624 6.21585 -2.05
      vertex -0.20613 -6.29663 -2.05
    endloop
  endfacet
  facet normal 0 0 -1
    outer loop
      vertex -1.43058 -6.13542 -2.05
      vertex -2.21918 5.89621 -2.05
      vertex -1.02624 6.21585 -2.05
    endloop
  endfacet
  facet normal 0 0 -1
    outer loop
      vertex -2.60005 -5.73844 -2.05
      vertex -2.21918 5.89621 -2.05
      vertex -1.43058 -6.13542 -2.05
    endloop
  endfacet
  facet normal 0 0 -1
    outer loop
      vertex -2.60005 -5.73844 -2.05
      vertex -3.32683 5.34997 -2.05
      vertex -2.21918 5.89621 -2.05
    endloop
  endfacet
  facet normal 0 0 -1
    outer loop
      vertex -3.66961 -5.12093 -2.05
      vertex -3.32683 5.34997 -2.05
      vertex -2.60005 -5.73844 -2.05
    endloop
  endfacet
  facet normal 0 0 -1
    outer loop
      vertex -3.66961 -5.12093 -2.05
      vertex -4.30663 4.59814 -2.05
      vertex -3.32683 5.34997 -2.05
    endloop
  endfacet
  facet normal 0 0 -1
    outer loop
      vertex -4.59814 -4.30663 -2.05
      vertex -4.30663 4.59814 -2.05
      vertex -3.66961 -5.12093 -2.05
    endloop
  endfacet
  facet normal 0 0 -1
    outer loop
      vertex -4.59814 -4.30663 -2.05
      vertex -5.12093 3.66961 -2.05
      vertex -4.30663 4.59814 -2.05
    endloop
  endfacet
  facet normal 0 0 -1
    outer loop
      vertex -5.34997 -3.32683 -2.05
      vertex -5.12093 3.66961 -2.05
      vertex -4.59814 -4.30663 -2.05
    endloop
  endfacet
  facet normal 0 0 -1
    outer loop
      vertex -5.34997 -3.32683 -2.05
      vertex -5.73844 2.60006 -2.05
      vertex -5.12093 3.66961 -2.05
    endloop
  endfacet
  facet normal 0 0 -1
    outer loop
      vertex -5.89621 -2.21917 -2.05
      vertex -5.73844 2.60006 -2.05
      vertex -5.34997 -3.32683 -2.05
    endloop
  endfacet
  facet normal 0 0 -1
    outer loop
      vertex -5.89621 -2.21917 -2.05
      vertex -6.13542 1.43058 -2.05
      vertex -5.73844 2.60006 -2.05
    endloop
  endfacet
  facet normal 0 0 -1
    outer loop
      vertex -6.21585 -1.02624 -2.05
      vertex -6.13542 1.43058 -2.05
      vertex -5.89621 -2.21917 -2.05
    endloop
  endfacet
  facet normal 0 0 -1
    outer loop
      vertex -6.13542 1.43058 -2.05
      vertex -6.21585 -1.02624 -2.05
      vertex -6.29663 0.206131 -2.05
    endloop
  endfacet
  facet normal -0.258814 0.965927 0
    outer loop
      vertex -1.02624 6.21585 0
      vertex -2.21918 5.89621 5
      vertex -1.02624 6.21585 5
    endloop
  endfacet
  facet normal -0.258814 0.965927 0
    outer loop
      vertex -2.21918 5.89621 5
      vertex -1.02624 6.21585 0
      vertex -2.21918 5.89621 0
    endloop
  endfacet
  facet normal -0.258814 0.965927 0
    outer loop
      vertex -1.02624 6.21585 -2.05
      vertex -2.21918 5.89621 -2
      vertex -1.02624 6.21585 -2
    endloop
  endfacet
  facet normal -0.258814 0.965927 0
    outer loop
      vertex -2.21918 5.89621 -2
      vertex -1.02624 6.21585 -2.05
      vertex -2.21918 5.89621 -2.05
    endloop
  endfacet
  facet normal -0.751839 0.659346 0
    outer loop
      vertex -5.12093 3.66961 0
      vertex -4.30663 4.59814 5
      vertex -4.30663 4.59814 0
    endloop
  endfacet
  facet normal -0.751839 0.659346 0
    outer loop
      vertex -4.30663 4.59814 5
      vertex -5.12093 3.66961 0
      vertex -5.12093 3.66961 5
    endloop
  endfacet
  facet normal -0.751839 0.659346 0
    outer loop
      vertex -5.12093 3.66961 -2.05
      vertex -4.30663 4.59814 -2
      vertex -4.30663 4.59814 -2.05
    endloop
  endfacet
  facet normal -0.751839 0.659346 0
    outer loop
      vertex -4.30663 4.59814 -2
      vertex -5.12093 3.66961 -2.05
      vertex -5.12093 3.66961 -2
    endloop
  endfacet
  facet normal -0.866024 0.500003 0
    outer loop
      vertex -5.73844 2.60006 -2.05
      vertex -5.12093 3.66961 -2
      vertex -5.12093 3.66961 -2.05
    endloop
  endfacet
  facet normal -0.866024 0.500003 0
    outer loop
      vertex -5.12093 3.66961 -2
      vertex -5.73844 2.60006 -2.05
      vertex -5.73844 2.60006 -2
    endloop
  endfacet
  facet normal -0.866024 0.500002 0
    outer loop
      vertex -5.45378 3.0931 0
      vertex -5.12093 3.66961 5
      vertex -5.12093 3.66961 0
    endloop
  endfacet
  facet normal -0.866024 0.500002 0
    outer loop
      vertex -5.12093 3.66961 5
      vertex -5.45378 3.0931 0
      vertex -5.45378 3.0931 5
    endloop
  endfacet
  facet normal -0.608763 0.793352 0
    outer loop
      vertex -3.32683 5.34997 -2.05
      vertex -4.30663 4.59814 -2
      vertex -3.32683 5.34997 -2
    endloop
  endfacet
  facet normal -0.608763 0.793352 0
    outer loop
      vertex -4.30663 4.59814 -2
      vertex -3.32683 5.34997 -2.05
      vertex -4.30663 4.59814 -2.05
    endloop
  endfacet
  facet normal -0.608763 0.793352 0
    outer loop
      vertex -3.32683 5.34997 0
      vertex -4.30663 4.59814 5
      vertex -3.32683 5.34997 5
    endloop
  endfacet
  facet normal -0.608763 0.793352 0
    outer loop
      vertex -4.30663 4.59814 5
      vertex -3.32683 5.34997 0
      vertex -4.30663 4.59814 0
    endloop
  endfacet
  facet normal -0.997859 -0.0654062 0
    outer loop
      vertex -6.29663 0.206131 -2.05
      vertex -6.26667 -0.250949 -2
      vertex -6.29663 0.206131 -2
    endloop
  endfacet
  facet normal -0.997859 -0.0654081 -1.76069e-05
    outer loop
      vertex -6.21585 -1.02624 -2.05
      vertex -6.26667 -0.250949 -2
      vertex -6.29663 0.206131 -2.05
    endloop
  endfacet
  facet normal -0.997859 -0.0654092 -0
    outer loop
      vertex -6.21585 -1.02624 5
      vertex -6.26667 -0.250949 -2
      vertex -6.21585 -1.02624 -2.05
    endloop
  endfacet
  facet normal -0.997859 -0.0654092 0
    outer loop
      vertex -6.26667 -0.250949 -2
      vertex -6.21585 -1.02624 5
      vertex -6.26667 -0.250949 5
    endloop
  endfacet
  facet normal -0.991444 0.130533 0
    outer loop
      vertex -6.29663 0.206131 -2.05
      vertex -6.13542 1.43058 -2
      vertex -6.13542 1.43058 -2.05
    endloop
  endfacet
  facet normal -0.991444 0.130533 0
    outer loop
      vertex -6.13542 1.43058 -2
      vertex -6.29663 0.206131 -2.05
      vertex -6.29663 0.206131 -2
    endloop
  endfacet
  facet normal -0.965927 -0.258816 0
    outer loop
      vertex -5.89621 -2.21917 -2.05
      vertex -6.21585 -1.02624 5
      vertex -6.21585 -1.02624 -2.05
    endloop
  endfacet
  facet normal -0.965927 -0.258816 0
    outer loop
      vertex -6.21585 -1.02624 5
      vertex -5.89621 -2.21917 -2.05
      vertex -5.89621 -2.21917 5
    endloop
  endfacet
  facet normal -0.793352 -0.608763 0
    outer loop
      vertex -4.59814 -4.30663 -2.05
      vertex -5.34997 -3.32683 5
      vertex -5.34997 -3.32683 -2.05
    endloop
  endfacet
  facet normal -0.793352 -0.608763 0
    outer loop
      vertex -5.34997 -3.32683 5
      vertex -4.59814 -4.30663 -2.05
      vertex -4.59814 -4.30663 5
    endloop
  endfacet
  facet normal -0.5 -0.866026 0
    outer loop
      vertex -3.66961 -5.12093 -2.05
      vertex -2.60005 -5.73844 5
      vertex -3.66961 -5.12093 5
    endloop
  endfacet
  facet normal -0.5 -0.866026 -0
    outer loop
      vertex -2.60005 -5.73844 5
      vertex -3.66961 -5.12093 -2.05
      vertex -2.60005 -5.73844 -2.05
    endloop
  endfacet
  facet normal 0.499993 0.866029 -0
    outer loop
      vertex 3.66961 5.12094 -2.05
      vertex 2.60005 5.73844 -2
      vertex 3.66961 5.12094 -2
    endloop
  endfacet
  facet normal 0.499993 0.866029 0
    outer loop
      vertex 2.60005 5.73844 -2
      vertex 3.66961 5.12094 -2.05
      vertex 2.60005 5.73844 -2.05
    endloop
  endfacet
  facet normal 0.965927 0.258814 0
    outer loop
      vertex 6.21585 1.02624 5
      vertex 5.89621 2.21918 -2.05
      vertex 5.89621 2.21918 5
    endloop
  endfacet
  facet normal 0.965927 0.258814 0
    outer loop
      vertex 5.89621 2.21918 -2.05
      vertex 6.21585 1.02624 5
      vertex 6.21585 1.02624 -2.05
    endloop
  endfacet
  facet normal 0.258816 -0.965927 0
    outer loop
      vertex 1.02624 -6.21585 -2.05
      vertex 2.21917 -5.89621 5
      vertex 1.02624 -6.21585 5
    endloop
  endfacet
  facet normal 0.258816 -0.965927 0
    outer loop
      vertex 2.21917 -5.89621 5
      vertex 1.02624 -6.21585 -2.05
      vertex 2.21917 -5.89621 -2.05
    endloop
  endfacet
  facet normal 0.866026 -0.5 0
    outer loop
      vertex 5.12093 -3.66961 5
      vertex 5.73844 -2.60005 -2.05
      vertex 5.73844 -2.60005 5
    endloop
  endfacet
  facet normal 0.866026 -0.5 0
    outer loop
      vertex 5.73844 -2.60005 -2.05
      vertex 5.12093 -3.66961 5
      vertex 5.12093 -3.66961 -2.05
    endloop
  endfacet
  facet normal 0.608763 -0.793352 0
    outer loop
      vertex 3.32683 -5.34997 -2.05
      vertex 4.30663 -4.59814 5
      vertex 3.32683 -5.34997 5
    endloop
  endfacet
  facet normal 0.608763 -0.793352 0
    outer loop
      vertex 4.30663 -4.59814 5
      vertex 3.32683 -5.34997 -2.05
      vertex 4.30663 -4.59814 -2.05
    endloop
  endfacet
  facet normal -0.321438 -0.946931 0
    outer loop
      vertex -2.60005 -5.73844 -2.05
      vertex -1.43058 -6.13542 5
      vertex -2.60005 -5.73844 5
    endloop
  endfacet
  facet normal -0.321438 -0.946931 -0
    outer loop
      vertex -1.43058 -6.13542 5
      vertex -2.60005 -5.73844 -2.05
      vertex -1.43058 -6.13542 -2.05
    endloop
  endfacet
  facet normal 0.89687 0.442294 0
    outer loop
      vertex 5.89621 2.21918 5
      vertex 5.34997 3.32683 -2.05
      vertex 5.34997 3.32683 5
    endloop
  endfacet
  facet normal 0.89687 0.442294 0
    outer loop
      vertex 5.34997 3.32683 -2.05
      vertex 5.89621 2.21918 5
      vertex 5.89621 2.21918 -2.05
    endloop
  endfacet
  facet normal 0.0654081 -0.997859 0
    outer loop
      vertex -0.20613 -6.29663 -2.05
      vertex 1.02624 -6.21585 5
      vertex -0.20613 -6.29663 5
    endloop
  endfacet
  facet normal 0.0654081 -0.997859 0
    outer loop
      vertex 1.02624 -6.21585 5
      vertex -0.20613 -6.29663 -2.05
      vertex 1.02624 -6.21585 -2.05
    endloop
  endfacet
  facet normal 0.44229 -0.896872 0
    outer loop
      vertex 2.21917 -5.89621 -2.05
      vertex 3.32683 -5.34997 5
      vertex 2.21917 -5.89621 5
    endloop
  endfacet
  facet normal 0.44229 -0.896872 0
    outer loop
      vertex 3.32683 -5.34997 5
      vertex 2.21917 -5.89621 -2.05
      vertex 3.32683 -5.34997 -2.05
    endloop
  endfacet
  facet normal 0.751839 -0.659346 0
    outer loop
      vertex 4.30663 -4.59814 5
      vertex 5.12093 -3.66961 -2.05
      vertex 5.12093 -3.66961 5
    endloop
  endfacet
  facet normal 0.751839 -0.659346 0
    outer loop
      vertex 5.12093 -3.66961 -2.05
      vertex 4.30663 -4.59814 5
      vertex 4.30663 -4.59814 -2.05
    endloop
  endfacet
  facet normal 0.659347 0.751839 0
    outer loop
      vertex 4.59814 4.30663 5
      vertex 4.1991 4.65658 -2
      vertex 4.1991 4.65658 5
    endloop
  endfacet
  facet normal 0.659347 0.751839 -0
    outer loop
      vertex 4.59814 4.30663 -2.05
      vertex 4.1991 4.65658 -2
      vertex 4.59814 4.30663 5
    endloop
  endfacet
  facet normal 0.659351 0.751835 5.16414e-05
    outer loop
      vertex 3.66961 5.12094 -2.05
      vertex 4.1991 4.65658 -2
      vertex 4.59814 4.30663 -2.05
    endloop
  endfacet
  facet normal 0.659354 0.751833 0
    outer loop
      vertex 4.1991 4.65658 -2
      vertex 3.66961 5.12094 -2.05
      vertex 3.66961 5.12094 -2
    endloop
  endfacet
  facet normal 0.997859 0.0654082 0
    outer loop
      vertex 6.29663 -0.206129 5
      vertex 6.21585 1.02624 -2.05
      vertex 6.21585 1.02624 5
    endloop
  endfacet
  facet normal 0.997859 0.0654082 0
    outer loop
      vertex 6.21585 1.02624 -2.05
      vertex 6.29663 -0.206129 5
      vertex 6.29663 -0.206129 -2.05
    endloop
  endfacet
  facet normal 0.991445 -0.130525 0
    outer loop
      vertex 6.13543 -1.43058 5
      vertex 6.29663 -0.206129 -2.05
      vertex 6.29663 -0.206129 5
    endloop
  endfacet
  facet normal 0.991445 -0.130525 0
    outer loop
      vertex 6.29663 -0.206129 -2.05
      vertex 6.13543 -1.43058 5
      vertex 6.13543 -1.43058 -2.05
    endloop
  endfacet
  facet normal -0 0 1
    outer loop
      vertex 4.04486 15.1037 5
      vertex 7.45964 13.8015 5
      vertex 7.33975 15.3726 5
    endloop
  endfacet
  facet normal 0 0 1
    outer loop
      vertex 7.45964 13.8015 5
      vertex 4.15744 13.2247 5
      vertex 7.39965 12.227 5
    endloop
  endfacet
  facet normal 0 0 1
    outer loop
      vertex 4.04486 15.1037 5
      vertex 7.33975 15.3726 5
      vertex 7.04156 16.9198 5
    endloop
  endfacet
  facet normal 0 0 1
    outer loop
      vertex 3.93269 11.3557 5
      vertex 7.39965 12.227 5
      vertex 4.15744 13.2247 5
    endloop
  endfacet
  facet normal -0 0 1
    outer loop
      vertex 3.59857 16.9325 5
      vertex 7.04156 16.9198 5
      vertex 6.56894 18.4229 5
    endloop
  endfacet
  facet normal 0 0 1
    outer loop
      vertex 7.39965 12.227 5
      vertex 3.93269 11.3557 5
      vertex 7.16057 10.6696 5
    endloop
  endfacet
  facet normal 0 0 1
    outer loop
      vertex 3.59857 16.9325 5
      vertex 6.56894 18.4229 5
      vertex 5.92807 19.8623 5
    endloop
  endfacet
  facet normal 0 0 1
    outer loop
      vertex 7.16057 10.6696 5
      vertex 3.93269 11.3557 5
      vertex 6.74552 9.14959 5
    endloop
  endfacet
  facet normal 0 0 1
    outer loop
      vertex 2.83292 18.6522 5
      vertex 5.92807 19.8623 5
      vertex 5.12729 21.2193 5
    endloop
  endfacet
  facet normal -0 0 1
    outer loop
      vertex 3.37783 9.55691 5
      vertex 6.74552 9.14959 5
      vertex 3.93269 11.3557 5
    endloop
  endfacet
  facet normal 0 0 1
    outer loop
      vertex 6.74552 9.14959 5
      vertex 3.37783 9.55691 5
      vertex 6.15991 7.68681 5
    endloop
  endfacet
  facet normal 0 0 1
    outer loop
      vertex 1.77251 20.2075 5
      vertex 5.12729 21.2193 5
      vertex 4.17704 22.4762 5
    endloop
  endfacet
  facet normal 0 0 1
    outer loop
      vertex 6.21585 1.02624 5
      vertex 6.13543 -1.43058 5
      vertex 6.29663 -0.206129 5
    endloop
  endfacet
  facet normal 0 0 1
    outer loop
      vertex 5.89621 2.21918 5
      vertex 6.13543 -1.43058 5
      vertex 6.21585 1.02624 5
    endloop
  endfacet
  facet normal 0 0 1
    outer loop
      vertex 5.89621 2.21918 5
      vertex 5.73844 -2.60005 5
      vertex 6.13543 -1.43058 5
    endloop
  endfacet
  facet normal 0 0 1
    outer loop
      vertex 4.1991 4.65658 5
      vertex 5.89621 2.21918 5
      vertex 5.34997 3.32683 5
    endloop
  endfacet
  facet normal 0 0 1
    outer loop
      vertex 5.89621 2.21918 5
      vertex 4.1991 4.65658 5
      vertex 5.73844 -2.60005 5
    endloop
  endfacet
  facet normal 0 0 1
    outer loop
      vertex 4.1991 4.65658 5
      vertex 5.34997 3.32683 5
      vertex 4.59814 4.30663 5
    endloop
  endfacet
  facet normal 0 0 1
    outer loop
      vertex 5.73844 -2.60005 5
      vertex 4.1991 4.65658 5
      vertex 5.12093 -3.66961 5
    endloop
  endfacet
  facet normal 0 0 1
    outer loop
      vertex 5.12093 -3.66961 5
      vertex 4.1991 4.65658 5
      vertex 4.30663 -4.59814 5
    endloop
  endfacet
  facet normal -0 0 1
    outer loop
      vertex 2.51071 7.8861 5
      vertex 6.15991 7.68681 5
      vertex 3.37783 9.55691 5
    endloop
  endfacet
  facet normal 0 0 1
    outer loop
      vertex 6.15991 7.68681 5
      vertex 2.51071 7.8861 5
      vertex 5.41138 6.30031 5
    endloop
  endfacet
  facet normal 0 0 1
    outer loop
      vertex 5.41138 6.30031 5
      vertex 2.51071 7.8861 5
      vertex 4.50967 5.00818 5
    endloop
  endfacet
  facet normal -0 0 1
    outer loop
      vertex 1.35918 6.39696 5
      vertex 4.50967 5.00818 5
      vertex 2.51071 7.8861 5
    endloop
  endfacet
  facet normal 0 0 1
    outer loop
      vertex 4.50967 5.00818 5
      vertex 1.35918 6.39696 5
      vertex 4.1991 4.65658 5
    endloop
  endfacet
  facet normal -0 0 1
    outer loop
      vertex 1.11488 6.17699 5
      vertex 4.1991 4.65658 5
      vertex 1.35918 6.39696 5
    endloop
  endfacet
  facet normal 0 0 1
    outer loop
      vertex 4.1991 4.65658 5
      vertex 1.11488 6.17699 5
      vertex 4.30663 -4.59814 5
    endloop
  endfacet
  facet normal 0 0 1
    outer loop
      vertex 4.30663 -4.59814 5
      vertex 1.11488 6.17699 5
      vertex 3.32683 -5.34997 5
    endloop
  endfacet
  facet normal 0 0 1
    outer loop
      vertex 3.32683 -5.34997 5
      vertex 1.11488 6.17699 5
      vertex 2.21917 -5.89621 5
    endloop
  endfacet
  facet normal 0 0 1
    outer loop
      vertex 1.11488 6.17699 5
      vertex 1.02624 -6.21585 5
      vertex 2.21917 -5.89621 5
    endloop
  endfacet
  facet normal -0 0 1
    outer loop
      vertex -1.02624 6.21585 5
      vertex 1.11488 6.17699 5
      vertex 0.20613 6.29663 5
    endloop
  endfacet
  facet normal 0 0 1
    outer loop
      vertex 1.11488 6.17699 5
      vertex -0.20613 -6.29663 5
      vertex 1.02624 -6.21585 5
    endloop
  endfacet
  facet normal 0 0 1
    outer loop
      vertex -2.21918 5.89621 5
      vertex 1.11488 6.17699 5
      vertex -1.02624 6.21585 5
    endloop
  endfacet
  facet normal 0 0 1
    outer loop
      vertex 1.11488 6.17699 5
      vertex -1.43058 -6.13542 5
      vertex -0.20613 -6.29663 5
    endloop
  endfacet
  facet normal 0 0 1
    outer loop
      vertex 1.11488 6.17699 5
      vertex -2.21918 5.89621 5
      vertex -1.43058 -6.13542 5
    endloop
  endfacet
  facet normal 0 0 1
    outer loop
      vertex -2.21918 5.89621 5
      vertex -2.60005 -5.73844 5
      vertex -1.43058 -6.13542 5
    endloop
  endfacet
  facet normal 0 0 1
    outer loop
      vertex -5.45378 3.0931 5
      vertex -2.21918 5.89621 5
      vertex -3.32683 5.34997 5
    endloop
  endfacet
  facet normal 0 0 1
    outer loop
      vertex -2.21918 5.89621 5
      vertex -5.45378 3.0931 5
      vertex -2.60005 -5.73844 5
    endloop
  endfacet
  facet normal 0 0 1
    outer loop
      vertex -5.45378 3.0931 5
      vertex -3.32683 5.34997 5
      vertex -4.30663 4.59814 5
    endloop
  endfacet
  facet normal 0 0 1
    outer loop
      vertex -2.60005 -5.73844 5
      vertex -5.45378 3.0931 5
      vertex -3.66961 -5.12093 5
    endloop
  endfacet
  facet normal 0 0 1
    outer loop
      vertex -5.45378 3.0931 5
      vertex -4.30663 4.59814 5
      vertex -5.12093 3.66961 5
    endloop
  endfacet
  facet normal 0 0 1
    outer loop
      vertex -3.66961 -5.12093 5
      vertex -5.45378 3.0931 5
      vertex -4.59814 -4.30663 5
    endloop
  endfacet
  facet normal -0 0 1
    outer loop
      vertex -6.26667 -0.250949 5
      vertex -4.59814 -4.30663 5
      vertex -5.45378 3.0931 5
    endloop
  endfacet
  facet normal 0 0 1
    outer loop
      vertex -4.59814 -4.30663 5
      vertex -6.26667 -0.250949 5
      vertex -5.34997 -3.32683 5
    endloop
  endfacet
  facet normal 0 0 1
    outer loop
      vertex -5.34997 -3.32683 5
      vertex -6.26667 -0.250949 5
      vertex -5.89621 -2.21917 5
    endloop
  endfacet
  facet normal 0 0 1
    outer loop
      vertex -5.89621 -2.21917 5
      vertex -6.26667 -0.250949 5
      vertex -6.21585 -1.02624 5
    endloop
  endfacet
  facet normal -0 0 1
    outer loop
      vertex -7.12253 3.06814 5
      vertex -6.26667 -0.250949 5
      vertex -5.45378 3.0931 5
    endloop
  endfacet
  facet normal 0 0 1
    outer loop
      vertex -6.26667 -0.250949 5
      vertex -7.12253 3.06814 5
      vertex -6.46924 -0.260598 5
    endloop
  endfacet
  facet normal 0 0 1
    outer loop
      vertex -7.12253 3.06814 5
      vertex -8.04139 -0.155675 5
      vertex -6.46924 -0.260598 5
    endloop
  endfacet
  facet normal 0 0 1
    outer loop
      vertex -8.97952 3.37651 5
      vertex -8.04139 -0.155675 5
      vertex -7.12253 3.06814 5
    endloop
  endfacet
  facet normal 0 0 1
    outer loop
      vertex -8.97952 3.37651 5
      vertex -9.59134 0.127777 5
      vertex -8.04139 -0.155675 5
    endloop
  endfacet
  facet normal 0 0 1
    outer loop
      vertex -11.0989 0.586061 5
      vertex -8.97952 3.37651 5
      vertex -10.7516 4.01151 5
    endloop
  endfacet
  facet normal 0 0 1
    outer loop
      vertex -8.97952 3.37651 5
      vertex -11.0989 0.586061 5
      vertex -9.59134 0.127777 5
    endloop
  endfacet
  facet normal 0 0 1
    outer loop
      vertex -12.5443 1.2132 5
      vertex -10.7516 4.01151 5
      vertex -12.3818 4.95272 5
    endloop
  endfacet
  facet normal 0 0 1
    outer loop
      vertex -10.7516 4.01151 5
      vertex -12.5443 1.2132 5
      vertex -11.0989 0.586061 5
    endloop
  endfacet
  facet normal 0 0 1
    outer loop
      vertex -15.1747 2.93927 5
      vertex -12.3818 4.95272 5
      vertex -13.8178 6.1699 5
    endloop
  endfacet
  facet normal 0 0 1
    outer loop
      vertex -12.3818 4.95272 5
      vertex -13.9089 2.00103 5
      vertex -12.5443 1.2132 5
    endloop
  endfacet
  facet normal 0 0 1
    outer loop
      vertex -17.3458 5.21625 5
      vertex -13.8178 6.1699 5
      vertex -15.0134 7.62392 5
    endloop
  endfacet
  facet normal 0 0 1
    outer loop
      vertex -12.3818 4.95272 5
      vertex -15.1747 2.93927 5
      vertex -13.9089 2.00103 5
    endloop
  endfacet
  facet normal 0 0 1
    outer loop
      vertex -18.2228 6.52532 5
      vertex -15.0134 7.62392 5
      vertex -15.9301 9.26804 5
    endloop
  endfacet
  facet normal 0 0 1
    outer loop
      vertex -13.8178 6.1699 5
      vertex -16.3254 4.01569 5
      vertex -15.1747 2.93927 5
    endloop
  endfacet
  facet normal -0 0 1
    outer loop
      vertex -19.5024 9.39948 5
      vertex -15.9301 9.26804 5
      vertex -16.5385 11.0494 5
    endloop
  endfacet
  facet normal 0 0 1
    outer loop
      vertex -19.8885 10.9271 5
      vertex -16.5385 11.0494 5
      vertex -16.8191 12.9108 5
    endloop
  endfacet
  facet normal 0 0 1
    outer loop
      vertex -13.8178 6.1699 5
      vertex -17.3458 5.21625 5
      vertex -16.3254 4.01569 5
    endloop
  endfacet
  facet normal 0 0 1
    outer loop
      vertex 7.45964 13.8015 5
      vertex 4.04486 15.1037 5
      vertex 4.15744 13.2247 5
    endloop
  endfacet
  facet normal 0 0 1
    outer loop
      vertex 7.04156 16.9198 5
      vertex 3.59857 16.9325 5
      vertex 4.04486 15.1037 5
    endloop
  endfacet
  facet normal 0 0 1
    outer loop
      vertex 1.77251 20.2075 5
      vertex 4.17704 22.4762 5
      vertex 3.08972 23.6165 5
    endloop
  endfacet
  facet normal 0 0 1
    outer loop
      vertex 5.92807 19.8623 5
      vertex 2.83292 18.6522 5
      vertex 3.59857 16.9325 5
    endloop
  endfacet
  facet normal 0 0 1
    outer loop
      vertex 0.451431 21.5485 5
      vertex 3.08972 23.6165 5
      vertex 1.87949 24.6255 5
    endloop
  endfacet
  facet normal 0 0 1
    outer loop
      vertex 5.12729 21.2193 5
      vertex 1.77251 20.2075 5
      vertex 2.83292 18.6522 5
    endloop
  endfacet
  facet normal 0 0 1
    outer loop
      vertex -1.08786 22.632 5
      vertex 1.87949 24.6255 5
      vertex 0.562136 25.4899 5
    endloop
  endfacet
  facet normal 0 0 1
    outer loop
      vertex 3.08972 23.6165 5
      vertex 0.451431 21.5485 5
      vertex 1.77251 20.2075 5
    endloop
  endfacet
  facet normal 0 0 1
    outer loop
      vertex -1.08786 22.632 5
      vertex 0.562136 25.4899 5
      vertex -0.845167 26.1986 5
    endloop
  endfacet
  facet normal 0 0 1
    outer loop
      vertex 1.87949 24.6255 5
      vertex -1.08786 22.632 5
      vertex 0.451431 21.5485 5
    endloop
  endfacet
  facet normal 0 0 1
    outer loop
      vertex -2.7959 23.4233 5
      vertex -0.845167 26.1986 5
      vertex -2.32408 26.7422 5
    endloop
  endfacet
  facet normal 0 0 1
    outer loop
      vertex -0.845167 26.1986 5
      vertex -2.7959 23.4233 5
      vertex -1.08786 22.632 5
    endloop
  endfacet
  facet normal 0 0 1
    outer loop
      vertex -4.61777 23.8969 5
      vertex -2.32408 26.7422 5
      vertex -3.85531 27.1136 5
    endloop
  endfacet
  facet normal 0 0 1
    outer loop
      vertex -2.32408 26.7422 5
      vertex -4.61777 23.8969 5
      vertex -2.7959 23.4233 5
    endloop
  endfacet
  facet normal 0 0 1
    outer loop
      vertex -5.41891 27.3081 5
      vertex -4.61777 23.8969 5
      vertex -3.85531 27.1136 5
    endloop
  endfacet
  facet normal 0 0 1
    outer loop
      vertex -5.41891 27.3081 5
      vertex -6.49494 24.0376 5
      vertex -4.61777 23.8969 5
    endloop
  endfacet
  facet normal 0 0 1
    outer loop
      vertex -6.99449 27.3231 5
      vertex -6.49494 24.0376 5
      vertex -5.41891 27.3081 5
    endloop
  endfacet
  facet normal 0 0 1
    outer loop
      vertex -6.99449 27.3231 5
      vertex -8.36705 23.8408 5
      vertex -6.49494 24.0376 5
    endloop
  endfacet
  facet normal -0 0 1
    outer loop
      vertex -8.56151 27.1584 5
      vertex -8.36705 23.8408 5
      vertex -6.99449 27.3231 5
    endloop
  endfacet
  facet normal -0 0 1
    outer loop
      vertex -10.0995 26.8162 5
      vertex -8.36705 23.8408 5
      vertex -8.56151 27.1584 5
    endloop
  endfacet
  facet normal 0 0 1
    outer loop
      vertex -10.0995 26.8162 5
      vertex -10.1739 23.313 5
      vertex -8.36705 23.8408 5
    endloop
  endfacet
  facet normal -0 0 1
    outer loop
      vertex -11.5885 26.3008 5
      vertex -10.1739 23.313 5
      vertex -10.0995 26.8162 5
    endloop
  endfacet
  facet normal -0 0 1
    outer loop
      vertex -13.0091 25.6191 5
      vertex -10.1739 23.313 5
      vertex -11.5885 26.3008 5
    endloop
  endfacet
  facet normal 0 0 1
    outer loop
      vertex -10.1739 23.313 5
      vertex -13.0091 25.6191 5
      vertex -11.8575 22.4709 5
    endloop
  endfacet
  facet normal -0 0 1
    outer loop
      vertex -14.3426 24.7799 5
      vertex -11.8575 22.4709 5
      vertex -13.0091 25.6191 5
    endloop
  endfacet
  facet normal 0 0 1
    outer loop
      vertex -11.8575 22.4709 5
      vertex -14.3426 24.7799 5
      vertex -13.3637 21.3418 5
    endloop
  endfacet
  facet normal -0 0 1
    outer loop
      vertex -15.5719 23.7942 5
      vertex -13.3637 21.3418 5
      vertex -14.3426 24.7799 5
    endloop
  endfacet
  facet normal -0 0 1
    outer loop
      vertex -16.6807 22.6747 5
      vertex -13.3637 21.3418 5
      vertex -15.5719 23.7942 5
    endloop
  endfacet
  facet normal 0 0 1
    outer loop
      vertex -13.3637 21.3418 5
      vertex -16.6807 22.6747 5
      vertex -14.6441 19.9619 5
    endloop
  endfacet
  facet normal -0 0 1
    outer loop
      vertex -17.6547 21.4362 5
      vertex -14.6441 19.9619 5
      vertex -16.6807 22.6747 5
    endloop
  endfacet
  facet normal 0 0 1
    outer loop
      vertex -14.6441 19.9619 5
      vertex -17.6547 21.4362 5
      vertex -15.6575 18.3755 5
    endloop
  endfacet
  facet normal -0 0 1
    outer loop
      vertex -18.4812 20.0947 5
      vertex -15.6575 18.3755 5
      vertex -17.6547 21.4362 5
    endloop
  endfacet
  facet normal -0 0 1
    outer loop
      vertex -19.1493 18.6677 5
      vertex -15.6575 18.3755 5
      vertex -18.4812 20.0947 5
    endloop
  endfacet
  facet normal 0 0 1
    outer loop
      vertex -15.6575 18.3755 5
      vertex -19.1493 18.6677 5
      vertex -16.3714 16.6337 5
    endloop
  endfacet
  facet normal -0 0 1
    outer loop
      vertex -19.6505 17.1739 5
      vertex -16.3714 16.6337 5
      vertex -19.1493 18.6677 5
    endloop
  endfacet
  facet normal 0 0 1
    outer loop
      vertex -15.0134 7.62392 5
      vertex -18.2228 6.52532 5
      vertex -17.3458 5.21625 5
    endloop
  endfacet
  facet normal 0 0 1
    outer loop
      vertex -16.3714 16.6337 5
      vertex -19.6505 17.1739 5
      vertex -16.7628 14.7924 5
    endloop
  endfacet
  facet normal 0 0 1
    outer loop
      vertex -15.9301 9.26804 5
      vertex -18.9448 7.92581 5
      vertex -18.2228 6.52532 5
    endloop
  endfacet
  facet normal -0 0 1
    outer loop
      vertex -19.9781 15.6327 5
      vertex -16.7628 14.7924 5
      vertex -19.6505 17.1739 5
    endloop
  endfacet
  facet normal 0 0 1
    outer loop
      vertex -15.9301 9.26804 5
      vertex -19.5024 9.39948 5
      vertex -18.9448 7.92581 5
    endloop
  endfacet
  facet normal 0 0 1
    outer loop
      vertex -20.1279 14.0642 5
      vertex -16.7628 14.7924 5
      vertex -19.9781 15.6327 5
    endloop
  endfacet
  facet normal 0 0 1
    outer loop
      vertex -16.5385 11.0494 5
      vertex -19.8885 10.9271 5
      vertex -19.5024 9.39948 5
    endloop
  endfacet
  facet normal 0 0 1
    outer loop
      vertex -16.7628 14.7924 5
      vertex -20.1279 14.0642 5
      vertex -16.8191 12.9108 5
    endloop
  endfacet
  facet normal 0 0 1
    outer loop
      vertex -16.8191 12.9108 5
      vertex -20.0979 12.4888 5
      vertex -19.8885 10.9271 5
    endloop
  endfacet
  facet normal 0 0 1
    outer loop
      vertex -16.8191 12.9108 5
      vertex -20.1279 14.0642 5
      vertex -20.0979 12.4888 5
    endloop
  endfacet
endsolid OpenSCAD_Model
