solid OpenSCAD_Model
  facet normal 0 -1 0
    outer loop
      vertex -6.07421 18.4921 0
      vertex -4.40176 18.4921 5
      vertex -6.07421 18.4921 5
    endloop
  endfacet
  facet normal 0 -1 -0
    outer loop
      vertex -4.40176 18.4921 5
      vertex -6.07421 18.4921 0
      vertex -4.40176 18.4921 0
    endloop
  endfacet
  facet normal 0.743143 0.669133 0
    outer loop
      vertex -10.591 4.59076 5
      vertex -11.7101 5.83364 0
      vertex -11.7101 5.83364 5
    endloop
  endfacet
  facet normal 0.743143 0.669133 0
    outer loop
      vertex -11.7101 5.83364 0
      vertex -10.591 4.59076 5
      vertex -10.591 4.59076 0
    endloop
  endfacet
  facet normal 0.207898 -0.97815 0
    outer loop
      vertex -7.71012 18.1444 0
      vertex -6.07421 18.4921 5
      vertex -7.71012 18.1444 5
    endloop
  endfacet
  facet normal 0.207898 -0.97815 0
    outer loop
      vertex -6.07421 18.4921 5
      vertex -7.71012 18.1444 0
      vertex -6.07421 18.4921 0
    endloop
  endfacet
  facet normal 0.743148 -0.669127 0
    outer loop
      vertex -11.7101 15.2382 5
      vertex -10.591 16.4811 0
      vertex -10.591 16.4811 5
    endloop
  endfacet
  facet normal 0.743148 -0.669127 0
    outer loop
      vertex -10.591 16.4811 0
      vertex -11.7101 15.2382 5
      vertex -11.7101 15.2382 0
    endloop
  endfacet
  facet normal 0.587775 -0.809025 0
    outer loop
      vertex -10.591 16.4811 0
      vertex -9.23798 17.4641 5
      vertex -10.591 16.4811 5
    endloop
  endfacet
  facet normal 0.587775 -0.809025 0
    outer loop
      vertex -9.23798 17.4641 5
      vertex -10.591 16.4811 0
      vertex -9.23798 17.4641 0
    endloop
  endfacet
  facet normal 0.994523 -0.104517 0
    outer loop
      vertex -13.238 10.5359 5
      vertex -13.0632 12.1992 0
      vertex -13.0632 12.1992 5
    endloop
  endfacet
  facet normal 0.994523 -0.104517 0
    outer loop
      vertex -13.0632 12.1992 0
      vertex -13.238 10.5359 5
      vertex -13.238 10.5359 0
    endloop
  endfacet
  facet normal 0.866033 0.499987 0
    outer loop
      vertex -11.7101 5.83364 5
      vertex -12.5463 7.28203 0
      vertex -12.5463 7.28203 5
    endloop
  endfacet
  facet normal 0.866033 0.499987 0
    outer loop
      vertex -12.5463 7.28203 0
      vertex -11.7101 5.83364 5
      vertex -11.7101 5.83364 0
    endloop
  endfacet
  facet normal -0.587769 -0.809028 0
    outer loop
      vertex -1.23798 17.4641 0
      vertex 0.115059 16.4811 5
      vertex -1.23798 17.4641 5
    endloop
  endfacet
  facet normal -0.587769 -0.809028 -0
    outer loop
      vertex 0.115059 16.4811 5
      vertex -1.23798 17.4641 0
      vertex 0.115059 16.4811 0
    endloop
  endfacet
  facet normal -0.207898 -0.97815 0
    outer loop
      vertex -4.40176 18.4921 0
      vertex -2.76585 18.1444 5
      vertex -4.40176 18.4921 5
    endloop
  endfacet
  facet normal -0.207898 -0.97815 -0
    outer loop
      vertex -2.76585 18.1444 5
      vertex -4.40176 18.4921 0
      vertex -2.76585 18.1444 0
    endloop
  endfacet
  facet normal 0.406763 -0.913534 0
    outer loop
      vertex -9.23798 17.4641 0
      vertex -7.71012 18.1444 5
      vertex -9.23798 17.4641 5
    endloop
  endfacet
  facet normal 0.406763 -0.913534 0
    outer loop
      vertex -7.71012 18.1444 5
      vertex -9.23798 17.4641 0
      vertex -7.71012 18.1444 0
    endloop
  endfacet
  facet normal 0.866034 -0.499985 0
    outer loop
      vertex -12.5463 13.7898 5
      vertex -11.7101 15.2382 0
      vertex -11.7101 15.2382 5
    endloop
  endfacet
  facet normal 0.866034 -0.499985 0
    outer loop
      vertex -11.7101 15.2382 0
      vertex -12.5463 13.7898 5
      vertex -12.5463 13.7898 0
    endloop
  endfacet
  facet normal 0.587791 0.809013 -0
    outer loop
      vertex -9.23798 3.60772 0
      vertex -10.591 4.59076 5
      vertex -9.23798 3.60772 5
    endloop
  endfacet
  facet normal 0.587791 0.809013 0
    outer loop
      vertex -10.591 4.59076 5
      vertex -9.23798 3.60772 0
      vertex -10.591 4.59076 0
    endloop
  endfacet
  facet normal 0.994523 0.104519 0
    outer loop
      vertex -13.0632 8.87263 5
      vertex -13.238 10.5359 0
      vertex -13.238 10.5359 5
    endloop
  endfacet
  facet normal 0.994523 0.104519 0
    outer loop
      vertex -13.238 10.5359 0
      vertex -13.0632 8.87263 5
      vertex -13.0632 8.87263 0
    endloop
  endfacet
  facet normal 0.951042 -0.309062 0
    outer loop
      vertex -13.0632 12.1992 5
      vertex -12.5463 13.7898 0
      vertex -12.5463 13.7898 5
    endloop
  endfacet
  facet normal 0.951042 -0.309062 0
    outer loop
      vertex -12.5463 13.7898 0
      vertex -13.0632 12.1992 5
      vertex -13.0632 12.1992 0
    endloop
  endfacet
  facet normal 0.951042 0.309062 0
    outer loop
      vertex -12.5463 7.28203 5
      vertex -13.0632 8.87263 0
      vertex -13.0632 8.87263 5
    endloop
  endfacet
  facet normal 0.951042 0.309062 0
    outer loop
      vertex -13.0632 8.87263 0
      vertex -12.5463 7.28203 5
      vertex -12.5463 7.28203 0
    endloop
  endfacet
  facet normal -0.406761 -0.913535 0
    outer loop
      vertex -2.76585 18.1444 0
      vertex -1.23798 17.4641 5
      vertex -2.76585 18.1444 5
    endloop
  endfacet
  facet normal -0.406761 -0.913535 -0
    outer loop
      vertex -1.23798 17.4641 5
      vertex -2.76585 18.1444 0
      vertex -1.23798 17.4641 0
    endloop
  endfacet
  facet normal -0.743147 0.669128 0
    outer loop
      vertex 0.706022 5.24709 0
      vertex 1.23415 5.83364 5
      vertex 1.23415 5.83364 0
    endloop
  endfacet
  facet normal -0.743147 0.669128 0
    outer loop
      vertex 1.23415 5.83364 5
      vertex 0.706022 5.24709 0
      vertex 0.706022 5.24709 5
    endloop
  endfacet
  facet normal -0.994523 -0.104523 0
    outer loop
      vertex 2.76201 10.5359 0
      vertex 2.5872 12.1992 5
      vertex 2.5872 12.1992 0
    endloop
  endfacet
  facet normal -0.994523 -0.104523 0
    outer loop
      vertex 2.5872 12.1992 5
      vertex 2.76201 10.5359 0
      vertex 2.76201 10.5359 5
    endloop
  endfacet
  facet normal -0.743151 -0.669124 0
    outer loop
      vertex 1.23415 15.2382 0
      vertex 0.115059 16.4811 5
      vertex 0.115059 16.4811 0
    endloop
  endfacet
  facet normal -0.743151 -0.669124 0
    outer loop
      vertex 0.115059 16.4811 5
      vertex 1.23415 15.2382 0
      vertex 1.23415 15.2382 5
    endloop
  endfacet
  facet normal -0.866026 -0.499998 0
    outer loop
      vertex 2.07038 13.7898 0
      vertex 1.23415 15.2382 5
      vertex 1.23415 15.2382 0
    endloop
  endfacet
  facet normal -0.866026 -0.499998 0
    outer loop
      vertex 1.23415 15.2382 5
      vertex 2.07038 13.7898 0
      vertex 2.07038 13.7898 5
    endloop
  endfacet
  facet normal 0.406738 0.913545 -0
    outer loop
      vertex -7.71012 2.92747 0
      vertex -9.23798 3.60772 5
      vertex -7.71012 2.92747 5
    endloop
  endfacet
  facet normal 0.406738 0.913545 0
    outer loop
      vertex -9.23798 3.60772 5
      vertex -7.71012 2.92747 0
      vertex -9.23798 3.60772 0
    endloop
  endfacet
  facet normal 0 1 -0
    outer loop
      vertex -4.62377 2.57975 0
      vertex -6.07421 2.57975 5
      vertex -4.62377 2.57975 5
    endloop
  endfacet
  facet normal 0 1 0
    outer loop
      vertex -6.07421 2.57975 5
      vertex -4.62377 2.57975 0
      vertex -6.07421 2.57975 0
    endloop
  endfacet
  facet normal -0.951056 0.309018 0
    outer loop
      vertex 2.07038 7.28203 0
      vertex 2.5872 8.87263 5
      vertex 2.5872 8.87263 0
    endloop
  endfacet
  facet normal -0.951056 0.309018 0
    outer loop
      vertex 2.5872 8.87263 5
      vertex 2.07038 7.28203 0
      vertex 2.07038 7.28203 5
    endloop
  endfacet
  facet normal -0.994522 0.104524 0
    outer loop
      vertex 2.5872 8.87263 0
      vertex 2.76201 10.5359 5
      vertex 2.76201 10.5359 0
    endloop
  endfacet
  facet normal -0.994522 0.104524 0
    outer loop
      vertex 2.76201 10.5359 5
      vertex 2.5872 8.87263 0
      vertex 2.5872 8.87263 5
    endloop
  endfacet
  facet normal -0.951056 -0.309018 0
    outer loop
      vertex 2.5872 12.1992 0
      vertex 2.07038 13.7898 5
      vertex 2.07038 13.7898 0
    endloop
  endfacet
  facet normal -0.951056 -0.309018 0
    outer loop
      vertex 2.07038 13.7898 5
      vertex 2.5872 12.1992 0
      vertex 2.5872 12.1992 5
    endloop
  endfacet
  facet normal -0.866025 0.500001 0
    outer loop
      vertex 1.23415 5.83364 0
      vertex 2.07038 7.28203 5
      vertex 2.07038 7.28203 0
    endloop
  endfacet
  facet normal -0.866025 0.500001 0
    outer loop
      vertex 2.07038 7.28203 5
      vertex 1.23415 5.83364 0
      vertex 1.23415 5.83364 5
    endloop
  endfacet
  facet normal 0 0 1
    outer loop
      vertex -1.5622 5.06454 0
      vertex 2.76201 10.5359 0
      vertex 2.5872 12.1992 0
    endloop
  endfacet
  facet normal 0 0 1
    outer loop
      vertex -1.5622 5.06454 0
      vertex 2.5872 12.1992 0
      vertex 2.07038 13.7898 0
    endloop
  endfacet
  facet normal 0 0 1
    outer loop
      vertex 2.76201 10.5359 0
      vertex -1.5622 5.06454 0
      vertex 2.5872 8.87263 0
    endloop
  endfacet
  facet normal 0 0 1
    outer loop
      vertex 2.5872 8.87263 0
      vertex -0.789924 5.2408 0
      vertex 2.07038 7.28203 0
    endloop
  endfacet
  facet normal 0 0 1
    outer loop
      vertex -1.5622 5.06454 0
      vertex 2.07038 13.7898 0
      vertex 1.23415 15.2382 0
    endloop
  endfacet
  facet normal 0 -0 1
    outer loop
      vertex -5.61029e-07 5.3 0
      vertex 2.07038 7.28203 0
      vertex -0.789924 5.2408 0
    endloop
  endfacet
  facet normal 0 0 1
    outer loop
      vertex -1.5622 5.06454 0
      vertex 1.23415 15.2382 0
      vertex 0.115059 16.4811 0
    endloop
  endfacet
  facet normal 0 0 1
    outer loop
      vertex 1.23415 5.83364 0
      vertex -5.61029e-07 5.3 0
      vertex 0.706022 5.24709 0
    endloop
  endfacet
  facet normal 0 0 1
    outer loop
      vertex 2.07038 7.28203 0
      vertex -5.61029e-07 5.3 0
      vertex 1.23415 5.83364 0
    endloop
  endfacet
  facet normal 0 0 1
    outer loop
      vertex -2.29958 4.77514 0
      vertex 0.115059 16.4811 0
      vertex -1.23798 17.4641 0
    endloop
  endfacet
  facet normal 0 0 1
    outer loop
      vertex 2.5872 8.87263 0
      vertex -1.5622 5.06454 0
      vertex -0.789924 5.2408 0
    endloop
  endfacet
  facet normal 0 0 1
    outer loop
      vertex 0.115059 16.4811 0
      vertex -2.29958 4.77514 0
      vertex -1.5622 5.06454 0
    endloop
  endfacet
  facet normal 0 0 1
    outer loop
      vertex -2.76585 18.1444 0
      vertex -2.29958 4.77514 0
      vertex -1.23798 17.4641 0
    endloop
  endfacet
  facet normal 0 0 1
    outer loop
      vertex -4.40176 18.4921 0
      vertex -2.29958 4.77514 0
      vertex -2.76585 18.1444 0
    endloop
  endfacet
  facet normal -0 0 1
    outer loop
      vertex -6.07421 18.4921 0
      vertex -2.29958 4.77514 0
      vertex -4.40176 18.4921 0
    endloop
  endfacet
  facet normal -0 0 1
    outer loop
      vertex -7.71012 18.1444 0
      vertex -2.29958 4.77514 0
      vertex -6.07421 18.4921 0
    endloop
  endfacet
  facet normal -0 0 1
    outer loop
      vertex -9.23798 17.4641 0
      vertex -2.29958 4.77514 0
      vertex -7.71012 18.1444 0
    endloop
  endfacet
  facet normal -0 0 1
    outer loop
      vertex -10.591 16.4811 0
      vertex -2.29958 4.77514 0
      vertex -9.23798 17.4641 0
    endloop
  endfacet
  facet normal -0 0 1
    outer loop
      vertex -11.7101 15.2382 0
      vertex -2.29958 4.77514 0
      vertex -10.591 16.4811 0
    endloop
  endfacet
  facet normal -0 0 1
    outer loop
      vertex -12.5463 13.7898 0
      vertex -2.29958 4.77514 0
      vertex -11.7101 15.2382 0
    endloop
  endfacet
  facet normal -0 0 1
    outer loop
      vertex -13.0632 12.1992 0
      vertex -2.29958 4.77514 0
      vertex -12.5463 13.7898 0
    endloop
  endfacet
  facet normal 0 0 1
    outer loop
      vertex -4.14371 3.3045 0
      vertex -6.07421 2.57975 0
      vertex -4.58993 2.65 0
    endloop
  endfacet
  facet normal 0 0 1
    outer loop
      vertex -4.58993 2.65 0
      vertex -6.07421 2.57975 0
      vertex -4.62377 2.57975 0
    endloop
  endfacet
  facet normal 0 0 1
    outer loop
      vertex -2.29958 4.77514 0
      vertex -13.0632 12.1992 0
      vertex -2.9856 4.37907 0
    endloop
  endfacet
  facet normal 0 0 1
    outer loop
      vertex -3.60492 3.88518 0
      vertex -6.07421 2.57975 0
      vertex -4.14371 3.3045 0
    endloop
  endfacet
  facet normal -0 0 1
    outer loop
      vertex -13.238 10.5359 0
      vertex -2.9856 4.37907 0
      vertex -13.0632 12.1992 0
    endloop
  endfacet
  facet normal 0 -0 1
    outer loop
      vertex -6.07421 2.57975 0
      vertex -3.60492 3.88518 0
      vertex -7.71012 2.92747 0
    endloop
  endfacet
  facet normal 0 0 1
    outer loop
      vertex -2.9856 4.37907 0
      vertex -9.23798 3.60772 0
      vertex -3.60492 3.88518 0
    endloop
  endfacet
  facet normal 0 -0 1
    outer loop
      vertex -7.71012 2.92747 0
      vertex -3.60492 3.88518 0
      vertex -9.23798 3.60772 0
    endloop
  endfacet
  facet normal -0 -0 1
    outer loop
      vertex -13.0632 8.87263 0
      vertex -2.9856 4.37907 0
      vertex -13.238 10.5359 0
    endloop
  endfacet
  facet normal 0 -0 1
    outer loop
      vertex -9.23798 3.60772 0
      vertex -2.9856 4.37907 0
      vertex -10.591 4.59076 0
    endloop
  endfacet
  facet normal -0 -0 1
    outer loop
      vertex -12.5463 7.28203 0
      vertex -2.9856 4.37907 0
      vertex -13.0632 8.87263 0
    endloop
  endfacet
  facet normal -0 -0 1
    outer loop
      vertex -10.591 4.59076 0
      vertex -2.9856 4.37907 0
      vertex -11.7101 5.83364 0
    endloop
  endfacet
  facet normal -0 -0 1
    outer loop
      vertex -11.7101 5.83364 0
      vertex -2.9856 4.37907 0
      vertex -12.5463 7.28203 0
    endloop
  endfacet
  facet normal 0.20791 0.978148 -0
    outer loop
      vertex -6.07421 2.57975 0
      vertex -7.71012 2.92747 5
      vertex -6.07421 2.57975 5
    endloop
  endfacet
  facet normal 0.20791 0.978148 0
    outer loop
      vertex -7.71012 2.92747 5
      vertex -6.07421 2.57975 0
      vertex -7.71012 2.92747 0
    endloop
  endfacet
  facet normal 0.444654 0.895702 -0
    outer loop
      vertex 0.412015 20.322 -2
      vertex -0.859059 20.953 5
      vertex 0.412015 20.322 5
    endloop
  endfacet
  facet normal 0.444654 0.895702 0
    outer loop
      vertex -0.859059 20.953 5
      vertex 0.412015 20.322 -2
      vertex -0.859059 20.953 -2
    endloop
  endfacet
  facet normal -0.55338 -0.832929 0
    outer loop
      vertex -12.07 1.53513 -2
      vertex -10.888 0.749834 5
      vertex -12.07 1.53513 5
    endloop
  endfacet
  facet normal -0.55338 -0.832929 -0
    outer loop
      vertex -10.888 0.749834 5
      vertex -12.07 1.53513 -2
      vertex -10.888 0.749834 -2
    endloop
  endfacet
  facet normal -0.866027 0.499997 0
    outer loop
      vertex -15.3595 15.5603 -2
      vertex -14.65 16.7892 5
      vertex -14.65 16.7892 -2
    endloop
  endfacet
  facet normal -0.866027 0.499997 0
    outer loop
      vertex -14.65 16.7892 5
      vertex -15.3595 15.5603 -2
      vertex -15.3595 15.5603 5
    endloop
  endfacet
  facet normal 0.866022 -0.500006 0
    outer loop
      vertex 4.17402 4.2826 5
      vertex 4.88356 5.51154 -2
      vertex 4.88356 5.51154 5
    endloop
  endfacet
  facet normal 0.866022 -0.500006 0
    outer loop
      vertex 4.88356 5.51154 -2
      vertex 4.17402 4.2826 5
      vertex 4.17402 4.2826 -2
    endloop
  endfacet
  facet normal -0.289061 0.957311 0
    outer loop
      vertex -7.81835 21.5374 -2
      vertex -9.17685 21.1272 5
      vertex -7.81835 21.5374 5
    endloop
  endfacet
  facet normal -0.289061 0.957311 0
    outer loop
      vertex -9.17685 21.1272 5
      vertex -7.81835 21.5374 -2
      vertex -9.17685 21.1272 -2
    endloop
  endfacet
  facet normal -0.973586 -0.228321 0
    outer loop
      vertex -16.0557 7.26986 -2
      vertex -16.3797 8.65143 5
      vertex -16.3797 8.65143 -2
    endloop
  endfacet
  facet normal -0.973586 -0.228321 0
    outer loop
      vertex -16.3797 8.65143 5
      vertex -16.0557 7.26986 -2
      vertex -16.0557 7.26986 5
    endloop
  endfacet
  facet normal -0.989272 0.146086 0
    outer loop
      vertex -16.4984 11.4815 -2
      vertex -16.2911 12.8853 5
      vertex -16.2911 12.8853 -2
    endloop
  endfacet
  facet normal -0.989272 0.146086 0
    outer loop
      vertex -16.2911 12.8853 5
      vertex -16.4984 11.4815 -2
      vertex -16.4984 11.4815 5
    endloop
  endfacet
  facet normal 0.0836467 0.996495 -0
    outer loop
      vertex -3.58725 21.7147 -2
      vertex -5.00134 21.8334 5
      vertex -3.58725 21.7147 5
    endloop
  endfacet
  facet normal 0.0836467 0.996495 0
    outer loop
      vertex -5.00134 21.8334 5
      vertex -3.58725 21.7147 -2
      vertex -5.00134 21.8334 -2
    endloop
  endfacet
  facet normal -0.621096 0.783734 0
    outer loop
      vertex -11.687 19.8149 -2
      vertex -12.7992 18.9335 5
      vertex -11.687 19.8149 5
    endloop
  endfacet
  facet normal -0.621096 0.783734 0
    outer loop
      vertex -12.7992 18.9335 5
      vertex -11.687 19.8149 -2
      vertex -12.7992 18.9335 -2
    endloop
  endfacet
  facet normal -0.714502 0.699633 0
    outer loop
      vertex -13.792 17.9196 -2
      vertex -12.7992 18.9335 5
      vertex -12.7992 18.9335 -2
    endloop
  endfacet
  facet normal -0.714502 0.699633 0
    outer loop
      vertex -12.7992 18.9335 5
      vertex -13.792 17.9196 -2
      vertex -13.792 17.9196 5
    endloop
  endfacet
  facet normal -0.518025 0.855365 0
    outer loop
      vertex -10.4732 20.55 -2
      vertex -11.687 19.8149 5
      vertex -10.4732 20.55 5
    endloop
  endfacet
  facet normal -0.518025 0.855365 0
    outer loop
      vertex -11.687 19.8149 5
      vertex -10.4732 20.55 -2
      vertex -11.687 19.8149 -2
    endloop
  endfacet
  facet normal -0.886217 -0.46327 0
    outer loop
      vertex -14.9036 4.68222 -2
      vertex -15.561 5.9398 5
      vertex -15.561 5.9398 -2
    endloop
  endfacet
  facet normal -0.886217 -0.46327 0
    outer loop
      vertex -15.561 5.9398 5
      vertex -14.9036 4.68222 -2
      vertex -14.9036 4.68222 5
    endloop
  endfacet
  facet normal -0.937269 -0.348606 0
    outer loop
      vertex -15.561 5.9398 -2
      vertex -16.0557 7.26986 5
      vertex -16.0557 7.26986 -2
    endloop
  endfacet
  facet normal -0.937269 -0.348606 0
    outer loop
      vertex -16.0557 7.26986 5
      vertex -15.561 5.9398 -2
      vertex -15.561 5.9398 5
    endloop
  endfacet
  facet normal -0.994517 -0.104577 0
    outer loop
      vertex -16.3797 8.65143 -2
      vertex -16.5281 10.0627 5
      vertex -16.5281 10.0627 -2
    endloop
  endfacet
  facet normal -0.994517 -0.104577 0
    outer loop
      vertex -16.5281 10.0627 5
      vertex -16.3797 8.65143 -2
      vertex -16.3797 8.65143 5
    endloop
  endfacet
  facet normal -0.921867 0.387506 0
    outer loop
      vertex -15.9094 14.2521 -2
      vertex -15.3595 15.5603 5
      vertex -15.3595 15.5603 -2
    endloop
  endfacet
  facet normal -0.921867 0.387506 0
    outer loop
      vertex -15.3595 15.5603 5
      vertex -15.9094 14.2521 -2
      vertex -15.9094 14.2521 5
    endloop
  endfacet
  facet normal 0 0 -1
    outer loop
      vertex -6.88872 -0.642856 -2
      vertex -5.28518 -0.396069 -2
      vertex -5.47463 -0.7616 -2
    endloop
  endfacet
  facet normal 0 0 -1
    outer loop
      vertex -5.47463 -0.7616 -2
      vertex -5.28518 -0.396069 -2
      vertex -5.23162 -0.751415 -2
    endloop
  endfacet
  facet normal 0 0 -1
    outer loop
      vertex 0.789924 5.2408 -2
      vertex 6.0521 11.0091 -2
      vertex 6.02238 9.59036 -2
    endloop
  endfacet
  facet normal 0 0 -1
    outer loop
      vertex 0.789924 5.2408 -2
      vertex 6.02238 9.59036 -2
      vertex 5.81508 8.18652 -2
    endloop
  endfacet
  facet normal 0 0 -1
    outer loop
      vertex 6.0521 11.0091 -2
      vertex 0.789924 5.2408 -2
      vertex -5.61029e-07 5.3 -2
    endloop
  endfacet
  facet normal 0 0 -1
    outer loop
      vertex 1.5622 5.06454 -2
      vertex 5.81508 8.18652 -2
      vertex 5.43347 6.81973 -2
    endloop
  endfacet
  facet normal -0 0 -1
    outer loop
      vertex 6.0521 11.0091 -2
      vertex -5.61029e-07 5.3 -2
      vertex 5.90377 12.4204 -2
    endloop
  endfacet
  facet normal 0 0 -1
    outer loop
      vertex 2.29958 4.77514 -2
      vertex 5.43347 6.81973 -2
      vertex 4.88356 5.51154 -2
    endloop
  endfacet
  facet normal 0 0 -1
    outer loop
      vertex 5.81508 8.18652 -2
      vertex 1.5622 5.06454 -2
      vertex 0.789924 5.2408 -2
    endloop
  endfacet
  facet normal 0 0 -1
    outer loop
      vertex 2.9856 4.37907 -2
      vertex 4.88356 5.51154 -2
      vertex 4.17402 4.2826 -2
    endloop
  endfacet
  facet normal 0 0 -1
    outer loop
      vertex 3.60492 3.88518 -2
      vertex 4.17402 4.2826 -2
      vertex 3.75202 3.72663 -2
    endloop
  endfacet
  facet normal 0 0 -1
    outer loop
      vertex 2.9856 4.37907 -2
      vertex 4.17402 4.2826 -2
      vertex 3.60492 3.88518 -2
    endloop
  endfacet
  facet normal 0 0 -1
    outer loop
      vertex 4.88356 5.51154 -2
      vertex 2.9856 4.37907 -2
      vertex 2.29958 4.77514 -2
    endloop
  endfacet
  facet normal 0 0 -1
    outer loop
      vertex 5.43347 6.81973 -2
      vertex 2.29958 4.77514 -2
      vertex 1.5622 5.06454 -2
    endloop
  endfacet
  facet normal -0 0 -1
    outer loop
      vertex 5.90377 12.4204 -2
      vertex -5.61029e-07 5.3 -2
      vertex 5.57972 13.802 -2
    endloop
  endfacet
  facet normal 0 0 -1
    outer loop
      vertex -0.789924 5.2408 -2
      vertex 5.57972 13.802 -2
      vertex -5.61029e-07 5.3 -2
    endloop
  endfacet
  facet normal -0 0 -1
    outer loop
      vertex 5.57972 13.802 -2
      vertex -0.789924 5.2408 -2
      vertex 5.08508 15.132 -2
    endloop
  endfacet
  facet normal -0 0 -1
    outer loop
      vertex 5.08508 15.132 -2
      vertex -0.789924 5.2408 -2
      vertex 4.42763 16.3896 -2
    endloop
  endfacet
  facet normal -0 0 -1
    outer loop
      vertex 4.42763 16.3896 -2
      vertex -0.789924 5.2408 -2
      vertex 3.61775 17.5549 -2
    endloop
  endfacet
  facet normal -0 0 -1
    outer loop
      vertex 3.61775 17.5549 -2
      vertex -0.789924 5.2408 -2
      vertex 2.66821 18.6095 -2
    endloop
  endfacet
  facet normal 0 0 -1
    outer loop
      vertex -1.5622 5.06454 -2
      vertex 2.66821 18.6095 -2
      vertex -0.789924 5.2408 -2
    endloop
  endfacet
  facet normal -0 0 -1
    outer loop
      vertex 2.66821 18.6095 -2
      vertex -1.5622 5.06454 -2
      vertex 1.59398 19.5367 -2
    endloop
  endfacet
  facet normal -0 0 -1
    outer loop
      vertex 1.59398 19.5367 -2
      vertex -1.5622 5.06454 -2
      vertex 0.412015 20.322 -2
    endloop
  endfacet
  facet normal -0 0 -1
    outer loop
      vertex 0.412015 20.322 -2
      vertex -1.5622 5.06454 -2
      vertex -0.859059 20.953 -2
    endloop
  endfacet
  facet normal 0 0 -1
    outer loop
      vertex -1.5622 5.06454 -2
      vertex -2.19919 21.4197 -2
      vertex -0.859059 20.953 -2
    endloop
  endfacet
  facet normal 0 0 -1
    outer loop
      vertex -5.00134 21.8334 -2
      vertex -1.5622 5.06454 -2
      vertex -2.29958 4.77514 -2
    endloop
  endfacet
  facet normal 0 0 -1
    outer loop
      vertex -12.7992 18.9335 -2
      vertex -2.29958 4.77514 -2
      vertex -2.9856 4.37907 -2
    endloop
  endfacet
  facet normal 0 0 -1
    outer loop
      vertex -1.5622 5.06454 -2
      vertex -3.58725 21.7147 -2
      vertex -2.19919 21.4197 -2
    endloop
  endfacet
  facet normal 0 0 -1
    outer loop
      vertex -16.5281 10.0627 -2
      vertex -2.9856 4.37907 -2
      vertex -3.60492 3.88518 -2
    endloop
  endfacet
  facet normal 0 0 -1
    outer loop
      vertex -14.9036 4.68222 -2
      vertex -3.60492 3.88518 -2
      vertex -4.14371 3.3045 -2
    endloop
  endfacet
  facet normal 0 0 -1
    outer loop
      vertex -12.07 1.53513 -2
      vertex -4.14371 3.3045 -2
      vertex -4.58993 2.65 -2
    endloop
  endfacet
  facet normal 0 0 -1
    outer loop
      vertex -10.888 0.749834 -2
      vertex -4.58993 2.65 -2
      vertex -4.93363 1.93631 -2
    endloop
  endfacet
  facet normal 0 0 -1
    outer loop
      vertex -1.5622 5.06454 -2
      vertex -5.00134 21.8334 -2
      vertex -3.58725 21.7147 -2
    endloop
  endfacet
  facet normal 0 0 -1
    outer loop
      vertex -8.27678 -0.347816 -2
      vertex -4.93363 1.93631 -2
      vertex -5.16712 1.17936 -2
    endloop
  endfacet
  facet normal 0 0 -1
    outer loop
      vertex -6.88872 -0.642856 -2
      vertex -5.16712 1.17936 -2
      vertex -5.28518 0.39607 -2
    endloop
  endfacet
  facet normal -0 0 -1
    outer loop
      vertex -5.28518 -0.396069 -2
      vertex -6.88872 -0.642856 -2
      vertex -5.28518 0.39607 -2
    endloop
  endfacet
  facet normal 0 0 -1
    outer loop
      vertex -2.29958 4.77514 -2
      vertex -6.41916 21.774 -2
      vertex -5.00134 21.8334 -2
    endloop
  endfacet
  facet normal 0 0 -1
    outer loop
      vertex -5.16712 1.17936 -2
      vertex -6.88872 -0.642856 -2
      vertex -8.27678 -0.347816 -2
    endloop
  endfacet
  facet normal 0 0 -1
    outer loop
      vertex -2.29958 4.77514 -2
      vertex -7.81835 21.5374 -2
      vertex -6.41916 21.774 -2
    endloop
  endfacet
  facet normal 0 0 -1
    outer loop
      vertex -4.93363 1.93631 -2
      vertex -8.27678 -0.347816 -2
      vertex -9.61691 0.118867 -2
    endloop
  endfacet
  facet normal 0 0 -1
    outer loop
      vertex -2.29958 4.77514 -2
      vertex -9.17685 21.1272 -2
      vertex -7.81835 21.5374 -2
    endloop
  endfacet
  facet normal 0 0 -1
    outer loop
      vertex -4.93363 1.93631 -2
      vertex -9.61691 0.118867 -2
      vertex -10.888 0.749834 -2
    endloop
  endfacet
  facet normal 0 0 -1
    outer loop
      vertex -2.29958 4.77514 -2
      vertex -10.4732 20.55 -2
      vertex -9.17685 21.1272 -2
    endloop
  endfacet
  facet normal 0 0 -1
    outer loop
      vertex -4.58993 2.65 -2
      vertex -10.888 0.749834 -2
      vertex -12.07 1.53513 -2
    endloop
  endfacet
  facet normal 0 0 -1
    outer loop
      vertex -2.29958 4.77514 -2
      vertex -11.687 19.8149 -2
      vertex -10.4732 20.55 -2
    endloop
  endfacet
  facet normal 0 0 -1
    outer loop
      vertex -4.14371 3.3045 -2
      vertex -12.07 1.53513 -2
      vertex -13.1442 2.46238 -2
    endloop
  endfacet
  facet normal 0 0 -1
    outer loop
      vertex -2.29958 4.77514 -2
      vertex -12.7992 18.9335 -2
      vertex -11.687 19.8149 -2
    endloop
  endfacet
  facet normal -0 0 -1
    outer loop
      vertex -4.14371 3.3045 -2
      vertex -13.1442 2.46238 -2
      vertex -14.0937 3.51695 -2
    endloop
  endfacet
  facet normal 0 0 -1
    outer loop
      vertex -2.9856 4.37907 -2
      vertex -13.792 17.9196 -2
      vertex -12.7992 18.9335 -2
    endloop
  endfacet
  facet normal 0 0 -1
    outer loop
      vertex -4.14371 3.3045 -2
      vertex -14.0937 3.51695 -2
      vertex -14.9036 4.68222 -2
    endloop
  endfacet
  facet normal 0 0 -1
    outer loop
      vertex -2.9856 4.37907 -2
      vertex -14.65 16.7892 -2
      vertex -13.792 17.9196 -2
    endloop
  endfacet
  facet normal 0 0 -1
    outer loop
      vertex -3.60492 3.88518 -2
      vertex -14.9036 4.68222 -2
      vertex -15.561 5.9398 -2
    endloop
  endfacet
  facet normal 0 0 -1
    outer loop
      vertex -2.9856 4.37907 -2
      vertex -15.3595 15.5603 -2
      vertex -14.65 16.7892 -2
    endloop
  endfacet
  facet normal 0 0 -1
    outer loop
      vertex -3.60492 3.88518 -2
      vertex -15.561 5.9398 -2
      vertex -16.0557 7.26986 -2
    endloop
  endfacet
  facet normal 0 0 -1
    outer loop
      vertex -2.9856 4.37907 -2
      vertex -15.9094 14.2521 -2
      vertex -15.3595 15.5603 -2
    endloop
  endfacet
  facet normal 0 0 -1
    outer loop
      vertex -3.60492 3.88518 -2
      vertex -16.0557 7.26986 -2
      vertex -16.3797 8.65143 -2
    endloop
  endfacet
  facet normal 0 0 -1
    outer loop
      vertex -2.9856 4.37907 -2
      vertex -16.2911 12.8853 -2
      vertex -15.9094 14.2521 -2
    endloop
  endfacet
  facet normal 0 0 -1
    outer loop
      vertex -3.60492 3.88518 -2
      vertex -16.3797 8.65143 -2
      vertex -16.5281 10.0627 -2
    endloop
  endfacet
  facet normal 0 0 -1
    outer loop
      vertex -2.9856 4.37907 -2
      vertex -16.4984 11.4815 -2
      vertex -16.2911 12.8853 -2
    endloop
  endfacet
  facet normal 0 0 -1
    outer loop
      vertex -2.9856 4.37907 -2
      vertex -16.5281 10.0627 -2
      vertex -16.4984 11.4815 -2
    endloop
  endfacet
  facet normal 0.921864 -0.387514 0
    outer loop
      vertex 4.88356 5.51154 5
      vertex 5.43347 6.81973 -2
      vertex 5.43347 6.81973 5
    endloop
  endfacet
  facet normal 0.921864 -0.387514 0
    outer loop
      vertex 5.43347 6.81973 -2
      vertex 4.88356 5.51154 5
      vertex 4.88356 5.51154 -2
    endloop
  endfacet
  facet normal 0.207884 0.978154 -0
    outer loop
      vertex -2.19919 21.4197 -2
      vertex -3.58725 21.7147 5
      vertex -2.19919 21.4197 5
    endloop
  endfacet
  facet normal 0.207884 0.978154 0
    outer loop
      vertex -3.58725 21.7147 5
      vertex -2.19919 21.4197 -2
      vertex -3.58725 21.7147 -2
    endloop
  endfacet
  facet normal 0.328877 0.944373 -0
    outer loop
      vertex -0.859059 20.953 -2
      vertex -2.19919 21.4197 5
      vertex -0.859059 20.953 5
    endloop
  endfacet
  facet normal 0.328877 0.944373 0
    outer loop
      vertex -2.19919 21.4197 5
      vertex -0.859059 20.953 -2
      vertex -2.19919 21.4197 -2
    endloop
  endfacet
  facet normal -0.166731 0.986002 0
    outer loop
      vertex -6.41916 21.774 -2
      vertex -7.81835 21.5374 5
      vertex -6.41916 21.774 5
    endloop
  endfacet
  facet normal -0.166731 0.986002 0
    outer loop
      vertex -7.81835 21.5374 5
      vertex -6.41916 21.774 -2
      vertex -7.81835 21.5374 -2
    endloop
  endfacet
  facet normal -0.0418586 0.999124 0
    outer loop
      vertex -5.00134 21.8334 -2
      vertex -6.41916 21.774 5
      vertex -5.00134 21.8334 5
    endloop
  endfacet
  facet normal -0.0418586 0.999124 0
    outer loop
      vertex -6.41916 21.774 5
      vertex -5.00134 21.8334 -2
      vertex -6.41916 21.774 -2
    endloop
  endfacet
  facet normal -0.796537 0.60459 0
    outer loop
      vertex -14.65 16.7892 -2
      vertex -13.792 17.9196 5
      vertex -13.792 17.9196 -2
    endloop
  endfacet
  facet normal -0.796537 0.60459 0
    outer loop
      vertex -13.792 17.9196 5
      vertex -14.65 16.7892 -2
      vertex -14.65 16.7892 5
    endloop
  endfacet
  facet normal -0.406753 0.913538 0
    outer loop
      vertex -9.17685 21.1272 -2
      vertex -10.4732 20.55 5
      vertex -9.17685 21.1272 5
    endloop
  endfacet
  facet normal -0.406753 0.913538 0
    outer loop
      vertex -10.4732 20.55 5
      vertex -9.17685 21.1272 -2
      vertex -10.4732 20.55 -2
    endloop
  endfacet
  facet normal -0.821144 -0.570721 0
    outer loop
      vertex -14.0937 3.51695 -2
      vertex -14.9036 4.68222 5
      vertex -14.9036 4.68222 -2
    endloop
  endfacet
  facet normal -0.821144 -0.570721 0
    outer loop
      vertex -14.9036 4.68222 5
      vertex -14.0937 3.51695 -2
      vertex -14.0937 3.51695 5
    endloop
  endfacet
  facet normal -0.743159 -0.669115 0
    outer loop
      vertex -13.1442 2.46238 -2
      vertex -14.0937 3.51695 5
      vertex -14.0937 3.51695 -2
    endloop
  endfacet
  facet normal -0.743159 -0.669115 0
    outer loop
      vertex -14.0937 3.51695 5
      vertex -13.1442 2.46238 -2
      vertex -13.1442 2.46238 5
    endloop
  endfacet
  facet normal -0.653431 -0.756986 0
    outer loop
      vertex -13.1442 2.46238 -2
      vertex -12.07 1.53513 5
      vertex -13.1442 2.46238 5
    endloop
  endfacet
  facet normal -0.653431 -0.756986 -0
    outer loop
      vertex -12.07 1.53513 5
      vertex -13.1442 2.46238 -2
      vertex -12.07 1.53513 -2
    endloop
  endfacet
  facet normal 0.553394 0.83292 -0
    outer loop
      vertex 1.59398 19.5367 -2
      vertex 0.412015 20.322 5
      vertex 1.59398 19.5367 5
    endloop
  endfacet
  facet normal 0.553394 0.83292 0
    outer loop
      vertex 0.412015 20.322 5
      vertex 1.59398 19.5367 -2
      vertex 0.412015 20.322 -2
    endloop
  endfacet
  facet normal 0.6534 0.757013 -0
    outer loop
      vertex 2.66821 18.6095 -2
      vertex 1.59398 19.5367 5
      vertex 2.66821 18.6095 5
    endloop
  endfacet
  facet normal 0.6534 0.757013 0
    outer loop
      vertex 1.59398 19.5367 5
      vertex 2.66821 18.6095 -2
      vertex 1.59398 19.5367 -2
    endloop
  endfacet
  facet normal 0.973579 0.22835 0
    outer loop
      vertex 5.90377 12.4204 5
      vertex 5.57972 13.802 -2
      vertex 5.57972 13.802 5
    endloop
  endfacet
  facet normal 0.973579 0.22835 0
    outer loop
      vertex 5.57972 13.802 -2
      vertex 5.90377 12.4204 5
      vertex 5.90377 12.4204 -2
    endloop
  endfacet
  facet normal 0.989272 -0.146082 0
    outer loop
      vertex 5.81508 8.18652 5
      vertex 6.02238 9.59036 -2
      vertex 6.02238 9.59036 5
    endloop
  endfacet
  facet normal 0.989272 -0.146082 0
    outer loop
      vertex 6.02238 9.59036 -2
      vertex 5.81508 8.18652 5
      vertex 5.81508 8.18652 -2
    endloop
  endfacet
  facet normal -0.999781 0.0209286 0
    outer loop
      vertex -16.5281 10.0627 -2
      vertex -16.4984 11.4815 5
      vertex -16.4984 11.4815 -2
    endloop
  endfacet
  facet normal -0.999781 0.0209286 0
    outer loop
      vertex -16.4984 11.4815 5
      vertex -16.5281 10.0627 -2
      vertex -16.5281 10.0627 5
    endloop
  endfacet
  facet normal -0.963147 0.268974 0
    outer loop
      vertex -16.2911 12.8853 -2
      vertex -15.9094 14.2521 5
      vertex -15.9094 14.2521 -2
    endloop
  endfacet
  facet normal -0.963147 0.268974 0
    outer loop
      vertex -15.9094 14.2521 5
      vertex -16.2911 12.8853 -2
      vertex -16.2911 12.8853 5
    endloop
  endfacet
  facet normal 0.999781 -0.0209436 0
    outer loop
      vertex 6.02238 9.59036 5
      vertex 6.0521 11.0091 -2
      vertex 6.0521 11.0091 5
    endloop
  endfacet
  facet normal 0.999781 -0.0209436 0
    outer loop
      vertex 6.0521 11.0091 -2
      vertex 6.02238 9.59036 5
      vertex 6.02238 9.59036 -2
    endloop
  endfacet
  facet normal 0.937278 0.348583 0
    outer loop
      vertex 5.57972 13.802 5
      vertex 5.08508 15.132 -2
      vertex 5.08508 15.132 5
    endloop
  endfacet
  facet normal 0.937278 0.348583 0
    outer loop
      vertex 5.08508 15.132 -2
      vertex 5.57972 13.802 5
      vertex 5.57972 13.802 -2
    endloop
  endfacet
  facet normal -0.444631 -0.895714 0
    outer loop
      vertex -10.888 0.749834 -2
      vertex -9.61691 0.118867 5
      vertex -10.888 0.749834 5
    endloop
  endfacet
  facet normal -0.444631 -0.895714 -0
    outer loop
      vertex -9.61691 0.118867 5
      vertex -10.888 0.749834 -2
      vertex -9.61691 0.118867 -2
    endloop
  endfacet
  facet normal -0.328867 -0.944376 0
    outer loop
      vertex -9.61691 0.118867 -2
      vertex -8.27678 -0.347816 5
      vertex -9.61691 0.118867 5
    endloop
  endfacet
  facet normal -0.328867 -0.944376 -0
    outer loop
      vertex -8.27678 -0.347816 5
      vertex -9.61691 0.118867 -2
      vertex -8.27678 -0.347816 -2
    endloop
  endfacet
  facet normal -0.207911 -0.978148 0
    outer loop
      vertex -8.27678 -0.347816 -2
      vertex -6.88872 -0.642856 5
      vertex -8.27678 -0.347816 5
    endloop
  endfacet
  facet normal -0.207911 -0.978148 -0
    outer loop
      vertex -6.88872 -0.642856 5
      vertex -8.27678 -0.347816 -2
      vertex -6.88872 -0.642856 -2
    endloop
  endfacet
  facet normal 0.963163 -0.268917 0
    outer loop
      vertex 5.43347 6.81973 5
      vertex 5.81508 8.18652 -2
      vertex 5.81508 8.18652 5
    endloop
  endfacet
  facet normal 0.963163 -0.268917 0
    outer loop
      vertex 5.81508 8.18652 -2
      vertex 5.43347 6.81973 5
      vertex 5.43347 6.81973 -2
    endloop
  endfacet
  facet normal 0.743154 0.66912 0
    outer loop
      vertex 3.61775 17.5549 5
      vertex 2.66821 18.6095 -2
      vertex 2.66821 18.6095 5
    endloop
  endfacet
  facet normal 0.743154 0.66912 0
    outer loop
      vertex 2.66821 18.6095 -2
      vertex 3.61775 17.5549 5
      vertex 3.61775 17.5549 -2
    endloop
  endfacet
  facet normal 0.821157 0.570702 0
    outer loop
      vertex 4.42763 16.3896 5
      vertex 3.61775 17.5549 -2
      vertex 3.61775 17.5549 5
    endloop
  endfacet
  facet normal 0.821157 0.570702 0
    outer loop
      vertex 3.61775 17.5549 -2
      vertex 4.42763 16.3896 5
      vertex 4.42763 16.3896 -2
    endloop
  endfacet
  facet normal 0.994522 0.104526 0
    outer loop
      vertex 6.0521 11.0091 5
      vertex 5.90377 12.4204 -2
      vertex 5.90377 12.4204 5
    endloop
  endfacet
  facet normal 0.994522 0.104526 0
    outer loop
      vertex 5.90377 12.4204 -2
      vertex 6.0521 11.0091 5
      vertex 6.0521 11.0091 -2
    endloop
  endfacet
  facet normal 0.886206 0.463292 0
    outer loop
      vertex 5.08508 15.132 5
      vertex 4.42763 16.3896 -2
      vertex 4.42763 16.3896 5
    endloop
  endfacet
  facet normal 0.886206 0.463292 0
    outer loop
      vertex 4.42763 16.3896 -2
      vertex 5.08508 15.132 5
      vertex 5.08508 15.132 -2
    endloop
  endfacet
  facet normal 0.796533 -0.604595 0
    outer loop
      vertex 3.75202 3.72663 5
      vertex 4.17402 4.2826 -2
      vertex 4.17402 4.2826 5
    endloop
  endfacet
  facet normal 0.796533 -0.604595 0
    outer loop
      vertex 4.17402 4.2826 -2
      vertex 3.75202 3.72663 5
      vertex 3.75202 3.72663 -2
    endloop
  endfacet
  facet normal 0.0418751 -0.999123 0
    outer loop
      vertex -5.47463 -0.7616 -2
      vertex -5.23162 -0.751415 5
      vertex -5.47463 -0.7616 5
    endloop
  endfacet
  facet normal 0.0418751 -0.999123 0
    outer loop
      vertex -5.23162 -0.751415 5
      vertex -5.47463 -0.7616 -2
      vertex -5.23162 -0.751415 -2
    endloop
  endfacet
  facet normal -0.0836775 -0.996493 0
    outer loop
      vertex -6.88872 -0.642856 -2
      vertex -5.47463 -0.7616 5
      vertex -6.88872 -0.642856 5
    endloop
  endfacet
  facet normal -0.0836775 -0.996493 -0
    outer loop
      vertex -5.47463 -0.7616 5
      vertex -6.88872 -0.642856 -2
      vertex -5.47463 -0.7616 -2
    endloop
  endfacet
  facet normal 0.222513 0.97493 -0
    outer loop
      vertex 1.5622 5.06454 -2.05
      vertex 0.789924 5.2408 -2
      vertex 1.5622 5.06454 -2
    endloop
  endfacet
  facet normal 0.222513 0.97493 0
    outer loop
      vertex 0.789924 5.2408 -2
      vertex 1.5622 5.06454 -2.05
      vertex 0.789924 5.2408 -2.05
    endloop
  endfacet
  facet normal -0.499996 -0.866027 0
    outer loop
      vertex -2.9856 -4.37906 -2.05
      vertex -2.29958 -4.77513 5
      vertex -2.9856 -4.37906 5
    endloop
  endfacet
  facet normal -0.499996 -0.866027 -0
    outer loop
      vertex -2.29958 -4.77513 5
      vertex -2.9856 -4.37906 -2.05
      vertex -2.29958 -4.77513 -2.05
    endloop
  endfacet
  facet normal 0.0747314 0.997204 -0
    outer loop
      vertex 0.706022 5.24709 0
      vertex -5.61029e-07 5.3 5
      vertex 0.706022 5.24709 5
    endloop
  endfacet
  facet normal 0.0747314 0.997204 0
    outer loop
      vertex -5.61029e-07 5.3 5
      vertex 0.706022 5.24709 0
      vertex -5.61029e-07 5.3 0
    endloop
  endfacet
  facet normal 0.0747343 0.997203 -0
    outer loop
      vertex 0.789924 5.2408 -2.05
      vertex -5.61029e-07 5.3 -2
      vertex 0.789924 5.2408 -2
    endloop
  endfacet
  facet normal 0.0747343 0.997203 0
    outer loop
      vertex -5.61029e-07 5.3 -2
      vertex 0.789924 5.2408 -2.05
      vertex -5.61029e-07 5.3 -2.05
    endloop
  endfacet
  facet normal 0.499996 0.866027 -0
    outer loop
      vertex 2.9856 4.37907 -2.05
      vertex 2.29958 4.77514 -2
      vertex 2.9856 4.37907 -2
    endloop
  endfacet
  facet normal 0.499996 0.866027 0
    outer loop
      vertex 2.29958 4.77514 -2
      vertex 2.9856 4.37907 -2.05
      vertex 2.29958 4.77514 -2.05
    endloop
  endfacet
  facet normal 0.365341 0.930874 -0
    outer loop
      vertex 2.29958 4.77514 -2.05
      vertex 1.5622 5.06454 -2
      vertex 2.29958 4.77514 -2
    endloop
  endfacet
  facet normal 0.365341 0.930874 0
    outer loop
      vertex 1.5622 5.06454 -2
      vertex 2.29958 4.77514 -2.05
      vertex 1.5622 5.06454 -2.05
    endloop
  endfacet
  facet normal 0.955572 0.294757 0
    outer loop
      vertex 5.16712 1.17936 5
      vertex 4.93363 1.93631 -2.05
      vertex 4.93363 1.93631 5
    endloop
  endfacet
  facet normal 0.955572 0.294757 0
    outer loop
      vertex 4.93363 1.93631 -2.05
      vertex 5.16712 1.17936 5
      vertex 5.16712 1.17936 -2.05
    endloop
  endfacet
  facet normal 0.365352 -0.93087 0
    outer loop
      vertex 1.5622 -5.06454 -2.05
      vertex 2.29958 -4.77513 5
      vertex 1.5622 -5.06454 5
    endloop
  endfacet
  facet normal 0.365352 -0.93087 0
    outer loop
      vertex 2.29958 -4.77513 5
      vertex 1.5622 -5.06454 -2.05
      vertex 2.29958 -4.77513 -2.05
    endloop
  endfacet
  facet normal 0 0 -1
    outer loop
      vertex 5.16712 -1.17936 -2.05
      vertex 5.28518 0.39607 -2.05
      vertex 5.28518 -0.396069 -2.05
    endloop
  endfacet
  facet normal 0 0 -1
    outer loop
      vertex 5.16712 -1.17936 -2.05
      vertex 5.16712 1.17936 -2.05
      vertex 5.28518 0.39607 -2.05
    endloop
  endfacet
  facet normal 0 0 -1
    outer loop
      vertex 4.93363 -1.93631 -2.05
      vertex 5.16712 1.17936 -2.05
      vertex 5.16712 -1.17936 -2.05
    endloop
  endfacet
  facet normal 0 0 -1
    outer loop
      vertex 4.93363 -1.93631 -2.05
      vertex 4.93363 1.93631 -2.05
      vertex 5.16712 1.17936 -2.05
    endloop
  endfacet
  facet normal 0 0 -1
    outer loop
      vertex 4.58993 -2.65 -2.05
      vertex 4.93363 1.93631 -2.05
      vertex 4.93363 -1.93631 -2.05
    endloop
  endfacet
  facet normal 0 0 -1
    outer loop
      vertex 4.58993 -2.65 -2.05
      vertex 4.58993 2.65 -2.05
      vertex 4.93363 1.93631 -2.05
    endloop
  endfacet
  facet normal 0 0 -1
    outer loop
      vertex 4.14371 -3.3045 -2.05
      vertex 4.58993 2.65 -2.05
      vertex 4.58993 -2.65 -2.05
    endloop
  endfacet
  facet normal 0 0 -1
    outer loop
      vertex 4.14371 -3.3045 -2.05
      vertex 4.14371 3.3045 -2.05
      vertex 4.58993 2.65 -2.05
    endloop
  endfacet
  facet normal 0 0 -1
    outer loop
      vertex 3.60492 -3.88517 -2.05
      vertex 4.14371 3.3045 -2.05
      vertex 4.14371 -3.3045 -2.05
    endloop
  endfacet
  facet normal 0 0 -1
    outer loop
      vertex 3.60492 -3.88517 -2.05
      vertex 3.60492 3.88518 -2.05
      vertex 4.14371 3.3045 -2.05
    endloop
  endfacet
  facet normal 0 0 -1
    outer loop
      vertex 3.60492 -3.88517 -2.05
      vertex 2.9856 4.37907 -2.05
      vertex 3.60492 3.88518 -2.05
    endloop
  endfacet
  facet normal 0 0 -1
    outer loop
      vertex 2.9856 -4.37907 -2.05
      vertex 2.9856 4.37907 -2.05
      vertex 3.60492 -3.88517 -2.05
    endloop
  endfacet
  facet normal 0 0 -1
    outer loop
      vertex 2.9856 -4.37907 -2.05
      vertex 2.29958 4.77514 -2.05
      vertex 2.9856 4.37907 -2.05
    endloop
  endfacet
  facet normal 0 0 -1
    outer loop
      vertex 2.29958 -4.77513 -2.05
      vertex 2.29958 4.77514 -2.05
      vertex 2.9856 -4.37907 -2.05
    endloop
  endfacet
  facet normal 0 0 -1
    outer loop
      vertex 1.5622 -5.06454 -2.05
      vertex 2.29958 4.77514 -2.05
      vertex 2.29958 -4.77513 -2.05
    endloop
  endfacet
  facet normal 0 0 -1
    outer loop
      vertex 1.5622 -5.06454 -2.05
      vertex 1.5622 5.06454 -2.05
      vertex 2.29958 4.77514 -2.05
    endloop
  endfacet
  facet normal 0 0 -1
    outer loop
      vertex 0.789924 -5.2408 -2.05
      vertex 1.5622 5.06454 -2.05
      vertex 1.5622 -5.06454 -2.05
    endloop
  endfacet
  facet normal 0 0 -1
    outer loop
      vertex 0.789924 -5.2408 -2.05
      vertex 0.789924 5.2408 -2.05
      vertex 1.5622 5.06454 -2.05
    endloop
  endfacet
  facet normal 0 0 -1
    outer loop
      vertex 0.789924 -5.2408 -2.05
      vertex -5.61029e-07 5.3 -2.05
      vertex 0.789924 5.2408 -2.05
    endloop
  endfacet
  facet normal 0 0 -1
    outer loop
      vertex -5.81688e-07 -5.3 -2.05
      vertex -5.61029e-07 5.3 -2.05
      vertex 0.789924 -5.2408 -2.05
    endloop
  endfacet
  facet normal 0 0 -1
    outer loop
      vertex -5.81688e-07 -5.3 -2.05
      vertex -0.789924 5.2408 -2.05
      vertex -5.61029e-07 5.3 -2.05
    endloop
  endfacet
  facet normal 0 0 -1
    outer loop
      vertex -0.789924 -5.2408 -2.05
      vertex -0.789924 5.2408 -2.05
      vertex -5.81688e-07 -5.3 -2.05
    endloop
  endfacet
  facet normal 0 0 -1
    outer loop
      vertex -0.789924 -5.2408 -2.05
      vertex -1.5622 5.06454 -2.05
      vertex -0.789924 5.2408 -2.05
    endloop
  endfacet
  facet normal 0 0 -1
    outer loop
      vertex -1.5622 -5.06453 -2.05
      vertex -1.5622 5.06454 -2.05
      vertex -0.789924 -5.2408 -2.05
    endloop
  endfacet
  facet normal 0 0 -1
    outer loop
      vertex -2.29958 -4.77513 -2.05
      vertex -1.5622 5.06454 -2.05
      vertex -1.5622 -5.06453 -2.05
    endloop
  endfacet
  facet normal 0 0 -1
    outer loop
      vertex -2.29958 -4.77513 -2.05
      vertex -2.29958 4.77514 -2.05
      vertex -1.5622 5.06454 -2.05
    endloop
  endfacet
  facet normal 0 0 -1
    outer loop
      vertex -2.9856 -4.37906 -2.05
      vertex -2.29958 4.77514 -2.05
      vertex -2.29958 -4.77513 -2.05
    endloop
  endfacet
  facet normal 0 0 -1
    outer loop
      vertex -2.9856 -4.37906 -2.05
      vertex -2.9856 4.37907 -2.05
      vertex -2.29958 4.77514 -2.05
    endloop
  endfacet
  facet normal 0 0 -1
    outer loop
      vertex -2.9856 -4.37906 -2.05
      vertex -3.60492 3.88518 -2.05
      vertex -2.9856 4.37907 -2.05
    endloop
  endfacet
  facet normal 0 0 -1
    outer loop
      vertex -3.60492 -3.88517 -2.05
      vertex -3.60492 3.88518 -2.05
      vertex -2.9856 -4.37906 -2.05
    endloop
  endfacet
  facet normal 0 0 -1
    outer loop
      vertex -4.14371 -3.30449 -2.05
      vertex -3.60492 3.88518 -2.05
      vertex -3.60492 -3.88517 -2.05
    endloop
  endfacet
  facet normal 0 0 -1
    outer loop
      vertex -4.14371 -3.30449 -2.05
      vertex -4.14371 3.3045 -2.05
      vertex -3.60492 3.88518 -2.05
    endloop
  endfacet
  facet normal 0 0 -1
    outer loop
      vertex -4.14371 -3.30449 -2.05
      vertex -4.58993 2.65 -2.05
      vertex -4.14371 3.3045 -2.05
    endloop
  endfacet
  facet normal 0 0 -1
    outer loop
      vertex -4.58994 -2.65 -2.05
      vertex -4.58993 2.65 -2.05
      vertex -4.14371 -3.30449 -2.05
    endloop
  endfacet
  facet normal 0 0 -1
    outer loop
      vertex -4.93363 -1.93631 -2.05
      vertex -4.58993 2.65 -2.05
      vertex -4.58994 -2.65 -2.05
    endloop
  endfacet
  facet normal 0 0 -1
    outer loop
      vertex -4.93363 -1.93631 -2.05
      vertex -4.93363 1.93631 -2.05
      vertex -4.58993 2.65 -2.05
    endloop
  endfacet
  facet normal 0 0 -1
    outer loop
      vertex -5.16712 -1.17936 -2.05
      vertex -4.93363 1.93631 -2.05
      vertex -4.93363 -1.93631 -2.05
    endloop
  endfacet
  facet normal 0 0 -1
    outer loop
      vertex -5.16712 -1.17936 -2.05
      vertex -5.16712 1.17936 -2.05
      vertex -4.93363 1.93631 -2.05
    endloop
  endfacet
  facet normal 0 0 -1
    outer loop
      vertex -5.28518 -0.396069 -2.05
      vertex -5.16712 1.17936 -2.05
      vertex -5.16712 -1.17936 -2.05
    endloop
  endfacet
  facet normal 0 0 -1
    outer loop
      vertex -5.16712 1.17936 -2.05
      vertex -5.28518 -0.396069 -2.05
      vertex -5.28518 0.39607 -2.05
    endloop
  endfacet
  facet normal -0.0747344 -0.997203 0
    outer loop
      vertex -0.789924 -5.2408 -2.05
      vertex -5.81688e-07 -5.3 5
      vertex -0.789924 -5.2408 5
    endloop
  endfacet
  facet normal -0.0747344 -0.997203 -0
    outer loop
      vertex -5.81688e-07 -5.3 5
      vertex -0.789924 -5.2408 -2.05
      vertex -5.81688e-07 -5.3 -2.05
    endloop
  endfacet
  facet normal -0.365341 -0.930874 0
    outer loop
      vertex -2.29958 -4.77513 -2.05
      vertex -1.5622 -5.06453 5
      vertex -2.29958 -4.77513 5
    endloop
  endfacet
  facet normal -0.365341 -0.930874 -0
    outer loop
      vertex -1.5622 -5.06453 5
      vertex -2.29958 -4.77513 -2.05
      vertex -1.5622 -5.06453 -2.05
    endloop
  endfacet
  facet normal -0.623489 0.781832 0
    outer loop
      vertex -2.9856 4.37907 -2.05
      vertex -3.60492 3.88518 -2
      vertex -2.9856 4.37907 -2
    endloop
  endfacet
  facet normal -0.623489 0.781832 0
    outer loop
      vertex -3.60492 3.88518 -2
      vertex -2.9856 4.37907 -2.05
      vertex -3.60492 3.88518 -2.05
    endloop
  endfacet
  facet normal -0.623489 0.781832 0
    outer loop
      vertex -2.9856 4.37907 0
      vertex -3.60492 3.88518 5
      vertex -2.9856 4.37907 5
    endloop
  endfacet
  facet normal -0.623489 0.781832 0
    outer loop
      vertex -3.60492 3.88518 5
      vertex -2.9856 4.37907 0
      vertex -3.60492 3.88518 0
    endloop
  endfacet
  facet normal 0.0747343 -0.997203 0
    outer loop
      vertex -5.81688e-07 -5.3 -2.05
      vertex 0.789924 -5.2408 5
      vertex -5.81688e-07 -5.3 5
    endloop
  endfacet
  facet normal 0.0747343 -0.997203 0
    outer loop
      vertex 0.789924 -5.2408 5
      vertex -5.81688e-07 -5.3 -2.05
      vertex 0.789924 -5.2408 -2.05
    endloop
  endfacet
  facet normal 0.733047 -0.680177 0
    outer loop
      vertex 3.60492 -3.88517 5
      vertex 4.14371 -3.3045 -2.05
      vertex 4.14371 -3.3045 5
    endloop
  endfacet
  facet normal 0.733047 -0.680177 0
    outer loop
      vertex 4.14371 -3.3045 -2.05
      vertex 3.60492 -3.88517 5
      vertex 3.60492 -3.88517 -2.05
    endloop
  endfacet
  facet normal 0.826245 -0.563311 0
    outer loop
      vertex 4.14371 -3.3045 5
      vertex 4.58993 -2.65 -2.05
      vertex 4.58993 -2.65 5
    endloop
  endfacet
  facet normal 0.826245 -0.563311 0
    outer loop
      vertex 4.58993 -2.65 -2.05
      vertex 4.14371 -3.3045 5
      vertex 4.14371 -3.3045 -2.05
    endloop
  endfacet
  facet normal 0.499987 -0.866033 0
    outer loop
      vertex 2.29958 -4.77513 -2.05
      vertex 2.9856 -4.37907 5
      vertex 2.29958 -4.77513 5
    endloop
  endfacet
  facet normal 0.499987 -0.866033 0
    outer loop
      vertex 2.9856 -4.37907 5
      vertex 2.29958 -4.77513 -2.05
      vertex 2.9856 -4.37907 -2.05
    endloop
  endfacet
  facet normal 0.900966 0.433889 0
    outer loop
      vertex 4.93363 1.93631 5
      vertex 4.58993 2.65 -2.05
      vertex 4.58993 2.65 5
    endloop
  endfacet
  facet normal 0.900966 0.433889 0
    outer loop
      vertex 4.58993 2.65 -2.05
      vertex 4.93363 1.93631 5
      vertex 4.93363 1.93631 -2.05
    endloop
  endfacet
  facet normal 0.733043 0.680183 0
    outer loop
      vertex 3.75202 3.72663 5
      vertex 4.14371 3.3045 5
      vertex 3.75202 3.72663 -2
    endloop
  endfacet
  facet normal 0.733082 0.680141 0
    outer loop
      vertex 3.75202 3.72663 -2
      vertex 3.60492 3.88518 -2.05
      vertex 3.60492 3.88518 -2
    endloop
  endfacet
  facet normal 0.733053 0.680171 0.000179931
    outer loop
      vertex 3.75202 3.72663 -2
      vertex 4.14371 3.3045 -2.05
      vertex 3.60492 3.88518 -2.05
    endloop
  endfacet
  facet normal 0.733043 0.680183 -0
    outer loop
      vertex 4.14371 3.3045 -2.05
      vertex 3.75202 3.72663 -2
      vertex 4.14371 3.3045 5
    endloop
  endfacet
  facet normal 0.955572 -0.294757 0
    outer loop
      vertex 4.93363 -1.93631 5
      vertex 5.16712 -1.17936 -2.05
      vertex 5.16712 -1.17936 5
    endloop
  endfacet
  facet normal 0.955572 -0.294757 0
    outer loop
      vertex 5.16712 -1.17936 -2.05
      vertex 4.93363 -1.93631 5
      vertex 4.93363 -1.93631 -2.05
    endloop
  endfacet
  facet normal -0.365341 0.930874 0
    outer loop
      vertex -1.5622 5.06454 0
      vertex -2.29958 4.77514 5
      vertex -1.5622 5.06454 5
    endloop
  endfacet
  facet normal -0.365341 0.930874 0
    outer loop
      vertex -2.29958 4.77514 5
      vertex -1.5622 5.06454 0
      vertex -2.29958 4.77514 0
    endloop
  endfacet
  facet normal -0.365341 0.930874 0
    outer loop
      vertex -1.5622 5.06454 -2.05
      vertex -2.29958 4.77514 -2
      vertex -1.5622 5.06454 -2
    endloop
  endfacet
  facet normal -0.365341 0.930874 0
    outer loop
      vertex -2.29958 4.77514 -2
      vertex -1.5622 5.06454 -2.05
      vertex -2.29958 4.77514 -2.05
    endloop
  endfacet
  facet normal -0.733053 0.680171 0
    outer loop
      vertex -4.14371 3.3045 -2.05
      vertex -3.60492 3.88518 -2
      vertex -3.60492 3.88518 -2.05
    endloop
  endfacet
  facet normal -0.733053 0.680171 0
    outer loop
      vertex -3.60492 3.88518 -2
      vertex -4.14371 3.3045 -2.05
      vertex -4.14371 3.3045 -2
    endloop
  endfacet
  facet normal -0.733053 0.680171 0
    outer loop
      vertex -4.14371 3.3045 0
      vertex -3.60492 3.88518 5
      vertex -3.60492 3.88518 0
    endloop
  endfacet
  facet normal -0.733053 0.680171 0
    outer loop
      vertex -3.60492 3.88518 5
      vertex -4.14371 3.3045 0
      vertex -4.14371 3.3045 5
    endloop
  endfacet
  facet normal -0.499996 0.866027 0
    outer loop
      vertex -2.29958 4.77514 0
      vertex -2.9856 4.37907 5
      vertex -2.29958 4.77514 5
    endloop
  endfacet
  facet normal -0.499996 0.866027 0
    outer loop
      vertex -2.9856 4.37907 5
      vertex -2.29958 4.77514 0
      vertex -2.9856 4.37907 0
    endloop
  endfacet
  facet normal -0.499996 0.866027 0
    outer loop
      vertex -2.29958 4.77514 -2.05
      vertex -2.9856 4.37907 -2
      vertex -2.29958 4.77514 -2
    endloop
  endfacet
  facet normal -0.499996 0.866027 0
    outer loop
      vertex -2.9856 4.37907 -2
      vertex -2.29958 4.77514 -2.05
      vertex -2.9856 4.37907 -2.05
    endloop
  endfacet
  facet normal -0.900966 0.433889 0
    outer loop
      vertex -4.93363 1.93631 -2.05
      vertex -4.58993 2.65 -2
      vertex -4.58993 2.65 -2.05
    endloop
  endfacet
  facet normal -0.900966 0.433889 0
    outer loop
      vertex -4.58993 2.65 -2
      vertex -4.93363 1.93631 -2.05
      vertex -4.93363 1.93631 -2
    endloop
  endfacet
  facet normal -0.900922 0.433981 0
    outer loop
      vertex -4.62377 2.57975 0
      vertex -4.58993 2.65 5
      vertex -4.58993 2.65 0
    endloop
  endfacet
  facet normal -0.900922 0.433981 0
    outer loop
      vertex -4.58993 2.65 5
      vertex -4.62377 2.57975 0
      vertex -4.62377 2.57975 5
    endloop
  endfacet
  facet normal -0.623489 -0.781832 0
    outer loop
      vertex -3.60492 -3.88517 -2.05
      vertex -2.9856 -4.37906 5
      vertex -3.60492 -3.88517 5
    endloop
  endfacet
  facet normal -0.623489 -0.781832 -0
    outer loop
      vertex -2.9856 -4.37906 5
      vertex -3.60492 -3.88517 -2.05
      vertex -2.9856 -4.37906 -2.05
    endloop
  endfacet
  facet normal -0.955572 -0.294757 0
    outer loop
      vertex -4.93363 -1.93631 -2.05
      vertex -5.16712 -1.17936 5
      vertex -5.16712 -1.17936 -2.05
    endloop
  endfacet
  facet normal -0.955572 -0.294757 0
    outer loop
      vertex -5.16712 -1.17936 5
      vertex -4.93363 -1.93631 -2.05
      vertex -4.93363 -1.93631 5
    endloop
  endfacet
  facet normal -0.733053 -0.680171 0
    outer loop
      vertex -3.60492 -3.88517 -2.05
      vertex -4.14371 -3.30449 5
      vertex -4.14371 -3.30449 -2.05
    endloop
  endfacet
  facet normal -0.733053 -0.680171 0
    outer loop
      vertex -4.14371 -3.30449 5
      vertex -3.60492 -3.88517 -2.05
      vertex -3.60492 -3.88517 5
    endloop
  endfacet
  facet normal -0.900971 -0.433879 0
    outer loop
      vertex -4.58994 -2.65 -2.05
      vertex -4.93363 -1.93631 5
      vertex -4.93363 -1.93631 -2.05
    endloop
  endfacet
  facet normal -0.900971 -0.433879 0
    outer loop
      vertex -4.93363 -1.93631 5
      vertex -4.58994 -2.65 -2.05
      vertex -4.58994 -2.65 5
    endloop
  endfacet
  facet normal -0.222525 -0.974927 0
    outer loop
      vertex -1.5622 -5.06453 -2.05
      vertex -0.789924 -5.2408 5
      vertex -1.5622 -5.06453 5
    endloop
  endfacet
  facet normal -0.222525 -0.974927 -0
    outer loop
      vertex -0.789924 -5.2408 5
      vertex -1.5622 -5.06453 -2.05
      vertex -0.789924 -5.2408 -2.05
    endloop
  endfacet
  facet normal 0.222513 -0.97493 0
    outer loop
      vertex 0.789924 -5.2408 -2.05
      vertex 1.5622 -5.06454 5
      vertex 0.789924 -5.2408 5
    endloop
  endfacet
  facet normal 0.222513 -0.97493 0
    outer loop
      vertex 1.5622 -5.06454 5
      vertex 0.789924 -5.2408 -2.05
      vertex 1.5622 -5.06454 -2.05
    endloop
  endfacet
  facet normal 0.900966 -0.433889 0
    outer loop
      vertex 4.58993 -2.65 5
      vertex 4.93363 -1.93631 -2.05
      vertex 4.93363 -1.93631 5
    endloop
  endfacet
  facet normal 0.900966 -0.433889 0
    outer loop
      vertex 4.93363 -1.93631 -2.05
      vertex 4.58993 -2.65 5
      vertex 4.58993 -2.65 -2.05
    endloop
  endfacet
  facet normal 0.623497 -0.781826 0
    outer loop
      vertex 2.9856 -4.37907 -2.05
      vertex 3.60492 -3.88517 5
      vertex 2.9856 -4.37907 5
    endloop
  endfacet
  facet normal 0.623497 -0.781826 0
    outer loop
      vertex 3.60492 -3.88517 5
      vertex 2.9856 -4.37907 -2.05
      vertex 3.60492 -3.88517 -2.05
    endloop
  endfacet
  facet normal 0.826245 0.563311 0
    outer loop
      vertex 4.58993 2.65 5
      vertex 4.14371 3.3045 -2.05
      vertex 4.14371 3.3045 5
    endloop
  endfacet
  facet normal 0.826245 0.563311 0
    outer loop
      vertex 4.14371 3.3045 -2.05
      vertex 4.58993 2.65 5
      vertex 4.58993 2.65 -2.05
    endloop
  endfacet
  facet normal 0.623489 0.781832 -0
    outer loop
      vertex 3.60492 3.88518 -2.05
      vertex 2.9856 4.37907 -2
      vertex 3.60492 3.88518 -2
    endloop
  endfacet
  facet normal 0.623489 0.781832 0
    outer loop
      vertex 2.9856 4.37907 -2
      vertex 3.60492 3.88518 -2.05
      vertex 2.9856 4.37907 -2.05
    endloop
  endfacet
  facet normal 1 -0 0
    outer loop
      vertex 5.28518 -0.396069 5
      vertex 5.28518 0.39607 -2.05
      vertex 5.28518 0.39607 5
    endloop
  endfacet
  facet normal 1 0 0
    outer loop
      vertex 5.28518 0.39607 -2.05
      vertex 5.28518 -0.396069 5
      vertex 5.28518 -0.396069 -2.05
    endloop
  endfacet
  facet normal 0.988831 -0.14904 0
    outer loop
      vertex 5.16712 -1.17936 5
      vertex 5.28518 -0.396069 -2.05
      vertex 5.28518 -0.396069 5
    endloop
  endfacet
  facet normal 0.988831 -0.14904 0
    outer loop
      vertex 5.28518 -0.396069 -2.05
      vertex 5.16712 -1.17936 5
      vertex 5.16712 -1.17936 -2.05
    endloop
  endfacet
  facet normal -0.222513 0.97493 0
    outer loop
      vertex -0.789924 5.2408 0
      vertex -1.5622 5.06454 5
      vertex -0.789924 5.2408 5
    endloop
  endfacet
  facet normal -0.222513 0.97493 0
    outer loop
      vertex -1.5622 5.06454 5
      vertex -0.789924 5.2408 0
      vertex -1.5622 5.06454 0
    endloop
  endfacet
  facet normal -0.222513 0.97493 0
    outer loop
      vertex -0.789924 5.2408 -2.05
      vertex -1.5622 5.06454 -2
      vertex -0.789924 5.2408 -2
    endloop
  endfacet
  facet normal -0.222513 0.97493 0
    outer loop
      vertex -1.5622 5.06454 -2
      vertex -0.789924 5.2408 -2.05
      vertex -1.5622 5.06454 -2.05
    endloop
  endfacet
  facet normal -0.0747344 0.997203 0
    outer loop
      vertex -5.61029e-07 5.3 0
      vertex -0.789924 5.2408 5
      vertex -5.61029e-07 5.3 5
    endloop
  endfacet
  facet normal -0.0747344 0.997203 0
    outer loop
      vertex -0.789924 5.2408 5
      vertex -5.61029e-07 5.3 0
      vertex -0.789924 5.2408 0
    endloop
  endfacet
  facet normal -0.0747344 0.997203 0
    outer loop
      vertex -5.61029e-07 5.3 -2.05
      vertex -0.789924 5.2408 -2
      vertex -5.61029e-07 5.3 -2
    endloop
  endfacet
  facet normal -0.0747344 0.997203 0
    outer loop
      vertex -0.789924 5.2408 -2
      vertex -5.61029e-07 5.3 -2.05
      vertex -0.789924 5.2408 -2.05
    endloop
  endfacet
  facet normal -0.826245 0.563311 0
    outer loop
      vertex -4.58993 2.65 -2.05
      vertex -4.14371 3.3045 -2
      vertex -4.14371 3.3045 -2.05
    endloop
  endfacet
  facet normal -0.826245 0.563311 0
    outer loop
      vertex -4.14371 3.3045 -2
      vertex -4.58993 2.65 -2.05
      vertex -4.58993 2.65 -2
    endloop
  endfacet
  facet normal -0.826245 0.563311 0
    outer loop
      vertex -4.58993 2.65 0
      vertex -4.14371 3.3045 5
      vertex -4.14371 3.3045 0
    endloop
  endfacet
  facet normal -0.826245 0.563311 0
    outer loop
      vertex -4.14371 3.3045 5
      vertex -4.58993 2.65 0
      vertex -4.58993 2.65 5
    endloop
  endfacet
  facet normal -0.826235 -0.563325 0
    outer loop
      vertex -4.14371 -3.30449 -2.05
      vertex -4.58994 -2.65 5
      vertex -4.58994 -2.65 -2.05
    endloop
  endfacet
  facet normal -0.826235 -0.563325 0
    outer loop
      vertex -4.58994 -2.65 5
      vertex -4.14371 -3.30449 -2.05
      vertex -4.14371 -3.30449 5
    endloop
  endfacet
  facet normal 0.988831 0.14904 0
    outer loop
      vertex 5.28518 0.39607 5
      vertex 5.16712 1.17936 -2.05
      vertex 5.16712 1.17936 5
    endloop
  endfacet
  facet normal 0.988831 0.14904 0
    outer loop
      vertex 5.16712 1.17936 -2.05
      vertex 5.28518 0.39607 5
      vertex 5.28518 0.39607 -2.05
    endloop
  endfacet
  facet normal -0.988831 0.14904 0
    outer loop
      vertex -5.28518 0.39607 -2.05
      vertex -5.16712 1.17936 -2
      vertex -5.16712 1.17936 -2.05
    endloop
  endfacet
  facet normal -0.988831 0.14904 0
    outer loop
      vertex -5.16712 1.17936 -2
      vertex -5.28518 0.39607 -2.05
      vertex -5.28518 0.39607 -2
    endloop
  endfacet
  facet normal -0.955572 0.294757 0
    outer loop
      vertex -5.16712 1.17936 -2.05
      vertex -4.93363 1.93631 -2
      vertex -4.93363 1.93631 -2.05
    endloop
  endfacet
  facet normal -0.955572 0.294757 0
    outer loop
      vertex -4.93363 1.93631 -2
      vertex -5.16712 1.17936 -2.05
      vertex -5.16712 1.17936 -2
    endloop
  endfacet
  facet normal -1 0 0
    outer loop
      vertex -5.28518 -0.396069 -2.05
      vertex -5.28518 0.39607 -2
      vertex -5.28518 0.39607 -2.05
    endloop
  endfacet
  facet normal -1 -0 0
    outer loop
      vertex -5.28518 0.39607 -2
      vertex -5.28518 -0.396069 -2.05
      vertex -5.28518 -0.396069 -2
    endloop
  endfacet
  facet normal -0.988831 -0.149043 0
    outer loop
      vertex -5.28518 -0.396069 -2.05
      vertex -5.23162 -0.751415 -2
      vertex -5.28518 -0.396069 -2
    endloop
  endfacet
  facet normal -0.988831 -0.14904 2.31576e-05
    outer loop
      vertex -5.16712 -1.17936 -2.05
      vertex -5.23162 -0.751415 -2
      vertex -5.28518 -0.396069 -2.05
    endloop
  endfacet
  facet normal -0.988832 -0.149037 -0
    outer loop
      vertex -5.16712 -1.17936 5
      vertex -5.23162 -0.751415 -2
      vertex -5.16712 -1.17936 -2.05
    endloop
  endfacet
  facet normal -0.988832 -0.149037 0
    outer loop
      vertex -5.23162 -0.751415 -2
      vertex -5.16712 -1.17936 5
      vertex -5.23162 -0.751415 5
    endloop
  endfacet
  facet normal 0 0 1
    outer loop
      vertex 2.76201 10.5359 5
      vertex 6.0521 11.0091 5
      vertex 5.90377 12.4204 5
    endloop
  endfacet
  facet normal 0 0 1
    outer loop
      vertex 6.0521 11.0091 5
      vertex 2.76201 10.5359 5
      vertex 6.02238 9.59036 5
    endloop
  endfacet
  facet normal 0 0 1
    outer loop
      vertex 2.5872 12.1992 5
      vertex 5.90377 12.4204 5
      vertex 5.57972 13.802 5
    endloop
  endfacet
  facet normal 0 0 1
    outer loop
      vertex 2.5872 8.87263 5
      vertex 6.02238 9.59036 5
      vertex 2.76201 10.5359 5
    endloop
  endfacet
  facet normal 0 0 1
    outer loop
      vertex 2.07038 13.7898 5
      vertex 5.57972 13.802 5
      vertex 5.08508 15.132 5
    endloop
  endfacet
  facet normal 0 0 1
    outer loop
      vertex 6.02238 9.59036 5
      vertex 2.5872 8.87263 5
      vertex 5.81508 8.18652 5
    endloop
  endfacet
  facet normal 0 0 1
    outer loop
      vertex 2.07038 13.7898 5
      vertex 5.08508 15.132 5
      vertex 4.42763 16.3896 5
    endloop
  endfacet
  facet normal 0 0 1
    outer loop
      vertex 5.81508 8.18652 5
      vertex 2.5872 8.87263 5
      vertex 5.43347 6.81973 5
    endloop
  endfacet
  facet normal -0 0 1
    outer loop
      vertex 2.07038 7.28203 5
      vertex 5.43347 6.81973 5
      vertex 2.5872 8.87263 5
    endloop
  endfacet
  facet normal 0 0 1
    outer loop
      vertex 1.23415 15.2382 5
      vertex 4.42763 16.3896 5
      vertex 3.61775 17.5549 5
    endloop
  endfacet
  facet normal 0 0 1
    outer loop
      vertex 5.16712 1.17936 5
      vertex 5.28518 -0.396069 5
      vertex 5.28518 0.39607 5
    endloop
  endfacet
  facet normal 0 0 1
    outer loop
      vertex 5.16712 1.17936 5
      vertex 5.16712 -1.17936 5
      vertex 5.28518 -0.396069 5
    endloop
  endfacet
  facet normal 0 0 1
    outer loop
      vertex 5.16712 1.17936 5
      vertex 4.93363 -1.93631 5
      vertex 5.16712 -1.17936 5
    endloop
  endfacet
  facet normal 0 0 1
    outer loop
      vertex 4.93363 1.93631 5
      vertex 4.93363 -1.93631 5
      vertex 5.16712 1.17936 5
    endloop
  endfacet
  facet normal 0 0 1
    outer loop
      vertex 4.93363 1.93631 5
      vertex 4.58993 -2.65 5
      vertex 4.93363 -1.93631 5
    endloop
  endfacet
  facet normal 0 0 1
    outer loop
      vertex 4.58993 2.65 5
      vertex 4.58993 -2.65 5
      vertex 4.93363 1.93631 5
    endloop
  endfacet
  facet normal 0 0 1
    outer loop
      vertex 3.75202 3.72663 5
      vertex 4.58993 2.65 5
      vertex 4.14371 3.3045 5
    endloop
  endfacet
  facet normal 0 0 1
    outer loop
      vertex 4.58993 2.65 5
      vertex 3.75202 3.72663 5
      vertex 4.58993 -2.65 5
    endloop
  endfacet
  facet normal 0 0 1
    outer loop
      vertex 4.58993 -2.65 5
      vertex 3.75202 3.72663 5
      vertex 4.14371 -3.3045 5
    endloop
  endfacet
  facet normal 0 0 1
    outer loop
      vertex 3.75202 3.72663 5
      vertex 3.60492 -3.88517 5
      vertex 4.14371 -3.3045 5
    endloop
  endfacet
  facet normal 0 0 1
    outer loop
      vertex 5.43347 6.81973 5
      vertex 2.07038 7.28203 5
      vertex 4.88356 5.51154 5
    endloop
  endfacet
  facet normal 0 0 1
    outer loop
      vertex 4.88356 5.51154 5
      vertex 2.07038 7.28203 5
      vertex 4.17402 4.2826 5
    endloop
  endfacet
  facet normal -0 0 1
    outer loop
      vertex 1.23415 5.83364 5
      vertex 4.17402 4.2826 5
      vertex 2.07038 7.28203 5
    endloop
  endfacet
  facet normal 0 0 1
    outer loop
      vertex 1.23415 15.2382 5
      vertex 3.61775 17.5549 5
      vertex 2.66821 18.6095 5
    endloop
  endfacet
  facet normal 0 0 1
    outer loop
      vertex 5.90377 12.4204 5
      vertex 2.5872 12.1992 5
      vertex 2.76201 10.5359 5
    endloop
  endfacet
  facet normal 0 0 1
    outer loop
      vertex 5.57972 13.802 5
      vertex 2.07038 13.7898 5
      vertex 2.5872 12.1992 5
    endloop
  endfacet
  facet normal 0 0 1
    outer loop
      vertex 0.115059 16.4811 5
      vertex 2.66821 18.6095 5
      vertex 1.59398 19.5367 5
    endloop
  endfacet
  facet normal 0 0 1
    outer loop
      vertex 4.42763 16.3896 5
      vertex 1.23415 15.2382 5
      vertex 2.07038 13.7898 5
    endloop
  endfacet
  facet normal 0 0 1
    outer loop
      vertex -1.23798 17.4641 5
      vertex 1.59398 19.5367 5
      vertex 0.412015 20.322 5
    endloop
  endfacet
  facet normal 0 0 1
    outer loop
      vertex 2.66821 18.6095 5
      vertex 0.115059 16.4811 5
      vertex 1.23415 15.2382 5
    endloop
  endfacet
  facet normal 0 0 1
    outer loop
      vertex -1.23798 17.4641 5
      vertex 0.412015 20.322 5
      vertex -0.859059 20.953 5
    endloop
  endfacet
  facet normal 0 0 1
    outer loop
      vertex 1.59398 19.5367 5
      vertex -1.23798 17.4641 5
      vertex 0.115059 16.4811 5
    endloop
  endfacet
  facet normal 0 0 1
    outer loop
      vertex -2.76585 18.1444 5
      vertex -0.859059 20.953 5
      vertex -2.19919 21.4197 5
    endloop
  endfacet
  facet normal 0 0 1
    outer loop
      vertex -0.859059 20.953 5
      vertex -2.76585 18.1444 5
      vertex -1.23798 17.4641 5
    endloop
  endfacet
  facet normal 0 0 1
    outer loop
      vertex -3.58725 21.7147 5
      vertex -2.76585 18.1444 5
      vertex -2.19919 21.4197 5
    endloop
  endfacet
  facet normal 0 0 1
    outer loop
      vertex -3.58725 21.7147 5
      vertex -4.40176 18.4921 5
      vertex -2.76585 18.1444 5
    endloop
  endfacet
  facet normal 0 0 1
    outer loop
      vertex -5.00134 21.8334 5
      vertex -4.40176 18.4921 5
      vertex -3.58725 21.7147 5
    endloop
  endfacet
  facet normal 0 0 1
    outer loop
      vertex -5.00134 21.8334 5
      vertex -6.07421 18.4921 5
      vertex -4.40176 18.4921 5
    endloop
  endfacet
  facet normal -0 0 1
    outer loop
      vertex -6.41916 21.774 5
      vertex -6.07421 18.4921 5
      vertex -5.00134 21.8334 5
    endloop
  endfacet
  facet normal -0 0 1
    outer loop
      vertex -7.81835 21.5374 5
      vertex -6.07421 18.4921 5
      vertex -6.41916 21.774 5
    endloop
  endfacet
  facet normal 0 0 1
    outer loop
      vertex -6.07421 18.4921 5
      vertex -7.81835 21.5374 5
      vertex -7.71012 18.1444 5
    endloop
  endfacet
  facet normal -0 0 1
    outer loop
      vertex -9.17685 21.1272 5
      vertex -7.71012 18.1444 5
      vertex -7.81835 21.5374 5
    endloop
  endfacet
  facet normal 0 0 1
    outer loop
      vertex -9.17685 21.1272 5
      vertex -9.23798 17.4641 5
      vertex -7.71012 18.1444 5
    endloop
  endfacet
  facet normal -0 0 1
    outer loop
      vertex -10.4732 20.55 5
      vertex -9.23798 17.4641 5
      vertex -9.17685 21.1272 5
    endloop
  endfacet
  facet normal -0 0 1
    outer loop
      vertex -11.687 19.8149 5
      vertex -9.23798 17.4641 5
      vertex -10.4732 20.55 5
    endloop
  endfacet
  facet normal 0 0 1
    outer loop
      vertex -9.23798 17.4641 5
      vertex -11.687 19.8149 5
      vertex -10.591 16.4811 5
    endloop
  endfacet
  facet normal -0 0 1
    outer loop
      vertex -12.7992 18.9335 5
      vertex -10.591 16.4811 5
      vertex -11.687 19.8149 5
    endloop
  endfacet
  facet normal -0 0 1
    outer loop
      vertex -13.792 17.9196 5
      vertex -10.591 16.4811 5
      vertex -12.7992 18.9335 5
    endloop
  endfacet
  facet normal 0 0 1
    outer loop
      vertex -10.591 16.4811 5
      vertex -13.792 17.9196 5
      vertex -11.7101 15.2382 5
    endloop
  endfacet
  facet normal -0 0 1
    outer loop
      vertex -14.65 16.7892 5
      vertex -11.7101 15.2382 5
      vertex -13.792 17.9196 5
    endloop
  endfacet
  facet normal 0 0 1
    outer loop
      vertex -11.7101 15.2382 5
      vertex -14.65 16.7892 5
      vertex -12.5463 13.7898 5
    endloop
  endfacet
  facet normal -0 0 1
    outer loop
      vertex -15.3595 15.5603 5
      vertex -12.5463 13.7898 5
      vertex -14.65 16.7892 5
    endloop
  endfacet
  facet normal 0 0 1
    outer loop
      vertex 4.17402 4.2826 5
      vertex 1.23415 5.83364 5
      vertex 3.75202 3.72663 5
    endloop
  endfacet
  facet normal -0 0 1
    outer loop
      vertex 0.706022 5.24709 5
      vertex 3.75202 3.72663 5
      vertex 1.23415 5.83364 5
    endloop
  endfacet
  facet normal 0 0 1
    outer loop
      vertex 3.75202 3.72663 5
      vertex 0.706022 5.24709 5
      vertex 3.60492 -3.88517 5
    endloop
  endfacet
  facet normal 0 0 1
    outer loop
      vertex 3.60492 -3.88517 5
      vertex 0.706022 5.24709 5
      vertex 2.9856 -4.37907 5
    endloop
  endfacet
  facet normal 0 0 1
    outer loop
      vertex 2.9856 -4.37907 5
      vertex 0.706022 5.24709 5
      vertex 2.29958 -4.77513 5
    endloop
  endfacet
  facet normal 0 0 1
    outer loop
      vertex 2.29958 -4.77513 5
      vertex 0.706022 5.24709 5
      vertex 1.5622 -5.06454 5
    endloop
  endfacet
  facet normal 0 0 1
    outer loop
      vertex 1.5622 -5.06454 5
      vertex 0.706022 5.24709 5
      vertex 0.789924 -5.2408 5
    endloop
  endfacet
  facet normal 0 0 1
    outer loop
      vertex -5.61029e-07 5.3 5
      vertex 0.789924 -5.2408 5
      vertex 0.706022 5.24709 5
    endloop
  endfacet
  facet normal 0 0 1
    outer loop
      vertex -5.61029e-07 5.3 5
      vertex -5.81688e-07 -5.3 5
      vertex 0.789924 -5.2408 5
    endloop
  endfacet
  facet normal -0 0 1
    outer loop
      vertex -0.789924 5.2408 5
      vertex -5.81688e-07 -5.3 5
      vertex -5.61029e-07 5.3 5
    endloop
  endfacet
  facet normal 0 0 1
    outer loop
      vertex -0.789924 5.2408 5
      vertex -0.789924 -5.2408 5
      vertex -5.81688e-07 -5.3 5
    endloop
  endfacet
  facet normal -0 0 1
    outer loop
      vertex -1.5622 5.06454 5
      vertex -0.789924 -5.2408 5
      vertex -0.789924 5.2408 5
    endloop
  endfacet
  facet normal 0 0 1
    outer loop
      vertex -1.5622 5.06454 5
      vertex -1.5622 -5.06453 5
      vertex -0.789924 -5.2408 5
    endloop
  endfacet
  facet normal 0 0 1
    outer loop
      vertex -1.5622 5.06454 5
      vertex -2.29958 -4.77513 5
      vertex -1.5622 -5.06453 5
    endloop
  endfacet
  facet normal -0 0 1
    outer loop
      vertex -2.29958 4.77514 5
      vertex -2.29958 -4.77513 5
      vertex -1.5622 5.06454 5
    endloop
  endfacet
  facet normal 0 0 1
    outer loop
      vertex -2.29958 4.77514 5
      vertex -2.9856 -4.37906 5
      vertex -2.29958 -4.77513 5
    endloop
  endfacet
  facet normal -0 0 1
    outer loop
      vertex -2.9856 4.37907 5
      vertex -2.9856 -4.37906 5
      vertex -2.29958 4.77514 5
    endloop
  endfacet
  facet normal -0 0 1
    outer loop
      vertex -3.60492 3.88518 5
      vertex -2.9856 -4.37906 5
      vertex -2.9856 4.37907 5
    endloop
  endfacet
  facet normal 0 0 1
    outer loop
      vertex -3.60492 3.88518 5
      vertex -3.60492 -3.88517 5
      vertex -2.9856 -4.37906 5
    endloop
  endfacet
  facet normal -0 0 1
    outer loop
      vertex -4.14371 3.3045 5
      vertex -3.60492 -3.88517 5
      vertex -3.60492 3.88518 5
    endloop
  endfacet
  facet normal 0 0 1
    outer loop
      vertex -4.14371 3.3045 5
      vertex -4.14371 -3.30449 5
      vertex -3.60492 -3.88517 5
    endloop
  endfacet
  facet normal 0 0 1
    outer loop
      vertex -4.62377 2.57975 5
      vertex -4.14371 3.3045 5
      vertex -4.58993 2.65 5
    endloop
  endfacet
  facet normal 0 0 1
    outer loop
      vertex -4.14371 3.3045 5
      vertex -4.62377 2.57975 5
      vertex -4.14371 -3.30449 5
    endloop
  endfacet
  facet normal -0 0 1
    outer loop
      vertex -5.23162 -0.751415 5
      vertex -4.14371 -3.30449 5
      vertex -4.62377 2.57975 5
    endloop
  endfacet
  facet normal 0 0 1
    outer loop
      vertex -4.14371 -3.30449 5
      vertex -5.23162 -0.751415 5
      vertex -4.58994 -2.65 5
    endloop
  endfacet
  facet normal 0 0 1
    outer loop
      vertex -4.58994 -2.65 5
      vertex -5.23162 -0.751415 5
      vertex -4.93363 -1.93631 5
    endloop
  endfacet
  facet normal 0 0 1
    outer loop
      vertex -4.93363 -1.93631 5
      vertex -5.23162 -0.751415 5
      vertex -5.16712 -1.17936 5
    endloop
  endfacet
  facet normal -0 0 1
    outer loop
      vertex -6.07421 2.57975 5
      vertex -5.23162 -0.751415 5
      vertex -4.62377 2.57975 5
    endloop
  endfacet
  facet normal 0 0 1
    outer loop
      vertex -5.23162 -0.751415 5
      vertex -6.07421 2.57975 5
      vertex -5.47463 -0.7616 5
    endloop
  endfacet
  facet normal 0 0 1
    outer loop
      vertex -6.07421 2.57975 5
      vertex -6.88872 -0.642856 5
      vertex -5.47463 -0.7616 5
    endloop
  endfacet
  facet normal 0 0 1
    outer loop
      vertex -7.71012 2.92747 5
      vertex -6.88872 -0.642856 5
      vertex -6.07421 2.57975 5
    endloop
  endfacet
  facet normal 0 0 1
    outer loop
      vertex -7.71012 2.92747 5
      vertex -8.27678 -0.347816 5
      vertex -6.88872 -0.642856 5
    endloop
  endfacet
  facet normal 0 0 1
    outer loop
      vertex -9.61691 0.118867 5
      vertex -7.71012 2.92747 5
      vertex -9.23798 3.60772 5
    endloop
  endfacet
  facet normal 0 0 1
    outer loop
      vertex -7.71012 2.92747 5
      vertex -9.61691 0.118867 5
      vertex -8.27678 -0.347816 5
    endloop
  endfacet
  facet normal 0 0 1
    outer loop
      vertex -12.07 1.53513 5
      vertex -9.23798 3.60772 5
      vertex -10.591 4.59076 5
    endloop
  endfacet
  facet normal 0 0 1
    outer loop
      vertex -9.23798 3.60772 5
      vertex -10.888 0.749834 5
      vertex -9.61691 0.118867 5
    endloop
  endfacet
  facet normal 0 0 1
    outer loop
      vertex -13.1442 2.46238 5
      vertex -10.591 4.59076 5
      vertex -11.7101 5.83364 5
    endloop
  endfacet
  facet normal 0 0 1
    outer loop
      vertex -9.23798 3.60772 5
      vertex -12.07 1.53513 5
      vertex -10.888 0.749834 5
    endloop
  endfacet
  facet normal 0 0 1
    outer loop
      vertex -14.9036 4.68222 5
      vertex -11.7101 5.83364 5
      vertex -12.5463 7.28203 5
    endloop
  endfacet
  facet normal 0 0 1
    outer loop
      vertex -16.0557 7.26986 5
      vertex -12.5463 7.28203 5
      vertex -13.0632 8.87263 5
    endloop
  endfacet
  facet normal 0 0 1
    outer loop
      vertex -10.591 4.59076 5
      vertex -13.1442 2.46238 5
      vertex -12.07 1.53513 5
    endloop
  endfacet
  facet normal 0 0 1
    outer loop
      vertex -16.3797 8.65143 5
      vertex -13.0632 8.87263 5
      vertex -13.238 10.5359 5
    endloop
  endfacet
  facet normal -0 0 1
    outer loop
      vertex -15.9094 14.2521 5
      vertex -12.5463 13.7898 5
      vertex -15.3595 15.5603 5
    endloop
  endfacet
  facet normal 0 0 1
    outer loop
      vertex -11.7101 5.83364 5
      vertex -14.0937 3.51695 5
      vertex -13.1442 2.46238 5
    endloop
  endfacet
  facet normal 0 0 1
    outer loop
      vertex -12.5463 13.7898 5
      vertex -15.9094 14.2521 5
      vertex -13.0632 12.1992 5
    endloop
  endfacet
  facet normal 0 0 1
    outer loop
      vertex -11.7101 5.83364 5
      vertex -14.9036 4.68222 5
      vertex -14.0937 3.51695 5
    endloop
  endfacet
  facet normal -0 0 1
    outer loop
      vertex -16.2911 12.8853 5
      vertex -13.0632 12.1992 5
      vertex -15.9094 14.2521 5
    endloop
  endfacet
  facet normal 0 0 1
    outer loop
      vertex -12.5463 7.28203 5
      vertex -15.561 5.9398 5
      vertex -14.9036 4.68222 5
    endloop
  endfacet
  facet normal 0 0 1
    outer loop
      vertex -16.4984 11.4815 5
      vertex -13.0632 12.1992 5
      vertex -16.2911 12.8853 5
    endloop
  endfacet
  facet normal 0 0 1
    outer loop
      vertex -12.5463 7.28203 5
      vertex -16.0557 7.26986 5
      vertex -15.561 5.9398 5
    endloop
  endfacet
  facet normal 0 0 1
    outer loop
      vertex -13.0632 12.1992 5
      vertex -16.4984 11.4815 5
      vertex -13.238 10.5359 5
    endloop
  endfacet
  facet normal 0 0 1
    outer loop
      vertex -13.0632 8.87263 5
      vertex -16.3797 8.65143 5
      vertex -16.0557 7.26986 5
    endloop
  endfacet
  facet normal 0 0 1
    outer loop
      vertex -16.5281 10.0627 5
      vertex -13.238 10.5359 5
      vertex -16.4984 11.4815 5
    endloop
  endfacet
  facet normal 0 0 1
    outer loop
      vertex -13.238 10.5359 5
      vertex -16.5281 10.0627 5
      vertex -16.3797 8.65143 5
    endloop
  endfacet
endsolid OpenSCAD_Model
